<svg width="56" height="56" viewBox="0 0 56 56" fill="none" xmlns="http://www.w3.org/2000/svg">
<path d="M28 14C28 12.7167 26.95 11.6667 25.6667 11.6667H13.58L15.12 4.24667L15.1667 3.71C15.1667 2.98667 14.8633 2.33333 14.3967 1.84333L12.5533 0L1.02667 11.5267C0.396667 12.1567 0 13.0433 0 14V29.1667C0 31.1033 1.56333 32.6667 3.5 32.6667H19.25C20.6967 32.6667 21.9333 31.78 22.47 30.5433L27.7433 18.2C27.9067 17.8033 28 17.36 28 16.9167V14ZM52.5 23.3333H36.75C35.3033 23.3333 34.0667 24.22 33.53 25.4567L28.2567 37.8C28.0933 38.1967 28 38.64 28 39.0833V42C28 43.2833 29.05 44.3333 30.3333 44.3333H42.42L40.88 51.7533L40.8333 52.3133C40.8333 53.0367 41.1367 53.69 41.6033 54.18L43.4467 56L54.9733 44.4733C55.6033 43.8433 56 42.9567 56 42V26.8333C56 24.8967 54.4367 23.3333 52.5 23.3333Z" fill="black"/>
</svg>
