<?xml version="1.0" encoding="UTF-8"?><svg id="_레이어_1" xmlns="http://www.w3.org/2000/svg" viewBox="0 0 766.95 688.11"><path d="M731.69,404.57c-4.62,1.53-8.69,4.15-12.77,6.75-24.45,15.65-46.71,34.26-69.59,52-11.17,8.66-23.45,11.85-36.99,9.17-15.2-3.01-30.27-6.44-45.94-5.39-2.15,.14-4.44,.96-6.97-.13,.76-.81,1.17-1.29,1.63-1.73,24.64-24.04,42.94-52.24,53.03-85.13,8.74-28.51,15.37-57.6,13.75-87.83-.52-9.64-.88-19.31-1.96-28.89-1.76-15.66-3.4-31.38-6.34-46.84-2.39-12.55-7.34-24.51-11.79-36.53-11.65-31.51-26.44-61.08-51.11-84.75-9.6-9.21-19.17-18.46-28.37-28.07-6-6.26-9.27-15.52-19.5-16.86-19.35-14.31-41.79-22.15-64.44-28.58-32.84-9.31-66.4-11.61-100.35-5.5-23.26,4.18-45.57,11.08-66.77,21.35-4.39,2.13-6.71,3.08-8.6-2.23-.7-1.97-2.22-3.7-3.56-5.4-5.18-6.57-11.67-8.04-18.95-3.83-7.31,4.23-13.4,9.95-17.17,17.63-4.53,9.24-9.7,18.25-11.93,28.47-.27,1.26-.23,2.7-2.04,3-4.19,.7-7.03,3.66-10.03,6.26-18.43,16.02-34.51,34.17-49.13,53.69-24.01,32.05-38.34,67.89-42.48,107.72-1.98,19.08-3.2,38.32-1.23,57.37,2.91,28.21,9.57,55.67,20.15,82.13,6.34,15.87,14.52,30.68,24.3,44.6,23.27,33.16,56.69,53.97,91.24,72.87,14.36,7.86,30.83,11.32,46.78,15.38,16.39,4.17,33.23,5.04,50,6.06,13.96,.85,27.96,1.62,41.96,.91,11.12-.56,22.21-1.57,34.02-2.44-4.73,9.21-9.87,17.3-13.17,26.09-6.46,17.17-8.8,35.11-6.73,53.48,3.33,29.44,17.63,50.93,45.17,63.23,17.16,7.67,35.15,10.91,53.72,12.02,28.67,1.71,56.87,.48,83.47-12.17,8.2-3.9,17.68-5.55,23.82-12.97,5.04-6.09,11.21-10.87,17.06-16.05,3.12-2.76,5.8-5.94,8.39-9.23,12.83-16.3,21.22-34.92,28.34-54.19,5.18-14.03,10.39-27.96,10.07-43.46-.16-7.7,1.38-15.98,7.51-21.65,9.28-8.59,18.86-16.88,28.73-24.77,15.73-12.58,31.74-24.83,45.78-39.35,5.54-5.73,8.64-13.13,7.45-20.78-1.86-11.94-16.53-19.39-28.43-15.44Zm-139.7-237.61c10.8,22.85,16.57,46.93,21.14,71.3,2.12,11.28,2.11,22.84,3.28,34.24,2.56,24.88,1.59,49.6-3.66,74-5.45,25.3-13.23,49.83-27.27,71.93-14.88,23.42-32.32,44.39-56.22,59.26-4.23,2.63-8.12,5.77-12.88,7.55-2.35,.88-3.43,.76-4.26-1.89-4.6-14.8-7.99-29.81-9.3-45.32-1.31-15.49-1.55-31.06,.18-46.38,2.83-25.03,5.14-50.14,13.16-74.44,8.3-25.14,16.56-50.26,27.72-74.27,12.24-26.34,27.16-51.13,45.62-73.66,.7-.85,1.13-2.09,2.48-2.33Zm-33.66,334.62c.06,0,.12,0,.18,0,.21,3.48,.15,7,.7,10.41,.45,2.77-.75,3.49-3.04,3.88-4.74,.81-9.47,1.66-14.18,2.65-1.95,.41-3.11,.44-3.24-2.08-.47-9.27-1.05-18.53-1.69-27.79-.14-1.96,.87-2.21,2.36-2.19,5.31,.08,10.62,.19,15.92,.22,2.39,.01,3.1,1.17,3.02,3.43-.14,3.81-.04,7.63-.04,11.44Zm-46.29,73.5s-.02,0-.03,0c0-1,0-1.99,0-2.99q-.03-11.74,11.4-13.6c3.44-.57,6.87-1.17,10.27-1.93,2.17-.48,2.93,.14,3.08,2.39,.51,7.78,1.16,15.56,1.89,23.32,.25,2.61-.4,3.85-3.27,4.22-6.75,.87-13.46,2.01-20.15,3.26-2.53,.47-3.29-.26-3.22-2.7,.11-3.98,.03-7.98,.03-11.96Zm.14-31.97c0-.25,0-.23,0-.09q.43-12.9,12.14-15.35c9.79-2.05,9.83-2.05,10.47,8.08,.29,4.56,2.88,10.31-.22,13.36-2.69,2.64-8.39,2.33-12.79,3.08-9.79,1.66-9.8,1.6-9.6-8.56,0-.24,0-.48,0-.61,0,.03,0,.06,0,.09Zm20.99-42.09c.16,.81,.1,1.66,.19,3.34-.32,4.61,2.5,11.58-.74,15.09-2.94,3.19-9.99,2.41-15.1,3.85-4.16,1.17-4.75-.32-4.42-4.02,.68-7.62,1.09-15.26,1.43-22.91,.08-1.69,.28-2.93,2.02-3.49,.31-.1,.58-.33,.88-.46,4.73-2.04,10.19-6.42,14.3-4.61,4.51,1.98,.57,8.67,1.44,13.2Zm-16.71,94.77c6.58-.86,13.15-1.92,19.67-3.14,2.86-.54,3.3,.64,3.53,3.1,.77,8.27,1.93,16.5,2.63,24.77,.4,4.74,1.34,9.27,3.93,13.21,1.38,2.11,.08,2.45-1.15,3.29-7.8,5.31-16.77,6.9-25.76,8.25-2.58,.38-3.27-.18-3.74-3.17-2.15-13.68-2.13-27.48-3.15-41.22-.26-3.51,.77-4.65,4.04-5.08Zm28.9-1.97c-.29-1.85,.68-2.28,2.23-2.44,5.96-.6,11.93-1.18,17.87-1.97,2.71-.36,3.47,.84,3.74,3.22,.75,6.44,1.64,12.87,2.46,19.31,.28,2.21,.53,4.68,3.51,4.47,2.98-.21,3.06-2.78,2.86-4.93-.62-6.45-1.34-12.9-2.23-19.32-.38-2.72,.32-3.81,3.2-4.12,4.1-.45,8.34-.57,12.09-2.72,1.15-.66,2.78-1.08,2.5-2.67-.25-1.44-1.89-1.85-3.16-2.11-4.19-.86-8.25,.62-12.37,.98-2.52,.22-3.58-.18-4.01-2.81-1.37-8.37-2.8-16.74-4.57-25.03-.69-3.22,.17-4.03,3.24-4.33,10.26-1.01,20.44-2.89,30.79-3.08,1.32-.02,2.64-.35,3.95-.58,2.22-.4,4.65-1.01,4.09-3.9-.52-2.71-2.97-2.73-5.24-2.51-11.09,1.09-22.26,1.59-33.23,3.66-4.14,.78-5.73-.49-5.95-4.55-.26-4.82-.64-9.65-1.36-14.41-.46-3.06,.55-4.14,3.49-4.5,7.44-.9,14.83-2.17,22.36-2.21,2.58-.01,5.55-.31,5.29-3.74-.24-3.29-3.34-2.64-5.55-2.66-7.7-.08-15.27,1.28-22.78,2.75-2.85,.55-3.94,0-4.16-2.9-.5-6.81-1.11-13.6-1.81-20.39-.19-1.89,.39-2.37,2.15-2.12,13.9,1.97,28.32,2.07,38.86,13.97,3.24,3.66,4.92,7.81,7.03,11.9,14.58,28.25,11.13,54.72-7.5,79.98-13.24,17.94-30.38,30.51-50.91,39.02-5.87-12.58-4.81-26.19-6.89-39.25Zm18.13-39.86c1.26,8.05,2.61,16.09,4.12,24.09,.68,3.61-.26,5.06-4.17,5.2-4.97,.17-9.93,1.01-14.86,1.73-2.69,.39-3.87-.27-4.08-3.24-.56-8.13-1.44-16.24-2.2-24.36-.44-1.91,.43-2.69,2.27-3.02,5.08-.9,10.14-1.89,15.19-2.94,2.23-.46,3.34,.1,3.72,2.53Zm-4.89-8.84c-4.76,.73-9.48,1.68-14.18,2.71-2.33,.51-3.33,0-3.44-2.56-.22-4.97-.71-9.93-1.14-15.54-1.42-3.95,.58-5.61,5.04-5.86,3.12-.18,6.33-.72,9.28-1.74,4.7-1.62,6.17,.24,6.36,4.64,.2,4.81,.61,9.61,1.14,14.39,.28,2.52-.53,3.58-3.05,3.96Zm-70.63,58.45c-.17-2.03,.46-2.96,2.64-3.23,4.12-.51,8.25-1.15,12.26-2.17,3.2-.82,3.79,.08,3.98,3.22,.76,12.75,.3,25.6,2.73,38.24,.34,1.76,.59,3.55,.91,5.42-6.84,.72-13.55-.83-20.33-1.07-1.26-.04-1.82-.39-1.89-2.09-.46-12.78,.76-25.56-.3-38.33Zm-.05-56.62q-.15-12.62,12.23-14.75c7.39-1.27,7.45-1.27,7.31,6.07-.09,4.65-.54,9.3-.54,13.95,0,2.57-1.18,3.46-3.45,3.89-4.08,.77-8.17,1.59-12.17,2.67-2.81,.76-3.55-.19-3.41-2.85,.15-2.99,.04-5.99,.04-8.98Zm.01,20.56c.05-1.49,1.04-1.86,2.28-2.11,4.55-.92,9.1-1.84,13.62-2.88,2.24-.52,2.95,.2,2.87,2.45-.14,3.98-.04,7.96-.04,11.95h-.04c0,.17,0,.33,0,.5-.03,15.21-.9,16.05-16.35,17.05-2.23,.14-3.15-.49-3.09-2.58,.23-8.12,.5-16.24,.75-24.36Zm20.15-45.01c-.2,2.05-1.17,2.81-3.08,3.13-4.74,.78-9.49,1.62-14.18,2.66-2.64,.59-3.06-.49-3.07-2.79-.02-6.46,.56-12.95-.52-19.38-.21-1.26,0-2.27,1.41-2.76,7.16-2.49,14.3-5.01,22.28-7.81-1.05,9.83-2.01,18.39-2.85,26.95Zm80.75-364.24c.85,1.8,1.05,3.12-.6,4.82-28.74,29.72-47.15,65.71-62.55,103.51-8.85,21.73-16.82,43.89-22.06,66.66-7.89,34.28-11,69.26-8.76,104.53,1,15.84,4.35,31.25,9.34,46.29,1.15,3.46,1.12,5.44-2.94,6.52-4.65,1.23-9.17,2.97-13.68,4.68-2.31,.87-3.18,.66-4.13-2.02-7.08-20.03-11.16-40.51-12.78-61.78-1.59-20.89,2.56-41.04,4.73-61.48,3.22-30.26,12.54-59.12,21.06-88.08,5.2-17.69,13.77-34.22,22.39-50.55,14.02-26.57,30.84-51.31,49.42-74.9,4.09-5.2,7.67-10.8,11.91-16.84,3.05,6.59,5.8,12.64,8.64,18.65Zm-107.03,399.1c.01,2.35-.6,3.59-3.14,4.05-4.23,.77-8.43,1.79-12.55,3.03-2.87,.87-3.46-.13-3.33-2.73,.15-2.98,.03-5.96,.03-8.95q.25-12.32,12.37-15.4c1.12-.29,2.26-.53,3.36-.88,2.82-.91,3.76-.12,3.57,2.99-.36,5.95-.36,11.92-.33,17.89Zm-.15,77.75c0,2.47,0,4.94,0,7.77-21.15-3.87-37.95-13.76-48.63-33.03,7.04,.15,13.38-1.98,19.84-3.32,3.25-.67,5.14-.74,5.19,3.65,.08,6.64,.96,13.26,1.5,19.89,.16,1.98-.02,4.51,2.91,4.17,2.84-.33,2.2-2.83,2.07-4.78-.45-6.97-.84-13.95-1.46-20.91-.26-2.96,.69-4.17,3.71-4.44,3.63-.32,7.26-1.01,10.82-1.83,3.09-.71,4.12,.13,4.07,3.38-.16,9.82-.03,19.64-.02,29.46Zm-24.03-100.87c.01,1.57-.64,2.49-2.13,2.89-6.35,1.73-12.69,3.47-19.45,5.32,4.79-10.3,13.3-19.6,21.56-23.9,0,5.2-.03,10.44,.02,15.69Zm-3.33,8.47c2.48-.67,3.34-.22,3.21,2.4-.32,6.32-.61,12.64-.67,18.96-.02,2.53-1.44,2.89-3.36,3.37-8.86,2.25-17.74,4.5-26.45,8.49,.9-8.92,2.17-17.41,5.03-25.61,.65-1.85,1.63-2.82,3.81-3.24,6.2-1.19,12.35-2.72,18.45-4.37Zm-24.38,36.8c7.56-1.88,15.09-3.91,22.58-6.04,3.65-1.04,4.63,.29,4.35,3.78-.25,3.13-.05,6.3-.05,9.45,.57,4.45,2.6,9.99,.17,13.04-2.16,2.72-7.82,2.67-11.94,3.83-3.19,.9-6.72,1.21-9.49,2.83-3.51,2.04-4.1,.34-5.12-2.34-2.45-6.44-3.75-13.01-3.65-19.92,.03-2.47,.47-3.97,3.15-4.63Zm50.92,13.51c.11,2.33-.72,3.35-2.97,3.54-1.31,.11-2.61,.46-3.92,.67-3.41,.53-7.67,3.18-9.96,1.38-2.57-2.02-.7-6.79-1.04-10.34-.11-1.15-.11-2.32-.04-3.48,.29-4.42-1.94-10.01,.86-12.93,2.52-2.62,7.99-2.46,12.17-3.44,5.67-1.33,5.68-1.3,5.53,6-.65,5.36-.97,11.98-.64,18.61Zm-1-62.31c-4.38,1.02-8.73,2.16-13.05,3.41-2.74,.79-4.07,.33-3.77-2.87,.21-2.31,.04-4.66,.04-8.35-2.07-6.98,1.63-11.34,9.56-13.33,2.83-.71,5.31-2.72,8.03-3.95,2.13-.96,3.38-.61,3.14,2.28-.53,6.47-.89,12.96-1.14,19.45-.08,2.06-.9,2.91-2.82,3.36ZM207.48,90.59c2.23-1.63,4.32-3.44,7.4-5.92-1.42,13.03-.31,24.66,2.53,36.15-9.01,1.46-8.87,1.45-9.56-7.17-.47-5.78-1.02-11.61-2.33-17.24-.66-2.85-.13-4.29,1.97-5.83Zm-76.54,259.54c-4.46-16.22-7.62-32.68-9.9-49.31-2.3-16.76,.12-33.57-.24-50.33-.36-17.04,5.92-32.29,10.45-48.08,4.66-16.22,11.03-31.75,19.81-46.16,8.72-14.29,17.86-28.33,30.59-41.05,6.16,96.29-3.05,189.51-31.3,281.27-7.61-15.27-14.97-30.14-19.42-46.34Zm23.97,56.62c-.29-.51-.51-1.43-.25-1.82,5.79-8.72,5.91-19.17,8.79-28.77,7.46-24.86,13.06-50.15,16.94-75.82,3.71-24.51,7.18-49.12,8.22-73.84,1.3-31.07,2.66-62.22,.22-93.33-.52-6.63-1.18-13.25-1.94-19.85-.3-2.57,.43-4.43,2.35-6.14,3.82-3.39,7.5-6.96,12.24-11.4,.94,17.37,2.26,33.07,2.34,48.86,.16,30.5-1.64,60.94-3.39,91.34-1.75,30.36-3.41,60.83-8.73,90.85-4.11,23.21-7.9,46.55-15.07,69.09-3.01,9.47-6.69,18.72-8.67,29.6-5.95-6.11-9.52-12.43-13.05-18.78Zm244.16,106.34c-2.67,.25-5.28-.1-7.92-.62-7.41-1.45-14.83-1.04-22.35-.48-14.97,1.11-30.02,.07-44.89-1.25-11.64-1.03-23.13-4.58-34.52-7.6-22.75-6.04-44.97-13.83-64.76-26.78-18.24-11.94-35.83-24.92-50.37-41.48-1.87-2.13-4.67-4.14-.35-6.72,.86-.51,1.41-1.9,1.67-2.99,5.43-22.43,13.6-44.08,17.83-66.89,5.31-28.65,9.28-57.37,11.62-86.43,3.06-37.89,4.14-75.79,3.8-113.77,0-.59,.07-1.18,.95-2.3,.17,.45,.34,.9,.52,1.35,4.39,11.08,12.86,18.92,21.54,26.44,3,2.6,2.64,3.96,.44,6.62-2.75,3.31-5.14,6.97-7.32,10.7-3.34,5.7-2.91,8.27,2.32,12.48,7.09,5.71,15.73,8.48,23.96,12.01,1.45,.62,3.01,.99,4.84,1.58-2.21,2.5-4.75,2.46-7.16,2.2-20.78-2.24-27.09,18.99-20.21,32.94,15.88,32.19,42.53,49.26,77.14,55.18,6.71,1.15,13.45,2.26,20.22,2.94,11.98,1.2,23.9,.35,35.75-1.72,11.78-2.07,23.63-3.72,35.01-7.73,5.69-2.01,11.28-4.16,16.17-7.67,3.59-2.58,5.73-2.94,7.12,2.05,.9,3.25,3.07,5.85,6.32,7.38,2.25,1.05,4.29,1.02,5.79-1.05,1.48-2.06,1.07-4.25-.81-5.82-5.51-4.6-5.6-11.43-7.39-17.54-.6-2.04,.65-3.57,2.46-4.42,1.8-.85,3.7-1.47,5.56-2.2,4.32-1.72,5.43-4.69,2.9-8.63-2.88-4.48-5.81-8.94-9.07-13.14-4.56-5.88-6.77-12.4-7.04-19.8-.13-3.66,1.17-5.98,4.39-7.58,6.11-3.03,12.21-6.09,18.2-9.35,7.8-4.24,14.92-9.48,20.97-15.99,2.34-2.52,4.16-2.77,6.46-.26,.55,.6,1.34,.98,2.05,1.41,10.68,6.53,22.69-.12,23.05-12.79,.07-2.5,.04-5-.01-7.5-.06-2.52-1.28-4.3-3.89-4.2-2.33,.09-3.38,1.83-3.49,4.12-.12,2.65,0,5.36-.46,7.95-1.22,6.73-5.85,8.71-11.41,4.97-1.78-1.2-3.42-2.64-5.02-4.09-3.75-3.4-5.81-3.32-9.15,.49-14.95,17.02-34.43,26.36-55.74,32.28-8.69,2.42-8.97,1.89-10.28-6.92-.54-3.6-.32-7.3-.54-10.95-.2-3.21-.86-4.56-4.98-3.3-12.37,3.76-24.1,9.22-36.68,12.55-17.98,4.75-35.94,6.4-54.32,4.26-8.25-.96-16.59-.93-24.77-2.66-13.28-2.81-25.55-8.25-37.71-14.03-3.4-1.62-3.67-3.69-1.6-6.65,2.48-3.54,4.66-7.29,7.11-10.86,3.49-5.07,3.44-6.95-.96-11.14-3.5-3.33-7.21-6.42-10.69-9.77-10.62-10.2-17.68-22.31-19.62-37.12-.32-2.42-1.34-5.13,2.28-6.08,3.4-.89,6.81-2.18,9.25,1.94,5.41,9.18,12.96,16,22.85,20.08,1.83,.75,3.75,1.47,5.69,1.72,4.73,.62,6.4-.96,6.81-6.02,0,0,0,0,0,0-1.63-2.25-4.01-3.2-6.52-4.11-15.58-5.66-24.07-16.82-26.3-33.23-3.12-22.94,3.68-43.4,15.23-62.66,2.73-4.54,6.61-8.26,11.25-11.15,3.79-2.36,6.62-1.58,8.89,1.89,1.82,2.77,3.74,5.57,4.99,8.61,6.45,15.68,12.64,31.47,19.06,47.16,2.2,5.38,2.3,11.44,5.58,16.43,1.34,.89,.95,2.29,1.05,3.54,.2,2.62,1.54,3.4,3.95,2.45h0c2.74-8.05-.3-15.6-2.83-22.81-4.56-13.01-9.96-25.72-15.34-38.42-1.69-3.99-1.34-5.95,2.89-7.78,26.71-11.53,54.18-19.61,83.4-22.16,27.11-2.37,53.65,.64,79.43,7.85,18.73,5.24,37.69,11.16,54.11,22.51,1.34,.93,3.05,1.42,4.04,3.53-11.91,5.9-22.21,14.26-33.05,21.85-18.15,12.72-32.98,28.9-47.79,45.12-.78,.85-1.43,1.85-1.98,2.86-1.06,1.94-2.22,4.3-.43,6.01,1.9,1.82,3.55-.58,5.22-1.43,0,0,0,0,0,0,0,0,0,0,0,0,16.56-17.83,34.61-33.98,54.38-48.19,8.5-6.11,16.79-12.54,26.18-17.3,1.04-.52,2.04-1.11,3.11-1.56,7.92-3.34,9.95-2.58,13.55,5.17,2.66,5.72,5.79,11.3,7.78,17.25,6.88,20.57,6.82,40.43-9.13,57.23-8.11,8.54-19.2,12.14-30.36,15.13-6.3,1.69-12.75,2.05-19.21,2.42,0,0,0,0,0,0,0,0,0,0,0,0-1.83,1.49-3.83,3.02-2.64,5.77,1.09,2.52,3.5,2.89,5.9,2.83,15.62-.41,30.08-4.9,43.44-12.82,24.78-14.7,29.52-45.28,20.84-72.03-.2-.63-.42-1.26-.63-1.89,0,0,0,0,0,0h0c-1.1-1.01-1.79-2.17-1.51-3.8,1.41,.51,2.18,1.45,2.59,2.74,14.48,15.23,28.12,31.11,39.17,49.09,1.81,2.95,1.75,4.91-.28,7.5-7.81,9.96-15.37,20.12-23.21,30.04-25.82,32.67-45.65,68.79-60.39,107.57-6.12,16.1-9.59,33.2-14.31,49.82-6.03,21.24-7.91,43.09-11.18,64.75-4.47,29.6-2.26,58.68,5.46,87.44,1.64,6.09,3.62,12.11,5.8,18.03,1.03,2.81,.46,4.03-2.21,5.27-9.36,4.33-19.42,5.57-29.42,7.29-15.28,2.63-30.73,3.43-46.13,4.89ZM257.54,237.64c-2.62-2.52-.84-3.13,1.17-3.89,3.25-1.23,5.66-3.79,10.03-3.12,6.2,.96,10.67,2.23,9.7,9.75-.08,.61,.26,1.3,.48,1.93,2.03,5.59,5.96,8.75,10.03,8.08,4.48-.74,8.17-5.54,7.77-11.34-.26-3.77,.96-4.04,4.24-4.08,9.46-.1,18.98,1,28.38-.68,3.22-.57,3.9,.43,3.84,3.53-.09,4.85,1.72,9.07,5.57,12.31,6.96,5.87,16.4,3.12,19.05-5.62,1.38-4.54,1.8-9.2,.77-13.82-.45-2.04-.14-2.84,1.77-3.74,4.36-2.05,8.66-4.27,12.78-6.76,4.42-2.67,9.39-1.39,14-2.68,.53,5.14,.85,10.11,1.6,15.02,.89,5.85,3.28,7.35,8.92,6.1,.65-.14,1.3-.3,1.96-.4,3.61-.57,7.77-2.5,10.68-1.33,3.69,1.48,1.09,6.33,1.66,9.66,1.57,9.12,6.21,16.73,11.23,24.17,1.61,2.38,2.62,3.95-1.05,5.47-5.03,2.08-7.35,6.21-6.53,11.64,.56,3.73-1.09,5.55-4.06,7.47-11.88,7.68-25.22,10.81-38.82,13.45-16.53,3.21-33.13,6.34-49.96,3.67-19.86-3.14-39.96-6.55-56.96-18.14-13.18-8.98-23.38-21.1-30.01-35.88h0s0,0,0,0c-.98-.68-1.81-2.07-1.09-2.68,1.11-.95,1.75,.59,2.39,1.4h0c5.92,.99,19.52-6.48,21.48-11.95,.93-2.6,1.05-5.54-1.02-7.54Zm423.53,255.06c-13.33,9.65-17.84,23.57-18.34,39.17-.39,12.26-4.64,23.4-9.13,34.5-6.88,16.96-13.75,33.91-24.74,48.83-4.89,6.64-10.37,12.54-16.79,17.68-5.72,4.58-11.39,9.24-16.78,14.2-3.58,3.29-8.07,4.44-12.2,6.51-27.06,13.56-55.85,14.96-85.25,12.85-15.49-1.11-30.52-3.83-45.31-8.94-16.24-5.61-27.06-16.5-35.4-30.83-7.96-13.69-10.69-28.3-9.74-44.04,.68-11.37,1.93-22.56,5.7-33.28,3.54-10.04,8.87-19.31,13.57-28.85,.62-1.27,1.82-1.42,2.92-1.61,7.17-1.21,14.36-2.35,22.88-3.73-3.11,3.05-5.26,5.28-7.55,7.38-16.23,14.85-23.64,33.5-25.32,55.22-2.21,28.44,10.09,48.89,33.49,63.27,10.12,6.22,21.67,9.4,33.6,10.18,6.8,.44,13.63,.76,20.41,1.21,22.49,1.48,42.26-6.54,61.06-17.22,19.18-10.9,36.01-25.07,47.03-44.45,15.55-27.35,17.31-55.4,.6-83.3-4.16-6.95-10.05-11.84-17.19-15.49-14.35-7.34-29.51-11.09-45.66-10.78-3.47,.07-6.93,0-11.14,0,5.32-4.62,10.1-8.34,17.29-7.95,11.44,.62,22.9-.31,34.33,1.95,5.8,1.15,10.74,4.2,16.51,5.31,17.09,3.27,31.89-1.35,45.2-11.96,9.04-7.2,10.47-7.11,17.38,2.03,3.82,5.05,7.16,10.4,9.79,16.21,1.13,2.49,1.16,4.21-1.23,5.94Zm19.84-17.05c-2.96,2.65-6,5.23-8.9,7.95-1.87,1.75-2.83,1.91-4.28-.71-4.68-8.42-9.82-16.59-17.9-22.28-1.67-1.17-1.42-1.85-.07-2.91,2.34-1.85,4.6-3.81,6.94-5.66,6.43-5.08,8.41-4.99,13.49,1.29,4.07,5.02,7.87,10.26,10.6,16.18,.55,1.2,1,2.45,1.4,3.45,.35,1.47-.56,2.04-1.28,2.68Zm7.73-5.61c-5.52-10.37-11.59-19.23-20.63-25.6-.07-1.39,1.12-1.65,1.82-2.21,7.72-6.13,10.42-5.76,17.1,1.88,4.57,5.23,6.42,11.68,7.88,18.12,.92,4.04-4.11,4.53-6.17,7.8Zm12.5-10.26c-4.13-11.11-8.42-21.15-19.42-26.01,7.7-9.78,14.95-5.92,20.12,.34,3.92,4.75,5.99,10.28,6.79,16.28,.74,5.52-5,5.63-7.48,9.39Zm13.4-12c-3.19-11.49-8.61-19.77-19.11-24.04,1.46-2.02,3.9-2.83,5.88-4.22,4.58-3.21,8-2.67,11.41,1.78,3.2,4.17,4.67,9.09,5.74,14.14,.17,.81-.07,1.86,.36,2.43,4.36,5.77-1.54,6.62-4.28,9.91Zm10.16-10.49c-2.18-9.18-4.45-18.27-14.1-22.76,6.75-4.55,16.5-2.92,20.55,3.11,3.73,5.55,.93,14.5-6.45,19.65Z" fill="#322625"/><path d="M98.57,392.32c-6.45-4.53-13.8-6.46-21.17-8.43-16.26-4.36-31.66-1.6-45.1,8.05-17.35,12.45-25.48,30.13-25.71,51.42-.24,14.72,3.33,27.95,13.71,38.95,7.89,8.36,18.46,10.87,28.81,13.88,5.73,1.67,11.58,3.28,17.68,1.95,5.82-1.27,11.68-2.4,17.42-3.95,21.01-5.64,34.73-18.76,39.99-40.05,1.79-7.26,.76-14.81-1.36-21.73-4.67-15.3-10.25-30.25-24.28-40.09Zm-78.17,20.91c2.12,17.15,3.99,32.83-4.52,47.84-5.16-10.74-3.12-34.94,4.52-47.84Zm-.29,49.46c8.72-13.78,8.1-29.12,5.25-44.5-.36-1.96-.91-3.89-1.51-5.79-1.62-5.07-1.53-5.38,3.72-8.84,5.24,24.03,8.45,47.55-5.54,70.21-4.23-3.63-4.96-6.27-1.91-11.09Zm77.46,19.44c-14.88,8.43-30.35,11.99-47.26,6.7-7.75-2.42-15.93-3.57-22.45-9.04-1.51-1.26-2.68-2.02-1.05-4.32,8.07-11.32,10.22-24.31,10.23-37.84,0-11.94-1.79-23.55-6.53-34.54-1.31-3.05,.84-3.57,2.33-4.47,11.37-6.92,23.93-8.79,36.93-7.85,6.42,.46,12.83,1.29,19.04,3.41,3.92,1.34,7.01,3.7,10.24,6,2.29,1.63,.69,3.21,.01,4.75-8.84,20.09-10.5,40.69-4.22,61.79,1.08,3.65,2.54,7.22,4.23,10.63,1.19,2.39,.6,3.56-1.52,4.76Zm8.95-6.39c-2.58,1.4-2.66-1.36-3.32-2.43-5.79-9.38-7.17-19.89-7.44-30.63-.05-11.46,1.86-22.56,6.28-33.12,.54-1.29,0-4.91,3.09-3.49,2.82,1.3,6.4,3.1,4.18,7.44-4.01,7.83-5.84,16.2-6.84,24.85-1.32,11.45-.44,22.59,4.28,33.23,.68,1.53,1.96,2.95-.23,4.14Zm4.89-6.97c-7.2-17.77-5.41-34.5,.25-52.02,6.52,9.98,10.1,40.36-.25,52.02Z" fill="#322625"/><path d="M474.61,500.92c2.67-1.24,3.24-2.46,2.21-5.27-2.17-5.92-4.16-11.94-5.8-18.03-7.72-28.76-9.93-57.84-5.46-87.44,3.27-21.67,5.15-43.51,11.18-64.75,4.72-16.63,8.19-33.73,14.31-49.82,14.74-38.78,34.57-74.9,60.39-107.57,7.85-9.93,15.41-20.08,23.21-30.04,2.03-2.59,2.09-4.55,.28-7.5-11.06-17.98-24.69-33.87-39.17-49.09-.36,.36-.72,.71-1.08,1.07,0,0,0,0,0,0,.21,.63,.43,1.26,.63,1.89,8.68,26.76,3.93,57.33-20.84,72.03-13.36,7.92-27.82,12.42-43.44,12.82-2.4,.06-4.81-.31-5.9-2.83-1.19-2.75,.81-4.27,2.64-5.77,0,0,0,0,0,0-.21-.14-.44-.24-.7-.29,0,0,0,0,0,0,0,0,0,0,0,0-2.64,.03-5.28,.07-7.92,.11h0c.36,2.39,.58,4.85-2.25,5.87-2.89,1.04-4.68-.78-6.18-2.95-3.78-5.48-7.9-10.68-12.47-15.52-3.66-3.87-7.23-7.7-12.39-9.75-2.61-1.04-5.14-2.81-3.63-6.48h0c-.25-.38-.5-.75-.75-1.12,0,0,0,0,0,0-1.67,.85-3.32,3.25-5.22,1.43-1.78-1.71-.62-4.08,.43-6.01,.55-1.01,1.2-2.01,1.98-2.86,14.81-16.22,29.63-32.4,47.79-45.12,10.84-7.59,21.14-15.95,33.05-21.85-1-2.11-2.7-2.6-4.04-3.53-16.42-11.35-35.38-17.27-54.11-22.51-25.78-7.21-52.32-10.22-79.43-7.85-29.22,2.55-56.68,10.63-83.4,22.16-4.23,1.83-4.58,3.79-2.89,7.78,5.38,12.7,10.79,25.42,15.34,38.42,2.53,7.22,5.57,14.77,2.83,22.81,.29,1.17-.97,2.92,1.69,3.12,1.97,.15,3.18,1.87,3.16,3.92-.01,2.06-1.32,3.57-3.24,3.95-12.09,2.44-20.05,10.57-27.4,19.61-.94,1.16-1.99,2.52-3.65,2.26-2.03-.32-1.5-2.27-1.82-3.65,0,0,0,0,0,0-.29-.03-.58,0-.87,.1,0,0,0,0,0,0,0,0,0,0,0,0-1.69,.59-3.37,1.17-5.06,1.76,0,0,0,0,0,0,0,0,0,0,0,0-.41,5.06-2.08,6.65-6.81,6.02-1.94-.26-3.86-.97-5.69-1.72-9.89-4.09-17.44-10.91-22.85-20.08-2.43-4.12-5.85-2.83-9.25-1.94-3.62,.95-2.6,3.66-2.28,6.08,1.94,14.8,9,26.92,19.62,37.12,3.48,3.34,7.19,6.44,10.69,9.77,4.4,4.18,4.45,6.06,.96,11.14-2.45,3.56-4.63,7.32-7.11,10.86-2.07,2.96-1.81,5.03,1.6,6.65,12.16,5.78,24.43,11.22,37.71,14.03,8.18,1.73,16.52,1.7,24.77,2.66,18.39,2.14,36.34,.48,54.32-4.26,12.58-3.32,24.31-8.78,36.68-12.55,4.12-1.25,4.78,.09,4.98,3.3,.23,3.65,0,7.36,.54,10.95,1.31,8.81,1.59,9.34,10.28,6.92,21.3-5.93,40.79-15.26,55.74-32.28,3.34-3.81,5.4-3.89,9.15-.49,1.6,1.45,3.23,2.89,5.02,4.09,5.55,3.74,10.18,1.76,11.41-4.97,.47-2.59,.34-5.3,.46-7.95,.1-2.29,1.16-4.03,3.49-4.12,2.61-.1,3.84,1.69,3.89,4.2,.06,2.5,.08,5,.01,7.5-.36,12.67-12.37,19.32-23.05,12.79-.71-.43-1.5-.82-2.05-1.41-2.3-2.51-4.13-2.25-6.46,.26-6.05,6.51-13.17,11.75-20.97,15.99-5.99,3.26-12.09,6.32-18.2,9.35-3.22,1.6-4.53,3.91-4.39,7.58,.26,7.4,2.48,13.92,7.04,19.8,3.26,4.2,6.19,8.67,9.07,13.14,2.53,3.93,1.42,6.91-2.9,8.63-1.85,.74-3.76,1.35-5.56,2.2-1.8,.85-3.05,2.38-2.46,4.42,1.79,6.11,1.88,12.94,7.39,17.54,1.88,1.57,2.28,3.76,.81,5.82-1.49,2.08-3.54,2.11-5.79,1.05-3.25-1.52-5.41-4.13-6.32-7.38-1.39-4.99-3.53-4.63-7.12-2.05-4.89,3.51-10.48,5.67-16.17,7.67-11.38,4.01-23.23,5.67-35.01,7.73-11.84,2.08-23.77,2.93-35.75,1.72-6.77-.68-13.51-1.79-20.22-2.94-34.62-5.92-61.27-22.99-77.14-55.18-6.88-13.95-.57-35.17,20.21-32.94,2.4,.26,4.94,.3,7.16-2.2-1.83-.59-3.39-.96-4.84-1.58-8.22-3.53-16.87-6.31-23.96-12.01-5.23-4.21-5.66-6.78-2.32-12.48,2.18-3.72,4.57-7.38,7.32-10.7,2.2-2.65,2.57-4.01-.44-6.62-8.68-7.52-17.15-15.37-21.54-26.44-.18-.45-.35-.9-.52-1.35-.88,1.12-.95,1.71-.95,2.3,.34,37.98-.74,75.88-3.8,113.77-2.34,29.06-6.32,57.78-11.62,86.43-4.23,22.81-12.4,44.46-17.83,66.89-.26,1.09-.81,2.48-1.67,2.99-4.32,2.58-1.52,4.6,.35,6.72,14.54,16.55,32.13,29.53,50.37,41.48,19.78,12.95,42,20.74,64.76,26.78,11.4,3.02,22.88,6.56,34.52,7.6,14.87,1.32,29.92,2.37,44.89,1.25,7.53-.56,14.94-.97,22.35,.48,2.64,.52,5.25,.87,7.92,.62,15.39-1.45,30.85-2.26,46.13-4.89,10-1.72,20.05-2.96,29.42-7.29Z" fill="#d4e062"/><path d="M516.16,317.22c-8.02,24.31-10.34,49.41-13.16,74.44-1.73,15.32-1.49,30.89-.18,46.38,1.31,15.5,4.69,30.51,9.3,45.32,.83,2.66,1.91,2.77,4.26,1.89,4.76-1.78,8.66-4.92,12.88-7.55,23.9-14.86,41.34-35.83,56.22-59.26,14.04-22.11,21.83-46.64,27.27-71.93,5.25-24.4,6.22-49.13,3.66-74-1.17-11.41-1.17-22.96-3.28-34.24-4.57-24.38-10.34-48.45-21.14-71.3-1.35,.24-1.78,1.47-2.48,2.33-18.46,22.54-33.38,47.32-45.62,73.66-11.16,24.01-19.42,49.12-27.72,74.27Z" fill="#d4e062"/><path d="M672.5,470.55c-6.91-9.14-8.34-9.23-17.38-2.03-13.31,10.61-28.11,15.23-45.2,11.96-5.77-1.1-10.71-4.16-16.51-5.31-11.43-2.26-22.89-1.33-34.33-1.95-7.19-.39-11.97,3.32-17.29,7.95,4.21,0,7.68,.06,11.14,0,16.14-.31,31.3,3.43,45.66,10.78,7.14,3.65,13.02,8.54,17.19,15.49,16.71,27.9,14.94,55.95-.6,83.3-11.02,19.38-27.85,33.55-47.03,44.45-18.79,10.68-38.57,18.7-61.06,17.22-6.79-.45-13.62-.77-20.41-1.21-11.94-.78-23.48-3.95-33.6-10.18-23.4-14.39-35.7-34.83-33.49-63.27,1.68-21.72,9.1-40.37,25.32-55.22,2.29-2.09,4.44-4.33,7.55-7.38-8.53,1.38-15.71,2.52-22.88,3.73-1.1,.19-2.29,.35-2.92,1.61-4.7,9.54-10.03,18.81-13.57,28.85-3.78,10.72-5.02,21.91-5.7,33.28-.95,15.74,1.78,30.35,9.74,44.04,8.33,14.33,19.16,25.22,35.4,30.83,14.8,5.11,29.82,7.83,45.31,8.94,29.4,2.11,58.19,.71,85.25-12.85,4.13-2.07,8.61-3.21,12.2-6.51,5.39-4.96,11.06-9.62,16.78-14.2,6.42-5.14,11.9-11.04,16.79-17.68,10.99-14.92,17.87-31.87,24.74-48.83,4.5-11.1,8.74-22.24,9.13-34.5,.5-15.59,5.01-29.52,18.34-39.17,2.39-1.73,2.35-3.45,1.23-5.94-2.63-5.8-5.97-11.16-9.79-16.21Z" fill="#69a0c0"/><path d="M181.66,115.21c-12.73,12.72-21.88,26.76-30.59,41.05-8.78,14.41-15.15,29.94-19.81,46.16-4.54,15.78-10.82,31.04-10.45,48.08,.36,16.76-2.07,33.56,.24,50.33,2.28,16.63,5.44,33.09,9.9,49.31,4.45,16.2,11.81,31.07,19.42,46.34,28.25-91.76,37.46-184.98,31.3-281.27Z" fill="#d4e062"/><path d="M237.08,257.12h0c-.43,.43-.87,.85-1.3,1.28h0c6.63,14.78,16.83,26.9,30.01,35.88,17,11.59,37.11,14.99,56.96,18.14,16.83,2.67,33.43-.47,49.96-3.67,13.6-2.64,26.94-5.77,38.82-13.45,2.97-1.92,4.63-3.74,4.06-7.47-.82-5.43,1.51-9.56,6.53-11.64,3.66-1.51,2.66-3.09,1.05-5.47-5.02-7.44-9.66-15.05-11.23-24.17-.57-3.33,2.02-8.18-1.66-9.66-2.92-1.17-7.08,.76-10.68,1.33-.66,.1-1.31,.26-1.96,.4-5.64,1.25-8.04-.25-8.92-6.1-.74-4.91-1.07-9.88-1.6-15.02-4.61,1.28-9.58,0-14,2.68-4.12,2.49-8.42,4.71-12.78,6.76-1.91,.9-2.22,1.7-1.77,3.74,1.02,4.62,.6,9.28-.77,13.82-2.65,8.75-12.09,11.49-19.05,5.62-3.84-3.24-5.65-7.47-5.57-12.31,.06-3.1-.62-4.1-3.84-3.53-9.4,1.68-18.92,.57-28.38,.68-3.29,.04-4.5,.31-4.24,4.08,.4,5.8-3.29,10.6-7.77,11.34-4.06,.67-8-2.49-10.03-8.08-.23-.62-.56-1.31-.48-1.93,.97-7.53-3.5-8.79-9.7-9.75-4.37-.68-6.78,1.89-10.03,3.12-2.01,.76-3.79,1.37-1.17,3.89,2.07,2,1.95,4.94,1.02,7.54-1.96,5.47-15.55,12.94-21.48,11.95Zm130,12.41c1.37-1.49,2.68-1.01,3.73,.35,1.09,1.41,2.02,2.95,3.01,4.44,0,0,0,0,.01,.01-.02-2.42-1.75-5.47,1.92-6.63,2.23-.71,7.78,3.95,7.82,6.5,.04,3.15-1.94,4.35-4.87,3.91-2.27-.34-3.52-2.16-4.87-3.78,0,0,0,0,0,0l-.02-.03c.13,2.41-.69,4.4-3.21,4.8-2.12,.33-3.14-1.46-3.94-3.14-1.06-2.21-1.43-4.41,.42-6.43Zm-12.31,6.89c.07-2.81,.8-5.63,4.09-5.67,2.47-.03,1.87,2.57,2.06,4.4-.28,2.32-.18,5.1-3.72,5.15-2.74,.04-2.48-2.1-2.43-3.88Zm-71.99-9.48c.02-2.18,0-4.95,2.78-4.88,2.81,.07,3.15,2.89,3.32,4.79,.05,2.7-.53,4.54-3.22,4.39-2.71-.15-2.91-2.21-2.89-4.31Zm-9.71-1.19c.26-2.3,1.2-4.72,3.85-4.99,1.91-.19,1.88,1.82,1.97,2.93-.03,2.43-.27,4.41-2.94,4.58-1.71,.11-3.08-.78-2.88-2.53Zm-4.21-6.22c1.49-.43,2.85,.46,2.74,2.02-.2,2.81-1.59,4.98-4.29,5.78-2.23,0-3.51-.91-3.39-2.96,.17-3.01,2.51-4.13,4.94-4.84Z" fill="#fdebd1"/><path d="M518.85,231.35c-8.62,16.33-17.19,32.86-22.39,50.55-8.52,28.96-17.84,57.82-21.06,88.08-2.18,20.44-6.32,40.59-4.73,61.48,1.62,21.27,5.7,41.75,12.78,61.78,.95,2.68,1.82,2.89,4.13,2.02,4.51-1.7,9.03-3.45,13.68-4.68,4.07-1.08,4.09-3.06,2.94-6.52-4.99-15.04-8.34-30.45-9.34-46.29-2.23-35.27,.87-70.25,8.76-104.53,5.24-22.77,13.21-44.93,22.06-66.66,15.4-37.8,33.81-73.78,62.55-103.51,1.65-1.71,1.45-3.02,.6-4.82-2.84-6.01-5.6-12.06-8.64-18.65-4.25,6.03-7.82,11.64-11.91,16.84-18.58,23.59-35.4,48.33-49.42,74.9Z" fill="#fff"/><path d="M191.7,326.84c5.32-30.02,6.98-60.49,8.73-90.85,1.75-30.4,3.55-60.84,3.39-91.34-.08-15.79-1.41-31.49-2.34-48.86-4.75,4.44-8.42,8-12.24,11.4-1.92,1.71-2.64,3.57-2.35,6.14,.76,6.6,1.42,13.22,1.94,19.85,2.44,31.11,1.08,62.26-.22,93.33-1.03,24.72-4.51,49.33-8.22,73.84-3.88,25.67-9.49,50.96-16.94,75.82-2.88,9.6-3.01,20.05-8.79,28.77-.26,.39-.03,1.3,.25,1.82,3.53,6.34,7.11,12.66,13.05,18.78,1.98-10.88,5.65-20.13,8.67-29.6,7.17-22.55,10.96-45.88,15.07-69.09Z" fill="#fff"/><path d="M422.22,131.59s0,0,0,0c6.18,.59,11.39,3.51,16.4,6.88,.44-.44,.88-.88,1.32-1.32-1.03-4.47,.57-8.1,3.45-11.44,11.87-13.82,26.94-23.64,41.94-33.52,3.73-2.45,7.39-5.02,11.83-6.3,10.22-2.94,15,2.08,18.67,10.88,.96,2.31-.35,4.17-2.02,5.74-.05,22-9.36,38.99-27.76,50.97-5.1,3.32-11.27,3.83-16.88,5.82-.76,.27-1.66,.15-2.1,1.02,0,0,0,0,0,0,.25,.05,.48,.14,.7,.29,0,0,0,0,0,0,6.46-.36,12.91-.73,19.21-2.42,11.16-2.99,22.25-6.59,30.36-15.13,15.95-16.8,16.01-36.65,9.13-57.23-1.99-5.95-5.12-11.52-7.78-17.25-3.6-7.75-5.63-8.51-13.55-5.17-1.07,.45-2.08,1.04-3.11,1.56-9.39,4.76-17.68,11.19-26.18,17.3-19.78,14.21-37.83,30.36-54.38,48.19,0,0,0,0,0,0,.25,.37,.5,.75,.75,1.12h0Z" fill="#fdebd1"/><path d="M261.67,142.66s0,0,0,0c-10.5-2.57-16.52-10.07-20.63-19.31-3.87-8.7-5.23-18.02-6.45-27.46-1.17-9.09-.03-17.83,1.32-26.65,.32-2.09,1.38-4.07,2.09-6.1-.47-4.75,2.52-7.4,6.14-9.25,3.58-1.83,5.97,1.1,8.19,3.17,8.66,8.11,13.87,18.51,18.57,29.15,4.36,9.87,7.05,20.32,10.06,30.66,.37,1.26,0,4.3,2.48,2.91,2.27-1.27,6.94-.69,5.98-5.51-.46-2.3-.75-4.57-.61-6.91h0c-3.28-4.99-3.38-11.06-5.58-16.43-6.43-15.69-12.61-31.48-19.06-47.16-1.25-3.04-3.17-5.83-4.99-8.61-2.27-3.46-5.11-4.25-8.89-1.89-4.64,2.89-8.52,6.6-11.25,11.15-11.55,19.26-18.35,39.72-15.23,62.66,2.23,16.41,10.71,27.57,26.3,33.23,2.51,.91,4.9,1.87,6.52,4.11,0,0,0,0,0,0,1.69-.59,3.37-1.17,5.06-1.76Z" fill="#fdebd1"/><path d="M289.41,114.26c.96,4.82-3.71,4.24-5.98,5.51-2.49,1.39-2.12-1.66-2.48-2.91-3.01-10.33-5.7-20.78-10.06-30.66-4.7-10.64-9.91-21.04-18.57-29.15-2.21-2.07-4.61-5-8.19-3.17-3.62,1.85-6.61,4.5-6.14,9.25,.16-.03,.32-.08,.49-.09,2.76-.25,3.79-4.8,6.61-3.51,3.14,1.45,4.93,4.87,6.7,7.84,8.5,14.18,14.29,29.51,18.66,45.4,1.05,3.81,1.51,7.86,3.88,11.19,1.44,2.03-.58,2.56-1.4,3.56-3.87,4.73-8.45,8.97-10.4,15.04h0s0,0,0,0c.32,1.37-.21,3.32,1.82,3.65,1.66,.26,2.71-1.1,3.65-2.26,7.35-9.03,15.3-17.17,27.4-19.61,1.92-.39,3.23-1.9,3.24-3.95,.01-2.04-1.19-3.76-3.16-3.92-2.66-.21-1.41-1.96-1.69-3.12h0c-2.41,.96-3.75,.17-3.95-2.45-.1-1.26,.29-2.66-1.05-3.54h0c-.14,2.33,.15,4.61,.61,6.91Z" fill="#322625"/><path d="M700.78,469.52c-2.73-5.92-6.53-11.16-10.6-16.18-5.09-6.28-7.06-6.37-13.49-1.29-2.34,1.85-4.6,3.81-6.94,5.66-1.35,1.07-1.6,1.74,.07,2.91,8.09,5.69,13.22,13.86,17.9,22.28,1.45,2.62,2.42,2.46,4.28,.71,2.9-2.72,5.94-5.3,8.9-7.95,.72-.64,1.63-1.22,1.28-2.68-.4-1-.85-2.25-1.4-3.45Z" fill="#fff"/><path d="M512.18,543.11s0-.06,0-.09c0-.14,0-.16,0,.09Z" fill="#fefefe"/><path d="M706.93,444.11c-6.68-7.65-9.38-8.01-17.1-1.88-.7,.56-1.89,.81-1.82,2.21,9.04,6.37,15.11,15.24,20.63,25.6,2.06-3.27,7.09-3.77,6.17-7.8-1.46-6.44-3.31-12.9-7.88-18.12Z" fill="#fefefe"/><path d="M721.83,434.11c-5.17-6.26-12.42-10.12-20.12-.34,11,4.85,15.29,14.9,19.42,26.01,2.48-3.77,8.22-3.87,7.48-9.39-.8-5.99-2.87-11.53-6.79-16.28Z" fill="#fefefe"/><path d="M738.46,435.44c-1.07-5.06-2.55-9.98-5.74-14.14-3.41-4.45-6.83-4.99-11.41-1.78-1.98,1.39-4.42,2.21-5.88,4.22,10.5,4.27,15.92,12.56,19.11,24.04,2.74-3.29,8.64-4.14,4.28-9.91-.43-.57-.19-1.62-.36-2.43Z" fill="#fdfdfd"/><path d="M207.84,113.66c.7,8.62,.55,8.63,9.56,7.17-2.83-11.49-3.94-23.12-2.53-36.15-3.08,2.48-5.17,4.29-7.4,5.92-2.1,1.53-2.63,2.98-1.97,5.83,1.31,5.63,1.86,11.46,2.33,17.24Z" fill="#d2de60"/><path d="M730.6,414.53c9.66,4.49,11.92,13.58,14.1,22.76,7.37-5.15,10.18-14.1,6.45-19.65-4.05-6.03-13.8-7.66-20.55-3.11Z" fill="#689ebe"/><path d="M533.16,78.66c-.27,1.63,.41,2.8,1.51,3.8h0c.36-.36,.72-.71,1.08-1.07-.41-1.28-1.19-2.23-2.59-2.74Z" fill="#989c47"/><path d="M237.08,257.12c-.64-.81-1.28-2.35-2.39-1.4-.72,.62,.11,2,1.09,2.68h0c.43-.43,.87-.85,1.3-1.28h0Z" fill="#c1b09d"/><path d="M94.85,466.74c-6.28-21.1-4.62-41.7,4.22-61.79,.68-1.55,2.28-3.13-.01-4.75-3.24-2.31-6.33-4.67-10.24-6-6.22-2.12-12.62-2.95-19.04-3.41-13-.94-25.56,.93-36.93,7.85-1.49,.9-3.64,1.42-2.33,4.47,4.73,10.98,6.52,22.6,6.53,34.54-.01,13.53-2.16,26.52-10.23,37.84-1.64,2.3-.46,3.05,1.05,4.32,6.52,5.47,14.69,6.61,22.45,9.04,16.91,5.29,32.38,1.73,47.26-6.7,2.12-1.2,2.7-2.37,1.52-4.76-1.69-3.41-3.15-6.99-4.23-10.63Z" fill="#d4e062"/><path d="M102.46,438.37c1-8.65,2.83-17.03,6.84-24.85,2.22-4.34-1.35-6.15-4.18-7.44-3.09-1.42-2.55,2.2-3.09,3.49-4.42,10.57-6.33,21.66-6.28,33.12,.27,10.74,1.65,21.24,7.44,30.63,.66,1.07,.74,3.83,3.32,2.43,2.19-1.19,.91-2.61,.23-4.14-4.73-10.64-5.6-21.79-4.28-33.23Z" fill="#fefefe"/><path d="M111.4,468.77c10.35-11.66,6.77-42.04,.25-52.02-5.65,17.52-7.44,34.26-.25,52.02Z" fill="#d3e061"/><path d="M27.56,403.57c-5.25,3.46-5.34,3.77-3.72,8.84,.61,1.9,1.15,3.83,1.51,5.79,2.85,15.38,3.48,30.72-5.25,44.5-3.05,4.82-2.32,7.46,1.91,11.09,13.99-22.66,10.79-46.18,5.54-70.21Z" fill="#fdfdfd"/><path d="M20.39,413.23c-7.64,12.91-9.68,37.11-4.52,47.84,8.51-15.01,6.65-30.7,4.52-47.84Z" fill="#d2df61"/><path d="M469.17,159.29c5.61-1.99,11.78-2.5,16.88-5.82,18.4-11.98,27.71-28.97,27.76-50.97-3.44,.44-5.54-1.14-7.1-4.15-3.11-6.01-6.31-7.33-11.9-3.96-15.91,9.59-31.04,20.26-44.62,33.07-3.43,3.24-3.81,7.39-5.55,11.14,0,0,0,0,0,0-2.58,1.82,.17,3.51,.12,5.27h0s0,0,0,0c5.33,5.06,10.17,10.54,14.38,16.56,0,0,0,0,0,0h0c2.64-.04,5.28-.07,7.92-.11,0,0,0,0,0,0,.44-.88,1.34-.76,2.1-1.02Z" fill="#f3a9aa"/><path d="M272.94,127.52c.82-1.01,2.84-1.54,1.4-3.56-2.37-3.34-2.83-7.38-3.88-11.19-4.37-15.9-10.16-31.22-18.66-45.4-1.77-2.96-3.56-6.39-6.7-7.84-2.82-1.3-3.84,3.26-6.61,3.51-.16,.01-.33,.06-.49,.09-.72,2.03-1.77,4.01-2.09,6.1-1.34,8.82-2.49,17.57-1.32,26.65,1.22,9.44,2.59,18.76,6.45,27.46,4.11,9.24,10.13,16.75,20.63,19.31,0,0,0,0,0,0,.28-.09,.57-.12,.87-.1h0c1.95-6.07,6.53-10.3,10.4-15.04Z" fill="#f3a9aa"/><path d="M444.77,143.86s0,0,0,0c-2.05-1.8-4.09-3.6-6.14-5.4-5.02-3.37-10.22-6.29-16.4-6.88,0,0,0,0,0,0-1.51,3.67,1.02,5.44,3.63,6.48,5.16,2.06,8.74,5.88,12.39,9.75,4.58,4.85,8.69,10.04,12.47,15.52,1.5,2.18,3.29,3.99,6.18,2.95,2.83-1.02,2.61-3.48,2.25-5.87,0,0,0,0,0,0-4.21-6.03-9.05-11.51-14.38-16.56Z" fill="#332725"/><path d="M373.81,274.3l.02,.03s0,0,0,0c0,0,0,0-.01-.01,0,0,0,.01,.01,.02,0,0-.02-.03-.02-.03Z" fill="#f4acac"/><path d="M378.7,278.11c2.94,.44,4.91-.77,4.87-3.91-.03-2.55-5.58-7.21-7.82-6.5-3.67,1.16-1.95,4.21-1.92,6.63,1.35,1.62,2.6,3.44,4.87,3.78Z" fill="#f4acac"/><path d="M370.6,279.1c2.52-.4,3.35-2.39,3.21-4.8,0,0,.02,.03,.02,.03,0,0,0-.01-.01-.02-1-1.48-1.92-3.02-3.01-4.44-1.05-1.36-2.36-1.83-3.73-.35-1.85,2.02-1.48,4.22-.42,6.43,.8,1.67,1.82,3.47,3.94,3.14Z" fill="#f5b4b0"/><path d="M357.21,280.3c3.53-.05,3.43-2.83,3.72-5.15-.19-1.83,.41-4.43-2.06-4.4-3.28,.04-4.01,2.86-4.09,5.67-.05,1.79-.31,3.93,2.43,3.88Z" fill="#f4acac"/><path d="M285.67,271.25c2.69,.15,3.27-1.69,3.22-4.39-.18-1.9-.51-4.73-3.32-4.79-2.78-.07-2.76,2.7-2.78,4.88-.02,2.1,.18,4.16,2.89,4.31Z" fill="#f4abab"/><path d="M267.31,267.33c2.7-.8,4.09-2.97,4.29-5.78,.11-1.56-1.24-2.45-2.74-2.02-2.44,.7-4.77,1.83-4.94,4.84-.12,2.05,1.16,2.96,3.39,2.96Z" fill="#f4afad"/><path d="M275.96,268.28c2.67-.17,2.91-2.15,2.94-4.58-.09-1.11-.06-3.12-1.97-2.93-2.65,.26-3.58,2.69-3.85,4.99-.2,1.74,1.17,2.63,2.88,2.53Z" fill="#f4afae"/><path d="M444.65,138.59c1.74-3.75,2.12-7.9,5.55-11.14,13.58-12.81,28.71-23.48,44.62-33.07,5.59-3.37,8.79-2.04,11.9,3.96,1.56,3.02,3.66,4.6,7.1,4.15,1.66-1.57,2.98-3.43,2.02-5.74-3.67-8.8-8.45-13.82-18.67-10.88-4.44,1.28-8.11,3.84-11.83,6.3-15,9.88-30.07,19.7-41.94,33.52-2.87,3.34-4.48,6.97-3.45,11.44,1.38,1.09,2.91,1.69,4.7,1.45Z" fill="#332625"/><path d="M444.77,143.86h0c.05-1.76-2.69-3.45-.12-5.27,0,0,0,0,0,0-1.79,.25-3.32-.36-4.7-1.45-.44,.44-.88,.88-1.32,1.32,2.05,1.8,4.09,3.6,6.14,5.4Z" fill="#d5bdaa"/></svg>