<?xml version="1.0" encoding="UTF-8"?><svg id="_레이어_1" xmlns="http://www.w3.org/2000/svg" viewBox="0 0 844.75 829.78"><path d="M815.13,158.32c-5.48-.27-11.04-.77-16.45-.17-5.15,.57-5.5-1.41-4.41-5.36,3.16-11.55,3.8-23.28,2.39-35.15-1.68-14.11-2.8-15.11-16.94-15.76-15.7-.73-31.31,.41-46.82,2.58-4.41,.62-5-.42-4.83-4.61,.69-16.35-.68-32.64-2.95-48.83-1.31-9.38-7.38-15.13-17.33-16.15-21.89-2.23-43.83-3.56-65.84-2.12-5.48,.36-10.97,.63-16.44,1.13-13.25,1.2-26.66,1.35-39.59,4.77-7.08,1.88-14.27,3.26-21.32,5.2-2.35,.65-3.09,.07-3.71-2.24-1.24-4.65-2.88-9.19-4.45-13.75-4.12-11.96-13.76-16.2-25.34-11.16-1.68,.73-3.3,1.6-4.89,2.5-19.7,11.18-38.99,22.86-56.56,37.41-18.36,15.2-37.15,29.86-52.86,47.93-2.68,3.08-4.18,3.29-6.26-.59-4.77-8.89-12.41-12.43-22.45-11.47-6.95,.67-13.26,2.87-19.23,6.39-12.45,7.32-23.16,16.77-33.46,26.78-21.97,21.36-40.61,45.42-57.1,71.13-8.62,13.44-14.71,28.27-21.71,42.86-1.57-.99-3.08-2-4.64-2.9-8.35-4.83-12.92-3.56-16.48,5.29-7.3,18.16-12.31,36.87-13.1,56.61-.66,16.48-2.11,32.94,1.86,49.23,.54,2.22-.34,3.14-2.61,2.64-7.56-1.69-15.28-.32-22.92-1.21-8.24-.95-11.81,3.63-9.73,11.68,1.5,5.83,3.79,11.35,6.79,16.58,3.2,5.55,6.35,11.13,9.62,16.88-3.19,.81-5.95,1.41-8.65,2.22-2.71,.81-5.35,1.83-8.02,2.76-8,2.79-10.58,6.83-8.47,14.86,5.08,19.37,15.95,34.17,34.7,42.48,2.58,1.14,5.02,2.61,7.61,3.74,1.94,.85,2.42,2.01,1.54,3.91-3.02,6.57-3.81,13.76-5.73,20.64-1.54,5.54-3.81,10.48-8.95,14.34-12.99,9.77-15.28,27.45-4.95,38.69,9.66,10.51,21.1,18.66,35.23,22.67,14.98,4.25,30.28,6.29,45.68,7.89,1.6,.17,3.16-.34,2.71,2.57-.84,5.53,1,7.94,6.28,9.51,1.21,.36,2.66,.05,3.03,1.92,1.33,6.69,6.59,7.05,11.92,7.33,1.58,.08,3.1-.63,4.79,.47,6.21,4.03,11.4,4.02,16.84-.45,2.95-2.42,5.94-4.7,9.13-6.76,2.84-1.84,5.01-4.18,6.04-7.63,.72-2.4,2.23-4.04,5.45-4.01,18.37,.15,36.29-4.69,54.61-5.31,3.48-.12,6.97-.57,10.4-1.16,23.92-4.12,46.42-12.91,69.17-20.92,7.12-2.5,12.74-7.68,20.79-11.25-4.53,10.71-6.91,20.53-8.11,30.63-.14,1.19-.56,1.65-1.58,2.13-5.61,2.67-7.43,7.47-6.64,13.24,.79,5.7,5.11,7.85,10.17,8.72,2.43,.42,2.59,2.52,3.08,4.04,.55,1.69-1.51,1.87-2.58,2.36-11.5,5.31-23.37,9.69-35.49,13.33-8.11,2.43-16.23,4.59-24.97,3.89-12.27-.99-24.61-1.48-36.92-1.7-19.51-.35-38.87,1.56-58.24,3.9-28.13,3.4-54.71,11.34-79.35,25.35-24.18,13.75-44.33,31.78-57.84,56.49-20.74,37.93-11.41,74.7,19.17,101.73,13.96,12.34,30.94,19.41,50.12,21.5,23.06,2.51,45.26-.19,67.35-6.51,7.87-2.25,14.42-6.75,21.41-10.54,12.73-6.9,25.8-13.41,36.72-23.05,24.84-21.91,44.49-48.05,61.22-76.52,4.71-8.02,8.34-16.71,14.33-23.96,14.21-17.19,31.1-30.6,51.67-39.89,25.48-11.52,49.98-25.03,72.84-41.33,8.43-6.01,13.39-18.57,8.92-25.62-5.69-8.96-13.65-14.77-24.97-14.95-8.46-.13-14.74,4.6-21.42,8.59-2.86,1.71-5.33,4.16-9.52,4.99,2.26-3.07,4.15-5.51,5.9-8.04,7.5-10.85,13.69-22.44,19.1-34.44,.94-2.09,2.31-2.34,4.12-2.84,14.91-4.12,29.97-7.75,44.25-13.87,15.31-6.57,30.16-14.1,44.63-22.35,21.24-12.11,42.88-23.6,61.6-39.71,5.74-4.94,11.53-9.87,17.35-15.08,1.89,9.36,1.43,15.14-1.55,22.34-.7,1.69-1.64,3.64-.54,5.29,3.49,5.26,8.59,8.91,13.48,12.73,.34,.27,.98,.28,1.46,.23,6.71-.82,13.37-2.78,20.18-.65,.51,.16,1.35-.25,1.85-.64,4.28-3.3,9.08-5.45,14.19-7.2,2.58-.88,3.84-3.46,4.52-6.22,1.23-4.99,.44-9.68-2.23-13.91-1.52-2.42-2.06-4.82-1.85-7.54,.81-10.45,1.66-20.9,2.39-31.35,1.46-20.92,5.38-41.64,5.44-62.64,.03-9.8,.48-18.98,7.04-26.97,3.52-4.28,2.39-8.7-.99-12.69-2.67-3.16-4.04-6.94-4.06-10.94-.09-13.83,.08-27.65,.13-41.48,0-1.85,.22-3.6,.9-5.36,2.75-7.14,5.61-14.25,8.01-21.5,6.13-18.54,9.38-37.37,4.95-56.87-1.31-5.77-5.15-9.41-11.05-9.7ZM229.91,467.68c.82-2.47,1.67-3.86,4.48-2.69,2.07,.86,4.6,.95,3.59,4.53-1.7,6-1.07,12.2-.45,18.28,.22,2.17,0,2.88-2.14,3.11-3.42,.36-6.82,.95-11.05,1.57,2.61-8.57,2.94-16.92,5.57-24.8Zm103.91,112.15c-2,.79-2.87,2.65-4.12,4.19-4,4.91-8.57,5.26-13.43,1.19-1.65-1.38-3.45-1.4-5.58-1.12-4.06,.52-8.04,.73-8.51-5.32-.23-3.04-3.39-3.03-5.89-3.39-2.02-.29-4.13-1-3.8-3.66,.3-2.37,2.32-2.55,4.21-2.5,14.88,.36,29.8-.02,45.2,1.7-2.51,3.6-4.06,7.32-8.08,8.91Zm178.79,59.74c-13.24,6.31-22.91,17.01-33.09,27.05-1.88,1.86-3.78,3.9-4.99,6.21-8.58,16.43-19.97,31.05-30.3,46.29-17.55,25.88-37.56,49.76-64.26,66.94-13.22,8.51-27.84,14.43-42.71,19.14-26.85,8.51-54.11,9.93-81.3,.85-18.05-6.02-30.06-19.23-40.09-34.49-7.36-11.19-11.12-23.69-11.48-37.19,1.04-21.19,9.62-39.23,23.04-55.16,16.6-19.69,37.02-34.17,60.5-44.76,19.99-9.02,41.01-13.13,62.55-15.81,30.04-3.73,60.11-3.33,90.19-1.19,10.4,.74,20.19-1.5,29.82-4.8,8.49-2.91,17.26-5.14,25.27-9.25,4.35-2.23,7.14-.85,9.83,2.51,7.13,8.91,8.99,19.43,9.53,30.41,.1,1.97-1.17,2.59-2.52,3.24Zm20.49-10.12c-3.76,1.62-7.38,3.58-11.64,5.68-.69-14.3-4.54-26.68-15.41-35.92,10.01-6.62,25.38-1.75,27.43,10.26,.83,4.87,2.45,9.61,2.84,14.6,.21,2.71-.7,4.29-3.22,5.38Zm14.73-7.44c-1.73,.51-3.33,1.45-5.21,2.29-2.07-8.05-3-16.26-7.58-23.24-.59-.91-.4-1.52,.36-2.08,3.91-2.85,7.75-5.8,11.78-8.48,1.56-1.04,2.19,.83,2.83,1.79,3.64,5.43,4.03,11.77,5.36,17.95,1.51,7.07-1.57,10.01-7.54,11.77Zm31.48-58.26c12.28-5.63,30.26,7.73,27.8,18.83-.99,4.49-2.6,7.7-7.03,9.89-6.38,3.14-12.3,7.21-18.46,10.79-1.81,1.05-3.38,2.64-5.97,2.96-.05-12.9-4.88-23.54-15.16-31.81,6.27-4.14,12.37-7.69,18.82-10.65Zm-20.4,15.82c7.55,6.58,10.67,14.89,12.22,24.34,1.22,7.43-5.06,7.72-9.56,11.06-.18-5.71-1.02-10.45-2.37-15.08-1.32-4.54-3.3-8.92-7.3-11.62-3.75-2.54-3.18-6.08-1.42-8.4,1.89-2.49,4.88-3.38,8.43-.29Zm244.07-232.35c-1.6,15.54-4.54,30.99-5.31,46.55-.79,15.94-3.73,31.7-3.42,47.7,.07,3.55-.02,6.68,4.59,8.22,3.35,1.12,2.43,5.13,2.16,8-.34,3.6-3.33,5.1-6.34,5.3-2.69,.17-4.6,.64-6.38,2.85-2.22,2.75-5.42,2.07-8.32,1.03-3.31-1.19-6.23-1.3-9.46,.73-3.93,2.46-6.53,1.09-6.99-3.29-.24-2.33-1.63-3.09-3.48-3.61-1.63-.45-3.42-.84-3.63-2.86-.19-1.8,.75-3.27,2.41-4.02,3.21-1.44,3.48-4.12,3.26-7.11-.48-6.47-.83-12.95-1.4-19.42-.15-1.71,.46-2.85,1.5-4.01,1.56-1.73,3.09-3.49,4.56-5.3,1.78-2.21,3.23-4.8,.45-6.97-2.47-1.92-4.67-.26-6.42,1.8-5.81,6.88-11.91,13.54-18.7,19.43-13.55,11.77-27.2,23.33-43.23,31.92-11.7,6.27-22.87,13.58-34.46,20.15-25.5,14.46-52.47,25.12-80.61,32.95-4.55,1.27-6.59,3.94-8.81,7.74-9.41,16.08-19.01,32.08-30.41,46.89-2.1,2.73-3.79,5.15-.93,8.82,2.26,2.91-.2,7.85-4.01,8.57-2.42,.46-4.24,1.4-6.12,2.89-3.45,2.73-6.84,1.75-8.57-2.55-1.28-3.17-3.13-2.9-5.51-1.7-6.75,3.4-8.63,2.84-12.42-4.04-1.12-2.03-2.99-2.65-4.87-3.08-2.89-.66-5.53-1.2-5.8-4.97-.3-4.05,2.08-7.91,4.83-8.52,5.3-1.18,5.53-4.85,6.11-8.44,1.43-8.94,4.57-17.35,7.51-25.82,.97-2.81,2.04-5.62,4-7.99,1.16-1.4,1.29-3.14,.01-4.58-1.46-1.65-3.41-1.6-4.97-.39-4.14,3.21-9.42,4.36-13.57,7.36-13.91,10.06-30.33,14.23-46.07,19.92-16.12,5.82-32.68,10.06-49.81,12.1-5.83,.69-11.33-1.64-17.27-.11-16.92,4.36-34.15,4.52-51.54,3.27-17.06-1.23-34.23-1.06-51.3-2.22-15.27-1.04-30.61-3.02-44.99-8.35-10.89-4.04-20.82-10.5-28.99-19.07-6.08-6.38-6.24-14.06-.96-22.36,0,0,0,0,0,0h0c1.38-3.28,3.79-5.57,6.91-7.18,0,0,0,0,0,0,0,0,0,0,0,0,5.05-4.48,10.8-6.87,17.69-6.82,4.85,.03,8.85-3.35,13.64-4.23,2.04-.38,3.68-1.29,5.83-.34,9.16,4.05,18.94,5.18,28.8,5.26,11.81,.1,23.68,.41,35.28-2.51,3.27-.82,4.08,.32,3.73,3.44-.39,3.53,.48,6.98,1.84,10.22,1.69,4.01,4.41,7.49,8.93,7.85,4.72,.38,8.26-2.48,10.35-6.59,3.36-6.61,5.48-13.63,4.19-21.13-.57-3.34,.32-5.14,3.37-6.62,10.04-4.87,19.5-10.81,28.92-16.77,2.12-1.34,3.5-1.84,3.95,1.3,.05,.32,.24,.62,.35,.93,5.31,14.42,9.98,16.95,25.5,13.79,18.29-3.72,32.32-10.53,50.63-24.69,1.78,5.1,4.07,9.82,6.66,14.41,6.07,10.74,12.79,13.02,23.54,7.4,24.64-12.88,47.13-28.78,66.98-48.33,1.02-1.01,1.78-2.45,3.66-2.71-.75,9.16-1.64,18.24,1.27,27.16,2.2,6.75,3.7,8.33,10.64,7.92,9.78-.58,19.43-1.99,28.92-4.83,15.46-4.62,30.84-9.29,45.59-16,27.4-12.46,54.11-25.87,74.62-48.81,1.33-1.49,2.72-2.94,3.91-4.53,1.08-1.44,1.92-3.06,3.25-5.22,1.92,3.09,3.39,5.98,5.57,8.38,4.73,5.21,9.47,5.93,15.58,2.57,9.41-5.17,16.91-12.46,22.98-21.12,4.54-6.47,9.67-12.62,11.4-20.82,.78-3.7,2.88-6.96,7.07-8.97,4.55-2.18,8.36-5.9,12.88-9.23,1.11,4.82-.34,9.16-.78,13.42Zm7.25-33.97c-4.45,9.26-11.81,16.7-20.64,20.22-5.98,2.38-6.99,6.38-8.94,10.3-6.2,12.47-13.73,23.92-23.21,34.11-3.46,3.72-7.77,6.23-11.99,8.9-2.37,1.5-4.28,1.1-6.17-.95-2.64-2.85-4.49-6.15-6.23-9.58-2.27-4.48-3.26-4.47-7.13-1.18-6.35,5.4-9.89,13.07-16.04,18.78-14.46,13.43-31.04,23.21-48.63,31.86-21.75,10.68-44.33,18.9-67.64,25.19-6.53,1.76-13.45,2.04-20.19,3.01-2.58,.37-3.85-.68-4.57-3.27-2.82-10.21-2.29-20.41-.27-30.63,.52-2.64,1.81-5.46-1.23-7.13-3.08-1.69-5.34,.49-7.42,2.51-14.7,14.27-29.48,28.47-46.83,39.59-6.42,4.11-13.03,7.92-19.56,11.87h0c-.69,.88-1.71,2.14-2.6,1.27-.78-.77,.39-1.92,1.26-2.63,10.43-17.66,23.23-33.55,36.6-49.02,5.55-6.42,10.81-13.13,16.7-19.23,22.44-23.23,45.87-45.36,70.19-66.69,20.8-18.24,44.76-31,68.19-44.95,19.03-11.33,40.09-17.8,60.13-26.69,15.68-6.96,31.98-12.28,48.89-15.48,4.35-.82,8.78-1.24,14.16-1.97-4.38,9.08-6.7,17.95-11.55,25.79-5.65,9.14-5.44,10.9,1,19.57,5.23,7.03,9.22,14.83,13.78,22.27,.94,1.53,.66,2.7-.04,4.15Zm-2.97-49.39c-.66,6.71-1.32,13.42-2.04,20.85q-6.77-7.31-2.23-14.85c1.19-1.99,2.27-4.05,4.27-6Zm2.6-30.16c-.27,.72-.61,1.49-1.71,1.47-20.06-.39-38.53,6.39-56.81,13.34-18.63,7.08-37.48,13.98-55.2,22.99-32.16,16.36-63.62,33.88-90.6,58.66-17.29,15.88-34.55,31.76-51.2,48.3-27.38,27.22-51.71,56.81-70.52,90.7-2.9,5.23-5,5.59-9.04,1.19-3.6-3.92-6.25-8.58-8.68-13.33-.72-1.4-.49-2.44,.3-3.67,6.03-9.37,11.99-18.75,19.11-27.4,9.3-11.3,18.02-23.05,27.69-34.08,9.68-11.04,19.64-21.72,30.63-31.45,11.48-10.15,22-21.29,33.55-31.39,41.4-36.21,87.07-65.56,137.59-87.44,31.43-13.62,63.84-23.67,97.61-29.35,1.45-.24,2.89-.83,4.64-.05-1.8,7.39-4.72,14.41-7.37,21.51Zm9.37-31.51c-.12,2.36-1.86,2.26-3.54,2.55-20.16,3.51-40.09,7.98-59.59,14.28-42.71,13.8-82.56,33.43-120.3,57.68-28.57,18.35-54.97,39.36-79.42,62.8-20.54,19.7-41.31,39.3-58.49,62.11-11,14.61-23.65,28.01-32.91,43.92-1.07,1.85-1.82,3.38-4.86,2.77-2.55-.52-5.22,.94-7.55,2.99-13.16,11.58-28.67,18.54-45.69,22.31-3.81,.84-7.64,.06-11.46,.13-1.84,.03-2.56-1.02-3.18-2.56-1.3-3.24-2.79-6.41-4.17-9.62-3.03-7.03-5.28-7.74-11.66-3.64-11.21,7.21-22.95,13.48-34.61,19.91-20.62,11.38-42.8,12.53-65.48,11.33-7.2-.38-14.08-2.08-20.89-4.48-4.64-1.63-5.47-4.04-3.55-8.22,1.06-2.32,2.44-4.28,4.22-6.1,4-4.08,2.95-7.44-2.71-8.8-3.56-.85-7.19-1.4-10.73-2.3-10.58-2.67-20.28-7.55-29.75-12.72-13.29-7.25-20.71-19.32-25.29-33.34-1.22-3.73-.04-6.02,3.89-7.71,8.23-3.54,16.75-5.35,25.61-6.02,1.36-.1,3.35,.21,3.76-1.6,.35-1.55-1.58-1.87-2.44-2.79-2.03-2.18-4.26-4.29-5.78-6.8-5.16-8.54-10.47-17.01-14.34-26.27-1.37-3.28-1.38-5.07,2.95-4.28,4.15,.76,8.31-.16,12.47-.17,4.33,0,8.67-.16,12.99,.05,3.53,.18,4.95-1.3,4.66-4.69-.44-5.14-.93-10.27-1.33-15.41-2.36-30.74,.22-60.85,11.63-89.81,2.51-6.37,2.7-6.46,8.72-2.67,5.74,3.62,9.47,2.26,12.13-3.78,9.71-22,21.5-42.77,35.99-62.05,14.85-19.76,30.76-38.53,49.08-55.14,10.23-9.28,20.75-18.32,34.12-23,2.67-.94,5.44-1.38,8.32-1.49,6.52-.23,11.01,2.38,14.05,8.29,5.78,11.25,7.46,11.85,15.63,2.69,18.19-20.4,39.47-37.23,60.74-54.09,6.12-4.85,12.53-9.43,19.2-13.49,10.52-6.4,21.25-12.47,32.11-18.26,9.86-5.26,15.1-2.73,18.1,8.05,1.12,4,2.3,7.98,3.3,12.01,.39,1.56,.8,3.24-1.05,4.46-1.49,.99-2.43,2.4-1.15,4.22,1.3,1.85,3.32,1.77,4.98,1.06,7.75-3.34,16.26-3.54,24.17-5.95,11.78-3.59,23.89-4.61,35.96-5.46,16.43-1.16,32.87-3.24,49.39-2.41,13.79,.7,27.66,.53,41.35,2.64,7.01,1.08,9.5,3.83,10.33,11.09,.67,5.79,1.41,11.57,1.79,17.38,.63,9.64,1.06,19.29,1.44,28.94,.1,2.62,.22,5.34-1.74,7.6-.83,.95-2.11,2.36-.74,3.45,1.45,1.15,3.57,3.42,5.12,2.15,4.88-3.98,10.56-2.16,15.79-2.71,14.57-1.53,29.21-2.29,43.89-1.1,3.92,.32,5.2,1.69,5.78,5.59,1.94,13.1,.4,25.89-2.48,38.62-.45,2-.16,3.92-.08,5.91,.13,3.27,1.71,4.35,4.69,4.45,6.99,.25,13.97,.84,20.96,.87,4.32,.02,6.49,1.38,7.68,5.84,2.76,10.35,.48,20.53-.04,30.78Z" fill="#322625"/><path d="M142.34,525.41c-7.74-20.07-21.98-32.69-42.65-38.52-29.01-8.18-57.5,4.18-75.77,27.55-10.58,13.53-12.58,29.31-13.82,45.53,.65,14.32,3.08,28.03,12.19,39.81,13.1,16.91,32.39,19.95,51.4,20.93,14.28,.73,28.68-2.99,42.33-8.28,23.38-9.07,36.79-30.61,34.69-55.35-.94-11.11-4.42-21.4-8.38-31.67Zm-115.75-1.61c13.23,20.73,19.29,55.76,8.16,76.52-20.21-12.06-20.3-59.18-8.16-76.52Zm21.77,82.31c-.62,2.2-1.84,2.44-3.11,1.27-1.61-1.49-6.26-.96-4.52-4.78,12.83-28.24,6.08-54.12-9.09-79.08-.43-.71-.92-1.39-1.45-2.03-2.25-2.73,.25-4.55,1.66-5.91,1.65-1.6,2.42,.95,3.19,1.85,9.51,11.03,12.76,24.56,15.13,38.43,1.43,8.38,2.18,16.82,2.77,26.11-1.15,7.58-2.28,15.97-4.6,24.16Zm68.44-1.25c-12.26,5.18-25.25,6.92-38.27,8.75-7.06,.99-13.81,.29-20.56-1.91-3.01-.98-3.71-1.99-2.78-5.26,8.46-29.55,3.22-57.52-10.21-84.47-2.2-4.41-6.2-7.29-9.53-10.99,5.58-5.29,11.6-9.66,18.64-12.48,9.5-3.81,18.67-8.52,29.61-7.07,6.29,.84,12.42,2.17,18.61,3.38,3,.59,3.77,1.75,2.94,5.05-7.56,30.01-5.06,59.04,9.04,86.83,1.44,2.84,3.18,5.44,5.15,7.94,5.47,6.96,5.37,6.83-2.65,10.22Zm14.37-11.2c-1.41,1.94-2.53,1.22-3.91-.29-7.16-7.83-10.74-17.53-14.17-27.24-4.23-11.95-7.38-24.17-6.69-36.24-.24-9.99,.92-19.04,2.82-28,.27-1.29-.39-4.01,2.47-3.09,2.07,.66,3.13,2.1,2.17,4.65-3.81,10.16-5.04,20.78-3.5,31.41,2.89,19.85,6.98,39.43,21.69,54.6,2.37,2.45,0,2.98-.88,4.2Zm8.7-11.23c-1.08,2.93-2.1,4.05-4.87,.82-11.06-12.89-15.36-28.48-18.58-44.57-2.11-10.56-2.47-21.11,.03-31.69,.76-3.23,1.86-3.93,4.39-1.37,2.35,2.38,4.6,4.83,6.35,7.68,7.47,12.1,13.26,24.94,16.65,38.8,.51,2.08,.63,4.27,.92,6.34-1.28,8.14-2.04,16.28-4.89,23.99Z" fill="#322625"/><path d="M811.58,165.56c-6.99-.02-13.97-.62-20.96-.87-2.98-.11-4.56-1.18-4.69-4.45-.08-1.99-.37-3.91,.08-5.91,2.88-12.74,4.42-25.52,2.48-38.62-.58-3.9-1.86-5.27-5.78-5.59-14.69-1.19-29.32-.43-43.89,1.1-5.23,.55-10.91-1.27-15.79,2.71-1.55,1.27-3.67-1-5.12-2.15-1.37-1.09-.09-2.5,.74-3.45,1.96-2.26,1.84-4.98,1.74-7.6-.38-9.65-.81-19.3-1.44-28.94-.38-5.81-1.12-11.6-1.79-17.38-.84-7.26-3.33-10.01-10.33-11.09-13.7-2.11-27.56-1.94-41.35-2.64-16.51-.84-32.95,1.25-49.39,2.41-12.07,.85-24.18,1.87-35.96,5.46-7.91,2.41-16.42,2.61-24.17,5.95-1.66,.72-3.67,.8-4.98-1.06-1.28-1.82-.34-3.23,1.15-4.22,1.85-1.23,1.44-2.9,1.05-4.46-1.01-4.03-2.19-8.01-3.3-12.01-3.01-10.78-8.24-13.31-18.1-8.05-10.86,5.79-21.59,11.86-32.11,18.26-6.67,4.06-13.08,8.63-19.2,13.49-21.27,16.86-42.55,33.69-60.74,54.09-8.17,9.16-9.85,8.56-15.63-2.69-3.03-5.91-7.53-8.52-14.05-8.29-2.87,.1-5.64,.55-8.32,1.49-13.37,4.68-23.89,13.72-34.12,23-18.32,16.61-34.23,35.39-49.08,55.14-14.49,19.28-26.28,40.05-35.99,62.05-2.66,6.03-6.4,7.39-12.13,3.78-6.01-3.79-6.21-3.7-8.72,2.67-11.41,28.97-13.99,59.07-11.63,89.81,.4,5.14,.88,10.28,1.33,15.41,.29,3.39-1.13,4.87-4.66,4.69-4.32-.21-8.66-.05-12.99-.05-4.16,.02-8.32,.93-12.47,.17-4.33-.79-4.32,1-2.95,4.28,3.87,9.26,9.18,17.73,14.34,26.27,1.52,2.52,3.75,4.63,5.78,6.8,.86,.92,2.79,1.24,2.44,2.79-.41,1.81-2.4,1.5-3.76,1.6-8.86,.67-17.37,2.48-25.61,6.02-3.93,1.69-5.1,3.98-3.89,7.71,4.58,14.02,12,26.09,25.29,33.34,9.47,5.17,19.17,10.05,29.75,12.72,3.54,.9,7.18,1.44,10.73,2.3,5.66,1.36,6.71,4.72,2.71,8.8-1.78,1.81-3.16,3.78-4.22,6.1-1.91,4.18-1.08,6.59,3.55,8.22,6.81,2.4,13.69,4.1,20.89,4.48,22.69,1.2,44.87,.05,65.48-11.33,11.66-6.44,23.4-12.7,34.61-19.91,6.37-4.1,8.63-3.39,11.66,3.64,1.38,3.21,2.87,6.37,4.17,9.62,.62,1.54,1.34,2.59,3.18,2.56,3.82-.07,7.65,.72,11.46-.13,17.02-3.77,32.53-10.73,45.69-22.31,2.33-2.05,5-3.51,7.55-2.99,3.04,.62,3.79-.92,4.86-2.77,9.26-15.92,21.9-29.31,32.91-43.92,17.18-22.82,37.94-42.42,58.49-62.11,24.45-23.44,50.85-44.45,79.42-62.8,37.74-24.25,77.59-43.88,120.3-57.68,19.51-6.3,39.43-10.77,59.59-14.28,1.68-.29,3.42-.19,3.54-2.55,.52-10.25,2.8-20.43,.04-30.78-1.19-4.47-3.36-5.83-7.68-5.84Zm-502.21,158.56c-.03,4.3-.21,8.6-.47,12.89-.19,3.16-2.54,4.58-5.17,4.19-12.06-1.82-21.49,4.3-31.06,9.95-1.93,1.14-3.26,3.27-4.92,4.89-.92,.89-1.85,2.32-3.33,1.47-1.39-.8-.42-2.24,0-3.12,1.04-2.2-.01-3.23-1.63-4.46-19.23-14.49-24.85-39.96-17.2-62.48,6.45-19,19.34-33.1,33.82-46.12,3.22-2.89,6.47-5.75,10.36-7.76,8.96-4.65,15.55-1.1,17.07,8.76,2.54,16.4,.47,32.92,2.55,49.35,0,10.81,.04,21.63-.02,32.44Zm181.92,47c-7.14,5.24-15.27,8.75-23.66,11.61-8.72,2.96-17.58,4.59-26.77,2.81-1.09-.21-1.09-.13-1.5,.78-2.49,5.45-5.09,5.81-8.7,.99-4.72-6.28-9.79-12.23-15.52-17.59-4.41-4.13-9.05-7.87-15.58-8.09-3.1-.11-3.79-1.81-1.98-4.31,15.79-21.84,30.47-44.55,48.99-64.28,8.54-9.09,16.75-18.54,26.42-26.53,5.06-4.18,9.25-4.44,14.06,.38,11.74,11.77,20.02,25.7,24.19,41.85,1.87,7.25,3.3,14.63,2.98,21.46,.8,18.94-9.4,30.98-22.93,40.92Z" fill="#d4e062"/><path d="M790.87,343.01c-4.19,2-6.29,5.27-7.07,8.97-1.73,8.2-6.86,14.35-11.4,20.82-6.08,8.66-13.57,15.95-22.98,21.12-6.12,3.36-10.85,2.64-15.58-2.57-2.18-2.4-3.65-5.29-5.57-8.38-1.33,2.15-2.17,3.77-3.25,5.22-1.19,1.6-2.58,3.05-3.91,4.53-20.51,22.94-47.22,36.35-74.62,48.81-14.75,6.71-30.13,11.38-45.59,16-9.49,2.84-19.14,4.25-28.92,4.83-6.93,.41-8.44-1.16-10.64-7.92-2.9-8.92-2.02-18-1.27-27.16-1.88,.26-2.63,1.71-3.66,2.71-19.85,19.55-42.34,35.45-66.98,48.33-10.75,5.62-17.47,3.34-23.54-7.4-2.59-4.59-4.89-9.31-6.66-14.41-18.31,14.15-32.34,20.96-50.63,24.69-15.52,3.16-20.19,.63-25.5-13.79-.12-.31-.31-.61-.35-.93-.45-3.13-1.83-2.64-3.95-1.3-9.43,5.96-18.88,11.89-28.92,16.77-3.05,1.48-3.94,3.28-3.37,6.62,1.28,7.5-.83,14.52-4.19,21.13-2.09,4.11-5.63,6.98-10.35,6.59-4.52-.37-7.24-3.84-8.93-7.85-1.36-3.24-2.24-6.69-1.84-10.22,.35-3.12-.46-4.26-3.73-3.44-11.6,2.92-23.48,2.61-35.28,2.51-9.85-.08-19.63-1.21-28.8-5.26-2.15-.95-3.79-.04-5.83,.34-4.79,.89-8.79,4.27-13.64,4.23-6.9-.05-12.64,2.34-17.69,6.82,0,0,0,0,0,0,.39,.99,1.35,.99,2.17,1.22,8.66-1.07,16.17,2.11,22.53,7.37,6.96,5.75,7.95,12-1.57,16.78-13.84,6.96-20.76,4.62-28.04-10.15-2.46-2.24,.49-5.81-2-8.04,0,0,0,0,0,0-5.28,8.31-5.12,15.99,.96,22.36,8.16,8.57,18.09,15.03,28.99,19.07,14.38,5.33,29.72,7.31,44.99,8.35,17.07,1.16,34.23,1,51.3,2.22,17.39,1.25,34.63,1.09,51.54-3.27,5.94-1.53,11.44,.8,17.27,.11,17.12-2.03,33.68-6.27,49.81-12.1,15.74-5.69,32.16-9.86,46.07-19.92,4.14-3,9.42-4.14,13.57-7.36,1.56-1.21,3.51-1.26,4.97,.39,1.28,1.44,1.14,3.18-.01,4.58-1.96,2.38-3.03,5.18-4,7.99-2.94,8.47-6.08,16.88-7.51,25.82-.57,3.59-.81,7.26-6.11,8.44-2.76,.61-5.13,4.47-4.83,8.52,.28,3.77,2.91,4.3,5.8,4.97,1.88,.43,3.75,1.05,4.87,3.08,3.79,6.88,5.67,7.44,12.42,4.04,2.38-1.2,4.23-1.47,5.51,1.7,1.73,4.3,5.12,5.29,8.57,2.55,1.88-1.49,3.69-2.43,6.12-2.89,3.81-.72,6.26-5.66,4.01-8.57-2.85-3.67-1.17-6.09,.93-8.82,11.4-14.81,21-30.8,30.41-46.89,2.22-3.8,4.26-6.47,8.81-7.74,28.14-7.83,55.12-18.49,80.61-32.95,11.59-6.57,22.76-13.88,34.46-20.15,16.03-8.59,29.68-20.15,43.23-31.92,6.79-5.89,12.88-12.55,18.7-19.43,1.75-2.07,3.96-3.73,6.42-1.8,2.78,2.17,1.33,4.77-.45,6.97-1.47,1.81-3,3.57-4.56,5.3-1.04,1.16-1.65,2.3-1.5,4.01,.57,6.46,.92,12.94,1.4,19.42,.22,2.99-.05,5.67-3.26,7.11-1.66,.75-2.6,2.22-2.41,4.02,.21,2.02,2,2.41,3.63,2.86,1.84,.51,3.23,1.28,3.48,3.61,.46,4.38,3.06,5.75,6.99,3.29,3.24-2.02,6.15-1.91,9.46-.73,2.9,1.04,6.1,1.72,8.32-1.03,1.79-2.21,3.69-2.68,6.38-2.85,3.01-.19,6-1.69,6.34-5.3,.27-2.87,1.18-6.88-2.16-8-4.61-1.54-4.52-4.67-4.59-8.22-.3-16,2.63-31.76,3.42-47.7,.78-15.56,3.71-31.01,5.31-46.55,.44-4.27,1.89-8.61,.78-13.42-4.51,3.33-8.33,7.05-12.88,9.23Zm-454.03,191.04c-.79,2.96,.45,7.46-3.98,8.21-2.7,.46-2.55-2.4-2.63-4.47,.09-3.17,.35-6.72,3.99-7.66,2.04-.52,3.07,2.23,2.62,3.91Zm11.27,6.51c-3.79-.47-3.9-3.45-3.82-6.76,.29-1.76-.74-5.3,2.73-4.84,4.01,.53,4.3,4.63,4.65,7.86,.23,2.16-1.05,4.04-3.56,3.73Zm12.13-2c-3.43-.35-4.45-3.07-4.79-5.95-.23-1.97,1.09-3.23,3.04-2.92,2.92,.46,4.42,2.52,4.85,4.9,.03,2.61-.81,4.2-3.11,3.97Zm54.28-19.35c-1.87,2.7-3.93,4.94-7.65,4.58-3.72-.36-5.28-3.03-6.64-5.98-1.3-2.81-1.41-5.77-1.16-9.22-.44-4.86,1.5-9.68,2.98-14.59,.57-1.89,1.51-3.72,.92-5.8-.29-1-.49-2.07,.86-2.38,1.22-.27,1.79,.77,2.16,1.65,.82,1.92,.35,3.88,0,5.86-1.02,5.55-1.94,11.13-1.5,16.8,.21,2.75,.46,7.02,3.24,6.87,2.91-.16,3.72-4.28,3.4-7.4-.3-2.95-1.02-5.86-1.51-8.8-.31-1.85,.27-3.38,2.15-3.96,1.94-.6,3.41,.43,3.82,2.22,1.55,6.79,3.44,13.64-1.05,20.15Z" fill="#fdebd1"/><path d="M796.48,286.82c-6.45-8.67-6.66-10.44-1-19.57,4.85-7.84,7.17-16.71,11.55-25.79-5.38,.74-9.81,1.15-14.16,1.97-16.91,3.2-33.21,8.52-48.89,15.48-20.04,8.9-41.1,15.37-60.13,26.69-23.43,13.95-47.39,26.7-68.19,44.95-24.31,21.33-47.75,43.46-70.19,66.69-5.89,6.1-11.15,12.8-16.7,19.23-13.37,15.47-26.17,31.36-36.6,49.02,.45,.45,.9,.91,1.35,1.36h0c6.53-3.95,13.14-7.76,19.56-11.87,17.35-11.12,32.13-25.32,46.83-39.59,2.07-2.01,4.34-4.2,7.42-2.51,3.04,1.67,1.75,4.49,1.23,7.13-2.01,10.21-2.55,20.42,.27,30.63,.72,2.59,1.99,3.64,4.57,3.27,6.74-.97,13.66-1.25,20.19-3.01,23.31-6.28,45.89-14.5,67.64-25.19,17.59-8.64,34.17-18.43,48.63-31.86,6.15-5.71,9.7-13.38,16.04-18.78,3.87-3.29,4.86-3.3,7.13,1.18,1.74,3.43,3.59,6.73,6.23,9.58,1.89,2.05,3.81,2.44,6.17,.95,4.22-2.67,8.53-5.18,11.99-8.9,9.48-10.19,17.02-21.64,23.21-34.11,1.95-3.92,2.97-7.92,8.94-10.3,8.83-3.52,16.19-10.96,20.64-20.22,.7-1.45,.98-2.63,.04-4.15-4.56-7.44-8.56-15.24-13.78-22.27Z" fill="#d4e062"/><path d="M271.48,681.65h0c-.05,0-.09,0-.14,0,.01,.02,.02,.05,.03,.07,.04-.02,.07-.04,.11-.07h0Z" fill="#69a0c0"/><path d="M264.53,684.9s-.03,0-.04,0c0,.01,0,.03,.01,.04,0-.01,.02-.02,.03-.03Z" fill="#69a0c0"/><path d="M367.34,652.4s-.09-.03-.14-.05c0,.07,0,.13,.01,.2,.04-.05,.08-.1,.13-.15Z" fill="#69a0c0"/><path d="M495.76,603.41c-8.01,4.12-16.79,6.34-25.27,9.25-9.63,3.3-19.42,5.55-29.82,4.8-30.09-2.15-60.15-2.54-90.19,1.19-21.54,2.68-42.56,6.78-62.55,15.81-23.48,10.59-43.9,25.06-60.5,44.76-13.43,15.93-22.01,33.97-23.04,55.16,.36,13.5,4.12,25.99,11.48,37.19,10.03,15.25,22.05,28.47,40.09,34.49,27.18,9.07,54.44,7.65,81.3-.85,14.87-4.71,29.49-10.63,42.71-19.14,26.7-17.18,46.71-41.06,64.26-66.94,10.34-15.25,21.73-29.86,30.3-46.29,1.21-2.31,3.11-4.35,4.99-6.21,10.19-10.04,19.85-20.73,33.09-27.05,1.35-.65,2.62-1.26,2.52-3.24-.53-10.98-2.39-21.5-9.53-30.41-2.69-3.36-5.48-4.75-9.83-2.51Zm-70.28,76.27c-.13,2-.85,3.54-2.97,4.08,0,0,0,0,0,0,.77,3.45-1.54,6.5-1.26,9.88h0s0,0,0,0c2.18-1.65,3.27-1.06,3.39,1.63,.2,4.39-.51,8.65-2.21,12.69-12.17,28.85-30.44,52.75-58.03,68.27-27.26,15.34-56.63,21.75-87.9,17.29-10.37-1.48-18.93-7-26.91-13.42-13.44-10.82-22.75-24.11-24.88-41.73-.49-4.03,.39-7.95,.41-11.89,.07-14.35,7.63-25.28,15.54-36.14,2.78-3.82,6.5-6.69,10.12-9.6,15.08-12.11,30.95-22.9,48.74-30.88,14.63-6.56,29.3-12.81,45.31-14.82,23.62-2.96,46.99-2.42,66.59,13.25,9.47,7.57,14.89,18.46,14.08,31.39Z" fill="#69a0c0"/><path d="M812.58,212.23c-33.77,5.68-66.18,15.73-97.61,29.35-50.52,21.89-96.19,51.23-137.59,87.44-11.55,10.1-22.07,21.24-33.55,31.39-11,9.72-20.95,20.41-30.63,31.45-9.67,11.03-18.39,22.78-27.69,34.08-7.12,8.65-13.08,18.03-19.11,27.4-.79,1.23-1.02,2.27-.3,3.67,2.43,4.75,5.09,9.41,8.68,13.33,4.04,4.4,6.13,4.04,9.04-1.19,18.81-33.89,43.15-63.48,70.52-90.7,16.64-16.55,33.91-32.42,51.2-48.3,26.98-24.78,58.45-42.3,90.6-58.66,17.72-9.01,36.57-15.91,55.2-22.99,18.28-6.95,36.75-13.73,56.81-13.34,1.1,.02,1.44-.75,1.71-1.47,2.65-7.1,5.57-14.12,7.37-21.51-1.75-.78-3.2-.19-4.64,.05Z" fill="#fff"/><path d="M575.64,606.21c2.6-.31,4.16-1.91,5.97-2.96,6.17-3.58,12.09-7.65,18.46-10.79,4.44-2.19,6.04-5.4,7.03-9.89,2.45-11.1-15.53-24.46-27.8-18.83-6.45,2.96-12.55,6.51-18.82,10.65,10.28,8.28,15.1,18.91,15.16,31.81Z" fill="#699fc0"/><path d="M533.47,609.47c-2.05-12.01-17.43-16.88-27.43-10.26,10.87,9.24,14.72,21.61,15.41,35.92,4.26-2.1,7.88-4.06,11.64-5.68,2.52-1.09,3.44-2.67,3.22-5.38-.39-4.99-2.01-9.73-2.84-14.6Z" fill="#fff"/><path d="M292.48,571.72c-.33,2.66,1.78,3.37,3.8,3.66,2.5,.35,5.66,.35,5.89,3.39,.47,6.05,4.45,5.85,8.51,5.32,2.13-.27,3.94-.25,5.58,1.12,4.87,4.07,9.43,3.71,13.43-1.19,1.25-1.54,2.12-3.4,4.12-4.19,4.02-1.59,5.57-5.31,8.08-8.91-15.41-1.72-30.32-1.34-45.2-1.7-1.89-.05-3.91,.13-4.21,2.5Z" fill="#fdead0"/><path d="M550,592.29c-.64-.95-1.27-2.82-2.83-1.79-4.02,2.68-7.87,5.62-11.78,8.48-.76,.55-.95,1.17-.36,2.08,4.58,6.98,5.51,15.19,7.58,23.24,1.87-.84,3.47-1.78,5.21-2.29,5.97-1.76,9.05-4.71,7.54-11.77-1.32-6.18-1.72-12.52-5.36-17.95Z" fill="#fefefe"/><path d="M550.47,579.85c-1.76,2.32-2.33,5.87,1.42,8.4,3.99,2.71,5.97,7.09,7.3,11.62,1.35,4.63,2.19,9.38,2.37,15.08,4.5-3.34,10.78-3.62,9.56-11.06-1.55-9.45-4.67-17.77-12.22-24.34-3.55-3.09-6.54-2.2-8.43,.29Z" fill="#fefefe"/><path d="M237.52,487.8c-.62-6.08-1.24-12.28,.45-18.28,1.01-3.58-1.52-3.67-3.59-4.53-2.81-1.17-3.66,.22-4.48,2.69-2.63,7.88-2.97,16.23-5.57,24.8,4.23-.61,7.63-1.21,11.05-1.57,2.15-.23,2.36-.94,2.14-3.11Z" fill="#fae8ce"/><path d="M805.2,284.7c.73-7.43,1.39-14.14,2.04-20.85-2.01,1.96-3.08,4.02-4.27,6q-4.53,7.54,2.23,14.85Z" fill="#e9d6bf"/><path d="M211.29,518.63c-.75-6.24,.9-11.27,7.08-14h0c-.82-.23-1.77-.23-2.17-1.22,0,0,0,0,0,0-3.12,1.61-5.53,3.9-6.91,7.18h0c2.49,2.23-.46,5.8,2,8.04Z" fill="#cdbba7"/><path d="M490.91,468.11c.89,.87,1.92-.38,2.6-1.27h0c-.45-.45-.9-.91-1.35-1.36-.87,.7-2.04,1.86-1.26,2.63Z" fill="#a0a549"/><path d="M114.3,586.71c-14.1-27.79-16.6-56.82-9.04-86.83,.83-3.3,.06-4.46-2.94-5.05-6.19-1.21-12.32-2.55-18.61-3.38-10.94-1.46-20.11,3.26-29.61,7.07-7.04,2.82-13.06,7.19-18.64,12.48,3.33,3.7,7.34,6.58,9.53,10.99,13.43,26.94,18.67,54.92,10.21,84.47-.94,3.27-.23,4.28,2.78,5.26,6.75,2.2,13.5,2.9,20.56,1.91,13.02-1.82,26.01-3.56,38.27-8.75,8.02-3.39,8.12-3.26,2.65-10.22-1.96-2.5-3.71-5.1-5.15-7.94Z" fill="#d4e062"/><path d="M127.2,513.31c-1.76-2.85-4.01-5.3-6.35-7.68-2.52-2.56-3.62-1.87-4.39,1.37-2.5,10.58-2.14,21.13-.03,31.69,3.21,16.09,7.51,31.68,18.58,44.57,2.77,3.23,3.79,2.1,4.87-.82,2.85-7.71,3.61-15.85,4.89-23.99-.29-2.08-.41-4.26-.92-6.34-3.39-13.85-9.18-26.69-16.65-38.8Z" fill="#d4e062"/><path d="M26.59,523.81c-12.14,17.34-12.05,64.46,8.16,76.52,11.13-20.75,5.07-55.79-8.16-76.52Z" fill="#d4e062"/><path d="M35.06,517.42c-.77-.9-1.54-3.45-3.19-1.85-1.41,1.36-3.92,3.18-1.66,5.91,.53,.64,1.02,1.32,1.45,2.03,15.17,24.96,21.92,50.84,9.09,79.08-1.74,3.82,2.9,3.29,4.52,4.78,1.27,1.17,2.49,.93,3.11-1.27,2.32-8.19,3.45-16.58,4.6-24.16-.6-9.29-1.34-17.74-2.77-26.11-2.37-13.87-5.62-27.4-15.13-38.43Z" fill="#fdfdfe"/><path d="M110.37,534.85c-1.55-10.63-.31-21.25,3.5-31.41,.96-2.55-.1-4-2.17-4.65-2.86-.91-2.19,1.8-2.47,3.09-1.9,8.96-3.07,18.02-2.82,28-.69,12.08,2.46,24.29,6.69,36.24,3.44,9.71,7.02,19.41,14.17,27.24,1.38,1.51,2.5,2.23,3.91,.29,.89-1.22,3.26-1.76,.88-4.2-14.71-15.17-18.81-34.75-21.69-54.6Z" fill="#fcfbfc"/><path d="M511.25,308.74c-4.17-16.16-12.45-30.08-24.19-41.85-4.81-4.82-9-4.56-14.06-.38-9.67,7.99-17.88,17.43-26.42,26.53-18.53,19.73-33.2,42.44-48.99,64.28-1.81,2.5-1.12,4.2,1.98,4.31,6.53,.22,11.17,3.96,15.58,8.09,5.73,5.36,10.8,11.31,15.52,17.59,3.62,4.82,6.21,4.46,8.7-.99,.42-.91,.41-.99,1.5-.78,9.18,1.78,18.05,.16,26.77-2.81,8.39-2.85,16.52-6.37,23.66-11.61,13.53-9.94,23.73-21.97,22.93-40.92,.32-6.83-1.11-14.22-2.98-21.46Zm-23.83,54.95c-4.5,3.29-9.47,6.04-14.66,8.43-8.65,4-17.76,5.39-27,6.38-3.32,.36-6.15,.84-6.83,5.17-9.73-11.39-19.38-21.94-33.47-27.42,7.09-10.38,14.62-20.27,22.22-30.13,11.72-15.19,24.78-29.16,38.12-42.9,3.83-3.95,8.09-7.4,12.29-10.95,1.95-1.65,2.9-.88,4.02,.39,9.83,11.12,17.39,23.55,21.09,38.03,1.27,4.97,1.91,10.09,2.61,15.21,2.3,16.83-5.73,28.52-18.39,37.78Z" fill="#322625"/><path d="M306.84,242.33c-1.53-9.86-8.11-13.4-17.07-8.76-3.88,2.01-7.14,4.87-10.36,7.76-14.48,13.02-27.37,27.12-33.82,46.12-7.65,22.52-2.03,47.99,17.2,62.48,1.62,1.22,2.67,2.26,1.63,4.46-.42,.88-1.39,2.33,0,3.12,1.48,.85,2.41-.58,3.33-1.47,1.66-1.62,2.99-3.75,4.92-4.89,9.56-5.65,19-11.78,31.06-9.95,2.63,.4,4.98-1.02,5.17-4.19,.26-4.29,.45-8.59,.47-12.89,.06-10.81,.02-21.63,.02-32.44-2.09-16.43-.02-32.95-2.55-49.35Zm-4.83,90.33c-10.26,0-19.21,3.56-26.65,10.61-2.92,2.77-5,2.17-7.95-.16-11.49-9.08-16.64-21.12-17.58-33.09,.42-16.94,5.52-29.85,14.04-41.59,7.67-10.57,15.92-20.51,27.61-26.95,6.03-3.32,7-2.89,7.74,3.74,2.07,18.54,1.76,37.18,2.41,55.78,.33,9.49,1.4,18.9,2.29,28.34,.15,1.56,1.05,3.33-1.91,3.32Z" fill="#322625"/><path d="M211.29,518.63c7.29,14.76,14.2,17.11,28.04,10.15,9.51-4.79,8.53-11.03,1.57-16.78-6.36-5.26-13.87-8.44-22.53-7.37h0c-6.18,2.74-7.83,7.76-7.08,14Z" fill="#322625"/><path d="M411.75,496.84c-1.87,.58-2.46,2.11-2.15,3.96,.49,2.94,1.21,5.85,1.51,8.8,.32,3.12-.49,7.24-3.4,7.4-2.78,.15-3.03-4.11-3.24-6.87-.43-5.67,.49-11.25,1.5-16.8,.36-1.98,.83-3.94,0-5.86-.37-.88-.94-1.92-2.16-1.65-1.35,.3-1.15,1.37-.86,2.38,.6,2.08-.35,3.91-.92,5.8-1.48,4.91-3.41,9.74-2.98,14.59-.25,3.44-.14,6.4,1.16,9.22,1.36,2.95,2.92,5.62,6.64,5.98,3.72,.36,5.79-1.87,7.65-4.58,4.49-6.5,2.6-13.36,1.05-20.15-.41-1.79-1.88-2.82-3.82-2.22Z" fill="#342827"/><path d="M347.03,528.96c-3.47-.45-2.44,3.08-2.73,4.84-.08,3.3,.03,6.29,3.82,6.76,2.52,.31,3.8-1.58,3.56-3.73-.35-3.23-.64-7.34-4.65-7.86Z" fill="#f4abab"/><path d="M334.22,530.14c-3.65,.93-3.9,4.48-3.99,7.66,.08,2.07-.07,4.93,2.63,4.47,4.43-.75,3.19-5.25,3.98-8.21,.45-1.68-.59-4.43-2.62-3.91Z" fill="#f4acac"/><path d="M358.49,529.68c-1.95-.31-3.27,.96-3.04,2.92,.34,2.87,1.36,5.6,4.79,5.95,2.29,.23,3.14-1.36,3.11-3.97-.43-2.38-1.93-4.44-4.85-4.9Z" fill="#f4acac"/><path d="M411.4,648.29c-19.59-15.68-42.97-16.22-66.59-13.25-16.01,2.01-30.67,8.26-45.31,14.82-17.79,7.98-33.66,18.77-48.74,30.88-3.62,2.91-7.34,5.78-10.12,9.6-7.91,10.87-15.47,21.79-15.54,36.14-.02,3.93-.9,7.86-.41,11.89,2.13,17.61,11.44,30.91,24.88,41.73,7.98,6.42,16.55,11.95,26.91,13.42,31.28,4.46,60.64-1.95,87.9-17.29,27.59-15.52,45.86-39.43,58.03-68.27,1.7-4.03,2.41-8.29,2.21-12.69-.12-2.69-1.21-3.27-3.39-1.63,0,0,0,0,0,0-1.34,3.92-2.23,8.08-4.09,11.73-9.09,17.85-17.94,35.67-33.81,49.17-12.23,10.4-25.47,18.7-40.16,24.5-12.34,4.87-25.34,8.1-38.68,8.98-11.46,.75-23.07,1.04-33.91-3.48-11.39-4.75-21.15-12.18-28.47-22.1-10.13-13.73-14.57-28.92-8.86-45.88,3.03-12.17,14.33-26.85,25.76-33.47,.72,1.13,.03,2.27,.03,3.4,.77-.83,1.63-1.6,2.3-2.5,.58-.77,.96-1.69,1.47-2.63,2,.51,1.29,2.29,1.66,3.53,.01,0,.03,0,.04,0,1.78-2.13,4.73-1.77,6.85-3.18-.01-.02-.02-.05-.03-.07-2.39,.09-3.29-.84-2.06-3.22-1.26,.19-2.52,.37-3.78,.56,8.88-6.95,17.62-13.81,27.77-18.53,23.62-12.28,48.01-21.55,75.59-19.34-.46,3.72-2.03,7.36-1.66,11.24,.05,.01,.09,.03,.14,.05,1.24-1.51,2.32-3.82,4.09-.16,.97,2,2.48,1.85,3.8,.11-2.89,.49-3.02-1.27-3.18-3.49-.58-8.03-.66-8.08,7.14-7.07,11.83,1.53,21.78,7.53,31.54,13.75,2.92,1.86,3.86,5.53,4.62,8.92,3.33,4,3.98,8.91,4.61,13.8,.27,2.12,.32,4.31,2.54,5.51,0,0,0,0,0,0,2.11-.54,2.84-2.08,2.97-4.08,.81-12.93-4.61-23.81-14.08-31.39Z" fill="#322625"/><path d="M503.2,310.7c-3.7-14.48-11.27-26.91-21.09-38.03-1.12-1.27-2.07-2.04-4.02-.39-4.2,3.55-8.46,7-12.29,10.95-13.33,13.74-26.4,27.71-38.12,42.9-7.6,9.86-15.13,19.75-22.22,30.13,14.09,5.48,23.74,16.02,33.47,27.42,.68-4.33,3.51-4.82,6.83-5.17,9.25-.99,18.36-2.38,27-6.38,5.19-2.4,10.15-5.14,14.66-8.43,12.66-9.26,20.69-20.95,18.39-37.78-.7-5.12-1.34-10.24-2.61-15.21Zm-15.25,37.72c-3.86,11.5-12.41,18.01-23.26,22.3-7.66,3.03-15.41,4.3-23.35,1.7-7.52-2.46-11.59-9.18-16.85-14.41,0,0,0,0,0,0,0,0,0,0,0,0-2.38-2.19-1.69-4.5-.05-6.63,13.37-17.37,28.79-32.46,48.48-42.6,7.12-3.67,12.07-3.06,15.7,1.09,3.61,12.92,3.62,25.78-.67,38.56Z" fill="#fdebd1"/><path d="M301.63,300.99c-.65-18.6-.34-37.25-2.41-55.78-.74-6.63-1.71-7.06-7.74-3.74-11.69,6.44-19.95,16.38-27.61,26.95-8.51,11.74-13.61,24.65-14.04,41.59,.94,11.97,6.08,24.01,17.58,33.09,2.95,2.33,5.03,2.93,7.95,.16,7.44-7.04,16.39-10.62,26.65-10.61,2.96,0,2.06-1.77,1.91-3.32-.89-9.44-1.96-18.85-2.29-28.34Zm-4.52,25.01c-5.68,2.25-11.42,4.37-17.03,6.79-7.58,3.27-11.84,1.65-14.84-6-6.41-16.34-4.8-32.5,1.29-48.5,.99-2.61,2.39-5.07,3.59-7.6h0s0,0,0,0c.68-2.52,2.43-4.35,4.2-6.07,4.21-4.08,8.25-3.49,11.51,1.43,6.02,9.08,8.28,19.43,10.2,29.89,1.41,7.66,2.64,15.35,4,23.03,.53,3,.46,5.69-2.92,7.04Z" fill="#fdebd1"/><path d="M254.94,697.56c-.54,2.23-1.62,3.87-3.66,4.87-.46,.44-.89,.92-1.38,1.32-.72,.59-2.19,.76-1.99,1.85,.28,1.52,1.88,.8,2.9,1.11,0,0,0,0,0,0,0,0,0,0,0,0,.85,.14,1.8,.39,1.31,1.5-2.91,6.56-1.09,15.19-9.73,19.93,4.26,.62,4.99,2.4,4.09,5.5-.73,2.52-1.3,5.35-.92,7.89,.91,5.96-3.7,11.37-1.3,17.47,.85,2.16,1.38,4.31,3.99,4.32,2.62,.01,3.73-1.97,3.93-4.34,.14-1.68,.96-2.22,2.51-2.41,4.46-.55,8.91-1.17,13.35-1.88,2.46-.39,3.23,.46,3.08,2.93-.3,4.98-.5,9.99,.13,14.97,.31,2.5,.43,5.58,3.9,5.2,3.38-.37,3.17-3.3,2.71-5.88-.84-4.8-.58-9.62-.53-14.45,.03-2.85,.97-4.18,3.86-4.63,5.91-.92,11.82-1.97,17.65-3.33,2.93-.69,3.7-.17,3.56,2.88-.33,7.48-1.86,14.88-1.28,22.41,.21,2.67,.51,5.42,3.71,5.51,3.33,.09,3.83-2.67,3.69-5.35-.44-8.37,1.34-16.58,1.64-24.89,.07-1.84,.44-3.03,2.59-3.53,6.48-1.51,12.94-3.14,19.33-5,2.99-.87,3.34,.3,3.24,2.81-.25,6.49-.36,12.99-.46,19.48-.04,2.69-.18,5.9,3.52,6.03,3.73,.13,3.79-3.04,3.84-5.76,.14-7.16,.25-14.33,.33-21.49,.02-1.92,.04-3.53,2.58-4.02,6.04-1.16,12.05-2.51,18.04-3.94,2.46-.59,3.2,.24,3.41,2.62,.32,3.81,.98,7.58,1.5,11.37,.34,2.42,1.42,4.28,4.16,3.89,2.73-.38,3.29-2.57,3.07-4.9-.36-3.81-.62-7.65-1.43-11.37-.7-3.21,.57-4.2,3.4-4.56,3.46-.44,6.9-1.07,10.34-1.66,2.07-.35,4.14-.97,3.95-3.59-.21-2.96-2.59-3.21-4.82-3.02-3.47,.3-6.96,.7-10.37,1.38-2.08,.41-2.9,.28-3.12-2.15-.61-6.64-.82-13.29-.93-19.95-.04-2.84,1.15-3.75,3.66-4.18,4.75-.83,9.45-1.93,14.19-2.83,2.23-.42,4.64-.85,4.26-3.75-.39-3.02-3.03-2.62-5.16-2.41-1.98,.19-3.92,.74-5.89,1.05-3.57,.55-8.18,3.54-10.36,1.47-2.36-2.24-.42-7.28-.78-11.07-.27-2.9,.81-3.99,3.71-4.57,10.61-2.12,21.19-4.34,31.9-5.9,2.99-.43,6.7-.22,6.63-4.92-.43-.61-.86-1.22-1.29-1.82-2.97-.05-5.95-.09-8.92-.14-9.61,1.94-19.22,3.86-28.82,5.85-2.22,.46-3.2,.16-3.34-2.52-.42-8.13-.55-8.1,7.38-9.25,2.79-.41,5.6-.82,8.34-1.5,1.81-.45,3.6-1.48,3.1-3.8-.44-2.08-2.32-2.2-4.02-2.05-3.95,.36-7.91,.75-11.72,2.02-1.32,1.74-2.83,1.89-3.8-.11-1.78-3.65-2.86-1.35-4.09,.16-.04,.05-.08,.11-.13,.15-5.53,2.56-11.69,2.16-17.44,3.75-2.37,.66-2.28-1.07-2.13-2.67,.22-2.31,.47-4.62,.58-6.94,.06-1.19-.3-2.51-1.6-2.77-1.45-.29-1.96,1.05-2.27,2.16-.8,2.88-1.62,5.76-2.19,8.69-.38,1.97-.97,3.28-3.22,3.78-4.86,1.08-9.67,2.42-14.47,3.77-2.71,.77-3.17-.17-2.7-2.68,.53-2.83,2.03-7.28-1.24-7.9-3.64-.69-3.46,4.29-3.74,6.82-.57,5.31-3.4,7.22-8.23,8.08-5.04,.9-9.95,2.55-15.34,3.99-.21-2.79,.98-5.37,0-7.85-2.48-.2-3.92,.78-4.38,3.38-.83,4.69-3.55,7.37-8.41,8.37-3.84,.79-7.69,1.9-11.17,3.89-1.23,2.39-.33,3.32,2.06,3.22,.05,0,.09,0,.14,0h0c2.89-.63,5.83-1.13,8.67-1.94,3.23-.92,3.72,.3,2.92,3.09-.72,2.54-1.33,5.12-1.88,7.71-.38,1.79-1.22,2.91-3.11,3.37-5.28,1.3-10.53,2.75-16.2,4.24-.11-4.88,2.55-8.8,2.62-13.18,0-.01,0-.03-.01-.04-.37-1.24,.34-3.01-1.66-3.53-.51,.94-.89,1.86-1.47,2.63-.68,.9-1.53,1.67-2.3,2.5-2.06,3.43-3.19,7.22-4.11,11.07Zm2.38,28.87c4.67-1.16,9.3-2.47,13.94-3.76,2.49-.69,3.31,.14,2.89,2.69-1.07,6.55-2.11,13.11-2.18,19.77-.02,1.87-.95,2.67-2.64,2.96-4.74,.82-9.48,1.66-14.75,2.59-1.43,.38-2.28-.33-2.05-2.38,.71-6.26,1.38-12.53,2.09-18.79,.18-1.64,.97-2.64,2.72-3.07Zm89.29-61.7c.26-2.25,2.42-1.87,3.95-2.17,3.41-.67,6.92-.97,10.24-1.94,4.96-1.45,6.4,.27,5.08,5.07,1.39,4.94-1.17,6.64-5.74,7.27-3.92,.53-7.72,1.84-11.6,2.72-.86,.2-2.53,1.03-2.56-.12-.11-3.6,.21-7.24,.63-10.84Zm-.83,19.55c5.07-3.44,11.92-3.71,18.09-4.99,1.54-.32,1.5,.83,1.5,1.84,0,2,0,3.99,0,5.99q-.22,7.57-7.71,9.46c-3.54,.9-7.08,1.83-10.61,2.8-2.08,.57-3.26,.16-2.88-2.29,.03-.16,0-.33,.03-.5,.65-4.2-1.7-10.1,1.57-12.32Zm-2.57,44.19c.35-6.29,.52-12.6,.5-18.91,0-2.55,1.07-3.43,3.37-3.94,4.69-1.04,9.37-2.21,13.97-3.6,3.22-.97,4.64-.37,4.18,3.25-.23,1.8-.04,3.65-.04,5.47-.05,0-.1,0-.16,.01,.36,4.29,.68,8.59,1.08,12.88,.22,2.33-.37,3.57-3.03,4.03-5.54,.97-11.02,2.33-16.5,3.65-2.61,.63-3.53-.02-3.37-2.85Zm-24.87-48.86c1.32-9.67,1.23-9.69,10.86-12.29,2.57-.69,5.19-1.22,7.71-2.06,2.81-.94,3.75-.08,3.12,2.78-.3,2.43-.71,4.9-.87,7.38-.13,1.96-.93,2.95-2.89,3.39-5.03,1.13-10.05,2.35-15.02,3.71-2.93,.8-3.29-.2-2.92-2.9Zm-3.97,24.4c.58-3.59,1.1-7.19,1.52-10.8,.27-2.27,1.77-2.93,3.66-3.36,4.51-1.04,9.09-1.9,13.5-3.29,3.87-1.23,5.2-.37,4.27,3.66-.22,.95-.11,1.98-.16,2.97q-.29,8.54-8.45,10.51c-3.86,.93-7.74,1.78-11.6,2.71-2.12,.51-3.13,0-2.73-2.39Zm1.79,8.61c5.71-1.09,11.4-2.35,17.04-3.77,2.83-.71,3.48,.26,3.32,2.89-.19,2.98-.04,5.98-.04,8.98q-.65,12.71-12.99,15.91c-3.38,.88-6.74,1.8-10.11,2.73-2.26,.62-2.97-.17-2.72-2.48,.72-6.77,1.32-13.56,1.88-20.35,.19-2.35,1.24-3.45,3.63-3.91Zm-26.7-32.79c.4-1.85,1.54-2.75,3.35-3.18,5.95-1.42,11.91-2.84,17.8-4.48,2.58-.72,2.94,.25,2.45,2.38-.6,2.58-1.35,5.13-1.76,7.73-.33,2.13-1.41,3.08-3.44,3.57-6.72,1.65-13.4,3.45-20.97,5.43,1-4.41,1.81-7.93,2.58-11.46Zm-7.07,31.85c.75-3.74,1.47-7.49,2.18-11.24,.33-1.75,1.6-2.36,3.15-2.74,5.96-1.48,11.94-2.91,17.86-4.54,2.72-.75,3.93-.41,2.83,2.48q-1.64,13.1-14.29,16.25c-3.06,.76-6.17,1.35-9.2,2.22-2.48,.71-2.97-.24-2.53-2.42Zm-3.92,27.91c.5-3.97,1.35-9.88,1.95-15.82,.22-2.19,1.08-3.19,3.21-3.65,6.32-1.36,12.62-2.85,18.9-4.4,2.42-.6,2.85,.33,2.63,2.49-.72,6.93-1.46,13.86-1.92,20.8-.16,2.5-1.6,2.95-3.47,3.34-5.52,1.14-11.03,2.34-16.56,3.44-5.19,1.04-5.2,1-4.74-6.2Zm-16.42-36.1c4.72-1,9.44-1.98,14.15-3.03,2.12-.47,2.22,.68,1.94,2.21-.73,3.92-1.48,7.84-2.22,11.76-.29,1.52-1.32,2.12-2.74,2.48-5.45,1.41-10.88,2.91-16.98,4.56,1.23-5.51,2.31-10.35,3.38-15.19,.31-1.4,.96-2.47,2.47-2.79Z" fill="#322625"/><path d="M247.91,705.6c-.2-1.09,1.27-1.26,1.99-1.85,.49-.4,.92-.88,1.38-1.32-3.64,.39-6.47,3.28-10.22,3.33-1.04,.01-2.15,.19-2.44,1.22-.42,1.49,1.19,1.72,1.96,2.48,3.46-.74,7.13-.66,10.23-2.75,0,0,0,0,0,0-1.01-.31-2.62,.41-2.9-1.11Z" fill="#322625"/><path d="M485.13,311.9c-2.29-1.8-5.72,.14-8.46,1.45-11.26,5.39-20.56,13.46-29.52,21.92-6.29,5.94-12.23,12.24-17,19.52-1.38,2.1-2.96,3.57-5.65,3.21,0,0,0,0,0,0,5.26,5.23,9.33,11.95,16.85,14.41,7.94,2.6,15.68,1.33,23.35-1.7,10.85-4.28,19.4-10.8,23.26-22.3,4.29-12.78,4.28-25.64,.67-38.56-.33,2.03,.66,5.32-3.5,2.04Z" fill="#f3a9aa"/><path d="M430.15,354.8c4.77-7.28,10.71-13.58,17-19.52,8.96-8.46,18.26-16.52,29.52-21.92,2.74-1.31,6.17-3.26,8.46-1.45,4.16,3.28,3.16,0,3.5-2.04-3.64-4.16-8.59-4.76-15.7-1.09-19.69,10.14-35.11,25.23-48.48,42.6-1.64,2.13-2.33,4.44,.05,6.63,0,0,0,0,0,0,2.7,.36,4.28-1.11,5.65-3.21Z" fill="#332726"/><path d="M292.27,319c-1.4-14.09-3.17-28.11-7.13-41.76-.37-1.28-.61-2.61-1.1-3.84q-3.21-8.09-9.24-2.08c-1.87,1.87-3.57,2.78-4.69-.65h0c-1.21,2.53-2.6,4.99-3.59,7.6-6.09,16-7.7,32.16-1.29,48.5,3,7.65,7.26,9.27,14.84,6,5.61-2.42,11.35-4.54,17.03-6.79-4.29-.48-4.51-3.79-4.83-6.99Z" fill="#f3a9aa"/><path d="M296.03,295.93c-1.92-10.46-4.18-20.81-10.2-29.89-3.26-4.92-7.3-5.51-11.51-1.43-1.78,1.72-3.53,3.55-4.2,6.07,0,0,0,0,0,0,1.12,3.42,2.82,2.52,4.69,.65q6.01-6.01,9.24,2.08c.49,1.23,.73,2.56,1.1,3.84,3.96,13.65,5.73,27.67,7.13,41.76,.32,3.2,.55,6.51,4.83,6.99,3.38-1.35,3.45-4.04,2.92-7.04-1.35-7.67-2.59-15.36-4-23.03Z" fill="#342726"/><path d="M404.31,663.61c2.97,.05,5.95,.09,8.92,.14-2.94-2.35-5.92-1.51-8.92-.14Z" fill="#d8d2d0"/></svg>