<?xml version="1.0" encoding="UTF-8"?><svg id="_레이어_1" xmlns="http://www.w3.org/2000/svg" viewBox="0 0 912.48 912.48"><path d="M629.87,333.52c-.12-.08-.22-.15-.33-.23,.03,.14,.05,.28,.05,.42,.09-.06,.19-.12,.28-.19Z" fill="#fefefe"/><path d="M516.33,79.22c-2.06,1.48-3.74,.18-5.23-1.31-5.52-5.54-10.92-11.2-16.6-16.57-13.79-13.03-28.04-25.52-43.92-36-6.98-4.61-11.34-3.69-15.77,3.39-6.66,10.62-10.66,22.07-11.18,34.72-.36,8.7-2.72,9.66-11.12,7.48-14.44-3.74-28.81-7.95-43.67-9.84-7.55-.96-13.2,2.94-17.18,11.53-2.68,5.78-4.28,11.87-5.19,18.16-.17,1.15,.12,2.63-.49,3.42-4.66,5.95,.21,9.49,3.35,13.29,10.62,12.88,19.89,26.65,28.14,41.14,4.14,7.28,7.28,14.92,9.48,22.99,1.35,4.97,2.74,9.89,5.13,14.55,1.36,2.64,2.96,5.9-.34,8.63,0,0,0,0,0,0,1.61,2.4,.88,4.82,.06,7.24,0,0,0,0,0,0,1.1,0,2.43-.96,3.22,.27,.76,1.18-.34,2.2-1.03,3.03-4.75,5.73-9.53,11.43-14.36,17.08-4.76,5.57-8.79,11.58-11.41,18.48-.66,1.74-1.8,3.26-3.98,3.21-2.42-.06-2.78-1.93-3.12-3.77-1.1,4.85-3.53,8.7-8.19,10.88,1.34,4.96-.1,6.88-4.78,5.94-21.47-4.28-40.71-12.51-55.11-30-4.05-4.92-4.46-11.42-8.48-16.15h0c-.37,.71-.74,1.42-1.11,2.13,0,0,0,0,0,0,0,0,0,0,0,0,3.13,18.53,6.67,37.01,9.25,55.62,2.19,15.81,3.45,31.75,4.04,47.74,1.02,27.29,2.76,54.55,3.43,81.85,.56,22.79,1.36,45.64-.65,68.42-2.12,24.02-4.41,48.06-10.32,71.52-4.3,17.09-10.28,33.7-15.36,50.56-12.45,41.31-29.58,80.51-51.4,117.69-6.15,10.49-12.5,20.89-20.76,29.89-2.32,2.53-1.72,3.65,.82,5.16,1.84,1.09,3.55,2.5,5.05,4.03,1.6,1.64,2.54,4,.99,5.91-3.45,4.25-3.51,9.53-4.77,14.38-1.39,5.35,2.06,10.7,9.23,12,9.17,1.65,11.55,6.07,11.79,15.01,.25,9.16,2.4,18.43,5.15,27.37,.92,2.97,2.58,4.61,5.8,5.3,19.51,4.14,38.67,3.71,57.36-3.85,3.01-1.22,5.95-2.53,8.64,.61,.38,.45,.93,1.25,1.57,.66,.55-.51,.92-1.37,1.07-2.14,.24-1.2-.88-1.63-1.6-2.29-23.56-21.52-36.24-48.41-39.18-79.99-1.74-18.7,.05-36.99,4.52-55.4,5.01-20.59,11.44-40.61,18.92-60.36,.47-1.23,1-2.58,1.89-3.49,5.27-5.35,4.03-11.12,1.33-17.05-.48-1.06-1-2.12-1.36-3.22-1.44-4.44,.02-6.67,4.61-7.17,7.97-.87,8.02-.86,9.01-8.73,1.93-15.45,1.76-30.88-.73-46.27-.66-4.08-.36-8.08,3.5-10.59,1.88-1.22,1.45-2.81,1.47-4.38,.09-7.83,0-15.66,.19-23.49,.2-8.65,.59-9.06,9-10.45,1.53-.25,1.8-1.32,2.29-2.29,4.1-8.18,7.51-16.76,14.04-23.47,1.44-1.48,.54-2.15-.73-3.03-4.36-3.03-9.18-5.42-12.97-9.27-1.72-1.75-2.43-.38-3.16,1.16-1.22,2.57-3.24,4.11-6.01,2.57-2.58-1.44-1.87-3.85-1.03-6.19,2.23-6.27,4.23-12.61,6.55-18.84,.96-2.59,.79-4.81-.56-7.12-1.18-2.01-2.24-4.09-3.3-6.16-3.9-7.63-3.82-9.23,1.92-15.35,2.23-2.38,2.09-3.94,0-6.26-7.25-8.08-6.99-8.19-1.49-17.55,3.96-6.74,8.93-12.85,12.18-20.03,1.18-2.62,1.49-5.03,.34-7.66-2.54-5.8-5.28-11.54-.97-17.81,.76-1.1,.5-2.9,.71-4.37,0,0,0,0,0,0,0,0,0,0,0,0-.03-2.46-.88-5,.74-7.3h0s0,0,0,0c.29-2.81,.59-5.63,.85-8.44,.15-1.61-.34-3.5,1.61-4.37,2.22-1,3.86,.29,5.32,1.71,5.52,5.39,11.63,10.1,18.43,13.63,18.94,9.82,38.08,19.26,59.76,21.49,6.51,.67,6.83,.24,7.22-6.12,.03-.5,.04-1,.07-1.5,.95-12.13,2.75-13.11,13.59-8.31,12.16,5.38,23.82,11.75,36.43,16.26,18.77,6.72,37.76,10.41,57.71,8.84,2.8-.22,4.28-1.36,4.93-3.95,.77-3.07,1.42-6.18,2.41-9.17,1.92-5.84,5.64-6.93,11.18-4.34,20.69,9.66,42.25,14.71,64.92,8.95,7.12-1.81,14.02-5.32,20.68-9.96,0-.14-.02-.28-.05-.42-2.17-1.5-3.95-2.78-5.78-3.96-4.95-3.23-5.28-5.35-1.28-9.91,4.82-5.5,10.72-10.15,14.12-16.76,5.99-11.65,12.75-23.02,15.32-36.12,1.3-6.62,1.03-13.23-.28-19.85-.71-3.6-2.08-5.09-6.12-4.16-11.14,2.56-22.37,4.7-33.56,7.02-.16,.03-.32,.12-.48,.13-2.37,.18-5.73,1.99-6.71-.9-1.1-3.23,2.73-3.71,4.89-4.3,3.34-.91,4.01-2.71,3.54-5.85-.46-3.11-.37-6.3-.52-9.46,0,0,0,0,0,0,0,0,0,0,0,0-.38-1.31,0-3.15-2.19-3.23-8.51,4.41-17.59,6.46-27.15,6.58-1.81,.02-3.65,.5-4.86-1.41h0c-13.55-14.31-20.99-33.65-37.53-45.49-.87-.62-2.39-1.13-1.82-2.58,.77-1.97,2.27-.31,3.44-.41-.44-1.42-.88-2.85-1.32-4.27-3.78-1.55-5.07-4.84-3.34-9.2,.85-2.15,1.99-4.22,3.25-6.16,11.96-18.39,21.68-38.11,33.49-56.59,1.28-2,2.13-3.33-.52-5.15-2.67-1.82-3.26-5.27-4.69-8.07-6.31-12.41-14.71-22.8-27.89-28.58-4.59-2.01-7.89-1.08-10.57,3.15-1.5,2.38-3.4,4.51-5.2,6.69-1.36,1.65-3.08,2.46-5.29,1.97-2.59-.57-1.79-2.8-2.22-4.43h0c-.75,.03-1.49,.06-2.24,.09,0,0,0,0,0,0,.27,.6,.51,1.22,.83,1.79,1.05,1.92,1.48,3.9-.53,5.34Z" fill="#d4e062"/><path d="M513.54,373.91c.24-.16,.48-.31,.71-.47-.31,.04-.57,.16-.71,.47Z" fill="#322625"/><path d="M809.88,389.48c-7.03-26.55-23.92-44.38-47.42-56.87-13.52-7.18-28.08-10.19-43.36-9.62-.28-2.25,.58-3.9,1.05-5.63,2.86-10.54,4.44-21.19,2.38-32.09-.77-4.06-2.44-7.6-6.11-9.89-4.68-2.91-9.51-5.96-14.82-7.03-4.81-.97-4.71-3.32-4.06-6.83,2.25-12.11,4.74-24.18,6.62-36.35,3.21-20.79,3.23-41.5-3.37-61.77-2.91-8.94-8.23-12.84-17.7-13.42-11.13-.68-22.25-1.47-33.38-1.95-2.44-.1-3.01-.86-3.32-3.06-1.26-8.74-3.23-17.37-5.78-25.81-4.42-14.64-10.24-28.6-21.94-39.16-10.73-9.68-19.53-8.84-28.29,2.56-3.31,4.31-6.46,8.74-10.2,13.8-2.56-7.33-6.5-13.25-10.87-18.82-7.42-9.47-15.13-18.74-27.58-22-3.99-1.04-8.05-1.65-11.56,.9-5.46,3.96-9.79,8.95-11.9,15.55,0,0,0,0,0,0,.44,1.63-.37,3.86,2.22,4.43,2.21,.49,3.94-.32,5.29-1.97,1.8-2.18,3.7-4.31,5.2-6.69,2.68-4.23,5.98-5.17,10.57-3.15,13.18,5.78,21.58,16.18,27.89,28.58,1.43,2.8,2.02,6.25,4.69,8.07,2.66,1.81,1.8,3.15,.52,5.15-11.82,18.47-21.53,38.2-33.49,56.59-1.26,1.94-2.4,4.01-3.25,6.16-1.73,4.36-.44,7.64,3.34,9.2,2.68-4.76,2.82-10.38,5.71-15.2,15.38-25.69,31.99-50.58,48.92-75.25,6.38-9.3,12.63-8.4,20.77-.36,8.38,8.28,12.37,19.25,15.83,30.21,4.62,14.62,7.71,29.57,8.21,45,.39,12.12-2.78,23.1-9.92,32.79-9.89,13.42-20.9,25.55-38.27,29.27h0c-2.54,2.33-5.62,.97-8.42,1.08-3.6,.14-5.58,1.49-5.59,5.22h0c1.21,1.91,3.05,1.43,4.86,1.41,9.56-.12,18.63-2.18,27.15-6.58,.61-.83,1.78-1.82,2.38-1.24,1.33,1.31,.44,2.98-.19,4.47,0,0,0,0,0,0,.15,3.16,.05,6.35,.52,9.46,.47,3.14-.2,4.94-3.54,5.85-2.16,.59-5.98,1.07-4.89,4.3,.98,2.89,4.35,1.07,6.71,.9,.16-.01,.32-.09,.48-.13,11.19-2.31,22.43-4.46,33.56-7.02,4.04-.93,5.41,.55,6.12,4.16,1.3,6.62,1.57,13.23,.28,19.85-2.56,13.11-9.33,24.47-15.32,36.12-3.4,6.61-9.3,11.26-14.12,16.76-4,4.56-3.67,6.68,1.28,9.91,1.82,1.19,3.61,2.47,5.78,3.96,.11,.08,.22,.15,.33,.23-.09,.07-.19,.12-.28,.19-6.66,4.64-13.56,8.15-20.68,9.96-22.66,5.75-44.23,.7-64.92-8.95-5.55-2.59-9.26-1.5-11.18,4.34-.99,3-1.64,6.11-2.41,9.17-.65,2.59-2.13,3.73-4.93,3.95-19.95,1.57-38.94-2.12-57.71-8.84-12.61-4.52-24.28-10.88-36.43-16.26-10.84-4.8-12.64-3.82-13.59,8.31-.04,.5-.04,1-.07,1.5-.39,6.36-.71,6.79-7.22,6.12-21.67-2.23-40.82-11.67-59.76-21.49-6.8-3.53-12.9-8.24-18.43-13.63-1.45-1.42-3.1-2.71-5.32-1.71-1.94,.88-1.46,2.76-1.61,4.37-.26,2.82-.56,5.63-.85,8.44,0,0,0,0,0,0,.15,2.47,.63,4.98-.74,7.29,0,0,0,0,0,0-.21,1.48,.05,3.27-.71,4.37-4.31,6.27-1.57,12.01,.97,17.81,1.15,2.63,.84,5.04-.34,7.66-3.25,7.18-8.22,13.29-12.18,20.03-5.49,9.36-5.76,9.47,1.49,17.55,2.08,2.32,2.23,3.88,0,6.26-5.74,6.13-5.81,7.72-1.92,15.35,1.06,2.07,2.13,4.15,3.3,6.16,1.35,2.31,1.52,4.54,.56,7.12-2.32,6.23-4.32,12.58-6.55,18.84-.83,2.34-1.55,4.76,1.03,6.19,2.77,1.54,4.79,0,6.01-2.57,.73-1.54,1.44-2.9,3.16-1.16,3.79,3.85,8.61,6.24,12.97,9.27,1.27,.88,2.17,1.55,.73,3.03-6.53,6.71-9.95,15.3-14.04,23.47-.49,.97-.76,2.03-2.29,2.29-8.41,1.4-8.8,1.8-9,10.45-.18,7.83-.1,15.66-.19,23.49-.02,1.57,.41,3.16-1.47,4.38-3.86,2.51-4.16,6.52-3.5,10.59,2.49,15.39,2.66,30.82,.73,46.27-.98,7.87-1.03,7.87-9.01,8.73-4.59,.5-6.04,2.72-4.61,7.17,.36,1.1,.88,2.16,1.36,3.22,2.7,5.93,3.94,11.7-1.33,17.05-.89,.91-1.42,2.26-1.89,3.49-7.48,19.75-13.91,39.77-18.92,60.36-4.47,18.4-6.26,36.69-4.52,55.4,2.94,31.58,15.62,58.48,39.18,79.99,.72,.66,1.85,1.09,1.6,2.29-.16,.77-.52,1.62-1.07,2.14-.63,.59-1.18-.22-1.57-.66-2.69-3.14-5.63-1.83-8.64-.61-18.7,7.56-37.85,7.99-57.36,3.85-3.22-.68-4.88-2.33-5.8-5.3-2.76-8.94-4.91-18.21-5.15-27.37-.24-8.94-2.63-13.36-11.79-15.01-7.17-1.29-10.62-6.64-9.23-12,1.26-4.85,1.32-10.13,4.77-14.38,1.55-1.91,.61-4.27-.99-5.91-1.49-1.53-3.21-2.94-5.05-4.03-2.54-1.51-3.14-2.63-.82-5.16,8.26-9,14.61-19.4,20.76-29.89,21.82-37.18,38.95-76.39,51.4-117.69,5.08-16.86,11.06-33.47,15.36-50.56,5.9-23.46,8.2-47.5,10.32-71.52,2.01-22.78,1.21-45.62,.65-68.42-.67-27.29-2.42-54.56-3.43-81.85-.6-15.99-1.85-31.93-4.04-47.74-2.58-18.61-6.12-37.09-9.25-55.62,0,0,0,0,0,0-1.09-1.16-.86-2.66-1.02-4.06,0,0,0,0,0,0-1.09-1.2-.9-2.68-.89-4.12h0c-1.06-.81-1.15-1.84-.49-3.46,.59,1.39,1.04,2.46,1.5,3.52h0c.33,1,.66,2,1,3,.34,1,.68,1.99,1.02,2.99h0s0,0,0,0c4.02,4.74,4.43,11.24,8.48,16.15,14.4,17.49,33.64,25.73,55.11,30,4.69,.93,6.12-.99,4.78-5.94-7.64-3.38-16.12-3.89-23.81-7.27-8.13-3.57-16.13-7.26-22.45-13.65-14.63-14.79-22.47-33.14-23.77-53.43-1.53-23.88,2.62-47.11,14.91-68.28,3.7-6.38,8.35-12.04,13.11-17.59,4.47-5.22,8.87-5.45,13.52-.36,23.99,26.3,46.45,53.61,57.76,88.25,1.93,5.91,4.35,11.8,9.52,15.89,0,0,0,0,0,0,0,0,0,0,0,0,3.29-2.73,1.69-5.99,.34-8.63-2.39-4.66-3.78-9.58-5.13-14.55-2.2-8.07-5.34-15.72-9.48-22.99-8.25-14.49-17.52-28.27-28.14-41.14-3.14-3.8-8.01-7.34-3.35-13.29,.62-.79,.33-2.26,.49-3.42,.91-6.29,2.51-12.38,5.19-18.16,3.97-8.58,9.63-12.49,17.18-11.53,14.86,1.89,29.23,6.1,43.67,9.84,8.4,2.18,10.76,1.22,11.12-7.48,.52-12.64,4.52-24.09,11.18-34.72,4.44-7.07,8.79-7.99,15.77-3.39,15.88,10.49,30.13,22.98,43.92,36,5.68,5.37,11.08,11.03,16.6,16.57,1.49,1.5,3.17,2.79,5.23,1.31,2.01-1.44,1.58-3.43,.53-5.34-.32-.57-.55-1.19-.83-1.79,0,0,0,0,0,0-1.29-1.53-2.5-3.12-3.88-4.56-17.55-18.33-36.58-34.97-57.37-49.54-10.44-7.32-20.45-5.14-27.24,5.76-6.87,11.02-11.64,22.8-12.27,35.97-.11,2.36-.18,3.7-3.74,2.81-14.01-3.5-27.79-7.96-42.24-9.76-7.96-.99-13.98,1.49-19.08,7.28-3.79,4.3-6.7,9.04-8.53,14.53-1.98,5.91-3.12,12.02-4.53,18.78-2.42-2.78-4.39-4.98-6.29-7.24-8.38-9.99-19.1-8.01-26.35,.56-9.48,11.2-17.34,23.17-22.15,37.07-.52,1.51-.85,2.93-3.16,3.15-28.33,2.75-54.04,13-78.82,26.62-11.96,6.58-17.98,16.38-20.95,28.76-7.21,30.01-8.43,60.37-3.22,90.75,1.28,7.49-.19,11.72-6.29,16.01-10.72,7.55-14.08,18.81-10.16,31.27,.71,2.26-.32,3.02-1.53,4.1-3.85,3.44-7.7,6.88-11.59,10.28-15.67,13.67-32.34,26.28-45.36,42.78-4.41,5.59-7.82,11.57-8.78,18.75-2.71,20.4,.72,40.19,6.32,59.68,7.98,27.79,19.87,54.03,32.44,79.96,7.63,15.74,15.45,31.44,27.64,44.34,2.45,2.6,2.85,4.19,.18,7.23-8.53,9.7-8.15,21.55,.44,31.18,1.89,2.11,3.75,4.27,5.85,6.15,2.13,1.91,2.18,3.22,.43,5.74-11.16,16.09-20.19,33.28-25.77,52.16-2.25,7.61-1.13,14.5,3.83,20.69,8.05,10.05,17.28,18.94,27.36,26.88,9.28,7.31,18.84,14.25,28.33,21.3,1.91,1.42,2.8,2.28,1.1,4.97-7.16,11.37-5.36,19.55,5.4,27.56,2.19,1.63,4.62,2.7,7.19,3.38,3.26,.86,4.5,2.25,4.58,6.1,.23,10.97,.9,21.99,4.79,32.47,1.26,3.4,3.03,6.47,6.79,7.45,4.66,1.21,9.36,2.59,14.13,3.04,18.05,1.67,35.97,1.61,53.05-5.82,1.06-.46,2.17-1.08,3.27-.16,1.2,1.01,.35,2.16,.06,3.22-1.81,6.58-3.68,13.14-5.49,19.72-.64,2.33-1.75,3.95-4.13,5.15-7.45,3.77-8.83,12.07-3.34,18.36,.84,.97,1.99,1.54,2.29,3.09,1.76,9.13,4.93,11.51,14.22,10.89,1.28-.08,2.6-.72,3.7,.6,7.67,9.22,16.98,8.47,26.68,4.12,2.06-.92,3.61-.83,5.62-.13,6.73,2.34,13.35,.54,16.25-5.76,2.67-5.8,6.71-10.65,9.44-16.23,6.82-13.97,15.25-26.94,23.36-40.12,1.53-2.49,2.93-3.3,5.98-2.57,10.71,2.56,21.67,3.93,32.6,4.79,21.83,1.72,43.58,.7,65.03-4.22,3.12-.72,6.11-2.03,8.57,2.12,7.66,12.92,17.15,24.57,26.32,36.43,1.74,2.25,2.42,4.24,2.08,7.19-1.07,9.06,7.98,17.24,15.34,13.23,4.49-2.45,7.16-.81,10.65,.37,7.8,2.63,15.38,4.07,20.88-4.32,.83-1.26,1.73-.96,2.97-.83,7.78,.82,13.4-3.88,14.16-11.87,.15-1.55,.29-2.44,1.76-3.54,8.24-6.16,8.02-15.22-1.37-19.08-5.92-2.43-6.05-6.36-6.81-10.85-.39-2.29-.16-4.69-.63-6.96-1.06-5.07-.46-8.98,5.23-10.96,2.08-.72,3.76-2.67,5.55-4.16,.87-.72,1.39-1.94,2.87-1.41,6.23,2.27,12.5,.65,18.78,.3,6.01-.34,9.37-3.61,11.29-8.96,1.1-3.08,1.14-6.27,.84-9.38-.42-4.51,.7-7.5,5.47-8.94,3.8-1.15,7.27-3.33,11.02-4.66,14.21-5.04,26.41-13.38,37.8-22.96,8.76-7.37,9.92-13.87,4.14-23.76-8.05-13.77-15-28.31-26.13-40.07-2.6-2.75-2.28-4.85,.28-7.55,7.6-8.01,13.2-17.56,19.63-26.46,4.98-6.89,5.06-14.05,.67-21.51-3.52-5.98-8.16-10.76-15.34-15.04,3.59-.75,5.64-1.18,7.69-1.61,19.34-4.02,37.96-10.24,55.38-19.51,9.8-5.21,19.86-10.32,27.8-18.44,24.1-24.61,43.37-52.22,53.3-85.65,8.07-27.18,11.34-54.7,5.95-82.85-1.98-10.33-5.71-20.17-8.38-30.26Zm-166.55-201.41c4.03-9.22,5.11-18.92,4.27-28.84-.31-3.69,.84-4.32,4.4-3.91,10.07,1.18,20.19,1.99,30.31,2.71,5.88,.41,9.49,3.02,11.12,8.84,4.85,17.3,4.79,34.76,2.65,52.42-1.87,15.39-6.22,30.3-8.28,45.65-.87,6.51-.2,8.27,5.94,9.76,4.78,1.16,8.93,3.51,13.33,5.46,5.08,2.24,7.15,5.87,7.35,11.26,.36,10.14-1.57,19.83-4.75,29.39-.72,2.16-2.03,2.36-3.76,2.28-17-.79-33.47,2.24-49.67,7.02-2.57,.76-2.64-.23-2.83-2.21-.83-8.77-1.77-17.53-2.72-26.29-.61-5.57,.18-10.68,2.73-15.89,5.72-11.71,8.74-24.08,6.1-37.24-.46-2.27-1.02-4.56-1.83-6.73-2.19-5.83-4.41-7.38-10.59-6.61-3.03,.38-3.7-.43-3.62-3.26,.18-5.65,.05-11.32,.05-14.64-.29-9.49,.09-16.66-.82-23.79-.23-1.83-.15-3.65,.61-5.39Zm-19.83,27.17c5.47-4.23,9.27-10.2,14.14-16.23,0,3.08,0,5.31,0,7.54,0,9.13-1.36,18.24-.63,27.38,.2,2.49-.66,3.72-3.15,4.02-1.64,.19-3.25,.67-4.88,1-10.55,2.14-10.2,2.1-11.48-8.82-.75-6.4,.83-10.89,5.99-14.88Zm7.76,105.64c5.18-4.8,9.7-10.2,13.64-16.3,.26,9.1,1.54,17.9,2.03,26.76,.21,3.9-4.02,3.34-6.28,4.35-2.73,1.23-1.43-1.78-1.79-2.78-1.24-3.38-3.7-5.46-6.72-7-2.61-1.34-3.54-2.57-.88-5.02Zm-13.62,26.4c-2.92,1.89-5.21,5.8-9.46,3.19,3.15-1.06,6.31-2.13,9.46-3.19Zm-50.92,7.86c-.13,3.02-.95,5.78-4.59,5.81-3.63,.03-4.6-2.74-4.69-5.77-.09-3.07,1.34-5.2,4.58-5.28,3.35-.08,4.48,2.23,4.7,5.24Zm-140.12,5.55c-.33,2.84-1.86,5.38-5.76,5.45-3.56,.06-5.01-2.2-5.08-5.44-.09-4.22,2.62-7.76,5.61-7.54,2.91,.21,5.36,3.4,5.24,7.53Zm-160.22-223.33c2.54-2.27,7.02-2.39,10.69-3.36,1.33-.35,2.37-.09,1.96,1.7-2.31,10.03-3.26,20.25-4.15,30.48-.02,.21-.47,.37-.91,.7-2.16-4.07-1.94-8.69-3.24-12.9-.83-2.69-1.61-5.4-2.17-8.15-.62-3-3.96-6.89-2.18-8.48Zm-75.02,595.89c-5.14-2.85-9.26-7.02-13.87-10.55-10.51-7.7-20-16.48-27.77-26.98-1.97-2.66-2.24-5.78-1.39-9.06,2.78-10.68,6.71-20.98,11.8-30.7,4.93-9.42,10-18.82,16.29-27.46,2.16-2.97,1.03-5.3-1.24-7.44-3.63-3.43-7.56-6.59-10.88-10.29-5.71-6.36-5.71-12.69-.58-19.3,1.26-1.63,2.33-3.1,4.88-1.71,1.83,1,3.99,.68,5.35-1.26,1.43-2.03,1.17-4.19-.24-6.05-2.11-2.78-4.33-5.5-6.7-8.07-12.84-13.95-20.92-30.78-28.99-47.61-11.59-24.19-22.31-48.73-29.94-74.52-4.47-15.1-6.63-30.52-7.19-46.25-.54-15.19,8.06-25.51,17.77-35.43,11.91-12.16,25.54-22.4,37.9-34.06,.73-.69,1.41-1.44,2.23-2,7.82-5.34,9.43-12.57,7.03-21.37-2.01-7.39,0-13.8,5.85-18.92,3.97-3.47,7.25-7.69,12.76-9.27,2.98-.86,3.2-3.9,2.66-6.76-3.55-18.76-4.49-37.72-3.42-56.73,.67-11.94,1.17-23.95,3.92-35.69,2.57-10.94,7.37-19.77,18.05-25.41,8.98-4.75,18.1-8.94,27.62-13.14,4.85,27.22,8.01,54.13,11.41,80.99,2.69,21.28,5.98,42.49,7.42,63.92,1.87,27.9,5,55.7,5.75,83.69,.55,20.49,.62,40.97,1.03,61.45,.68,34.1-5.88,67.14-13.49,100.14-7.3,31.67-16.15,62.84-27.78,93.16-10.56,27.53-23.45,54-38.11,79.61-1.83,3.19-4.94,6.39-1.05,10.23,0,0,0,0,0,0,0,0,0,0,0,0,2.48,.77,4.09-.2,5.33-2.39,21.12-37.12,38.61-75.81,51.53-116.58,11.43-36.06,19.91-72.81,26.64-109.98,4.38-24.21,3.99-48.75,3.78-73.23-.24-27.98-.74-55.98-3.26-83.86-2.75-30.5-4.57-61.08-9.13-91.42-3.76-25-6.72-50.13-10.78-75.09-1.06-6.54-2.76-13-4.46-19.41-.6-2.26-.32-3.39,1.95-4.12,5.86-1.9,11.67-3.91,17.5-5.9,2.41-.82,3.64-.83,4.24,2.47,5.77,31.74,11.49,63.5,17.84,95.13,6.68,33.28,9.02,66.94,10.29,100.75,1,26.62,3.8,53.15,4.09,79.8,.32,29.52-1.88,58.88-6.8,88.01-3.85,22.79-7.52,45.65-14.67,67.68-4.46,13.74-10.25,27.03-15.16,40.63-11.22,31.06-25.1,60.86-41.75,89.38-6.22,10.66-13.02,20.88-20.77,30.51-1.42,1.77-2.05,1.27-3.5,.47Zm395.79,124.38c2.43-1.01,3.38,.6,4.65,1.7,1.25,1.07,1.51,2.5,.5,4.03-2.59,3.92-5.26,7.74-6.68,12.36-.82,2.66-3.2,3.43-6.09,3.12-4.17-.46-8.2-.8-9.99,4.76-.97,3.01-4.5,3.29-7.37,2.84-7.35-1.15-14.71-2.34-21.97-3.91-5.43-1.18-4.4-6.4-3.81-9.52,1.08-5.68-1.62-9.18-4.71-12.92-8.69-10.51-17.37-21.04-26.23-31.76,.73-.48,1.38-.9,2.02-1.34,1.85-1.25,2.89-2.9,1.82-5.09-1.02-2.1-3.03-2.57-5.13-2.1-4.55,1.01-9.05,2.22-13.59,3.27-22.91,5.28-46.18,5.89-69.5,4.62-8.91-.49-17.46-3.95-26.56-4.25-6.19-.2-10.46,1.14-14.01,6.87-6.4,10.31-13.71,20.08-19.57,30.74-2.98,5.41-3.99,11.83-8.93,16.26-1.44,1.29-1.07,3.76-1.45,5.71-.81,4.22-4.04,6.74-7.93,5.32-5.25-1.92-9.86-.13-14.48,1.45-6.33,2.17-11.82,1.51-16.36-3.58-2.52-2.82-5.76-3.03-9.09-3.03-6.18,0-6.57-.28-6.1-6.21,.17-2.13-.87-3.27-2.27-4.62-3.22-3.1-2.85-5.17,1.22-6.31,3.57-1,5.1-3.33,5.96-6.62,3.62-13.83,7.29-27.66,11-41.47,.91-3.39-1.08-5.27-3.29-7.18-6.91-5.99-13.79-11.92-18.77-19.86-16.16-25.76-21.78-53.72-17.85-83.67,3.43-26.13,9.56-51.63,18.74-76.38,1.03-2.77,2.8-4.93,4.69-6.99,5.47-5.97,6.1-12.8,3.57-20.03-1.23-3.52-1.11-5.24,3.2-5.18,3.53,.05,5.25-2.17,5.97-5.54,3.88-18.23,3.03-36.41-.56-54.55-.51-2.59-1.07-4.28,2.69-4.53,3.98-.27,4.77-3.48,4.76-6.96-.04-9.81-.01-19.63-.01-29.77,5.34,1.57,7.36-1.41,9.17-5.51,4.02-9.12,7.9-18.35,14.72-25.95,1.99-2.22,3.68-2.74,6.44-1.67,8.1,3.15,16.59,4.89,25.13,6.36,2.44,.42,4.99,.55,5.67-2.44,.68-2.99-1.64-4.05-4.08-4.59-8.28-1.83-16.54-3.81-24.87-5.41-11.27-2.16-18.59-10.57-27.29-16.8-.93-.67-.87-1.72-.54-2.74,.25-.79,.39-1.65,.78-2.36,4.72-8.69,2.86-16.55-2.79-24.07-1.94-2.58-2.48-4.89,.61-7.64,6.56-5.83,6.72-9.35,.43-15.67-3.18-3.19-2.82-5.24-.71-8.76,3.94-6.55,8.54-12.68,12.07-19.51,2.8-5.4,3.02-10.38,.09-15.61-2.32-4.14-4.43-7.84-2.36-13.31,1.74-4.62,1.05-10.16,1.52-16.41,4.8,4.35,9.26,7.69,14.01,10.61,15.85,9.75,32.91,16.73,50.7,21.94,3.39,.99,3.85,1.58,2.74,5.13-3.1,9.92-4.85,19.87,.13,30.11,4.48,9.2,20.18,13.28,29.13,4.48,5.91-5.82,8.51-12.53,7.88-20.65-.27-3.49-.98-6.98-.83-10.45,.19-4.6-1.95-6.78-6.15-7.51-2.88-.5-4.35-1.31-3.05-4.91,1.03-2.86,.67-6.24,.87-9.39,.14-2.23,.78-2.95,3.06-1.75,4.42,2.33,9.05,4.24,13.45,6.6,19.73,10.55,40.66,17.35,62.83,20.21,8.31,1.07,16.64,.15,24.9-.83,5.37-.64,6.92-5,8.09-9.58,.73-2.84,.04-7.01,2.53-8.15,1.69-.77,4.94,1.86,7.48,3,1.01,.46,2.29,.5,3.27,2.5-10.11,.64-9.1,8.09-9.18,14.87-.06,4.83,.02,9.66,1.14,14.4,0,0,0,0,0,0,1.03,2.66,2.05,5.32,3.08,7.98h0c.93,.8,1.85,1.61,2.14,2.89,0,0,0,0,0,0,0,0,0,0,0,0,1.58,1.06,3.16,2.11,4.73,3.17,0,0,0,0,0,0h0c4.18,.47,8.26,.39,11.92-2.09,0,0,0,0,0,0,1.34-1.34,2.67-2.68,4.01-4.02,.85-1.44,1.35-3.13,2.95-4.02,5.1-9.27,2.88-18.68,.25-28.51,5.89,.63,11.43,1.4,16.99,1.76,2.95,.19,5.95-.3,8.93-.53,1.57-.12,3.29-1.07,4.04,1.42,.63,2.09,.04,3.35-1.72,4.6-9.62,6.84-18.74,14.31-27.33,22.42h0c-.85,1.87-2.43,3.07-4.01,4.26,0,0,0,0,0,0-.56,1.24-1.37,2.23-2.69,2.71,0,0,0,0,0,0-1.38,1.43-2.75,2.86-4.13,4.29-4.43,6.17-8.85,12.34-13.28,18.51,.02,1.41-.23,2.98-1.97,2.61-1.35-.29-.17-1.62-.15-2.49,.11-5.41,.22-10.82,.33-16.23,0,0,0,0,0,0-.04-.9-.09-1.79-.13-2.69,0,0,0,0,0,0-.69-2.3-1.38-4.61-2.06-6.91-1.18-1.94-2.46-3.84-2.91-6.12-4.68-7.84-11.7-11.42-20.71-11.25-4.8,.09-9.59-.96-14.38-.11-1.45,.26-2.88,.74-4.24,1.3-.72,.29-1.45,.95-1.13,1.91,.33,.99,1.24,.94,2.08,.79,4.47-.81,8.9-.34,13.32,.43h0s0,0,0,0c3.08-.18,6.18-.55,8.98,1.95h-11.97c-3.37,.83-6.82,1.26-9.98,2.94-6.78,3.6-8.59,10.25-4.36,16.76,8.78,13.51,29.01,15.2,40.26,2.79,1.39,7.03,1.31,13.52-1.68,19.57-8.36,16.93-20.25,30.71-36.95,39.99-.73,.4-1.48,.76-2.2,1.17-2.15,1.2-4.23,2.72-2.96,5.46,1.4,3.01,3.99,2.36,6.41,1.17,6.6-3.23,12.53-7.48,18.25-12.05h0c1.09-1.24,2.18-2.47,3.27-3.71,.33-1.15,1.12-1.88,2.46-2.54,.39,1.66-.46,2.6-1.49,3.47-.96,1.38-1.93,2.76-2.89,4.14-10.68,20.27-17.75,41.93-24.07,63.82-4.64,16.08-10.68,31.46-19.37,45.77-.35,.57-.69,1.14-1.05,1.7-4.4,6.73-4.55,6.56-9.98,1.24-3.47-3.4-6.3-6.48-6.87-11.82-.56-5.29-5.03-7.97-10.13-9.01-6.89-1.39-13.38-.06-18.97,4.09-2.88,2.14-5.27,2.06-8.24,.7-21.66-9.93-41.73-22.18-58.25-39.66-1.14-1.21-2.32-2.4-3.59-3.47-1.13-.95-2.53-2.27-3.96-1.12-1.8,1.45,.19,2.64,.87,3.76,6.34,10.36,14.98,18.68,23.99,26.61,11.61,10.23,24.91,17.77,39.13,23.65,6.99,2.89,7.74,2.49,12.91-3.32,2.96-3.33,12.73-5.18,16.43-2.86,2.56,1.61,4.4,4.25,2.34,7.07-2.51,3.43-1.12,4.48,2.05,5.64,5.41,1.98,8.43,6.21,10.05,11.57,.62,2.06,.46,4.08-.97,5.65-2.61,2.87-2.24,6-1.39,9.37,1.62,6.43,.45,8.47-5.74,11.1-1.5,.64-3.27,1.37-4.16,2.6-3.87,5.35-9.42,4.97-14.92,4.75-2.42-.1-4.65-1.1-5.61-3.49-1.54-3.83-4.57-4.15-7.84-3.42-23.64,5.3-47.03,1.55-70.44-1.79-.82-.12-1.65-.41-2.46-.34-1.33,.1-3.38-1.1-3.73,1.06-.25,1.49,1.61,1.77,2.83,2.28,8.84,3.69,18.31,4.72,27.55,6.8,12.45,2.8,24.96,3.22,38.01,3.51-3.13,2.01-6.15,4.19-9.39,6-17.89,9.95-35.59,20.29-53.85,29.51-9.97,5.03-13.66,12.44-13.38,22.82,.04,1.66,.13,3.32,.19,4.99,5.41,14.59,16.28,22.03,31.94,19.67,7.94-1.19,15.62-5.09,23.03-8.59,10.18-4.8,19.99-10.39,29.96-15.63,23.17-13.13,46.43-26.1,69.46-39.47,6.8-3.95,14.04-5.15,21.5-5.25,18.48-.23,36.96-.03,55.38,2.01,3.07,.34,4.02,1.23,3.72,4.22-.73,7.21,1.88,13.46,4.86,19.98,13.49,29.53,20.43,60.23,13.6,92.75-1.63,7.79-3.75,15.54-6.92,22.91-6.89,16-11.49,32.51-11.34,50.11,.05,5.49,2.55,10.72,1.6,16.29,0,0,0,0,0,0,0,0,0,0,0,0,.1,1.99,.2,3.98,.29,5.96,.72,3.23,1.35,6.48,2.17,9.68,1.3,5.04,3.33,6.18,8.22,4.13Zm-212.66-205.87c-.12-1.91-.23-3.55,1.84-4.66,5.4-2.9,10.73-5.94,16.99-9.43-.75,9.39,1.2,17.63,4.86,25.53,1.62,3.48,3.07,7.07,5.58,10,1.78,2.08,1.6,3.2-.88,4.42-3.88,1.91-7.62,4.1-11.42,6.17-1.73,1.54-3.66,3.91-3.85-.93-8.02-8.82-12.41-19.17-13.13-31.09Zm7.99,35.79c-8.72,5.35-23.06,4.23-30.34-2.09-8.07-7.01-6.67-21.7,2.56-26.74,4.52-2.46,9.05-4.91,14.23-7.72,.26,13.94,4.49,26.04,13.55,36.54Zm15.58-46.58c.06-5.83,5.83-12.16,11.91-13.24,1.56-.28,1.64,.61,1.75,1.61,1.39,12.23,4.86,23.72,12.1,33.85,1.16,1.62,.38,2.38-1,3.04-1.35,.65-2.71,1.25-4.05,1.92-7.86,3.9-7.98,3.97-12.38-3.93-4.05-7.26-7.7-14.73-8.32-23.25Zm17.95-14.3c-.74-5.36,4.45-5.66,7.25-7.97h0c.21-.25,.38-.59,.65-.73,1.54-.8,2.72-3.12,4.57-2.27,1.6,.73,.9,3,1.13,4.6,.11,.81,.05,1.64,.07,2.47,2.86,10.45,6.35,20.61,14,28.7,1.66,1.75,1.19,2.77-.68,3.76-1.46,.77-2.87,1.65-4.32,2.45-8.81,4.83-8.99,4.76-13.94-4.23-4.61-8.37-7.43-17.34-8.72-26.77Zm249.21,89.93c5.39,8.99,10.51,18.14,15.7,27.25,2.36,4.16,2.08,7.79-1.99,10.98-10.65,8.33-21.46,16.3-34.35,21.03-6.24,2.29-12.21,5.29-18.3,7.99-3.42,1.52-5.02,4.18-4.94,7.92,.08,3.66,.2,7.33,.08,10.99-.1,2.9-1.1,5.11-4.65,5.28-7.48,.34-14.46,1.96-21.42,5.35-10.72,5.22-12.81,3.28-12.73-8.47,.03-3.97,2.22-6.56,3.83-9.74,4.94-9.81,9.02-20.03,12.34-30.51,1.85-5.86,3.56-11.82,4.59-17.86,1.34-7.86,2.34-15.82,2.09-24.58,.12-25.85-8.27-49.94-21.39-72.66-1.82-3.15-3.36-6.42-3.41-10.29-.09-7.14,.02-7.7,7.35-6.92,9.77,1.04,19.57,1.12,29.35,1.79,8.22,.57,16.31,.05,24.39-.96,2.87-.36,4.05,.44,4.42,3.04,2.08,14.41,6.81,28.09,11.59,41.74,.9,2.56,.99,4.58-.97,6.86-5.78,6.74-6.04,9.05-1.49,16.81,3.02,5.16,6.84,9.85,9.92,14.98Zm12.54-66.01c1.15,3.26-.14,5.93-1.87,8.37-3.44,4.86-7.11,9.55-11.51,15.4-2.82-7.9-5.41-14.66-7.63-21.54-1.67-5.19-2.94-10.52-4.24-15.82-.41-1.66-2.21-3.88-.61-4.96,2.07-1.41,5.28-2.61,7.53-1.05,7.48,5.18,15.08,10.38,18.34,19.6Zm122.76-141.25c-10.59,27.57-25.49,52.32-46.92,72.87-8.05,7.72-18.31,12.02-27.73,17.64-26.07,15.56-55.74,19.14-84.51,25.59-6.02,1.35-12.61,.2-18.94,.2-24.96-.21-49.84-2.48-74.77-3.64-13.1-.61-26.26,.83-39.32,1.12-15.22,.34-24.92,10.33-37.12,15.84-5.74,2.6-11.09,6.1-16.43,9.48-2.24,1.42-3.38,.86-4.98-.87-6.88-7.37-10.89-16.25-14.01-25.66-1.02-3.08,.27-3.87,3.08-3.72,6.56,.34,12.61-.81,17.28-6.04,.57-.64,1.76-.81,2.7-1.01,8.94-1.95,13.01-7.9,11.02-16.81-.63-2.84,.74-4.89,1.2-7.29,1.55-8.25,8.09-12.57,12.53-18.6,7.42-10.09,12.32-21.52,16.15-33.56,8.13-25.51,14.72-51.7,27.76-75.31,15.3-27.72,31.04-55.36,54.99-76.85,30.07-26.97,64.67-44.92,105.11-50.34,5.91-.79,11.98-.51,17.97-.45,5.51,.06,10.97-.28,16.45-.73,15.08-1.24,28.56,3.89,41.18,11.41,19.09,11.38,31.4,27.79,38.51,49.12,5.96,17.9,10.2,35.99,10.38,54.63,.21,21.56-3.79,42.68-11.58,62.99Z" fill="#322625"/><path d="M361.12,240.34c4.32-12.25,14.11-20.39,22.37-29.67,2.65-2.98,5.53-5.76,8.3-8.64,0,0,0,0,0,0,0,0,0,0,0,0,.83-2.42,1.56-4.84-.06-7.24,0,0,0,0,0,0-5.18-4.09-7.59-9.98-9.52-15.89-11.31-34.64-33.77-61.96-57.76-88.25-4.65-5.1-9.05-4.86-13.52,.36-4.76,5.56-9.41,11.22-13.11,17.59-12.3,21.17-16.45,44.4-14.91,68.28,1.3,20.28,9.14,38.63,23.77,53.43,6.32,6.39,14.32,10.08,22.45,13.65,7.69,3.37,16.18,3.89,23.81,7.27,4.66-2.18,7.09-6.03,8.19-10.88Zm15.22-31.21c-6.91,4.44-12.42,10.44-17.53,16.69-6.14,7.52-8.03,8.65-16.63,4.32-18.89-9.52-33-23.51-40.13-43.97-7.18-20.61-6.38-40.59,3.49-60.13,0,0,0,0,0,0,0,0,0,0,0,0,.18-.28,.42-.54,.54-.84,4.54-12.11,8.53-12.61,19.95-5.72,3.37,2.03,5.54,5.26,7.9,8.26,11.27,14.37,19.97,30.25,27.52,46.82,4.42,9.69,9.4,19.11,14.98,28.19,1.42,2.31,1.6,4.28-.09,6.39Z" fill="#fdebd1"/><path d="M579.02,223.25c1.14,1.78,2.2,2.03,4,1.89,3.15-.24,6.31-.23,9.47-.33h0c17.37-3.72,28.38-15.85,38.27-29.27,7.14-9.69,10.3-20.67,9.92-32.79-.49-15.43-3.59-30.38-8.21-45-3.46-10.96-7.45-21.94-15.83-30.21-8.15-8.04-14.39-8.94-20.77,.36-16.93,24.68-33.53,49.56-48.92,75.25-2.88,4.82-3.03,10.43-5.71,15.2,.44,1.42,.88,2.85,1.32,4.27,15.05,10.95,26.5,25.14,36.46,40.64Zm-3.61-21.64c-2.41-4.33-3.94-9.2-7.72-12.69,0,0,0,0,0,0,0,0,0,0,0,0-4.37-2.33-7.25-9.12-6.32-14.92,.8-4.98,2.61-9.67,4.72-14.17,8.67-18.43,18.24-36.3,33.18-50.66,2.66-2.55,5.4-4.95,8.64-6.71,6.74-3.67,11.86-1.07,12.69,6.64,.21,1.95,.58,3.79,1.06,5.66h0c1.31,1.58,.46,3.57,1,5.3h0s0,0,0,0c3.7,21.64,5.78,43.04-6.62,63.09-6.57,10.62-16.45,17.25-26.82,23.17-6.37,3.64-10.17,1.85-13.82-4.7Z" fill="#fdebd1"/><path d="M579.02,223.25c-9.96-15.49-21.41-29.69-36.46-40.64-1.16,.11-2.66-1.56-3.44,.41-.57,1.45,.95,1.96,1.82,2.58,16.55,11.84,23.98,31.19,37.53,45.49h0c.01-3.73,1.99-5.07,5.59-5.22,2.8-.11,5.88,1.25,8.42-1.08h0c-3.16,.1-6.32,.09-9.47,.33-1.8,.14-2.86-.11-4-1.89Z" fill="#352a27"/><path d="M383.48,210.66c-8.26,9.28-18.05,17.42-22.37,29.67,.34,1.84,.7,3.71,3.12,3.77,2.17,.05,3.32-1.47,3.98-3.21,2.62-6.9,6.64-12.9,11.41-18.48,4.83-5.66,9.61-11.36,14.36-17.08,.69-.83,1.78-1.85,1.03-3.03-.79-1.24-2.12-.28-3.22-.27,0,0,0,0,0,0-2.77,2.87-5.65,5.66-8.3,8.64Z" fill="#362a27"/><path d="M323.74,326.29s0,0,0,0c1.37-2.32,.89-4.82,.74-7.29h0c-1.62,2.29-.77,4.84-.74,7.3Z" fill="#d3c79f"/><path d="M612.68,229.16s0,0,0,0c.64-1.48,1.52-3.15,.19-4.47-.6-.59-1.77,.4-2.38,1.24,2.2,.08,1.81,1.92,2.19,3.23Z" fill="#aeb650"/><path d="M284.56,211h0c-.34-1-.68-1.99-1.02-2.99-.37,.35-.74,.7-1.11,1.05,0,0,0,0,0,0,0,0,0,0,0,0,.16,1.4-.08,2.9,1.02,4.06,0,0,0,0,0,0,.37-.71,.74-1.42,1.11-2.13Z" fill="#a1a74a"/><path d="M578.94,853.5c-.83-3.2-1.46-6.45-2.17-9.68-1.96-1.9-1.59-3.91-.29-5.96,0,0,0,0,0,0,.95-5.57-1.55-10.8-1.6-16.29-.15-17.6,4.45-34.11,11.34-50.11,3.17-7.37,5.29-15.13,6.92-22.91,6.83-32.52-.11-63.22-13.6-92.75-2.98-6.52-5.59-12.77-4.86-19.98,.3-2.99-.64-3.88-3.72-4.22-18.42-2.04-36.9-2.24-55.38-2.01-7.46,.09-14.7,1.3-21.5,5.25-23.03,13.37-46.29,26.34-69.46,39.47,6.37,.86,12.75,1.7,19.12,2.6,1.3,.18,2.77,.25,3.83,.91,5.8,3.58,11.07,1.56,16.09-1.52,10.99-6.75,23.26-9.37,35.72-11.44,17.87-2.97,34.22,1.13,49.29,10.77,10.13,6.48,16.36,16.04,19.66,27.35,2.74,9.39,2.63,19.3,4.19,28.93,1.75,10.85-2.99,20.48-6.17,30.41-2.57,8.04-6.32,15.31-12.16,21.47-5.68,5.99-12.92,9.35-20.53,11.82-5.49,1.79-11.32,4.02-16.89,3.75-8.87-.43-17.96,.88-26.65-1.8-9.65-2.97-19.08-6.86-28.89-9.06-6.62-1.48-13.5-1.12-20.47,1.5-14.2,5.33-28.4,11.84-44.1,10.76-14.45-.99-29.17-.51-42.68-7.62-13.06-6.87-22.55-17.23-30.76-29.08-.75-1.09-1.33-2.31-2.14-3.35-11.04-14.23-11.88-29.83-5.78-46.09,5.2-13.85,12.55-26.39,24.41-35.76,0,0,0,0,0,0-.06-1.66-.15-3.32-.19-4.99-.28-10.38,3.41-17.79,13.38-22.82,18.26-9.22,35.96-19.56,53.85-29.51,3.24-1.8,6.27-3.99,9.39-6-13.04-.29-25.56-.71-38.01-3.51-9.24-2.08-18.71-3.11-27.55-6.8-1.22-.51-3.08-.79-2.83-2.28,.36-2.16,2.41-.95,3.73-1.06,.81-.06,1.64,.23,2.46,.34,23.41,3.34,46.8,7.08,70.44,1.79,3.27-.73,6.3-.42,7.84,3.42,.96,2.39,3.19,3.4,5.61,3.49,5.5,.22,11.05,.6,14.92-4.75,.89-1.23,2.66-1.97,4.16-2.6,6.19-2.63,7.36-4.67,5.74-11.1-.85-3.37-1.23-6.49,1.39-9.37,1.43-1.58,1.6-3.59,.97-5.65-1.63-5.36-4.64-9.6-10.05-11.57-3.17-1.16-4.56-2.2-2.05-5.64,2.06-2.82,.22-5.47-2.34-7.07-3.7-2.32-13.47-.47-16.43,2.86-5.17,5.81-5.92,6.21-12.91,3.32-14.23-5.89-27.52-13.43-39.13-23.65-9.01-7.94-17.65-16.26-23.99-26.61-.69-1.12-2.67-2.31-.87-3.76,1.43-1.15,2.83,.18,3.96,1.12,1.27,1.07,2.44,2.26,3.59,3.47,16.52,17.48,36.59,29.73,58.25,39.66,2.97,1.36,5.36,1.44,8.24-.7,5.59-4.15,12.07-5.48,18.97-4.09,5.1,1.03,9.57,3.72,10.13,9.01,.57,5.34,3.4,8.42,6.87,11.82,5.43,5.32,5.57,5.49,9.98-1.24,.36-.56,.71-1.13,1.05-1.7,8.68-14.31,14.72-29.69,19.37-45.77,6.32-21.89,13.38-43.55,24.07-63.82-.45-.46-.9-.91-1.35-1.37h0c-5.72,4.57-11.65,8.82-18.25,12.05-2.42,1.19-5.01,1.83-6.41-1.17-1.28-2.73,.81-4.26,2.96-5.46,.73-.4,1.47-.77,2.2-1.17,16.7-9.27,28.59-23.06,36.95-39.99,2.99-6.05,3.07-12.54,1.68-19.57-11.25,12.41-31.48,10.72-40.26-2.79-4.23-6.51-2.42-13.16,4.36-16.76,3.17-1.68,6.61-2.11,9.98-2.94,.14-.3,.4-.42,.71-.47,.76-.5,1.52-.99,2.28-1.49h0c-4.42-.76-8.85-1.24-13.32-.43-.83,.15-1.74,.2-2.08-.79-.32-.96,.41-1.62,1.13-1.91,1.36-.56,2.79-1.04,4.24-1.3,4.79-.86,9.58,.2,14.38,.11,9.01-.17,16.03,3.41,20.71,11.25,1.26-.69,.54-2.05,1-3,0,0,0,0,0,0,0,0,0,0,0,0-1.13-4.74-1.21-9.57-1.14-14.4,.09-6.78-.92-14.23,9.18-14.87-.98-2-2.25-2.04-3.27-2.5-2.54-1.15-5.79-3.77-7.48-3-2.5,1.14-1.8,5.3-2.53,8.15-1.18,4.58-2.72,8.94-8.09,9.58-8.26,.99-16.59,1.9-24.9,.83-22.17-2.86-43.1-9.66-62.83-20.21-4.4-2.35-9.04-4.27-13.45-6.6-2.28-1.2-2.92-.48-3.06,1.75-.19,3.15,.17,6.53-.87,9.39-1.3,3.6,.17,4.41,3.05,4.91,4.2,.73,6.34,2.91,6.15,7.51-.14,3.46,.56,6.96,.83,10.45,.63,8.12-1.97,14.82-7.88,20.65-8.94,8.81-24.65,4.73-29.13-4.48-4.98-10.23-3.23-20.18-.13-30.11,1.11-3.55,.65-4.14-2.74-5.13-17.79-5.2-34.85-12.18-50.7-21.94-4.75-2.92-9.21-6.26-14.01-10.61-.47,6.25,.22,11.78-1.52,16.41-2.06,5.47,.05,9.17,2.36,13.31,2.93,5.23,2.71,10.21-.09,15.61-3.54,6.83-8.13,12.96-12.07,19.51-2.11,3.51-2.47,5.56,.71,8.76,6.29,6.32,6.13,9.85-.43,15.67-3.09,2.75-2.55,5.06-.61,7.64,5.65,7.51,7.51,15.38,2.79,24.07-.39,.72-.52,1.57-.78,2.36-.32,1.01-.39,2.07,.54,2.74,8.7,6.23,16.01,14.64,27.29,16.8,8.33,1.59,16.59,3.57,24.87,5.41,2.45,.54,4.76,1.6,4.08,4.59-.67,2.98-3.23,2.86-5.67,2.44-8.54-1.47-17.03-3.21-25.13-6.36-2.75-1.07-4.44-.56-6.44,1.67-6.82,7.6-10.7,16.82-14.72,25.95-1.81,4.1-3.83,7.09-9.17,5.51,0,10.14-.03,19.96,.01,29.77,.02,3.49-.78,6.69-4.76,6.96-3.75,.25-3.2,1.94-2.69,4.53,3.59,18.14,4.44,36.31,.56,54.55-.72,3.38-2.44,5.6-5.97,5.54-4.3-.06-4.43,1.65-3.2,5.18,2.53,7.23,1.9,14.06-3.57,20.03-1.89,2.06-3.66,4.22-4.69,6.99-9.17,24.75-15.3,50.25-18.74,76.38-3.93,29.95,1.69,57.91,17.85,83.67,4.98,7.94,11.86,13.86,18.77,19.86,2.21,1.92,4.2,3.79,3.29,7.18-3.71,13.81-7.38,27.63-11,41.47-.86,3.29-2.39,5.62-5.96,6.62-4.07,1.14-4.44,3.21-1.22,6.31,1.4,1.35,2.44,2.49,2.27,4.62-.47,5.93-.08,6.21,6.1,6.21,3.34,0,6.58,.21,9.09,3.03,4.54,5.09,10.03,5.74,16.36,3.58,4.62-1.58,9.23-3.37,14.48-1.45,3.89,1.42,7.12-1.11,7.93-5.32,.38-1.96,0-4.42,1.45-5.71,4.94-4.42,5.96-10.85,8.93-16.26,5.87-10.66,13.17-20.43,19.57-30.74,3.55-5.73,7.82-7.07,14.01-6.87,9.09,.3,17.64,3.76,26.56,4.25,23.32,1.27,46.59,.66,69.5-4.62,4.54-1.05,9.04-2.26,13.59-3.27,2.1-.47,4.1,0,5.13,2.1,1.06,2.18,.02,3.83-1.82,5.09-.64,.44-1.3,.86-2.02,1.34,8.86,10.73,17.54,21.25,26.23,31.76,3.09,3.74,5.79,7.24,4.71,12.92-.59,3.12-1.62,8.34,3.81,9.52,7.26,1.58,14.62,2.77,21.97,3.91,2.87,.45,6.4,.17,7.37-2.84,1.79-5.56,5.81-5.22,9.99-4.76,2.89,.32,5.27-.46,6.09-3.12,1.42-4.62,4.1-8.44,6.68-12.36,1.01-1.53,.75-2.95-.5-4.03-1.27-1.09-2.22-2.71-4.65-1.7-4.89,2.04-6.92,.9-8.22-4.13Zm-180.37-438.78c.27-1.72-.03-4.77,3.19-4.62,3.43,.16,3.62,3.3,3.77,5.98,.13,2.42-.88,4.64-3.4,4.59-3.18-.07-3.7-2.74-3.56-5.95Zm-28.12,.02c-1.88,.16-2.72-.93-2.83-2.67-.15-2.22,4.07-7.73,6.08-7.92,1.91-.18,2.61,1.02,2.83,2.12,.14,2.7-4.13,8.3-6.07,8.47Zm13.08-.49c.32-3.93,3.67-8.59,5.93-8.11,2.14,.45,2.16,2.17,2.11,4.19-1.32,2.86-.89,7.47-5.64,7.95-2.29,.23-2.55-2.08-2.39-4.03Z" fill="#fdebd1"/><path d="M178.45,720.42c-3.89-3.84-.78-7.03,1.05-10.23,14.66-25.6,27.55-52.08,38.11-79.61,11.63-30.32,20.48-61.49,27.78-93.16,7.6-33,14.17-66.03,13.49-100.14-.41-20.48-.48-40.97-1.03-61.45-.75-27.99-3.87-55.79-5.75-83.69-1.44-21.43-4.73-42.64-7.42-63.92-3.39-26.87-6.55-53.77-11.41-80.99-9.52,4.2-18.64,8.39-27.62,13.14-10.67,5.64-15.48,14.47-18.05,25.41-2.75,11.74-3.25,23.75-3.92,35.69-1.07,19-.13,37.96,3.42,56.73,.54,2.86,.32,5.9-2.66,6.76-5.5,1.58-8.79,5.79-12.76,9.27-5.85,5.12-7.86,11.52-5.85,18.92,2.4,8.81,.79,16.04-7.03,21.37-.82,.56-1.51,1.31-2.23,2-12.36,11.66-25.99,21.9-37.9,34.06-9.71,9.92-18.31,20.24-17.77,35.43,.56,15.73,2.72,31.15,7.19,46.25,7.63,25.78,18.35,50.33,29.94,74.52,8.06,16.83,16.15,33.66,28.99,47.61,2.36,2.57,4.58,5.29,6.7,8.07,1.41,1.86,1.67,4.03,.24,6.05-1.37,1.94-3.52,2.26-5.35,1.26-2.55-1.39-3.61,.09-4.88,1.71-5.13,6.61-5.13,12.94,.58,19.3,3.32,3.7,7.25,6.86,10.88,10.29,2.27,2.15,3.4,4.47,1.24,7.44-6.29,8.64-11.37,18.04-16.29,27.46-5.09,9.72-9.01,20.02-11.8,30.7-.86,3.29-.58,6.41,1.39,9.06,7.77,10.5,17.26,19.28,27.77,26.98,.32-.76,.64-1.52,.96-2.28,0,0,0,0,0,0Z" fill="#d4e062"/><path d="M315.27,714.62c-6.1,16.26-5.26,31.86,5.78,46.09,.81,1.04,1.39,2.26,2.14,3.35,8.21,11.85,17.7,22.21,30.76,29.08,13.52,7.11,28.23,6.64,42.68,7.62,15.71,1.07,29.9-5.43,44.1-10.76,6.98-2.62,13.85-2.99,20.47-1.5,9.81,2.2,19.24,6.08,28.89,9.06,8.7,2.68,17.78,1.37,26.65,1.8,5.57,.27,11.4-1.96,16.89-3.75,7.61-2.47,14.85-5.83,20.53-11.82,5.84-6.16,9.59-13.43,12.16-21.47,3.18-9.93,7.92-19.56,6.17-30.41-1.56-9.63-1.45-19.55-4.19-28.93-3.3-11.31-9.53-20.87-19.66-27.35-15.07-9.64-31.42-13.74-49.29-10.77-12.47,2.07-24.73,4.69-35.72,11.44-5.02,3.08-10.29,5.1-16.09,1.52-1.06-.66-2.53-.72-3.83-.91-6.37-.89-12.74-1.74-19.12-2.6-9.97,5.25-19.78,10.83-29.96,15.63-7.41,3.5-15.09,7.4-23.03,8.59-15.67,2.36-26.53-5.08-31.94-19.67,0,0,0,0,0,0-11.86,9.38-19.21,21.91-24.41,35.76Z" fill="#f8cdcd"/><path d="M763.23,342.63c-12.62-7.52-26.1-12.65-41.18-11.41-5.48,.45-10.94,.79-16.45,.73-5.99-.07-12.07-.34-17.97,.45-40.44,5.42-75.05,23.37-105.11,50.34-23.96,21.49-39.69,49.13-54.99,76.85-13.03,23.61-19.63,49.81-27.76,75.31-3.84,12.04-8.73,23.47-16.15,33.56-4.44,6.03-10.98,10.35-12.53,18.6-.45,2.4-1.83,4.45-1.2,7.29,1.99,8.91-2.08,14.86-11.02,16.81-.94,.21-2.13,.38-2.7,1.01-4.67,5.23-10.72,6.38-17.28,6.04-2.81-.15-4.1,.64-3.08,3.72,3.12,9.41,7.13,18.29,14.01,25.66,1.61,1.72,2.74,2.28,4.98,.87,5.35-3.38,10.7-6.89,16.43-9.48,12.2-5.52,21.9-15.51,37.12-15.84,13.06-.29,26.22-1.73,39.32-1.12,24.93,1.16,49.81,3.43,74.77,3.64,6.33,0,12.91,1.15,18.94-.2,28.77-6.45,58.44-10.03,84.51-25.59,9.42-5.62,19.68-9.92,27.73-17.64,21.42-20.55,36.33-45.29,46.92-72.87,7.8-20.3,11.8-41.42,11.58-62.99-.18-18.64-4.42-36.73-10.38-54.63-7.11-21.33-19.41-37.74-38.51-49.12Zm8.55,179.33c-11.89,24.56-29.65,44.35-53.38,58.64-16.33,9.84-32.69,19.27-51.72,22.85-17.16,3.23-34.31,6.5-51.68,8.39-4.44,.48-8.97,.07-13.46,.07-21.82-.93-43.55-2.08-63.65-12.12-11.59-5.79-21.63-13.04-26.86-25.55-3.13-7.5-3.3-15.22-2.31-23.03,2.17-17.01,7.85-33.11,15.26-48.34,9.97-20.5,21.06-40.53,34.38-59.08,15.28-21.28,34.31-38.89,55.9-53.74,20.61-14.18,42.93-24.28,67.98-26.86,19.9-2.05,38.98-.03,57.78,8.94,30.58,14.6,42.89,40.2,46.12,71.34,2.82,27.28-2.46,53.87-14.38,78.48Z" fill="#69a0c0"/><path d="M257.38,612.9c4.91-13.6,10.71-26.89,15.16-40.63,7.15-22.03,10.82-44.89,14.67-67.68,4.92-29.13,7.12-58.49,6.8-88.01-.29-26.65-3.09-53.18-4.09-79.8-1.26-33.8-3.6-67.46-10.29-100.75-6.35-31.63-12.07-63.39-17.84-95.13-.6-3.31-1.83-3.3-4.24-2.47-5.82,1.99-11.64,4-17.5,5.9-2.27,.73-2.54,1.86-1.95,4.12,1.69,6.42,3.39,12.87,4.46,19.41,4.06,24.96,7.03,50.09,10.78,75.09,4.56,30.35,6.38,60.93,9.13,91.42,2.52,27.88,3.01,55.87,3.26,83.86,.21,24.48,.6,49.02-3.78,73.23-6.73,37.17-15.21,73.92-26.64,109.98-12.92,40.77-30.42,79.46-51.53,116.58-1.25,2.19-2.85,3.16-5.33,2.39,0,0,0,0,0,0-.32,.76-.64,1.52-.96,2.28,4.61,3.53,8.72,7.7,13.87,10.55,1.44,.8,2.08,1.29,3.5-.47,7.74-9.63,14.55-19.85,20.77-30.51,16.64-28.52,30.53-58.32,41.75-89.38Z" fill="#fff"/><path d="M656.81,684.82c1.95-2.28,1.86-4.3,.97-6.86-4.78-13.66-9.51-27.33-11.59-41.74-.37-2.6-1.55-3.39-4.42-3.04-8.08,1.01-16.18,1.52-24.39,.96-9.77-.67-19.57-.75-29.35-1.79-7.33-.78-7.44-.23-7.35,6.92,.05,3.87,1.59,7.14,3.41,10.29,13.12,22.73,21.51,46.82,21.39,72.66,.25,8.76-.75,16.71-2.09,24.58-1.03,6.04-2.74,12.01-4.59,17.86-3.32,10.48-7.4,20.7-12.34,30.51-1.6,3.18-3.8,5.77-3.83,9.74-.08,11.75,2.02,13.69,12.73,8.47,6.96-3.39,13.94-5.01,21.42-5.35,3.55-.16,4.56-2.38,4.65-5.28,.12-3.66,0-7.33-.08-10.99-.08-3.74,1.52-6.4,4.94-7.92,6.08-2.7,12.06-5.7,18.3-7.99,12.89-4.73,23.7-12.7,34.35-21.03,4.07-3.18,4.35-6.82,1.99-10.98-5.18-9.11-10.3-18.27-15.7-27.25-3.08-5.13-6.89-9.82-9.92-14.98-4.55-7.76-4.29-10.07,1.49-16.81Z" fill="#d4e062"/><path d="M643.53,217.25c0,3.32,.12,8.98-.05,14.64-.09,2.83,.58,3.63,3.62,3.26,6.18-.77,8.39,.78,10.59,6.61,.81,2.17,1.38,4.45,1.83,6.73,2.64,13.17-.38,25.53-6.1,37.24-2.54,5.21-3.33,10.32-2.73,15.89,.95,8.76,1.9,17.52,2.72,26.29,.19,1.98,.26,2.97,2.83,2.21,16.2-4.78,32.67-7.81,49.67-7.02,1.73,.08,3.04-.13,3.76-2.28,3.18-9.56,5.12-19.25,4.75-29.39-.19-5.39-2.27-9.01-7.35-11.26-4.4-1.95-8.55-4.3-13.33-5.46-6.14-1.49-6.82-3.25-5.94-9.76,2.06-15.35,6.41-30.26,8.28-45.65,2.14-17.66,2.2-35.12-2.65-52.42-1.63-5.82-5.24-8.43-11.12-8.84-10.12-.71-20.24-1.53-30.31-2.71-3.56-.42-4.71,.22-4.4,3.91,.84,9.92-.24,19.61-4.27,28.84-.76,1.74-.85,3.57-.61,5.39,.91,7.13,.53,14.3,.82,23.79Z" fill="#d4e062"/><path d="M354.71,658.73c-9.23,5.04-10.63,19.73-2.56,26.74,7.28,6.32,21.62,7.44,30.34,2.09-9.06-10.5-13.29-22.61-13.55-36.54-5.18,2.81-9.71,5.25-14.23,7.72Z" fill="#689fc0"/><path d="M391.48,683.78c3.8-2.07,7.54-4.25,11.42-6.17,2.48-1.22,2.65-2.34,.88-4.42-2.51-2.93-3.96-6.51-5.58-10-3.66-7.89-5.61-16.14-4.86-25.53-6.27,3.49-11.59,6.53-16.99,9.43-2.07,1.11-1.96,2.75-1.84,4.66,.72,11.92,5.11,22.26,13.13,31.09,1.14,.9,2.44,1.15,3.85,.93Z" fill="#fff"/><path d="M438.69,657.67c1.45-.8,2.86-1.68,4.32-2.45,1.87-.99,2.33-2.01,.68-3.76-7.66-8.09-11.14-18.25-14-28.7-1.4-2.52-3.1-4.56-6.41-4.06-2.81,2.31-7.99,2.62-7.25,7.97,1.3,9.43,4.11,18.4,8.72,26.77,4.96,8.99,5.13,9.06,13.94,4.23Z" fill="#fff"/><path d="M651.91,632.05c-1.6,1.08,.2,3.3,.61,4.96,1.31,5.3,2.57,10.63,4.24,15.82,2.22,6.88,4.81,13.64,7.63,21.54,4.4-5.85,8.07-10.55,11.51-15.4,1.73-2.44,3.02-5.11,1.87-8.37-3.26-9.22-10.86-14.42-18.34-19.6-2.25-1.56-5.46-.36-7.53,1.05Z" fill="#fff"/><path d="M418.78,668.16c1.34-.66,2.7-1.27,4.05-1.92,1.38-.66,2.15-1.42,1-3.04-7.24-10.13-10.7-21.62-12.1-33.85-.11-.99-.19-1.88-1.75-1.61-6.08,1.08-11.86,7.41-11.91,13.24,.62,8.52,4.28,15.99,8.32,23.25,4.4,7.9,4.52,7.82,12.38,3.93Z" fill="#fefeff"/><path d="M628.99,238.93c1.63-.33,3.24-.81,4.88-1,2.49-.29,3.35-1.52,3.15-4.02-.73-9.14,.63-18.25,.63-27.38,0-2.23,0-4.46,0-7.54-4.87,6.03-8.68,12.01-14.14,16.23-5.16,3.99-6.74,8.49-5.99,14.88,1.28,10.92,.93,10.96,11.48,8.82Z" fill="#fff"/><path d="M572.59,380.96c8.59-8.11,17.71-15.58,27.33-22.42,1.76-1.25,2.35-2.52,1.72-4.6-.76-2.48-2.47-1.54-4.04-1.42-2.98,.23-5.98,.73-8.93,.53-5.57-.36-11.11-1.13-16.99-1.76,2.63,9.83,4.84,19.24-.25,28.51,.39,.39,.78,.77,1.17,1.16h0Z" fill="#fcead0"/><path d="M632.14,325.9c3.02,1.55,5.48,3.62,6.72,7,.37,1-.94,4.01,1.79,2.78,2.26-1.02,6.49-.45,6.28-4.35-.49-8.85-1.77-17.65-2.03-26.76-3.94,6.1-8.46,11.51-13.64,16.3-2.65,2.46-1.73,3.68,.88,5.02Z" fill="#fdfdfd"/><path d="M270.74,153.99c1.3,4.21,1.08,8.83,3.24,12.9,.44-.33,.9-.5,.91-.7,.89-10.23,1.83-20.45,4.15-30.48,.41-1.79-.63-2.05-1.96-1.7-3.67,.97-8.16,1.09-10.69,3.36-1.78,1.59,1.57,5.48,2.18,8.48,.56,2.75,1.34,5.47,2.17,8.15Z" fill="#d1dd60"/><path d="M546.56,391.93s0,0,0,0c0,0,0,0,0,0,.04,.9,.09,1.79,.13,2.69,0,0,0,0,0,0h0c1.57,3.73,.94,7.67,1.07,11.53,.05,1.55-.83,3.26,.71,4.58,4.43-6.17,8.85-12.34,13.28-18.51-2.53-2.94-6.66,.55-9.22-2.29,0,0,0,0,0,0-1.58-1.06-3.16-2.11-4.73-3.17,0,0,0,0,0,0-2.24,1.28-.61,3.5-1.24,5.17Z" fill="#f9e6cd"/><path d="M415.76,360.7c.07,3.25,1.52,5.51,5.08,5.44,3.9-.07,5.44-2.61,5.76-5.45,.12-4.13-2.33-7.32-5.24-7.53-2.99-.22-5.7,3.32-5.61,7.54Z" fill="#f9f8f8"/><path d="M557.45,355.18c.09,3.04,1.06,5.81,4.69,5.77,3.64-.03,4.46-2.79,4.59-5.81-.22-3.01-1.34-5.32-4.7-5.24-3.24,.08-4.67,2.22-4.58,5.28Z" fill="#f9f9f9"/><path d="M547.77,406.15c-.13-3.87,.49-7.8-1.07-11.53h0c-.11,5.41-.23,10.82-.33,16.23-.02,.87-1.2,2.2,.15,2.49,1.74,.37,1.99-1.2,1.97-2.61-1.54-1.32-.66-3.03-.71-4.58Z" fill="#4b3f3b"/><path d="M513.54,373.91h11.97c-2.8-2.5-5.9-2.13-8.98-1.95,0,0,0,0,0,0-.76,.5-1.52,.99-2.28,1.49-.24,.16-.48,.31-.71,.47Z" fill="#c2b29f"/><path d="M429.69,622.77c-.02-.82,.04-1.66-.07-2.47-.22-1.6,.48-3.87-1.13-4.6-1.84-.84-3.02,1.47-4.57,2.27-.27,.14-.43,.48-.65,.73h0c3.31-.5,5.01,1.54,6.41,4.06Z" fill="#e6d7c4"/><path d="M617.64,347.28c-3.15,1.06-6.31,2.13-9.46,3.19,4.25,2.61,6.54-1.3,9.46-3.19Z" fill="#5c5633"/><path d="M561.76,392.22c1.38-1.43,2.75-2.86,4.13-4.29,0,0,0,0,0,0,0,0,0,0,0,0-.47-.03-.95-.06-1.42-.09h0s0,0,0,0c-3.66,2.48-7.74,2.56-11.92,2.09h0c2.55,2.84,6.68-.64,9.22,2.29Z" fill="#cbbaa7"/><path d="M541.59,378.89c.45,2.29,1.73,4.18,2.91,6.12,.39-.38,.78-.77,1.17-1.15-1.03-2.66-2.05-5.32-3.08-7.98,0,0,0,0,0,0-.47,.96,.26,2.31-1,3Z" fill="#a79787"/><path d="M546.56,391.93s0,0,0,0c.64-1.67-1-3.89,1.24-5.17,0,0,0,0,0,0-.29-1.28-1.21-2.09-2.14-2.89h0c-.39,.38-.78,.77-1.17,1.15,.69,2.3,1.38,4.61,2.06,6.91Z" fill="#c5b4a0"/><path d="M568.58,385.21s0,0,0,0c1.58-1.19,3.16-2.38,4.01-4.26h0c-.39-.39-.78-.77-1.17-1.16-1.6,.89-2.1,2.58-2.95,4.02,.04,.46,.07,.93,.11,1.39h0Z" fill="#aa9b8a"/><path d="M524.58,448.94c-.33-.31-.65-.62-.98-.93-1.09,1.24-2.18,2.47-3.27,3.71h0c.45,.46,.9,.91,1.35,1.37,.96-1.38,1.93-2.76,2.89-4.14Z" fill="#bdac99"/><path d="M565.88,387.93s0,0,0,0c1.32-.49,2.13-1.47,2.69-2.71h0c-.04-.47-.07-.93-.11-1.39-1.34,1.34-2.67,2.68-4.01,4.02h0c.47,.03,.95,.06,1.42,.09Z" fill="#8b7c70"/><path d="M387.63,682.85c.19,4.84,2.12,2.47,3.85,.93-1.41,.22-2.71-.03-3.85-.93Z" fill="#a19183"/><path d="M526.07,445.47c-1.35,.66-2.14,1.39-2.46,2.54,.33,.31,.65,.62,.98,.93,1.02-.87,1.87-1.81,1.49-3.47Z" fill="#6e6057"/><path d="M576.77,843.82c-.1-1.99-.2-3.98-.29-5.96,0,0,0,0,0,0-1.29,2.06-1.67,4.07,.29,5.96Z" fill="#fef8f0"/><path d="M283.54,208.02c-.33-1-.66-2-1-3h0c-.33-.02-.67-.04-1-.06,0,0,0,0,0,0h0c0,1.44-.2,2.92,.89,4.12,0,0,0,0,0,0,.37-.35,.74-.7,1.11-1.05Z" fill="#79793d"/><path d="M282.54,205.02h0c-.45-1.06-.91-2.13-1.5-3.52-.66,1.62-.57,2.65,.49,3.46,0,0,0,0,0,0,.33,.02,.67,.04,1,.06Z" fill="#595432"/><path d="M367.95,203.72c-5.43-10.47-11.04-20.87-15.97-31.57-7.35-15.95-16.95-30.47-27-44.75-1.21-1.72-2.98-3.14-4.71-4.38-6.4-4.62-7.47-4.3-11.12,2.84-.57,1.11-.63,2.86-2.41,2.63-1.26-.16-.9-1.58-1.19-2.46,0,0,0,0,0,0-9.86,19.54-10.67,39.52-3.49,60.13,7.13,20.46,21.24,34.45,40.13,43.97,8.59,4.33,10.48,3.2,16.63-4.32,5.11-6.25,10.62-12.25,17.53-16.69-4.66,1.11-6.68-2.12-8.39-5.4Z" fill="#f3a9aa"/><path d="M361.45,174.54c-7.56-16.57-16.26-32.45-27.52-46.82-2.36-3-4.52-6.23-7.9-8.26-11.42-6.88-15.41-6.38-19.95,5.72-.11,.3-.35,.56-.54,.84,0,0,0,0,0,0,.3,.89-.07,2.3,1.19,2.46,1.78,.23,1.84-1.53,2.41-2.63,3.64-7.14,4.71-7.46,11.12-2.84,1.73,1.25,3.5,2.66,4.71,4.38,10.05,14.27,19.65,28.8,27,44.75,4.93,10.71,10.54,21.1,15.97,31.57,1.7,3.28,3.72,6.51,8.39,5.4,1.69-2.11,1.51-4.08,.09-6.39-5.58-9.08-10.55-18.5-14.98-28.19Z" fill="#332625"/><path d="M589.23,206.31c10.37-5.92,20.25-12.55,26.82-23.17,12.4-20.05,10.32-41.44,6.62-63.09,0,0,0,0,0,0-.76,.74-1.5,1.94-2.33,.07-1.5-3.43-2.96-6.88-4.52-10.29-1.15-2.51-2.66-2.81-5.05-1.12-6.33,4.48-11.33,10.28-15.96,16.3-12.66,16.44-21.85,34.74-28.11,54.54-.59,1.86,.27,2.81,1.04,4.01,1.17,1.82,1.81,3.59-.05,5.35,0,0,0,0,0,0,3.78,3.5,5.31,8.36,7.72,12.69,3.64,6.56,7.44,8.34,13.82,4.7Z" fill="#f3a9aa"/><path d="M567.74,183.56c-.77-1.2-1.63-2.15-1.04-4.01,6.26-19.8,15.45-38.09,28.11-54.54,4.63-6.02,9.64-11.82,15.96-16.3,2.39-1.69,3.9-1.39,5.05,1.12,1.56,3.41,3.02,6.86,4.52,10.29,1.84-1.44,.7-3.62,1.33-5.37,0,0,0,0,0,0h0c-.48-1.86-.85-3.71-1.06-5.66-.83-7.71-5.95-10.31-12.69-6.64-3.24,1.76-5.98,4.16-8.64,6.71-14.94,14.35-24.51,32.22-33.18,50.66-2.12,4.5-3.92,9.19-4.72,14.17-.93,5.8,1.95,12.59,6.32,14.92,0,0,0,0,0,0,1.86-1.77,1.22-3.53,.05-5.35Z" fill="#332725"/><path d="M620.34,120.12c.83,1.87,1.57,.68,2.33-.07h0c-.54-1.73,.31-3.72-1-5.3,0,0,0,0,0,0-.63,1.74,.52,3.92-1.33,5.37Z" fill="#5b4441"/><path d="M385.93,418.28c4.76-.48,4.32-5.09,5.64-7.95,.05-2.02,.03-3.74-2.11-4.19-2.25-.47-5.6,4.18-5.93,8.11-.16,1.95,.1,4.26,2.39,4.03Z" fill="#f4abab"/><path d="M402.13,420.67c2.52,.06,3.53-2.17,3.4-4.59-.14-2.68-.33-5.82-3.77-5.98-3.22-.15-2.92,2.9-3.19,4.62-.14,3.21,.38,5.88,3.56,5.95Z" fill="#f4aead"/><path d="M373.7,404.15c-2,.19-6.22,5.7-6.08,7.92,.12,1.74,.96,2.83,2.83,2.67,1.94-.17,6.21-5.77,6.07-8.47-.22-1.09-.92-2.3-2.83-2.12Z" fill="#f4adac"/><path d="M740.05,372.12c-18.8-8.97-37.88-10.99-57.78-8.94-25.06,2.58-47.37,12.67-67.98,26.86-21.59,14.86-40.62,32.46-55.9,53.74-13.32,18.55-24.42,38.58-34.38,59.08-7.4,15.23-13.08,31.32-15.26,48.34-1,7.82-.83,15.54,2.31,23.03,5.23,12.51,15.26,19.76,26.86,25.55,20.1,10.04,41.84,11.19,63.65,12.12,4.49,0,9.02,.41,13.46-.07,17.37-1.89,34.52-5.16,51.68-8.39,19.03-3.58,35.39-13.01,51.72-22.85,23.72-14.29,41.48-34.08,53.38-58.64,11.92-24.61,17.2-51.21,14.38-78.48-3.23-31.15-15.53-56.75-46.12-71.34Zm-39.34-.62c.81-1.91,2.59-.99,3.96-.97,15.62,.31,29.24,6.31,42.57,15.36-16.11-.25-31.1,2.96-46.17,5.23-3.29,.49-3.5-.47-4.23-3.15-1.72-6.34,1.62-11.23,3.86-16.47Zm1.79,71.27c-3.92-6.11-1.96-8.9,5.2-9.98,6.73-1.01,13.52-1.77,20.18-3.13,3.49-.71,3.81,.56,3.68,3.39-.18,3.99-.05,7.98-.05,11.98,.03,0,.06,0,.09,0,0,3.99-.14,7.99,.05,11.98,.13,2.53-.84,3.55-3.26,3.91-7.24,1.07-14.48,2.17-21.66,3.53-3.5,.66-4.01-1.04-2.91-3.45,2.9-6.4,2.68-11.98-1.32-18.23Zm-21.76,63.69c1.28,.53,2.15,1.03,1.62,2.44-.82,2.17-1.58,4.48-4.35,4.94-1.95,.32-4.07-.47-5.17,2.52-.52,1.41-2.93,1.26-3.22-1.38-1.2-11.06-2.43-22.12-3.7-33.17-.19-1.64,.27-2.53,1.95-2.77,7.04-1,14.07-2.04,22.17-3.21-4.46,7.59-8.43,14.29-12.33,21.03-3.31,5.73-2.88,7.14,3.04,9.6Zm18.56,2.92c.19,1.89-.49,2.85-2.32,3.04-2.28,.24-4.56,.43-7.2,.67,.99-5,1.85-9.61-2.5-13.1-.87-.69-.34-1.45,.09-2.18,2.87-4.83,5.74-9.67,9.35-15.78,.95,10.16,1.71,18.76,2.57,27.34Zm1.07-110.34c8.88-2.29,17.93-3.61,26.98-5,2.2-.34,3.03,.58,3.15,2.66,.3,5.32,.67,10.63,.93,14.62,0,9.91,0,9.98-8.36,11.26-6.41,.98-12.87,1.63-19.26,2.71-2.35,.39-3.28,.06-3.52-2.46-.65-6.95-1.48-13.89-2.35-20.82-.26-2.05,.79-2.56,2.43-2.98Zm-13.72,122.75c2.29-.05,4.57-.73,6.86-1.06q6.81-.99,6.91,5.66c.1,6.3,.15,12.6,1.05,18.79-.28,1.39,.83,3.16-1.31,3.85-1.58,.51-2.43-.33-3.18-1.59-4.22-7.12-8.42-14.26-12.77-21.3-1.98-3.2-1.16-4.27,2.43-4.35Zm20.06-49.8c7.39-1.21,14.78-2.43,22.15-3.73,2.27-.4,2.9,.52,2.97,2.63,.19,5.49,.54,10.97,.9,18.03,0,3.42-.1,8.41,.04,13.4,.06,2.29-.22,3.53-2.98,3.93-6.4,.95-12.74,2.33-19.08,3.64-2.28,.47-3.24,.01-3.33-2.58-.34-10.64-1.23-21.24-2.96-31.76-.33-1.98,.13-3.22,2.28-3.57Zm6.14,44.53c5.73-.82,11.37-2.27,17.01-3.58,2.79-.65,3.75,.12,3.76,3.1,.03,5.31,.53,10.61,.9,17.29,0,1.45,.87,4.68-.23,6.98-1.25,2.62-4.96,.92-7.53,1.7-4.59,1.39-9.3,2.39-13.95,3.58-1.76,.45-3.18,.81-3.27-1.91-.23-7.3-.68-14.59-1-21.89-.13-2.98,.78-4.77,4.29-5.27Zm-19.47-50.66c-.39,2.47-1.96,3.82-4.79,4.12-6.59,.7-13.14,1.8-19.7,2.8-2.64,.4-4.13,.24-4.5-3.23-.93-8.9-1.15-17.89-3.04-26.65-1.04-3.07,.55-3.75,3.2-4.04,6.76-.74,13.49-1.64,20.22-2.6,1.66-.24,2.88-.05,3.84,1.43,5.62,8.71,6.32,18.28,4.78,28.17Zm-2.15-55.42c.55,5.09,.2,10.25,1.06,15.43-5.85-5.4-10.3-11.65-13.93-18.55-1.22-2.32-.76-3.04,1.57-3.82,10-3.36,10.18-3.3,11.3,6.94Zm-3.19-17.78c.07-1.44,.94-2.3,2.29-2.82,.22,1.27,1.11,2.68-.96,3.11-.43,.09-1.34-.2-1.33-.29Zm-6.88,33.93c1.79,2.58,2.19,4.1-1.76,4.14-5.68,.06-11.25,1.08-16.38,2-2.9,.44-3.11-1.31-3.27-3.02-.66-7.12-1.23-14.25-1.95-21.36-.2-1.94,.73-2.73,2.36-3.16,1.77-.47,3.6-.78,5.27-1.48,2.02-.85,3.14-.3,3.77,1.68,2.5,7.91,7.33,14.51,11.97,21.2Zm-22.59,56.87c.95,10.91,2.21,21.8,3.55,32.67,.26,2.14-.27,3.08-2.26,3.54-8.25,1.91-16.5,3.84-24.72,5.84-1.78,.43-2.35-.1-2.5-1.85-.96-11.25-2-22.5-3.07-34.43-.89-2.88,.58-4.36,4.15-4.86,7.07-1,14.09-2.3,21.11-3.6,2.37-.44,3.48-.3,3.74,2.69Zm9.6-109.89c8.25-1.96,16.61-3.21,25.35-3.39-3.76,7.74-9.1,13.94-14.64,20.07-3.46,3.84-7.1,6.18-12.46,6.97-9.24,1.36-9.17,1.83-9.85-7.31-.01-.17-.02-.33-.03-.5-1.14-12.77-1.15-12.81,11.63-15.84Zm-10.97,97.91c.25,2.12-.66,2.55-2.34,2.84-8.01,1.38-16.02,2.76-24,4.28-2.51,.48-2.1-1.14-2.37-2.57-1.5-8.03-.12-16.29-2.03-24.22-.86-3.88,.86-5.27,4.54-5.95,6.51-1.19,12.96-2.8,19.36-4.51,2.92-.78,3.82,.05,4.08,2.91,.79,9.08,1.71,18.16,2.77,27.22Zm-3.81-39.91c.18,2.19-.91,2.85-2.78,3.26-7.12,1.58-14.23,3.2-21.31,4.94-2.8,.69-3.67-.09-3.83-3.03-.34-6.45-1.15-12.88-1.79-19.53-.76-2.77,.64-3.86,3.48-4.41,7.16-1.39,14.27-3.03,21.37-4.71,2.5-.59,3.2,.31,3.34,2.65,.42,6.95,.93,13.91,1.51,20.85Zm-32.38,96.97c-3.45,.43-6.87,1.17-10.24,2.03-2.64,.67-3.51-.16-3.7-2.81-.82-11.43-1.75-22.84-2.77-34.25-.22-2.43,.35-3.66,2.96-4,4.27-.56,8.52-1.31,12.74-2.19,2.34-.49,2.38,.8,2.53,2.44,.97,10.9,1.99,21.8,3.05,33.31,1.32,3.56-.72,5.01-4.57,5.49Zm8.63-139.06c5.67-3.09,11.56-5.79,17.27-8.8,3.12-1.65,3.95-.8,3.87,2.56-.08,3.3,.44,6.61,.59,8.5-.15,10.71,1.91,8.76-7.79,11.09-5.79,1.39-11.67,2.44-17.47,3.8-2.45,.58-3.37,.27-3.72-2.61-1.16-9.79-1.37-9.86,7.24-14.55Zm-8.31,85.87c1.55,4.47-1.05,5.58-5.15,6.3-13,2.27-12.95,2.41-13.75-10.84-.32-5.31-.64-10.63-1.2-15.91-.28-2.67,.23-4.05,3.24-4.12,2.47-.06,4.94-.64,7.4-.99,7.71-1.09,7.82-1.1,8.46,6.85,.49,6.13,.67,12.28,.99,18.72Zm-5.61-76.96c1.57,2.86,1.03,5.55,1.45,8.02,.35,2.03-1.31,2.31-2.85,2.65-3.7,.82-7.38,1.74-12.11,2.87,2.28-7.5,8.92-9.04,13.5-13.53Zm-12.2,19.84c3.74-.69,7.45-1.57,11.09-2.67,2.29-.69,2.91-.03,3.05,2.17,.46,7.26,1.04,14.52,1.63,21.78,.14,1.66-.5,2.49-2.13,2.65-.33,.03-.64,.16-.97,.21-4.91,.72-10.86,3.43-14.43,1.57-3.36-1.75-.97-8.75-2.15-13.32-.49-1.9-.55-3.92-.87-6.35,.4-2.57,1-5.33,4.77-6.03Zm-8.4-2.07c-6.38,16.1-18.04,25.44-30.59,33.95,3.55-8.05,21.62-28.05,30.59-33.95Zm-.43,27.85c.02,1.82-1.24,2.15-2.57,2.31-2.44,.3-4.9,.49-7.35,.73,0,0,0,0,0,0-1.21,.69-2.57,1.45-3.7,.28-.41-.42,.66-1.23,1.41-1.53,4.67-4.37,7.78-9.98,12.2-16.11,0,5.6-.03,9.96,.01,14.32Zm-33.8,8.9c.36,.23,.71,.47,1.07,.7-1.2,1.56-1.6,3.65-4.37,4.17,1.1-1.62,2.2-3.25,3.31-4.87Zm-3.93,18.4c4.09-8.21,8.69-15.24,19.14-15.84,4.95-.28,9.85-1.5,14.75-2.4,2.63-.49,3.98-.05,3.92,3.12-.08,4.32,.37,8.64,.59,12.97,.13,0,.26,0,.39,0,0,3.16-.51,6.43,.12,9.47,1,4.88-.41,6.59-5.45,7.03-9.26,.82-18.45,2.43-27.67,3.71-1.09,.15-2.7,.97-3.02-.56-1.23-5.76-6.1-10.82-2.77-17.5Zm2.55,128.39c-9.18-2.53-17.95-6.14-26.02-11.28-1.63-1.04-3.56-1.79-4.78-4.07,8.12-1.86,15.43-5.14,21.9-10.15,2.25-1.74,4.46-3.55,5.8-6.11,.59-1.12,1.38-2.57,.12-3.68-1.39-1.22-2.46,.15-3.45,.91-8.21,6.24-17.38,10.28-27.44,12.56-2.6,.59-3.91,.08-5.22-2.09-4.97-8.26-5.83-17.18-4.46-26.47,.14-.92,.54-2.06,1.21-2.62,9.82-8.13,14.73-19.39,19.66-30.62,1.11-2.52,1.73-5.26,.03-8.36-5.2,8.77-9.82,17.86-17.95,26.1,6.88-22.55,19.26-40.85,29.65-60.38,1.42,2.14,4.53,14.21,4.5,16.04-.02,1.47-.98,1.52-1.93,1.71-1.31,.26-2.64,.41-3.93,.73-1.8,.44-3.04,1.54-2.87,3.51,.18,2.08,1.77,3.01,3.55,2.53,6.26-1.71,7.42,1.86,8.18,6.91,1.57,10.51,4.42,20.8,5.53,31.41,.31,2.95-.53,4.09-3.42,4.7-9.27,1.97-18.48,4.21-27.7,6.37-1.29,.3-2.58,.67-3.84,1.09-2.29,.76-4,2.16-3.18,4.78,.81,2.59,3,2.73,5.34,2.19,9.87-2.32,19.8-4.44,29.61-6.99,3.25-.84,4.49-.25,4.85,3.07,1,9.09,1.77,18.23,3.48,27.2,.72,3.79-3.32,4.3-3.17,7.26,.16,3.27,4.69,2.13,4.96,5.49,.9,11.4,4.62,12.05-9.01,8.29Zm9.98-64.48c-1.32-12.08-4.38-23.82-7.28-35.58-.73-2.97-.13-3.6,2.77-3.97,9.22-1.18,18.39-2.71,27.58-4.11,3.55-.9,4.09,.86,4.26,3.96,.61,11.12,1.48,22.22,2.36,33.32,.18,2.28,.02,3.8-2.68,4.3-8,1.46-15.97,3.09-23.94,4.67-2.16,.43-2.83-.45-3.06-2.59Zm4.99,41.95c-1.02-9.22-2.46-18.39-3.7-27.59-.27-2-.59-3.98,2.36-4.5,8.01-1.4,16.01-2.85,23.96-4.49,1.99-.41,2.69-.05,2.92,1.91,1.09,9.23,2.25,18.45,3.3,26.91,.82,3.03-.63,3.52-2.41,3.99-7.53,2.01-15.04,4.09-22.54,6.19-2.25,.63-3.54,.67-3.88-2.41Zm29.91,26.54c-3.98-.14-7.98-.04-11.97-.04,0-.01,0-.03,0-.04-3.82,0-7.66-.14-11.47,.04-2.99,.14-3.43-1.79-3.22-3.83,.44-4.3-4.7-10.05,.95-12.63,7.15-3.27,15.27-4.39,22.91-6.65,2.46-.73,3.33-.03,3.63,2.3,.73,5.77,1.49,11.54,2.33,17.29,.38,2.57-.47,3.66-3.16,3.57Zm7.04-35.65c-1.17-8.73-2.85-17.39-3.38-26.2-.11-1.74-.43-3.37,1.96-3.8,4.9-.87,9.8-1.8,14.7-2.71,2.26-.55,2.43,1.2,2.57,2.63,.85,8.6,2.31,17.11,4.04,25.57,.38,1.84-.23,2.79-2.09,3.18-5.03,1.08-10.08,2.14-15.05,3.44-2.18,.57-2.49-.31-2.74-2.11Zm23.44,32.78c-5.12,.52-10.19,1.41-16.69,2.35-1.3,.3-2.46-.59-2.72-3.53-.53-6.12-1.28-12.24-2.36-18.29-.52-2.92,.49-3.87,3.04-4.4,4.39-.91,8.78-1.86,13.09-3.07,3.04-.86,4.53-.19,5.01,3.1,.98,6.73,2.06,13.46,3.41,20.13,.55,2.71-.15,3.45-2.78,3.72Zm2.88-39.99c-1.25-8.21-2.47-16.42-3.83-24.62-.34-2.07,.21-3,2.31-3.47,8.27-1.87,16.49-3.9,24.74-5.85,1.13-.27,2.26-.61,2.54,1.25,1.32,8.87,2.74,17.73,4.29,27.68,.31,1.21-1.04,1.67-2.92,2.11-7.77,1.82-15.52,3.71-23.23,5.76-2.79,.74-3.56-.56-3.91-2.86Zm30.59,33.85c-6.56,1.08-13.1,2.22-19.64,3.44-2.61,.48-3.7-.81-4.13-3.07-1.32-7.01-2.6-14.03-3.94-21.04-.39-2.04,.36-2.97,2.4-3.45,7.76-1.81,15.48-3.8,23.22-5.66,1.18-.28,2.71-1.01,3.14,1.1,1.48,7.3,2.97,14.6,4.45,21.9,1.74,5.25-1.62,6.15-5.51,6.79Zm5.23-50.33c-.64-5.08-1.47-10.14-2.19-15.07,.48-1.7-1.76-3.85,1.11-4.8,3.08-1.02,3.16,1.85,3.84,3.38,3.21,7.33,8.3,13.54,12.07,20.53,1.4,2.6,.89,3.57-1.9,4.4-11.47,3.42-11.41,3.49-12.92-8.45Zm6.91,28.5c4.08,2.54,3.02,4.63-.59,6.59-.84-1.83-1.57-3.6-1.26-5.62q-3.29-11.04,7.61-14.05c1.58-.43,3.14-.9,4.76-1.37-.19,6.27-1.59,7.94-7.17,8.38-4.29,.34-1.56,4.43-3.36,6.07h0s0,0,0,0Zm53.97-14.92c-12.84,10.34-26.48,19.5-41.25,26.83-1.56,.77-3.04,3.54-5.9,1.55,7.9-8.75,12.25-19.15,14.02-31.41,2.02,2.39,1.75,4.65,2.43,6.57,.73,2.07,2.04,3.57,4.36,3.34,2.59-.26,3.32-2.14,3.73-4.53,.45-2.68-2.42-5.87,.39-7.84,2.19-1.54,5.28-1.82,7.98-2.62,4.71-1.39,9.1-3.82,14.15-4.46,.82,3.23-1.02,6.76,1.98,9.58,1.03,.97-.95,2.26-1.88,3Zm29.71-40.65c-4.93,10.97-11.62,21.24-20.84,31.01-.68-12.37-1.23-23.47-1.93-34.57-.15-2.31,.76-3.2,2.87-3.76,5.93-1.59,11.81-3.38,17.7-5.13,1.11-.33,2.24-.7,3.25-1.25,1.01-.55,2.09-1.33,1.63-2.72-.39-1.17-1.58-.99-2.56-1.06-6.32-.5-12.04,2.29-18.03,3.51-4.28,.87-5.85,.61-5.84-4.29,.01-9.31-.49-18.63-1.1-27.93-.24-3.58,.58-5.05,4.42-5.24,6.8-.33,13.57-1.24,20.35-1.91,2.45-.24,4.95-.79,4.73-3.9-.22-3.11-2.84-3.42-5.25-3.24-7.12,.53-14.24,1.13-21.35,1.86-2.22,.23-3.72,.53-3.76-2.64-.11-8.15-.44-16.3-.97-24.43-.2-3,.87-4.14,3.68-4.53,6.43-.88,12.83-1.93,19.24-2.92,1.64-.25,3.31-.41,4.91-.84,2.15-.58,3.57-1.99,3.2-4.36-.38-2.4-2.2-3.13-4.44-3.06-7.35,.24-14.56,1.72-21.71,3.17-4.48,.91-5.42-.48-5.53-4.46-.19-6.47-.21-13-1.89-19.31-.61-2.28,.92-2.16,2.12-2.98,3.82-2.64,9.46-.16,12.61-4.68,.61-.88,1.41,.33,1.9,.83,13.41,13.65,23.91,28.54,25.94,48.6,2.85,28.1-1.89,54.78-13.33,80.21Z" fill="#322625"/><path d="M563.58,585.93c-.15-2.96,3.89-3.47,3.17-7.26-1.71-8.96-2.48-18.11-3.48-27.2-.36-3.32-1.6-3.92-4.85-3.07-9.81,2.55-19.74,4.67-29.61,6.99-2.34,.55-4.52,.4-5.34-2.19-.82-2.61,.89-4.02,3.18-4.78,1.26-.42,2.54-.78,3.84-1.09,9.23-2.16,18.44-4.4,27.7-6.37,2.89-.61,3.73-1.75,3.42-4.7-1.11-10.61-3.95-20.9-5.53-31.41-.76-5.05-1.91-8.62-8.18-6.91-1.78,.49-3.37-.44-3.55-2.53-.17-1.97,1.07-3.07,2.87-3.51,1.29-.32,2.62-.46,3.93-.73,.95-.19,1.9-.23,1.93-1.71,.03-1.83-3.08-13.9-4.5-16.04-10.39,19.53-22.77,37.83-29.65,60.38,8.13-8.24,12.74-17.33,17.95-26.1,1.69,3.1,1.07,5.84-.03,8.36-4.93,11.23-9.84,22.5-19.66,30.62-.67,.56-1.07,1.69-1.21,2.62-1.37,9.29-.52,18.21,4.46,26.47,1.31,2.17,2.62,2.68,5.22,2.09,10.06-2.27,19.23-6.32,27.44-12.56,.99-.75,2.06-2.13,3.45-.91,1.26,1.11,.47,2.56-.12,3.68-1.34,2.56-3.56,4.37-5.8,6.11-6.47,5-13.78,8.29-21.9,10.15,1.22,2.28,3.15,3.04,4.78,4.07,8.07,5.14,16.84,8.75,26.02,11.28,13.63,3.76,9.91,3.11,9.01-8.29-.26-3.36-4.79-2.22-4.96-5.49Z" fill="#fdebd1"/><path d="M572.56,537.83c7.98-1.58,15.94-3.21,23.94-4.67,2.71-.49,2.87-2.02,2.68-4.3-.89-11.1-1.75-22.2-2.36-33.32-.17-3.1-.71-4.85-4.26-3.96-9.19,1.4-18.36,2.93-27.58,4.11-2.9,.37-3.5,1.01-2.77,3.97,2.91,11.75,5.96,23.5,7.28,35.58,.24,2.15,.9,3.02,3.06,2.59Z" fill="#d4e062"/><path d="M654.82,480.78c-7.02,1.3-14.05,2.6-21.11,3.6-3.57,.5-5.04,1.99-4.15,4.86,1.07,11.93,2.11,23.18,3.07,34.43,.15,1.75,.72,2.28,2.5,1.85,8.23-2.01,16.47-3.93,24.72-5.84,1.99-.46,2.52-1.4,2.26-3.54-1.34-10.87-2.6-21.76-3.55-32.67-.26-2.98-1.37-3.13-3.74-2.69Z" fill="#fff"/><path d="M562.75,489.38c9.22-1.28,18.41-2.89,27.67-3.71,5.04-.45,6.45-2.16,5.45-7.03-.62-3.04-.12-6.3-.12-9.47-.13,0-.26,0-.39,0-.22-4.32-.67-8.65-.59-12.97,.06-3.17-1.29-3.61-3.92-3.12-4.9,.9-9.8,2.12-14.75,2.4-10.45,.59-15.05,7.63-19.14,15.84-3.33,6.68,1.53,11.74,2.77,17.5,.33,1.53,1.93,.71,3.02,.56Z" fill="#d4e062"/><path d="M684.76,436.27c-6.73,.96-13.47,1.86-20.22,2.6-2.65,.29-4.24,.97-3.2,4.04,1.9,8.76,2.11,17.75,3.04,26.65,.36,3.47,1.86,3.64,4.5,3.23,6.56-1.01,13.11-2.1,19.7-2.8,2.83-.3,4.41-1.64,4.79-4.12,1.54-9.89,.85-19.46-4.78-28.17-.96-1.49-2.18-1.67-3.84-1.43Z" fill="#d4e062"/><path d="M578.36,579.6c7.5-2.1,15.02-4.18,22.54-6.19,1.77-.47,3.23-.97,2.41-3.99-1.04-8.46-2.21-17.68-3.3-26.91-.23-1.96-.92-2.32-2.92-1.91-7.96,1.65-15.96,3.1-23.96,4.49-2.95,.51-2.63,2.5-2.36,4.5,1.24,9.2,2.68,18.37,3.7,27.59,.34,3.08,1.63,3.04,3.88,2.41Z" fill="#d4e062"/><path d="M664.89,557.98c1.88-.44,3.22-.9,2.92-2.11-1.55-9.95-2.97-18.81-4.29-27.68-.28-1.86-1.41-1.52-2.54-1.25-8.25,1.95-16.48,3.98-24.74,5.85-2.1,.48-2.65,1.4-2.31,3.47,1.35,8.19,2.58,16.41,3.83,24.62,.35,2.3,1.12,3.6,3.91,2.86,7.71-2.05,15.46-3.94,23.23-5.76Z" fill="#fff"/><path d="M650.35,441.35c-6.4,1.71-12.85,3.32-19.36,4.51-3.68,.67-5.4,2.06-4.54,5.95,1.92,7.94,.53,16.19,2.03,24.22,.27,1.43-.14,3.05,2.37,2.57,7.98-1.52,15.99-2.9,24-4.28,1.68-.29,2.59-.72,2.34-2.84-1.05-9.06-1.97-18.13-2.77-27.22-.25-2.86-1.15-3.69-4.08-2.91Z" fill="#fff"/><path d="M669.4,566.03c-.43-2.11-1.96-1.38-3.14-1.1-7.75,1.86-15.46,3.85-23.22,5.66-2.04,.48-2.79,1.41-2.4,3.45,1.34,7.01,2.62,14.03,3.94,21.04,.43,2.26,1.52,3.55,4.13,3.07,6.53-1.21,13.08-2.36,19.64-3.44,3.9-.64,7.25-1.54,5.51-6.79-1.48-7.3-2.97-14.6-4.45-21.9Z" fill="#fff"/><path d="M648.52,408.08c-7.1,1.69-14.21,3.32-21.37,4.71-2.85,.55-4.24,1.64-3.48,4.41,.64,6.65,1.45,13.08,1.79,19.53,.16,2.95,1.03,3.72,3.83,3.03,7.08-1.74,14.19-3.36,21.31-4.94,1.87-.41,2.96-1.07,2.78-3.26-.58-6.94-1.1-13.89-1.51-20.85-.14-2.33-.84-3.24-3.34-2.65Z" fill="#fff"/><path d="M619.99,487.32c-4.22,.88-8.47,1.64-12.74,2.19-2.6,.34-3.18,1.57-2.96,4,1.02,11.41,1.95,22.83,2.77,34.25,.19,2.65,1.06,3.48,3.7,2.81,3.37-.85,6.79-1.6,10.24-2.03,3.85-.48,5.89-1.93,4.57-5.49-1.06-11.51-2.08-22.41-3.05-33.31-.15-1.64-.19-2.93-2.53-2.44Z" fill="#d4e062"/><path d="M656.56,389.92c.68,9.14,.61,8.67,9.85,7.31,5.36-.79,9-3.14,12.46-6.97,5.53-6.13,10.88-12.33,14.64-20.07-8.74,.18-17.1,1.44-25.35,3.39-12.77,3.03-12.76,3.07-11.63,15.84,.01,.17,.02,.33,.03,.5Z" fill="#d4e062"/><path d="M629.22,566.75c1.85-.4,2.46-1.34,2.09-3.18-1.73-8.46-3.19-16.97-4.04-25.57-.14-1.43-.31-3.18-2.57-2.63-4.9,.91-9.79,1.83-14.7,2.71-2.38,.42-2.06,2.05-1.96,3.8,.54,8.81,2.22,17.47,3.38,26.2,.24,1.8,.56,2.68,2.74,2.11,4.98-1.3,10.02-2.36,15.05-3.44Z" fill="#d4e062"/><path d="M605.23,582.88c-.3-2.33-1.17-3.02-3.63-2.3-7.64,2.26-15.76,3.39-22.91,6.65-5.65,2.58-.51,8.33-.95,12.63-.21,2.04,.23,3.97,3.22,3.83,3.82-.18,7.65-.04,11.47-.04,0,.01,0,.03,0,.04,3.99,0,7.98-.1,11.97,.04,2.7,.1,3.54-1,3.16-3.57-.84-5.75-1.6-11.52-2.33-17.29Z" fill="#d4e062"/><path d="M611.86,449.79c-2.47,.35-4.93,.94-7.4,.99-3.01,.07-3.52,1.45-3.24,4.12,.56,5.29,.88,10.6,1.2,15.91,.8,13.25,.75,13.12,13.75,10.84,4.11-.72,6.7-1.84,5.15-6.3-.33-6.43-.5-12.59-.99-18.72-.64-7.95-.75-7.94-8.46-6.85Z" fill="#d4e062"/><path d="M634.25,577.01c-.48-3.28-1.97-3.95-5.01-3.1-4.31,1.21-8.7,2.16-13.09,3.07-2.55,.53-3.56,1.48-3.04,4.4,1.08,6.05,1.83,12.17,2.36,18.29,.25,2.94,1.42,3.83,2.72,3.53,6.49-.94,11.57-1.84,16.69-2.35,2.63-.27,3.33-1.01,2.78-3.72-1.34-6.67-2.42-13.39-3.41-20.13Z" fill="#d4e062"/><path d="M626.11,406.65c5.8-1.37,11.68-2.42,17.47-3.8,9.7-2.32,7.64-.38,7.79-11.09-.15-1.9-.67-5.21-.59-8.5,.08-3.36-.75-4.21-3.87-2.56-5.72,3.01-11.6,5.71-17.27,8.8-8.61,4.69-8.4,4.76-7.24,14.55,.34,2.88,1.26,3.19,3.72,2.61Z" fill="#feffff"/><path d="M690.03,475.83c-8.09,1.18-15.13,2.21-22.17,3.21-1.69,.24-2.14,1.13-1.95,2.77,1.27,11.05,2.5,22.11,3.7,33.17,.29,2.64,2.7,2.79,3.22,1.38,1.1-2.99,3.22-2.2,5.17-2.52,2.77-.46,3.54-2.77,4.35-4.94,.53-1.41-.34-1.91-1.62-2.44-5.92-2.46-6.35-3.88-3.04-9.6,3.9-6.74,7.87-13.44,12.33-21.03Z" fill="#d4e062"/><path d="M601.76,443.93c3.57,1.86,9.52-.85,14.43-1.57,.33-.05,.64-.18,.97-.21,1.63-.15,2.27-.98,2.13-2.65-.59-7.26-1.16-14.51-1.63-21.78-.14-2.2-.76-2.86-3.05-2.17-3.64,1.1-7.36,1.98-11.09,2.67-3.78,.7-4.38,3.46-4.77,6.03,.32,2.43,.38,4.44,.87,6.35,1.18,4.57-1.21,11.57,2.15,13.32Z" fill="#d4e062"/><path d="M665.42,403.73c-1.67,.7-3.51,1.01-5.27,1.48-1.62,.43-2.55,1.22-2.36,3.16,.72,7.11,1.3,14.24,1.95,21.36,.16,1.71,.36,3.46,3.27,3.02,5.14-.92,10.71-1.94,16.38-2,3.95-.04,3.55-1.57,1.76-4.14-4.64-6.69-9.47-13.29-11.97-21.2-.62-1.97-1.75-2.52-3.77-1.68Z" fill="#d4e062"/><path d="M686.49,552.84c2.79-.83,3.31-1.79,1.9-4.4-3.77-6.99-8.85-13.2-12.07-20.53-.67-1.54-.75-4.4-3.84-3.38-2.87,.95-.63,3.1-1.11,4.8,.72,4.92,1.54,9.98,2.19,15.07,1.51,11.94,1.45,11.86,12.92,8.45Z" fill="#d3df61"/><path d="M595.12,416.16c-8.97,5.9-27.04,25.9-30.59,33.95,12.55-8.51,24.21-17.85,30.59-33.95Z" fill="#f8e6cc"/><path d="M683.84,566.82c5.58-.44,6.98-2.11,7.17-8.38-1.62,.47-3.19,.94-4.76,1.37q-10.9,3.01-7.61,14.05c.61-.32,1.23-.64,1.84-.97h0c1.8-1.64-.93-5.73,3.36-6.07Z" fill="#ceda5e"/><path d="M582.47,445.81c.46,.98,1.45,.97,2.29,1.25,0,0,0,0,0,0,0,0,0,0,0,0,2.45-.24,4.91-.43,7.35-.73,1.34-.16,2.59-.49,2.57-2.31-.04-4.36-.01-8.72-.01-14.32-4.43,6.13-7.54,11.74-12.2,16.11Z" fill="#d1dd60"/><path d="M617.17,406.42c-.42-2.47,.11-5.16-1.45-8.02-4.57,4.49-11.22,6.03-13.5,13.53,4.73-1.13,8.4-2.05,12.11-2.87,1.54-.34,3.19-.61,2.85-2.65Z" fill="#ceda5e"/><path d="M679.89,579.48c3.6-1.96,4.66-4.05,.59-6.59h0c-.61,.32-1.23,.65-1.84,.97-.31,2.02,.41,3.79,1.26,5.62Z" fill="#b4bc51"/><path d="M561.96,453.62c-.36-.23-.71-.47-1.07-.7-1.1,1.62-2.2,3.25-3.31,4.87,2.77-.53,3.17-2.61,4.37-4.17Z" fill="#665850"/><path d="M689.38,392.96c2.07-.43,1.18-1.84,.96-3.11-1.36,.53-2.22,1.38-2.29,2.82,0,.08,.91,.37,1.33,.29Z" fill="#dad5d3"/><path d="M582.47,445.81c-.76,.3-1.82,1.11-1.41,1.53,1.13,1.17,2.5,.41,3.7-.28,0,0,0,0,0,0-.84-.27-1.84-.27-2.29-1.25Z" fill="#b1ba51"/></svg>