<?xml version="1.0" encoding="UTF-8"?><svg id="_레이어_1" xmlns="http://www.w3.org/2000/svg" viewBox="0 0 1201.78 1194.77"><path d="M68.78,279.4c-.2-.01-.39-.03-.59-.04,.11,.15,.2,.28,.31,.43,.07-.12,.15-.24,.25-.37,0-.01,.02-.02,.03-.03Z" fill="#fefefe"/><path d="M286.66,324.12s.07-.09,.11-.14c-.06,0-.12,0-.18,0,.02,.04,.04,.07,.06,.11,0,0,0,.02,0,.02Z" fill="#fefefe"/><path d="M87.22,637.15c-.1,.09-.19,.18-.29,.27,.15,0,.29,.03,.43,.06-.04-.11-.1-.22-.14-.33Z" fill="#fefefe"/><path d="M1147.13,632.71c-7.79-8.47-15.92-16.63-25.15-23.51-2.98-2.22-3.21-3.59-1.16-6.61,5.77-8.53,5.45-12.16-1.01-20.1-1.26-1.55-2.48-3.23-4.04-4.42-3.65-2.78-3.36-5.23-1.05-9.11,13.89-23.32,27.27-46.9,33.8-73.65,1.36-5.59,.85-10.07-3.54-13.99-7.81-6.98-15.46-14.14-23.31-21.08-5.74-5.07-11.59-10.03-17.56-14.83-15.74-12.64-33.21-22.75-49.92-33.98-21.7-14.58-45.55-23.94-70.5-30.94-2.68-.75-3.72-1.4-3.01-4.66,2.54-11.69-1.93-17.14-13.75-17.31-6.33-.09-12.66-.05-18.98,.12-2.1,.05-3.18-.38-2.91-2.68,.84-7.14-1.66-13.83-2.88-20.68-1.53-8.58-5.48-12.21-14.16-13.86-12.5-2.37-25.14-2.7-37.8-2.67-18.85,.05-37.6,1.76-56.3,3.88-12.24,1.38-24.37,3.46-36.1,7.46-7.64,2.61-15.33,5.07-23.57,7.79,.46-1.28,.56-1.77,.79-2.17,8.8-15.4,2.3-27.02-12.58-33.12-13.73-5.62-28.37-6.98-43.12-6.49-25.35,.83-46.78,10.51-64.31,28.87-8.92,9.35-14.48,20.63-18.94,32.68-4.36-4.85-8.65-9.47-12.78-14.23-10.95-12.65-24.34-10.48-34.66-2.49-10.32,8-19.15,17.48-26.65,28.21-2.15,3.07-3.73,8.79-6.57,8.56-3.07-.25-5.86-4.85-8.64-7.68-5.66-5.79-10.03-6.49-17.54-3.19-8.08,3.55-14.58,9.2-21.19,14.83-16.74,14.27-30.8,30.8-41.94,49.75-1.57,2.68-2.67,2.23-4.91,.99-13.87-7.67-21-5-26.12,10.03-2.29,6.72-3.81,13.71-5.77,20.9-.92-.39-1.92-.96-2.99-1.23-7.61-1.85-15.89-4.31-22.81-.2-13.55,8.06-24.03,19.44-29.99,34.41-5.45,13.68-7.03,28.01-7.07,42.59,0,1.65,.9,3.85-2.4,3.49-10.2-1.14-20.18,.77-29.14,5.13-9.97,4.84-19.22,4.61-28.91,.31-2.89-1.28-6.07-2.09-8.68-3.78-7.07-4.58-13.62-8.24-14.98-19.04-2.08-16.53-6.15-33.18-12.43-48.71-17.15-42.41-45.8-75.04-86.65-96.22-11.32-5.87-22.83-11.64-35.42-14.67-14.75-3.55-29.65-3.69-44.69-2.92-26.47,1.36-48.68,12.19-66.66,31.01-12.05,12.61-19.09,28.63-25.26,44.86-.58,1.53-.66,3.25-1,4.88-2.66,12.84-2.12,25.85-1.99,38.82,.1,9.54,1.8,18.89,5.34,27.77,6.13,15.4,14.44,29.54,24.95,42.44,10.34,12.7,20.86,25.36,34.67,34.3,18.96,12.29,39.55,21.29,61.87,25.6,15.89,3.06,31.98,4.84,48.14,2.48,19.73-2.88,38.31-9.76,56.71-17.15,3.78-1.52,6.37-5.03,10.1-6.23,6.8-2.17,13.76-3.81,21.02-3.89,12.14-.14,23.66,3.3,35.36,5.78,17.15,3.64,33.37,10.25,49.93,15.76,8.59,2.86,17.47,4.64,25.68,.13,4.33-2.38,5.2-1.18,7.04,2.25,13.48,25.12,33.38,44.56,56.75,60.05,26.29,17.42,55.93,26.95,87.06,31.67,2.46,.37,3.68,1.1,4.51,3.45,5.52,15.51,11.16,30.98,16.85,46.44,1.08,2.95,.36,4.6-2.35,6.35-6.62,4.29-8.23,9.26-5.8,15.73,1.47,3.91,4.02,6.93,7.71,8.82,1.77,.91,2.1,1.76,1.75,3.82-2.08,12.38,8.16,21.38,20.21,17.85,1.94-.57,2.94-.94,4.26,1.31,5,8.49,19.35,8.56,24.9,.21,1.19-1.78,2.16-2.68,4.52-2.94,6.99-.78,11.09-5.93,11.18-12.99,.06-4.18-1.98-7.36-4.7-10.14-2.73-2.8-3.06-5.56-1.08-8.94,2.66-4.54,4.27-9.56,5.95-14.58,2.2,.68,3.09,2.4,4.29,3.71,5.2,5.63,10.22,11.41,15.86,16.63,24.43,22.62,50.87,42.45,80.41,57.98,1.53,.8,3.37,1.31,3.97,3.47,1.21,4.32,2.58,8.6,4.06,12.83,.75,2.12,.43,3.31-1.3,5.07-3.74,3.78-3.9,8.95-2.31,13.57,1.52,4.42,5.37,6.8,10.33,5.97,2.15-.36,2.41,1.09,3.23,2.26,2.97,4.28,8.44,7.12,11.98,4.96,5.81-3.53,11.59-1.25,16.66-2.65,5.7-1.58,10.87-6.97,14.82-12.35,.1-.13,.18-.3,.19-.46,.29-3.34,2.14-3.37,4.84-2.61,10.57,2.98,21.06,6.38,31.8,8.57,30,6.12,60.39,9.87,90.69,14.1,2.82,.39,5.41,.89,7.59,3.18,9.52,10.02,18.73,20.35,28.85,29.8,.96,.9,1.61,1.51,.81,3.28-3.48,7.75-1.47,13.44,5.8,17.39,.92,.5,1.43,1.04,1.99,1.96,3.03,5.03,8.96,6.81,14.21,3.93,2.34-1.28,3.77-1.19,6.17,0,7.86,3.89,15.01,3.33,18.55-5.58,.47-1.18,.88-2.14,2.47-1.6,5.58,1.9,8.48-1.63,10.66-5.75,2.02-3.83,.25-9.14-3.95-12.31-1.49-1.12-1.98-2.23-2.39-3.96-3.33-13.92-4.64-28.24-8.65-42.02-1.81-6.22,1.88-11.64,3.21-17.4,.26-1.14,1.47-1.12,2.47-1.28,16.43-2.7,32.93-5,49.58-5.5,13.97-.42,27.98,.21,41.91-1.34,13.36-1.48,26.88-2.07,38.95-9.22,4.65-2.76,7.2-6.14,6.74-11.67-1.02-12.15-3.54-24.02-6.7-35.76-.75-2.79-.65-4.27,2.29-5.73,5.18-2.55,5.99-5.34,3.52-10.63-1.4-3-3.27-5.79-5.09-8.57-3.86-5.91-3.73-5.62,2.37-9.64,12.08-7.97,25.42-13.93,36.62-23.27,8.94-7.45,18.4-14.32,23.13-25.68,3.21-7.7,3.27-14.84-1.63-21.77-13.64-19.29-26.59-39.11-42.65-56.58Zm-848.57-72.94c-3.48,5.46-4.91,12.1-4.64,18.65,.15,3.63-1.36,3.43-3.71,2.95-8.36-1.69-16.72-1.73-25.27-1.38-9.58,.39-17.94,3.95-25.92,8.09-14.61,7.58-29.97,12.66-45.87,16.3-28.56,6.54-56.05,2.27-83.01-8.26-14.36-5.61-28.41-11.87-39.97-22.09-21.04-18.62-38.3-40.25-48.83-66.67-1.1-2.77-2.19-5.6-2.81-8.51-2.03-9.44-4-18.91-2.96-27.5-1.15-26.88,6.77-49.57,22.74-69.6,2.42-3.03,5.15-5.7,8.31-7.87,12.56-8.63,24.31-18.98,39.99-21.59,17.26-2.87,34.56-4.25,52.02-.64,30.59,6.31,56.73,21.3,78.92,42.43,21.97,20.92,40.29,44.93,48.29,75.13,3.83,14.45,7.22,29.02,10.87,43.52,2.54,10.08,10.63,15.03,18.97,19.26,4.06,2.06,5.99,2.9,2.87,7.79Zm8.25,25.13c-2.14-.88-5.36,.08-6.09-3.25-.38-1.77-.38-3.62-.5-4.93,.24-6.27,1.95-11.61,4.51-16.68,1.31-2.59,9.92-3.03,11.66-.71,.66,.88,0,1.56-.31,2.25-3.1,6.95-6.74,13.71-7.09,21.57-.06,1.29-.57,2.41-2.18,1.75Zm20.1,1.51c-.11,2.84-1.34,4.01-4.02,2.68-3.08-1.52-8.89,.2-7.99-5.15,.65-8.66,3.61-15.33,6.58-21.98,.79-1.78,10.12-1.99,11.24-.38,.73,1.06-.22,1.87-.52,2.71-2.58,7.18-4.98,14.41-5.28,22.12Zm22.68-5.96c-1.6,3.86-2.47,7.93-2.52,12.15-.03,2.98-.73,5-4.34,3.01-1.14-.63-2.5-.9-3.79-1.21-4.23-1.03-7.28-2.84-5.67-6.75,.46-8.96,2.76-16.28,4.71-23.67,.55-2.1,1.63-2.57,3.61-2.2,1.84,.34,3.17,.84,2.79,3.14-.77,4.71,1.1,8.46,4.49,11.57,1.29,1.19,1.41,2.31,.73,3.97Zm29.93,20.85c-4.91,2.81-10.2,2.82-15.45,1.28-12-3.53-11.33-1-9.98-14.41,.49-4.84,1.92-7.12,7.36-7.4,4.13-.21,9.01-1.19,11.11-6.1,0,0,0,0,0,0,0,0,0,0,0,0-1.67-4.32-4.79-3.24-7.78-1.95-4.26,1.84-7.99,2.35-11.7-1.52-3.62-3.77-3.25-7.68-1.59-11.85,1.25-3.12,3.54-6.06-2.97-4.39-2.74,.7-6.09-.94-9.16-1.51,0,0,0,0,0,0h0c-1.62,0-3.24,0-5.73,0,1.97-1.14,3.21-1.82,4.78-1.78,9.11-3.54,18.44-3.65,27.92-1.92,1.08,.2,1.91,.37,2.11,1.6,1.38,8.19,5.46,15.71,5.97,24.11,2.35,7.23,4.04,14.7,7.23,21.64,1.18,2.56-.64,3.37-2.12,4.22Zm398.33,263.4c-.4,1.95-1.01,4.17-3.41,4.37-3.2,.26-4.61,1.83-5.26,4.87-.64,3-3.11,2.89-5.12,1.7-4.13-2.45-7.42-1.37-11.01,1.31-4.06,3.02-8.85,1.24-10.7-3.63-.83-2.2-.88-3.96-4.55-2.65-5.17,1.84-9.31-2.47-8.4-7.74,.37-2.16,1.09-3.7,3.87-3.38,3.76,.43,4.14-1.79,3.21-4.75-.59-1.9-1.11-3.83-1.68-5.73-.57-1.89-1.17-3.77-2.1-6.78,13.79,8.54,27.53,14.75,41.84,19.74,1.26,.44,3.86-.06,3.3,2.67Zm221.16,62.37c2.29,.83,3.63,2.65,3.04,5.05-.57,2.29-2.41,3.11-4.87,3.47-3.73,.53-7.29,1.64-9.2,5.66-2.21,4.65-6.33,3.17-9.58,1.85-4.23-1.72-7.85-2.55-12.24-.06-2.43,1.38-6.1,1.29-6.81-3.11-.29-1.83-1.75-2.41-3.13-2.84-4.9-1.53-5.61-4.95-4.68-9.26,1.39-.32,2.01,.68,2.88,1.09,1.86,.89,3.57,.76,5.03-.75,1.46-1.52,1.56-3.51,.59-5.1-1.36-2.25-3.05-4.38-4.91-6.25-11.53-11.54-23.09-23.03-34.76-34.44-3.3-3.23-7.88-3.49-12.12-3.94-24.17-2.56-48.11-6.74-72.17-10.07-1.64-.23-3.24-.73-4.86-1.11h0c-15.36-2.06-29.82-7.66-44.78-11.29-21.9-5.31-41.21-16.32-60.14-28.04-4.63-2.87-9.83-4.79-14.03-8.37-16.44-8.32-30.75-19.72-45.14-31.04-15.07-11.86-28.88-25.12-43-38.04-2.02-1.85-1.8-3.68-1.59-5.81,.37-3.63,1.13-7.25,.08-10.91-.45-1.58-1.25-2.84-2.95-2.94-1.78-.1-2.72,1.27-3.1,2.76-.86,3.38-1.58,6.81-2.23,10.24-1.53,8.03-3.48,15.9-7.21,23.27-3.34,6.61-2.61,12.75,2.47,18.39,6.02,6.69,5.18,9.1-3.45,11.83-2.63,.83-5.18,2.15-7.19,4.15-4.52,4.52-9.8,4.49-13.86-.28-3.06-3.59-7.07-4.13-11.29-3.59-8.14,1.04-11.92-2.31-11.45-10.55,.28-4.92-.72-8.92-5.3-11.96-4.73-3.14-3.81-7.39,1.61-9.63,5.48-2.27,7.38-5.62,5.55-11.32-4.9-15.2-10.15-30.26-17.03-44.72-2.44-5.13-7.08-8.62-9.61-13.71-.97-1.94-3.79-1.82-5.91-2.16-29.26-4.69-57.31-13.6-81.61-30.51-21.57-15-40.33-33.29-53.67-56.81-12.04-21.24-18.53-44.07-20.22-67.8-1.91-26.88,5.39-51.25,29.01-67.94,2.96-2.09,2.91-2.15,6.73-2.56-1.34,2.24-3.05,4.33-3.93,6.74-1.99,5.44-.17,10.7,4.93,13.89,7.81,4.9,16.11,8.68,25.45,9.57,1.48,.14,3.35,.62,4.42-.05,4.84-3.05,6.66,.22,8.67,3.62,2.44,4.14,5.42,7.97,7.01,12.58h0c.32,.37,.68,.71,.95,1.12,1.47,2.28,3.29,4.13,6.12,2.43,2.89-1.73,2.62-4.55,1.19-7.03-2.75-4.75-5.74-9.35-8.7-13.97-1.4-2.19-2.95-4.29-4.65-6.76,7.04-1.14,13.4-1.91,19.87-.8,1.63,.28,3.46,.7,4.96,.26,8.49-2.48,11.61,3.45,15.13,9.54-6.55,2.08-12.6,4.95-17.67,9.62-2.74,2.52-4.97,5.38-6.54,8.74-1.57,3.36-1.89,6.6-1.19,9.38,.09,.31,.18,.63,.28,.93,.04,.12,.08,.24,.12,.36,.02,.05,.04,.1,.06,.15,1.76,4.39,6.29,7.3,12.53,7.09,2.48-.08,4.93-.66,7.4-1.02,3.34-1.79,6.84-3.35,9.99-5.43,5.67-3.76,5.65-4.01,6.84-14,12.37,13.15,24.32,25.85,36.27,38.56h0s0,0,0,0c.99,.64,2.88,1.47,.08,1.98-2,.36-4.12,0-6.19-.03-2.2,2.45-4.36,4.94-6.61,7.34-3.5,3.74-5.82,8.12-6.99,13.06-2.92,12.36,5.97,21.5,18.54,19.17,10.67-1.98,19.71-8.72,25.93-19.48,10.99,8.34,21.94,16.7,34.38,23.37-4.52,4.33-9.49,7.52-12.96,12.28-2.37,3.25-4.45,6.58-5.33,10.6-1.17,5.35,.13,9.67,4.06,13.6,6.49,6.5,14.47,10.57,22.47,14.69,2.36,1.22,4.85,2.18,7.28,3.27,3.04,1.36,6.9,2,8.88,4.28,2.27,2.62-1.15,5.89-1.63,9-1.22,7.92,.89,11.77,8.59,14.41,6.53,2.24,12.79,5.89,20.19,3.81,1.75-.49,1.61,1.41,1.75,2.34,1.75,11.23,7.49,20.91,11.82,31.15,4.25,10.05,12.69,14.2,22.51,16.16,22.27,4.46,44.81,6.67,67.51,6.47,21.15-.19,42.31-.76,63.45-1.4,3.55-.11,3.81,.91,3.67,4.12-.42,8.94-1.47,17.95,1.5,26.76,1.92,5.71,5.23,9.55,11.47,10.33,.82,.1,1.65,.33,2.4,.67,5.38,2.46,12.44-2.5,16.93,3.92,3.43,4.9,7.08,9.66,10.47,14.59,3.77,5.49,7.33,11.07,12.04,15.89,5.77,5.9,12.54,7.68,20.71,7.86,24.47,.56,48.44-3.62,72.54-6.61,4.24-.52,5.05,.86,5.48,4.51,1.21,10.27,3.17,20.39,7.32,29.95,.53,1.22,.83,2.95,1.78,3.5,4.93,2.82,2.94,6.53,1.48,10.06-2.07,4.98-2.01,10.13-1.26,15.24,1.7,11.69,3.71,23.35,5.55,35.02,.81,5.14,2.3,9.73,7.83,11.74Zm-473.79-404.37c-11.56-11.59-21.42-24.61-32.55-36.53-1.13-1.21-1.61-2.24-1.22-3.94,1.91-8.3,13.47-17.51,21.81-17.12,1.9,.09,2.48,2.05,3.51,3.25,18.62,21.57,37.71,42.73,58.76,61.95,14.52,13.25,28.24,27.33,42.87,40.45,2.83,2.54,5.43,5.45,9.18,6.76,.59,.21,1.35,.26,1.2,1.57-.41,.7-.82,1.87-1.6,2.66-3.79,3.84-7.91,7.14-13.57,7.75-1.15,.12-2.58,.12-3.35,.78-4.19,3.58-7.97,.79-10.46-1.62-8.2-7.94-18.15-13.42-27.07-20.32-17.51-13.53-31.99-30.09-47.5-45.65Zm21.49,43.56c.05,3.85-4.2,7.71-8.75,7.62-3.14-.23-5.26-2.01-5.45-5.58-.19-3.54,4.46-8.5,7.83-8.56,3.13-.05,6.33,3.21,6.37,6.52Zm-52.02-58.02c.12,2.91-4.4,7.42-7.6,7.58-2.6,.13-4.65-.68-4.89-3.7-.25-3.08,4.42-7.75,7.8-7.88,2.66,.04,4.57,1.07,4.68,4Zm628.49,327.26c-8.72,4.93-18.41,5.77-27.93,6.72-18.7,1.87-37.44,2.55-56.28,1.41-11.48-.7-22.72,2.75-34.09,4.14-15.21,1.86-12.63,4.28-17.58-11.13-2.61-8.13-4.87-16.44-5.38-25.17-.25-4.37-4.6-4.13-7.96-3.79-10.93,1.1-21.86,2.25-32.68,4.25-15.5,2.86-31.22,1.79-46.84,2.57-6.63,.33-10.87-4.36-14.12-9.09-7.08-10.33-15.94-19.2-23.17-29.38-1.51-2.13-3.69-2.64-6.13-2.68-4.32-.07-8.63-.03-12.95-.72-3.44-.55-5.15-2.28-6.23-5.48-2.2-6.5-1.54-13.18-1.73-19.81-.11-3.94-1.46-7.86,2.37-11.43,2.38-2.21-.5-5.68-4.79-5.63-7.33,.1-14.66,.3-21.98,.67-19.98,1.02-39.98,1.04-59.96,.69-18.81-.33-37.53-2.33-56.04-6.03-8.41-1.68-14.4-5.75-18.01-13.94-4.01-9.12-9.07-17.76-12.49-27.19-1.54-4.24-5.77-6.5-9.79-6.69-6.84-.34-12.9-2.78-19.14-4.94,0,0,0,0,0,0,0,0,0,0,0,0-1.94-1.69-2.31-3.66-1.06-5.92-.31-3.67,1.8-6.68,2.76-10,1.2-4.14,.33-6.7-4.31-8.32-11.64-4.07-22.86-9.16-32.85-16.57-3.61-2.68-6.6-5.52-4.51-10.84,2.61-6.65,6.19-9.41,11.95-9.77,21.61-1.34,43.19,1.25,63.96,5.51,29.57,6.07,59.55,10.41,88.62,19.31,36.81,11.27,73.1,23.85,107.88,40.26,39.87,18.82,81.46,33.81,120.29,54.88,31.73,17.22,64.15,33.15,95.59,50.92,8.83,4.99,17.76,9.83,26.45,15.07,6.08,3.67,12.06,7.53,18.11,11.25,1.07,.66,.94,1.65,1.1,2.59,.94,5.75,1.77,11.51,2.81,17.24,.64,3.54-.84,5.31-3.89,7.03Zm4.82-54.06c.07,.29-.46,.89-.84,1.08-6.78,3.31-7.41,8.77-4.56,16.42-24.98-15.69-49.7-29.06-74.6-42.04-48.04-25.07-95.58-51.16-146.36-70.64-20.94-8.03-40.58-19.14-61.41-27.56-45.27-18.29-91.25-34.32-139.71-41.64-13.53-2.04-26.47-6.68-40.06-7.94-14.57-1.35-29.17-2.45-43.77-3.32-4.35-.26-8.77,.6-14.57,1.06,5.3-4.03,8.52-8.37,14.82-8.5,3.55-.08,7.27-1.93,9.71-4.68,2.81-3.16,6.04-3.36,9.79-3.39,26.74-.19,52.98,4.73,79.43,7.49,32.74,3.41,63.43,14.43,94.79,23.18,37.21,10.38,72.1,26.26,106.75,42.87,25.94,12.43,52.19,24.2,78.23,36.41,19.39,9.09,38.65,18.59,56.64,30.45,14.15,9.34,28.73,18.05,43.33,26.69,6.05,3.58,11.68,7.66,17.06,12.11,1.75,1.44,3.4,2.61,5.8,2.2,1.35-.23,2.61-2.81,4.12-.23,1.91,3.28,4.53,6.18,5.41,9.99Zm54.77-73.41c-4.01,9.35-12.03,14.95-19.5,21-13.38,10.84-29.11,18.03-43.36,27.53-1.11,.74-2.54,1.16-3.34,2.13-1.74,2.09-3.14,1.55-5.03,.21-16.02-11.38-33.34-20.72-49.81-31.38-16.4-10.61-33.77-19.34-51.03-28.35-11.68-6.1-23.92-10.87-35.79-16.49-28.27-13.38-56.74-26.33-85-39.72-26.53-12.57-54.07-22.29-82.23-30.51-22.35-6.52-44.42-14.37-67.38-18.16-23.27-3.85-46.76-6.69-70.31-8.75-10.81-.94-21.61-1.3-32.43-.89-2.77,.1-3.22-.48-2.82-3.3,.75-5.25-.93-10.17-4.8-13.8-22.6-21.18-45.48-42.06-67.95-63.38-13.53-12.84-26.46-26.3-39.7-39.45-6.04-6.01-12.54-7.12-20.2-3.26-7.57,3.81-13.15,9.59-15.96,17.69-.72,2.09-1.43,2.66-3.8,2.49-9.8-.73-19.67-1.18-29.32,1.12-3.11,.74-4.56-.29-6.11-2.54-1.32-1.91-2.71-3.9-4.48-5.35-4.43-3.62-5.86-7.81-4.23-13.42,1.99-6.85,2.94-13.98,5.86-20.59,1.74-3.94,4.24-5.68,8.63-4.39,3.04,.9,6.01,1.9,8.82,3.4,5.44,2.91,8.32,2.39,11.05-3.01,3.27-6.46,8-11.82,11.95-17.75,10.05-15.07,23.69-26.51,37.15-38.19,.38-.33,.77-.64,1.17-.94,12.72-9.63,21.82-7.58,29.7,6.69,1.72,3.11,5.55,3.11,8.17-.47,3.84-5.23,7.05-10.92,10.95-16.1,6.52-8.66,13.71-16.78,22.48-23.26,8.97-6.63,15.96-6.25,24.17,1.12,5.35,4.8,9.99,10.23,13.87,16.31,.86,1.35,1.42,2.63,.87,4.19-1.84,5.26-1.61,10.82-2.37,16.24-.33,2.32,.37,3.88,2.32,5.01,0,0,0,0,0,0,0,0,0,0,0,0,4.81-1.64,4.48-6.1,5.3-9.85,4.03-18.31,10.5-35.51,23.82-49.21,14.99-15.42,33.33-23.9,54.92-25.33,12.11-.8,23.89,1.36,35.7,3.32,7.2,1.19,12.44,6.18,18.12,10.09,2.33,1.6,.8,5.07-.15,7.46-1.79,4.5-4.52,8.54-7.45,12.37-15.18,19.85-30.02,39.99-49.98,55.56-5.42,4.23-11.31,7.62-17.24,10.99-2.61,1.48-4.63,3.29-4.43,6.62,0,0,0,0,0,0,0,0,0,0,0,0,2.41,4.24,5.45,3.11,8.88,1.28,21.47-11.47,38.01-28.42,52.87-47.25,2.27-2.88,4.78-5.65,6.53-8.83,3.84-6.99,10.24-9.82,17.32-12.27,42.84-14.86,87.06-18.27,131.97-16.54,6.01,.23,11.94,.79,17.85,1.87,3.55,.65,5.74,2.48,6.37,6.03,1.22,6.85,3.36,13.51,2.98,20.66-.37,6.95,.52,7.05,7.38,7.97,7.83,1.06,15.64,.15,23.45,.74,6.44,.49,7.65,1.92,6.17,8.17-2,8.46-1.28,10.25,6.89,12.91,16.82,5.49,32.77,13.01,48.73,20.51,4.53,2.13,8.85,4.61,12.99,7.43,18.56,12.65,38.23,23.63,55.88,37.64,12.94,10.27,24.78,21.74,36.92,32.88,.61,.56,1.14,1.52,1.82,1.65,6.53,1.21,4.48,5.16,3.35,9.28-7.12,26-20.52,49-34.09,71.92-3.91,6.6-3.89,7.56,1.38,12.9,1.29,1.31,2.55,2.63,3.79,3.98,7.63,8.26,6.51,9.11,1.78,15.71-2.81,3.91-2.27,7.43,1.5,10.96,21.71,20.37,40.61,43.14,57.15,67.89,3.33,4.98,7.35,9.43,10.5,14.57,2.94,4.79,2.96,9.25,.83,14.2Z" fill="#322625"/><path d="M286.65,324.1s-.04-.07-.06-.11c-25.56,.68-45.42-11.96-65.42-24-11.13-6.7-22.13-13.65-29.75-24.71-4.83-7.02-8.93-14.43-12.85-21.97-.49-.94-.61-2.62-2.02-2.4-1.27,.2-2.4,1.22-2.55,2.74-.16,1.59-.79,2.76-2.19,3.68-20.29,13.24-42.06,22.8-66.01,27.26-9.93,1.85-19.18-.38-28.43-3.33-2.55-.81-5.08-1.66-8.57-1.86,0,.01-.02,.02-.03,.03-.1,.12-.18,.24-.25,.37,1.31,1.82,2.28,3.26,3.34,4.61,7.51,9.58,14.23,19.71,20.96,29.84,1.5,2.26,2.47,2.69,5.05,1.6,21.04-8.89,42.96-11.77,65.54-8.51,17.56,2.54,33.5,9.83,48.71,18.57,17.09,9.82,32.82,21.59,47.67,34.56,1.35,1.18,2.96,2.08,4.44,3.12,2.08-.11,1.72-1.95,2.42-3.14,1.47-2.47-.61-5.74,1.99-7.83,5.15-9.76,10.44-19.44,18.04-28.48,0,0,0-.02,0-.02Z" fill="#fff"/><path d="M129.6,651.45c-6.76,.93-13.7,.98-20.45,.07-9.19-1.23-17.85-3.91-21.79-14.04-.14-.03-.29-.05-.43-.06-12.12,10.77-22.38,22.76-32.97,34.43,26.67-2.34,47.78,9.47,67.2,25.92,15.49-13.14,31.64-25.97,52.55-30.61,20.91-4.64,41.92-4.91,62.96-.84,.94,.18,1.83,.67,2.74,1.01,1.51-.34,2.2,1.39,3.83,1.43,5.74-22.67,22.16-33.61,43.52-39.01,2.56-.65,5.11-1.38,7.66-2.07,1.46-2.39,4.21-.33,6.02-1.63-.73-.95-1.38-1.81-2.04-2.68-5.27-3.68-11.19-6.11-16.91-8.94-3.59,.22-5.13-3.79-8.46-4.1-20.91,8.16-41.59,16.88-63.05,23.6-26.29,8.24-53.14,13.78-80.38,17.52Z" fill="#fff"/><path d="M78.76,305.72c3.26,5.22,6.97,10.16,10.57,15.16,1.15,1.6,2.87,3.85,4.81,1.94,4.61-4.55,10.81-4.91,16.35-6.91,19.85-7.17,40.13-6.14,59.96-.77,19.94,5.41,37.56,15.99,54.26,28.13,11.6,8.44,22.56,17.65,33.73,26.61,2.28,1.83,5,3.44,7.48,.53,2.38-2.78,.05-4.86-1.71-6.86-1.49-1.03-3.09-1.93-4.44-3.12-14.84-12.97-30.58-24.74-47.67-34.56-15.22-8.74-31.15-16.03-48.71-18.57-22.58-3.27-44.51-.39-65.54,8.51-2.58,1.09-3.55,.66-5.05-1.6-6.72-10.13-13.45-20.26-20.96-29.84-1.06-1.35-2.04-2.78-3.34-4.61-.11-.15-.2-.28-.31-.43,.2,0,.39,.02,.59,.04,3.49,.2,6.02,1.05,8.57,1.86,9.25,2.95,18.51,5.18,28.43,3.33,23.95-4.46,45.72-14.02,66.01-27.26,1.4-.91,2.03-2.09,2.19-3.68,.15-1.52,1.28-2.54,2.55-2.74,1.42-.22,1.53,1.46,2.02,2.4,3.92,7.54,8.02,14.95,12.85,21.97,7.62,11.06,18.62,18.02,29.75,24.71,20,12.04,39.86,24.68,65.42,24,.06,0,.12,0,.18,0-.04,.05-.07,.09-.11,.14-7.6,9.04-12.89,18.72-18.04,28.48-.18,2.49-.41,4.98-.54,7.47-.13,2.49,.24,5.06,3.3,5.19,3.24,.13,4.14-2.39,4.04-5.14-.16-4.36,1.59-8.02,3.53-11.78,4.88-9.5,10.45-18.54,16.94-27.02,.57-.75,2.2-1.58,.89-2.87-1-.98-2.2-.06-3.31,.13-1.8,.32-2.78,3.26-5.23,1.51-4.35-3.11-9.53-3.82-14.59-4.69-6.59-1.14-12.99-2.64-18.94-5.93-5.09-2.81-10.56-4.95-15.64-7.78-15.25-8.51-30.89-16.51-42.25-30.44-5.91-7.25-10.37-15.5-15.86-23.04-2.08-2.86-3.64-6.31-7.46-.72-3.68,5.39-10.56,7.3-15.93,10.91-16.34,11-34.89,16.3-53.73,20.8-5.08,1.21-10.32,1.38-15.36-.06-8.34-2.37-16.98-3.21-25.37-5.28-1.28-.32-2.42-.19-3.22,.67-1,1.08,.5,1.65,.86,2.44,4.77,10.35,12.02,19.16,18.02,28.75Z" fill="#322625"/><path d="M237.21,671.8c.75,.32,1.7,.44,2.53,.16-1.1-.2-2.25-.34-3.42-.47,.3,.08,.6,.19,.89,.31Z" fill="#322625"/><path d="M232.24,670.97c-.74-.11-1.48-.24-2.2-.4,.72,.23,1.46,.33,2.2,.4Z" fill="#322625"/><path d="M236.75,671.11c1.21,.51,2.67,.71,3.62-.4,1.22-1.42-.93-2.15-.97-3.37-.91-.34-1.8-.83-2.74-1.01-21.04-4.07-42.05-3.8-62.96,.84-20.91,4.64-37.06,17.47-52.55,30.61-19.41-16.45-40.53-28.26-67.2-25.92,10.59-11.67,20.85-23.66,32.97-34.43,.1-.09,.19-.18,.29-.27,.04,.12,.1,.22,.14,.33,3.94,10.13,12.6,12.8,21.79,14.04,6.75,.91,13.68,.86,20.45-.07,27.24-3.74,54.09-9.28,80.38-17.52,21.46-6.73,42.14-15.45,63.05-23.6,1.45-1.42,4.11-2.45,2.42-5.15-1.6-2.55-3.86-1.09-5.8-.35-3.26,1.25-6.46,2.66-9.67,4.03-42.64,18.22-86.75,31.16-132.85,36.86-9.47,1.17-18.96,1.31-28.04-2.52-4.46-1.88-7.4-5.07-8.17-9.88-.21-1.33,1.14-3.04-.84-3.88-2.04-.88-2.88,1.06-4.11,2.05-13.82,11.12-25.49,24.38-37.25,37.55-2.77,3.1-5.48,6.27-8.09,9.51-1.12,1.39-1.47,3.22,.12,4.47,1.29,1.01,2.86,.7,4.07-.51,6.86-6.85,15.66-8.18,24.08-5.7,18.64,5.5,37.58,11.15,48.62,29.47,.75,1.25,1.91,1.94,3.35,1.65,1.45-.29,2.62-1.42,2.3-2.82-.79-3.54,1.63-5.18,3.75-6.96,20.06-16.83,42.52-27.66,69.24-28.65,11.36-.42,22.61,.28,33.89,1.08,2.25-.05,4.5-.4,6.71,.54Z" fill="#322625"/><path d="M504.71,339.3c1.76-.9,.59-2.05,.16-3.31-2.41-7.07-5.05-14.1-6.85-21.33-1.55-6.25-1.65-12.65,4.18-17.37,3.72-3.01,6.34-2.28,6.76,2.33,.48,5.28,1.66,10.51,1.05,15.89-.49,4.29-.58,8.63-.73,12.96-.09,2.65,.47,5.47,3.66,5.49,2.86,.02,3.55-2.57,3.57-5.09,.03-3.49,0-6.98,0-10.33,.69-7.37-.51-14.43-2.3-21.37-1.89-7.32-7.38-9.42-13.72-5.29-3.86,2.52-7.07,5.94-7.9,10.54-2.36,13.07,2.9,24.44,8.71,35.59,.62,1.19,1.98,2.03,3.41,1.29Z" fill="#332726"/><path d="M305.88,627.19c-3.82,.08-7.64,.32-11.46,.49-2.55,.69-5.09,1.42-7.66,2.07-21.36,5.4-37.79,16.34-43.52,39.01-1.63-.04-2.32-1.78-3.83-1.43,.03,1.22,2.18,1.95,.97,3.37-.96,1.12-2.41,.92-3.62,.4-2.2-.93-4.45-.59-6.71-.54,.72,.16,1.46,.29,2.2,.4,1.35,.21,2.72,.36,4.07,.51,1.18,.13,2.32,.28,3.42,.47,.78,.14,1.54,.3,2.25,.51,4.97,1.48,4.31-1.24,5.11-3.54,4.89-14.01,14.02-23.87,27.95-29.35,10.02-3.94,20.32-6.27,31.07-6.7,2.05-.08,4.36-.24,4.27-3.01-.1-2.81-2.51-2.72-4.5-2.68Z" fill="#342827"/><path d="M529.98,333.38c2.43-4.04,1.23-8.4,.94-12.61-.34-5.05,.28-9.62,4.13-13.31,1.28-1.23,2.23-3.37,4.39-2.47,1.96,.82,2.7,2.8,2.81,4.94,.36,6.81-1.91,12.73-6.07,18-.51,.65-1.17,1.19-1.76,1.77-1.34,1.33-1.82,2.89-.68,4.48,1.28,1.78,3.19,1.88,4.89,.82,1.66-1.04,3.07-2.49,4.58-3.76,.28-.59,.54-1.2,.83-1.78,3.61-7.1,5.87-14.47,3.58-22.46-1.04-3.63-3.16-6.68-7.11-7.59-4.04-.94-6.76,1.35-9.52,4.04-8.29,8.08-4.87,17.86-4.28,27.23,.1,1.64,1.84,2.19,3.26,2.71Z" fill="#342827"/><path d="M533.73,334.17c-1.14-1.59-.66-3.15,.68-4.48,.59-.59,1.25-1.12,1.76-1.77,4.17-5.27,6.43-11.19,6.07-18-.11-2.14-.85-4.11-2.81-4.94-2.16-.9-3.11,1.24-4.39,2.47-3.85,3.69-4.47,8.26-4.13,13.31,.28,4.21,1.49,8.57-.94,12.61,6.81,4.78,11.16,4.07,13.23-2.15-1.52,1.27-2.92,2.72-4.58,3.76-1.7,1.06-3.62,.96-4.89-.82Z" fill="#fcfcfc"/><path d="M300.7,624.21c2.41,.95,5.25,2.98,6.81-.63,1.43-3.3-1.75-4.13-3.98-5.08-6.41-2.73-12.81-5.5-19.31-8-2.33-.89-5.45-4.1-7.04-1.67-1.69,2.59,3.05,3.45,4.31,5.59,5.72,2.83,11.64,5.26,16.91,8.94,.77,.28,1.55,.54,2.31,.84Z" fill="#382b29"/><path d="M1171.44,679.24c-16.54-24.75-35.44-47.51-57.15-67.89-3.76-3.53-4.3-7.05-1.5-10.96,4.74-6.6,5.85-7.45-1.78-15.71-1.24-1.35-2.51-2.67-3.79-3.98-5.27-5.35-5.29-6.31-1.38-12.9,13.57-22.92,26.97-45.92,34.09-71.92,1.13-4.12,3.18-8.07-3.35-9.28-.69-.13-1.21-1.09-1.82-1.65-12.14-11.14-23.98-22.61-36.92-32.88-17.66-14.02-37.33-24.99-55.88-37.64-4.14-2.82-8.46-5.31-12.99-7.43-15.96-7.5-31.91-15.01-48.73-20.51-8.17-2.67-8.89-4.46-6.89-12.91,1.48-6.25,.27-7.68-6.17-8.17-7.8-.59-15.62,.32-23.45-.74-6.86-.93-7.75-1.03-7.38-7.97,.38-7.15-1.76-13.81-2.98-20.66-.63-3.55-2.81-5.38-6.37-6.03-5.91-1.09-11.84-1.64-17.85-1.87-44.9-1.73-89.13,1.68-131.97,16.54-7.08,2.45-13.48,5.28-17.32,12.27-1.75,3.18-4.26,5.95-6.53,8.83-14.86,18.84-31.4,35.79-52.87,47.25-3.43,1.83-6.47,2.95-8.88-1.28,0,0,0,0,0,0-.46,.36-.91,.71-1.37,1.07h0c1.22,2.28,2.32,4.66-.04,6.8-2.06,1.87-4.4,1.24-6.46-.11-12.34-8.09-26.1-12.11-40.49-14.48-2.94-.48-5.77-1.54-8.67-2.28-2-.51-4.21-1.05-4.02-3.59,.19-2.55,2.57-2.67,4.52-3.05-1.53-1.86-3.06-3.71-2.1-6.38,0,0,0,0,0,0-1.94-1.13-2.64-2.69-2.32-5.01,.76-5.42,.53-10.97,2.37-16.24,.55-1.56-.01-2.85-.87-4.19-3.88-6.08-8.53-11.51-13.87-16.31-8.21-7.37-15.21-7.74-24.17-1.12-8.77,6.48-15.97,14.59-22.48,23.26-3.9,5.18-7.11,10.87-10.95,16.1-2.63,3.57-6.46,3.58-8.17,.47-7.88-14.27-16.98-16.32-29.7-6.69-.4,.3-.79,.61-1.17,.94-13.46,11.68-27.09,23.12-37.15,38.19-3.95,5.93-8.68,11.29-11.95,17.75-2.73,5.39-5.61,5.92-11.05,3.01-2.81-1.5-5.77-2.5-8.82-3.4-4.39-1.3-6.89,.44-8.63,4.39-2.92,6.61-3.86,13.74-5.86,20.59-1.63,5.6-.19,9.8,4.23,13.42,1.77,1.45,3.16,3.43,4.48,5.35,1.55,2.24,3,3.28,6.11,2.54,9.65-2.3,19.52-1.85,29.32-1.12,2.38,.18,3.08-.4,3.8-2.49,2.81-8.1,8.39-13.88,15.96-17.69,7.66-3.86,14.16-2.75,20.2,3.26,13.23,13.15,26.17,26.61,39.7,39.45,22.47,21.32,45.35,42.2,67.95,63.38,3.88,3.63,5.56,8.55,4.8,13.8-.4,2.82,.05,3.41,2.82,3.3,10.82-.41,21.62-.05,32.43,.89,23.55,2.06,47.04,4.9,70.31,8.75,22.96,3.8,45.03,11.64,67.38,18.16,28.16,8.22,55.69,17.93,82.23,30.51,28.26,13.39,56.74,26.33,85,39.72,11.87,5.62,24.11,10.39,35.79,16.49,17.26,9.02,34.63,17.75,51.03,28.35,16.48,10.66,33.79,20,49.81,31.38,1.88,1.34,3.29,1.88,5.03-.21,.8-.97,2.24-1.39,3.34-2.13,14.25-9.51,29.98-16.69,43.36-27.53,7.47-6.05,15.49-11.65,19.5-21,2.12-4.95,2.11-9.41-.83-14.2-3.16-5.14-7.18-9.6-10.5-14.57Zm-269.73-161.8c-10,27.56-29.4,44.57-58.68,48.27-23.81,3-47.13-.12-69.05-10.78-2.18-1.06-3.74-2.7-5.33-4.38-6.11,1.84-10.83-.42-14.74-5.03,0,0,0,0,0,0-5.51,2.2-7.97,.73-7.86-5.09,.22-11.24,1.86-22.47,.25-33.72-.32-2.2,.04-4.66-1.96-6.37h0c-1.98-1.84-.79-4.19-1.02-6.32-.17-3.4-2.27-6.21-2.95-9.44-.39-1.84-1.75-4.11,1-5.14,2.4-.9,2.94,1.51,3.95,2.91,.67,.92,1.27,1.9,1.9,2.86h0c2.09-2.14,4.54-3.54,7.58-3.74,0,0,0,0,0,0,8.92-2,18.04-2.51,27.08-3.61,22.46-2.73,44.49-8,66.79-11.67,13.29-2.19,26.59-4.29,39.9-6.32,3.64-.55,7.34-.32,10.9,.65,3.91,1.06,6.24,3.69,6.8,7.74,2.29,16.75,1.23,33.27-4.54,49.19Z" fill="#d4e062"/><path d="M985.63,880.3c-.74-5.11-.81-10.26,1.26-15.24,1.46-3.53,3.45-7.24-1.48-10.06-.95-.54-1.25-2.28-1.78-3.5-4.15-9.56-6.12-19.69-7.32-29.95-.43-3.65-1.24-5.03-5.48-4.51-24.1,2.98-48.07,7.16-72.54,6.61-8.16-.19-14.94-1.96-20.71-7.86-4.71-4.81-8.27-10.4-12.04-15.89-3.39-4.93-7.04-9.68-10.47-14.59-4.49-6.42-11.56-1.46-16.93-3.92-.75-.34-1.58-.57-2.4-.67-6.24-.78-9.55-4.62-11.47-10.33-2.97-8.81-1.91-17.82-1.5-26.76,.15-3.21-.11-4.23-3.67-4.12-21.15,.63-42.3,1.21-63.45,1.4-22.71,.2-45.24-2-67.51-6.47-9.81-1.97-18.26-6.11-22.51-16.16-4.33-10.24-10.08-19.92-11.82-31.15-.14-.93,0-2.83-1.75-2.34-7.4,2.08-13.66-1.57-20.19-3.81-7.7-2.64-9.81-6.48-8.59-14.41,.48-3.1,3.9-6.38,1.63-9-1.98-2.28-5.85-2.92-8.88-4.28-2.43-1.09-4.92-2.05-7.28-3.27-7.99-4.12-15.97-8.19-22.47-14.69-3.93-3.94-5.23-8.26-4.06-13.6,.88-4.03,2.97-7.35,5.33-10.6,3.47-4.77,8.45-7.95,12.96-12.28-12.45-6.67-23.39-15.03-34.38-23.37-6.22,10.76-15.27,17.5-25.93,19.48-12.57,2.33-21.46-6.81-18.54-19.17,1.17-4.94,3.49-9.32,6.99-13.06,2.25-2.41,4.41-4.89,6.61-7.34,1.53-2.24,4.52,.11,6.11-1.94h0c-11.95-12.71-23.9-25.41-36.27-38.56-1.2,9.99-1.17,10.24-6.84,14-3.15,2.09-6.65,3.64-9.99,5.43-9.98,6.01-21.53,.34-21.89-10.84-.08-2.51-.4-4.1-3.48-4.04-3.29,.07-4.74-1.92-4.48-5.17h0c-1.6-4.61-4.57-8.44-7.01-12.58-2.01-3.41-3.83-6.67-8.67-3.62-1.07,.67-2.94,.2-4.42,.05-9.34-.89-17.65-4.68-25.45-9.57-5.1-3.2-6.92-8.45-4.93-13.89,.88-2.4,2.59-4.5,3.93-6.74-3.82,.41-3.77,.47-6.73,2.56-23.61,16.69-30.92,41.06-29.01,67.94,1.69,23.73,8.17,46.56,20.22,67.8,13.34,23.52,32.1,41.81,53.67,56.81,24.31,16.91,52.35,25.82,81.61,30.51,2.12,.34,4.94,.22,5.91,2.16,2.54,5.08,7.17,8.58,9.61,13.71,6.88,14.46,12.14,29.52,17.03,44.72,1.84,5.7-.07,9.05-5.55,11.32-5.42,2.24-6.34,6.5-1.61,9.63,4.58,3.04,5.58,7.04,5.3,11.96-.47,8.24,3.32,11.59,11.45,10.55,4.23-.54,8.24,0,11.29,3.59,4.06,4.77,9.34,4.8,13.86,.28,2.01-2.01,4.57-3.32,7.19-4.15,8.63-2.73,9.46-5.15,3.45-11.83-5.08-5.64-5.81-11.79-2.47-18.39,3.73-7.37,5.68-15.24,7.21-23.27,.65-3.43,1.38-6.85,2.23-10.24,.38-1.49,1.32-2.86,3.1-2.76,1.71,.09,2.5,1.35,2.95,2.94,1.05,3.66,.29,7.27-.08,10.91-.21,2.13-.43,3.96,1.59,5.81,14.12,12.92,27.93,26.18,43,38.04,14.39,11.32,28.7,22.72,45.14,31.04,1.29-1.64,3.26-1.58,4.52-.7,5.63,3.96,11.18,1.52,16.63-.01,29.19-8.21,54.98-.75,78.6,16.84,4.52,3.37,9.04,6.72,12.96,10.86,5.6,5.92,8.73,12.43,6.25,20.71,0,0,0,0,0,0h0c1.62,.38,3.22,.88,4.86,1.11,24.06,3.32,48,7.5,72.17,10.07,4.24,.45,8.82,.71,12.12,3.94,11.66,11.4,23.23,22.9,34.76,34.44,1.86,1.87,3.55,3.99,4.91,6.25,.96,1.59,.87,3.58-.59,5.1-1.45,1.51-3.17,1.64-5.03,.75-.87-.41-1.49-1.41-2.88-1.09-.93,4.32-.22,7.73,4.68,9.26,1.38,.43,2.84,1.01,3.13,2.84,.71,4.4,4.37,4.49,6.81,3.11,4.39-2.48,8.01-1.66,12.24,.06,3.25,1.32,7.37,2.8,9.58-1.85,1.9-4.02,5.46-5.13,9.2-5.66,2.46-.35,4.31-1.17,4.87-3.47,.59-2.39-.75-4.21-3.04-5.05-5.52-2.01-7.02-6.6-7.83-11.74-1.84-11.68-3.85-23.33-5.55-35.02Zm-473.34-265.5c-.85,2.62-1.68,5.95-5.5,6.22-1.78,.13-2.82-1.67-2.42-3.61,.67-3.22,2.07-6.21,5.65-6.67,2.09-.27,2.35,1.87,2.27,4.06Zm10.74,11.66c-3.24,.18-4.76-2.15-4.36-4.69,.44-2.82,.46-6.98,4.59-7.17,4.21-.19,2.62,3.63,3.12,5.54-.19,2.92,.75,6.09-3.34,6.32Zm18.03,5.87c-2.78,.61-4.39-1.36-5.33-3.49-.77-1.76-.81-3.83-1.21-5.94,.24-1.11,.54-2.39,.79-3.68,.23-1.21,.72-2.22,2.01-2.54,1.55-.38,2.58,.58,3.29,1.69,1.78,2.8,2.92,5.92,3.61,9.13,.52,2.39-.72,4.29-3.16,4.83Z" fill="#fdebd1"/><path d="M468.28,528.08c.02,.05,.04,.1,.06,.15-.02-.05-.04-.1-.06-.15Z" fill="#fdebd1"/><path d="M467.88,526.8c.08,.32,.17,.62,.28,.93-.1-.3-.19-.61-.28-.93Z" fill="#fdebd1"/><path d="M1124.27,811.21c-.15-.94-.02-1.93-1.1-2.59-6.06-3.72-12.03-7.58-18.11-11.25-8.69-5.25-17.62-10.08-26.45-15.07-31.44-17.77-63.86-33.7-95.59-50.92-38.83-21.07-80.42-36.07-120.29-54.88-34.78-16.41-71.07-28.98-107.88-40.26-29.06-8.9-59.04-13.24-88.62-19.31-20.78-4.26-42.36-6.85-63.96-5.51-5.75,.36-9.34,3.12-11.95,9.77-2.09,5.32,.9,8.16,4.51,10.84,9.99,7.41,21.21,12.5,32.85,16.57,4.64,1.62,5.51,4.18,4.31,8.32-.96,3.32-3.07,6.33-2.76,10,.81,1.89,1.36,3.83,1.06,5.92,0,0,0,0,0,0,6.24,2.16,12.3,4.6,19.14,4.94,4.02,.2,8.25,2.45,9.79,6.69,3.42,9.43,8.47,18.07,12.49,27.19,3.61,8.19,9.6,12.26,18.01,13.94,18.51,3.7,37.22,5.7,56.04,6.03,19.98,.35,39.98,.33,59.96-.69,7.32-.37,14.65-.57,21.98-.67,4.29-.06,7.17,3.42,4.79,5.63-3.83,3.57-2.48,7.49-2.37,11.43,.19,6.63-.47,13.31,1.73,19.81,1.08,3.19,2.79,4.93,6.23,5.48,4.32,.69,8.63,.64,12.95,.72,2.44,.04,4.62,.56,6.13,2.68,7.23,10.17,16.09,19.05,23.17,29.38,3.25,4.74,7.49,9.42,14.12,9.09,15.62-.78,31.34,.29,46.84-2.57,10.82-2,21.74-3.15,32.68-4.25,3.36-.34,7.71-.58,7.96,3.79,.51,8.73,2.76,17.04,5.38,25.17,4.95,15.41,2.37,12.99,17.58,11.13,11.37-1.39,22.61-4.84,34.09-4.14,18.84,1.14,37.59,.46,56.28-1.41,9.51-.95,19.21-1.79,27.93-6.72,3.05-1.72,4.54-3.49,3.89-7.03-1.04-5.73-1.87-11.5-2.81-17.24Z" fill="#d4e062"/><path d="M295.69,551.98c-8.34-4.23-16.43-9.17-18.97-19.26-3.66-14.5-7.04-29.07-10.87-43.52-8.01-30.2-26.32-54.2-48.29-75.13-22.18-21.13-48.33-36.12-78.92-42.43-17.47-3.6-34.76-2.23-52.02,.64-15.68,2.61-27.43,12.96-39.99,21.59-3.16,2.17-5.89,4.83-8.31,7.87-15.97,20.03-23.89,42.72-22.74,69.6-1.03,8.59,.93,18.06,2.96,27.5,.62,2.9,1.71,5.74,2.81,8.51,10.53,26.42,27.79,48.05,48.83,66.67,11.55,10.22,25.61,16.49,39.97,22.09,26.96,10.53,54.44,14.81,83.01,8.26,15.9-3.64,31.26-8.72,45.87-16.3,7.98-4.14,16.34-7.7,25.92-8.09,8.55-.35,16.91-.31,25.27,1.38,2.34,.47,3.85,.68,3.71-2.95-.26-6.55,1.16-13.2,4.64-18.65,3.12-4.89,1.19-5.73-2.87-7.79Zm-61.87,25.84c-10.88,5.25-22.52,7.66-34.13,10.64-11.28,2.89-22.54,3.83-33.94,4.28-27.71,1.1-52.9-6.34-76.76-20.75-16.95-10.24-29.38-23.82-38.29-40.92-15.59-29.94-18.68-60.93-4.76-92.27,9.02-20.3,23.94-33.78,46.5-39.33,30.47-7.49,59.07-2.66,86.73,10.07,11.8,5.43,21.31,14.28,30.16,24.07,10.56,11.68,20.1,24,28.07,37.47,8.83,14.92,15.79,30.73,20.56,47.47,1.77,6.21,1.22,12.56,1.63,18.74,2.48,20.63-8.8,32.33-25.79,40.52Z" fill="#69a0c0"/><path d="M1118.48,771.67c-2.4,.41-4.05-.76-5.8-2.2-5.38-4.45-11.01-8.52-17.06-12.11-14.59-8.64-29.17-17.35-43.33-26.69-17.99-11.87-37.25-21.36-56.64-30.45-26.04-12.21-52.29-23.98-78.23-36.41-34.65-16.6-69.54-32.49-106.75-42.87-31.36-8.75-62.05-19.77-94.79-23.18-26.46-2.76-52.69-7.68-79.43-7.49-3.75,.03-6.99,.22-9.79,3.39-2.44,2.75-6.16,4.6-9.71,4.68-6.3,.14-9.52,4.47-14.82,8.5,5.8-.46,10.22-1.32,14.57-1.06,14.6,.87,29.2,1.97,43.77,3.32,13.6,1.26,26.53,5.9,40.06,7.94,48.46,7.32,94.45,23.35,139.71,41.64,20.83,8.42,40.48,19.53,61.41,27.56,50.78,19.48,98.32,45.58,146.36,70.64,24.9,12.99,49.62,26.35,74.6,42.04-2.85-7.65-2.23-13.1,4.56-16.42,.38-.19,.91-.79,.84-1.08-.88-3.82-3.5-6.72-5.41-9.99-1.5-2.58-2.76,0-4.12,.23Z" fill="#fff"/><path d="M572.72,568.34c8.92,6.9,18.88,12.38,27.07,20.32,2.48,2.41,6.27,5.2,10.46,1.62,.78-.66,2.21-.66,3.35-.78,5.66-.61,9.78-3.92,13.57-7.75,.78-.79,1.19-1.96,1.6-2.66,.15-1.32-.61-1.36-1.2-1.57-3.75-1.31-6.35-4.22-9.18-6.76-14.63-13.13-28.35-27.2-42.87-40.45-21.06-19.22-40.14-40.38-58.76-61.95-1.03-1.19-1.62-3.16-3.51-3.25-8.34-.39-19.9,8.82-21.81,17.12-.39,1.7,.09,2.73,1.22,3.94,11.14,11.92,21,24.94,32.55,36.53,15.51,15.55,29.99,32.11,47.5,45.65Z" fill="#fff"/><path d="M635.07,396.09c13.56,1.52,27,3.53,39.9,8.32,5.53,2.06,10.04,5.81,15.25,8.39,0,0,0,0,0,0h0c.46-.36,.91-.71,1.37-1.07,0,0,0,0,0,0-.21-3.34,1.82-5.14,4.43-6.62,5.93-3.37,11.82-6.76,17.24-10.99,19.96-15.57,34.8-35.71,49.98-55.56,2.93-3.84,5.66-7.87,7.45-12.37,.95-2.39,2.48-5.86,.15-7.46-5.68-3.9-10.91-8.89-18.12-10.09-11.82-1.96-23.59-4.12-35.7-3.32-21.6,1.42-39.93,9.91-54.92,25.33-13.32,13.7-19.79,30.9-23.82,49.21-.82,3.75-.49,8.22-5.3,9.85,0,0,0,0,0,0-.96,2.67,.57,4.53,2.1,6.38Zm21.12-18.2c.61-17.39,9.55-29.75,21.94-40.65,13.86-12.2,30.68-17.17,48.19-20.68,0,0,0,0,0,0,0,0,0,0,0,0,2.81-2.02,6.07-2.62,9.41-2.86,9.54-.69,14.73,5.63,11.93,14.87-2.35,7.75-6.5,14.6-12.18,20.36-12.63,12.8-24.62,26.17-36.33,39.8-4.3,5.01-9.58,7.57-15.84,8.53-3.46,.53-6.76,.27-8.18-3.8-13.89,3.1-19.48-.24-18.94-15.57Z" fill="#fdebd1"/><path d="M824.97,846.54c-3.92-4.14-8.44-7.49-12.96-10.86-23.62-17.59-49.41-25.06-78.6-16.84-5.45,1.53-11,3.97-16.63,.01-1.25-.88-3.23-.94-4.52,.7,4.2,3.59,9.4,5.51,14.03,8.37,18.94,11.72,38.24,22.73,60.14,28.04,14.96,3.63,29.42,9.23,44.78,11.29,0,0,0,0,0,0,2.49-8.28-.65-14.79-6.25-20.71Z" fill="#f8cdcd"/><path d="M774.56,862.02c-14.32-4.99-28.05-11.2-41.84-19.74,.93,3.01,1.53,4.89,2.1,6.78,.57,1.91,1.09,3.83,1.68,5.73,.92,2.96,.54,5.18-3.21,4.75-2.78-.32-3.5,1.22-3.87,3.38-.91,5.27,3.24,9.58,8.4,7.74,3.67-1.31,3.71,.45,4.55,2.65,1.85,4.87,6.64,6.66,10.7,3.63,3.59-2.67,6.88-3.76,11.01-1.31,2.01,1.19,4.48,1.3,5.12-1.7,.65-3.05,2.06-4.61,5.26-4.87,2.41-.2,3.01-2.42,3.41-4.37,.56-2.73-2.04-2.23-3.3-2.67Z" fill="#fdead0"/><path d="M462.9,519.43c3.08-.06,3.4,1.53,3.48,4.04,.36,11.18,11.9,16.85,21.89,10.84-2.47,.35-4.93,.93-7.4,1.02-6.24,.21-10.76-2.71-12.53-7.09-.02-.05-.04-.1-.06-.15-.04-.12-.08-.24-.12-.36-.1-.3-.2-.61-.28-.93-.69-2.78-.37-6.02,1.19-9.38,1.56-3.35,3.8-6.21,6.54-8.74,5.07-4.67,11.12-7.54,17.67-9.62-3.52-6.09-6.64-12.02-15.13-9.54-1.5,.44-3.33,.02-4.96-.26-6.47-1.11-12.83-.34-19.87,.8,1.7,2.47,3.25,4.57,4.65,6.76,2.96,4.62,5.95,9.23,8.7,13.97,1.44,2.48,1.7,5.29-1.19,7.03-2.83,1.7-4.65-.15-6.12-2.43-.26-.41-.63-.75-.95-1.12h0c-.26,3.25,1.18,5.23,4.48,5.17Z" fill="#fdead0"/><path d="M374.41,575.44c-.62-.26-1.23-.52-1.85-.78,0,0,0,0,0,0-2.1,4.92-6.98,5.89-11.11,6.1-5.44,.28-6.87,2.56-7.36,7.4-1.35,13.41-2.02,10.89,9.98,14.41,5.24,1.54,10.53,1.53,15.45-1.28,1.49-.85,3.3-1.66,2.12-4.22-3.19-6.94-4.89-14.4-7.23-21.64Z" fill="#689fbf"/><path d="M368.44,551.33c-.21-1.23-1.03-1.41-2.11-1.6-9.48-1.72-18.81-1.62-27.92,1.92,.32,.59,.63,1.19,.95,1.78,0,0,0,0,0,0,3.07,.58,6.41,2.22,9.16,1.51,6.51-1.67,4.22,1.27,2.97,4.39-1.67,4.17-2.03,8.09,1.59,11.85,3.71,3.87,7.45,3.36,11.7,1.52,2.99-1.29,6.12-2.37,7.78,1.95,0,0,0,0,0,0,.61,.26,1.23,.52,1.85,.78-.51-8.4-4.59-15.92-5.97-24.11Z" fill="#fcead0"/><path d="M344.38,564.91c.38-2.3-.95-2.8-2.79-3.14-1.97-.37-3.05,.11-3.61,2.2-1.95,7.39-4.25,14.7-4.71,23.67-1.62,3.91,1.43,5.72,5.67,6.75,1.29,.31,2.65,.58,3.79,1.21,3.61,1.99,4.31-.03,4.34-3.01,.05-4.22,.91-8.29,2.52-12.15,.69-1.66,.57-2.78-.73-3.97-3.38-3.11-5.26-6.86-4.49-11.57Z" fill="#fefefe"/><path d="M332.71,561.58c-1.11-1.61-10.44-1.4-11.24,.38-2.97,6.65-5.92,13.32-6.58,21.98-.9,5.36,4.91,3.63,7.99,5.15,2.68,1.32,3.91,.15,4.02-2.68,.3-7.72,2.71-14.94,5.28-22.12,.3-.83,1.25-1.65,.52-2.71Z" fill="#fefefe"/><path d="M316.39,559.33c-1.74-2.31-10.36-1.87-11.66,.71-2.56,5.07-4.27,10.41-4.51,16.68,.12,1.31,.12,3.16,.5,4.93,.72,3.33,3.95,2.38,6.09,3.25,1.61,.66,2.12-.47,2.18-1.75,.35-7.86,3.99-14.62,7.09-21.57,.31-.69,.97-1.37,.31-2.25Z" fill="#fdfdfd"/><path d="M532.51,568.29c.19,3.57,2.32,5.34,5.45,5.58,4.55,.09,8.8-3.77,8.75-7.62-.05-3.31-3.24-6.57-6.37-6.52-3.38,.06-8.02,5.01-7.83,8.56Z" fill="#fdfdfd"/><path d="M482.21,512.1c.24,3.02,2.29,3.83,4.89,3.7,3.19-.16,7.71-4.67,7.6-7.58-.12-2.93-2.02-3.96-4.68-4-3.38,.13-8.05,4.8-7.8,7.88Z" fill="#fcfcfc"/><path d="M535.26,555.38c2.07,.04,4.19,.39,6.19,.03,2.8-.5,.91-1.33-.08-1.98,0,0,0,0,0,0-1.59,2.06-4.58-.3-6.11,1.94Z" fill="#a89989"/><path d="M333.64,553.43h5.73c-.32-.59-.63-1.19-.95-1.78-1.56-.04-2.81,.64-4.78,1.78Z" fill="#d6c5af"/><path d="M629.24,666.93c-1.25,2.26-.88,4.23,1.06,5.92,0,0,0,0,0,0,.3-2.09-.25-4.03-1.06-5.92Z" fill="#e5dca6"/><path d="M775.47,546.47c9.55,3.85,19.02,8.2,29.32,9.39,17.54,2.03,35.06,3.34,52.27-2.92,17.4-6.33,28.1-19.19,35-35.46,5.97-14.09,7.66-29.18,8.02-44.42,.07-2.97-1.25-3.7-3.75-3.98-8.96-1.01-17.49,1.67-26.19,2.91-29.79,4.28-59.15,11.39-89.18,13.93-7.88,.67-15.87,1.61-23.86,.59-3.7-.47-4.11-2.18-2.32-5.04,0,0,0,0,0,0,0,0,0,0,0,0-3.05,.19-5.5,1.6-7.58,3.74,9.59,17.86,8.78,37.18,7.82,56.5-.06,1.28-.73,2.54-1.12,3.81,0,0,0,0,0,0,0,0,0,0,0,0,3.92,4.61,8.63,6.86,14.74,5.03-.06-5.15,1.66-6.16,6.82-4.08Zm14.12-54.23c6.46-.58,12.94-1.45,19.41-1.44,16.54,.04,32.8-2.43,49.09-4.77,5.58-.8,11.25-1.07,16.88-1.41,2.94-.18,5.86,.48,7.21,3.43,1.39,3.04,.48,5.83-2.02,8.06-1.51,24.15-17.02,47.97-43.22,49.65-8.23,.53-16.43,1.9-24.75,1.76-13.89-.25-25.08-6.9-35.42-15.18-4.79-3.83-5.84-9.82-6.34-15.72,0,0,0,0,0,0,0,0,0,0,0,0-5.18-10.37,7.91-23.35,19.16-24.37Z" fill="#fdebd1"/><path d="M899.46,460.52c-3.57-.97-7.27-1.21-10.9-.65-13.31,2.03-26.61,4.13-39.9,6.32-22.3,3.68-44.33,8.95-66.79,11.67-9.04,1.1-18.16,1.61-27.08,3.61,0,0,0,0,0,0-1.79,2.86-1.37,4.57,2.32,5.04,7.99,1.02,15.98,.07,23.86-.59,30.04-2.54,59.39-9.65,89.18-13.93,8.69-1.25,17.23-3.92,26.19-2.91,2.5,.28,3.82,1.01,3.75,3.98-.36,15.24-2.05,30.33-8.02,44.42-6.9,16.28-17.59,29.13-35,35.46-17.21,6.26-34.73,4.95-52.27,2.92-10.3-1.19-19.77-5.55-29.32-9.39-5.16-2.08-6.88-1.07-6.82,4.08,1.59,1.68,3.15,3.32,5.33,4.38,21.92,10.66,45.24,13.78,69.05,10.78,29.28-3.69,48.69-20.7,58.68-48.27,5.77-15.92,6.84-32.44,4.54-49.19-.55-4.05-2.89-6.68-6.8-7.74Z" fill="#322625"/><path d="M755.03,541.72c.96-19.32,1.77-38.64-7.82-56.5h0c-.63-.95-1.23-1.93-1.9-2.86-1.01-1.39-1.55-3.8-3.95-2.91-2.75,1.03-1.39,3.3-1,5.14,.69,3.24,2.78,6.04,2.95,9.44,1.39,1.94,1.29,4.11,1.02,6.32,2,1.7,1.64,4.16,1.96,6.37,1.61,11.25-.03,22.48-.25,33.72-.11,5.82,2.35,7.29,7.86,5.09,0,0,0,0,0,0,.39-1.27,1.06-2.52,1.12-3.81Z" fill="#322625"/><path d="M674.97,404.41c-12.9-4.8-26.34-6.8-39.9-8.32-1.95,.39-4.34,.51-4.52,3.05-.19,2.54,2.02,3.08,4.02,3.59,2.9,.73,5.74,1.79,8.67,2.28,14.39,2.37,28.15,6.39,40.49,14.48,2.06,1.35,4.4,1.97,6.46,.11,2.35-2.13,1.26-4.52,.04-6.79,0,0,0,0,0,0-5.2-2.57-9.71-6.33-15.25-8.39Z" fill="#332725"/><path d="M743.31,494.03c.23,2.12-.96,4.48,1.02,6.32h0c.27-2.2,.36-4.38-1.02-6.32Z" fill="#ecdfba"/><path d="M540.62,618.37c-.71-1.11-1.74-2.08-3.29-1.69-1.29,.32-1.78,1.33-2.01,2.54-.24,1.29-.55,2.57-.79,3.68,.4,2.11,.44,4.19,1.21,5.94,.94,2.13,2.55,4.1,5.33,3.49,2.45-.53,3.68-2.43,3.16-4.83-.69-3.21-1.83-6.33-3.61-9.13Z" fill="#f3aaaa"/><path d="M523.26,614.6c-4.13,.18-4.15,4.35-4.59,7.17-.39,2.54,1.13,4.87,4.36,4.69,4.09-.23,3.15-3.4,3.34-6.32-.49-1.91,1.09-5.73-3.12-5.54Z" fill="#f4aaab"/><path d="M510.03,610.74c-3.58,.46-4.97,3.46-5.65,6.67-.4,1.93,.64,3.73,2.42,3.61,3.81-.28,4.64-3.6,5.5-6.22,.09-2.19-.18-4.33-2.27-4.06Z" fill="#f4adac"/><path d="M257.97,518.56c-4.77-16.74-11.73-32.55-20.56-47.47-7.97-13.47-17.51-25.79-28.07-37.47-8.85-9.79-18.36-18.64-30.16-24.07-27.67-12.73-56.26-17.56-86.73-10.07-22.56,5.55-37.48,19.03-46.5,39.33-13.92,31.34-10.83,62.33,4.76,92.27,8.91,17.1,21.33,30.68,38.29,40.92,23.86,14.41,49.05,21.85,76.76,20.75,11.4-.45,22.66-1.39,33.94-4.28,11.61-2.97,23.25-5.39,34.13-10.64,16.98-8.19,28.27-19.9,25.79-40.52-.41-6.18,.14-12.53-1.63-18.74Zm-67.38-92.13c9.52,7.53,17.16,15.5,23.82,24.38,2.21,2.95,.74,6.79,.53,10.22-.1,1.53-1.73,1.26-2.83,1.29-6.15,.14-12.31,.22-18.46,.35-1.81,.04-3.14-.02-3.11-2.56,.13-10.9,.05-21.8,.05-33.67Zm-2.26,41.08c1.1,.18,2.17,.54,3.25,.82,6.48,.12,12.97,.39,19.45,.31,2.88-.04,3.68,.81,3.54,3.7-.85,17.26-1.59,34.53-2.19,51.81-.1,2.82-1.01,3.72-3.78,3.7-3.31-.02-2.27-2.19-2.11-3.78,2.14-20.91-4.11-38.98-18.23-54.44-.77-.3-1.57-.75-1.48-1.62,.09-.89,1.02-.59,1.55-.51Zm-12.93,46.96c3.78,7.86,11.21,11.54,18.59,15.13,1.64,.79,3.99,.58,2.64,3.85-1.15,2.79-2.11,3.92-5.31,2.87-10.58-3.48-17.16-11.11-21.79-20.67-4.65-9.61-6.14-19.95-6-30.56,.08-7.18,.47-14.33,3.39-21.02,.53-1.21,.1-4.35,3.19-2.75,2.26,1.17,3.71,2.67,2.03,5.47-2.55,4.25-3.17,9.12-3.59,13.89-1.05,11.89,1.73,23.14,6.85,33.79Zm.98-47.32c6.89,2.88,9.57,8.62,12.38,14.31,5.88,11.91,10,24.23,9.75,37.76-.07,3.73-1.12,3.6-4.04,2.35-13.33-5.72-17.3-17.48-20-30.18-1.75-8.22-.55-16.14,1.91-24.23Zm27.43,68.62c1.59-3.54,4.07-1.95,6.25-2.05,2.68-.12,1.98,2.12,2,3.63,.05,5.82-.15,11.64,.1,17.45,.14,3.21-.89,4.48-4.12,4.55-5.9,.13-11.79,.54-18.7,.89,7.41-7.31,10.7-16.06,14.48-24.47Zm-17.19-111.93c-2.69,10.63-2.62,21.49-2.42,32.37-.09,.1-.15,.21-.21,.32,.06-.11,.13-.22,.21-.32,.27,2.45,.54,4.91,.83,7.47-1.64,.28-2.1-.99-2.69-2.09-7.42-6.99-17.13-9.94-25.94-14.44-2.24-1.14-3.54-2.03-3.24-4.58,.08-.65-.03-1.33-.06-1.99-.61-12.89-.56-12.62,12.24-14.97,7.18-1.32,14.49,.11,21.29-1.76Zm-22.87-14.29c5.2,2.08,10.09,4.71,14.62,8.22-7.74,.04-15.08,1.57-22.41,2.97-2.83,.54-3.32-.27-3.45-2.88-.63-12.8-.47-12.98,11.24-8.3Zm-50.23,1.97c.02-7.79,.02-7.87,8.11-7.79,7.37,.07,14.78-1.39,22.08,1.34,2.69,1,3.55,2.04,3.5,4.87-.22,11.93-.12,11.97-11.56,13.93-6.39,1.1-12.84,1.92-19.21,3.11-2.39,.45-2.96-.32-2.9-2.47,.08-3,.02-6,.02-8.99h-.04c0-1.33,0-2.67,0-4Zm-33.99,20.26c.69-6.27,1.43-12.54,2.05-18.81,.17-1.69,1.27-2.14,2.54-2.64,6.99-2.76,14.42-3.86,21.69-5.5,4.69-1.06,1.65,3,2.51,4.43-.86,5.61-1.28,11.09-1.1,16.58,.08,2.49-.84,3.53-3.27,3.95-7.36,1.29-14.71,2.7-22.01,4.26-2.33,.5-2.6-.46-2.4-2.27Zm-2.33,34.02c.35-7.46,.8-14.92,1.12-22.39,.08-1.92,.67-3.13,2.7-3.47,8.01-1.36,16.02-2.77,24.03-4.15,2.13-.37,2.05,1.1,1.98,2.47-.1,2.16-.31,4.31-.37,6.47-.1,3.17,1.02,5.43,4.48,5.74,.03-.03,.07-.06,.1-.09l.1,.11s-.1-.11-.1-.11c.1-.03,.19-.06,.29-.09,3.48-3.49,1.98-7.98,1.99-12.03,0-3.3,.94-4.74,4.26-5.16,8.56-1.06,17.09-2.3,25.61-3.65,2.57-.41,3.29,.44,3.06,2.83-.16,1.65-.1,3.32-.12,4.98-.1,7.93-.15,8.27-7.81,7.05-8.22-1.3-15.32,1.79-22.61,4.5-1.44,.54-2.91,.99-4.37,1.47-.07,.07-.12,.14-.19,.2-.07,0-.13-.02-.2-.02-6.76,5.95-14.75,10.26-21.56,16.26-2.34,2.07-7.28,1.29-11.04,1.6-1.85,.15-1.39-1.49-1.34-2.53Zm6.44,8.11c-1.93,2.67-3.67,5.08-6.11,8.45-.91-8.54-.78-8.7,6.11-8.45Zm-34.29,33.34c-5.8-19.35-5.5-38.54,.38-57.89,4.04-13.29,10-24.99,21.89-32.88,1.31-.87,2.6-2.81,4.31-1.7,1.34,.87,.51,2.79,.3,4.22-.68,4.77-1.54,9.52-2.16,14.3-.31,2.37-1.64,3.42-3.76,4.02-3.68,1.04-7.35,2.12-10.98,3.34-1.35,.46-3.26,1.09-2.74,2.95,.57,2.05,2.46,1.05,3.8,.8,1.96-.36,3.85-1.06,5.81-1.41,6.16-1.09,6.16-1.05,5.88,5.1-.36,6.31-.85,12.61-1.02,18.93-.07,2.74-1.28,3.85-3.75,4.28-5.4,.96-10.79,2-16.18,3.02-1.65,.31-3.72,.62-3.58,2.69,.16,2.37,2.48,1.88,3.97,1.73,5.13-.51,10.26-1.09,15.33-1.97,2.79-.48,3.34,.1,3.83,3.04,1.73,10.34-.62,20.24-2.16,30.27-.3,1.97-.91,2.34-2.83,2.2-2.64-.2-5.57-.52-7.92,.38-5.72,2.2-7.13-1.1-8.43-5.44Zm27.67,46.44c-8.98-9.22-16.14-19.7-21.75-31.28-1.69-3.47-1.39-4.82,2.98-4.79,8.52,.07,8.53-.16,10.42,8.32,2.06,9.22,4.42,18.33,9.87,26.28,1.92,1.55,3.22,3.49,4.37,6.84-2.92-1.75-4.54-3.4-5.88-5.37Zm15.35,13.8h0c-.86-.59-1.73-1.18-2.59-1.77-.13-.05-.25-.12-.38-.26,0,0,0,0,0,0h0s0,0,0,0c-1.83-1.23-3.68-2.45-5.34-5.35,3.46,1.33,4.89,3.47,6.52,5.37,0,0,0,0,0,0,1.4,.02,2.25,.85,2.86,2,1.01,0,1.81,.36,2.6,1.53-1.81,.35-2.76-.53-3.67-1.52Zm2.9-8.82c-1.17-.91-2.17-2.03-3.25-3.06-6.07-4.18-8.18-10.65-10.7-17.18-7.61-19.72-6.22-38.36,5.22-56.21,1.32-2.06,2.47-3.23,4.31-.65,10.66,14.95,16.27,31.19,12.48,49.76-1.16,5.67-4.11,10.52-7.54,15.04-1.13,1.49-2.43,2.72-2.11,4.78,0,0,0,0,0,0,0,0,0,0,0,0,3.73,3.28,5.81,.2,7.6-2.28,7.77-10.76,10.65-22.82,8.52-35.9-2.23-13.69-6.33-26.59-17.48-35.96-1.63-1.37-.96-2.33,.07-3.17,1.47-1.19,1.95-4.5,4.92-2.77,1.41,.82,2.88,1.9,3.75,3.24,12.98,19.91,20.48,41.1,14.06,65.13-1.75,6.56-4.24,12.96-8.74,18.33-4.78,5.71-4.81,5.79-11.12,.9Zm4.21-91.96c10.87-9.36,22.99-14.88,37.59-14.53,8.45,.2,16.47,1.64,24.1,5.43,2.11,1.05,2.97,1.64,2,4.24-7.72,20.79-6.05,41.14,3.55,60.91,4.44,9.14,11.05,16.36,20.96,19.58,4.16,1.35,3.27,3.02,1.42,5.45-8.64,11.35-19.12,19.44-33.78,21.98-16.69,2.89-32.74,2.15-48.52-4.5,24.62-24.68,20.38-73.05-7.32-98.57Zm152.49,83.21c-.16,3.65-2.79,6.66-5.28,9.4-8.73,9.62-20.42,13.94-32.24,18.03-7.92,2.74-16.37,2.84-24.4,4.74-9.98,2.36-20.05,2.76-30.12,3.06-11.99,.35-23.85-1.34-35.41-4.74h0c-1.55,.21-2.79-.56-4.05-1.64,5.98,.25,11.98-.89,17.94,.58,15.76-.19,30.72-3.16,43.75-12.73,1.27-.94,2.53-1.31,4.13-1.32,7.66-.05,15.31-.13,22.96-.46,2.38-.1,2.88,.8,2.86,2.82-.01,1.65-.06,3.36,1.14,4.74,.83,.96,1.84,1.48,3.09,1.07,1.7-.57,2.4-2.1,2.06-3.58-1.46-6.26,2.41-6.32,6.77-6.25,2.13,.03,4.3-.34,6.4-.78,1.75-.37,3.13-1.42,2.7-3.51-.38-1.86-1.96-2.1-3.52-2.02-3.16,.17-6.34,.25-9.46,.72-2.57,.39-3.19-.59-3.2-2.92-.03-5.83-.11-11.66-.4-17.48-.15-3.03,.85-4.1,3.96-4.01,7.32,.21,14.65,.1,21.98,.1,2.38,0,5.25,.04,5.32-3.08,.08-3.51-2.97-3.4-5.51-3.39-6.99,.01-13.99-.05-20.98,.16-3.05,.09-4.32-.42-4.27-4.02,.22-17.15,.44-34.3,1.29-51.43,.1-2.06,.25-3.98,1.85-5.47,.19-2.36-2.58-4.01-1.49-6.82,2.21,.88,2.82,2.91,3.63,4.78l2.1,3c11.22,17.27,20.07,35.61,24.93,55.73,1.63,8.85,1.88,17.81,1.48,26.73Z" fill="#322625"/><path d="M221.62,466.21c-.1,.09-.19,.18-.29,.28,.12-.06,.22-.16,.29-.28Z" fill="#322625"/><path d="M675.13,393.47c.75-3.13,3.17-4.06,5.95-4.39,5.78-.69,9.85-3.72,13.62-8.17,9.88-11.66,20.19-22.98,31.28-33.5,5.64-5.35,10.09-11.43,14.04-17.99,1.83-3.04,3.7-6.5,1.45-9.77-2.36-3.43-6.32-1.87-9.71-1.63-2,.14-4.56,2.52-5.45-1.45,0,0,0,0,0,0-17.51,3.51-34.33,8.48-48.19,20.68-12.39,10.9-21.33,23.25-21.94,40.65-.53,15.33,5.05,18.67,18.94,15.57Z" fill="#f3a9aa"/><path d="M731.76,318.02c3.39-.24,7.35-1.8,9.71,1.63,2.25,3.27,.38,6.73-1.45,9.77-3.95,6.56-8.39,12.63-14.04,17.99-11.09,10.52-21.4,21.85-31.28,33.5-3.77,4.45-7.84,7.48-13.62,8.17-2.78,.33-5.2,1.26-5.95,4.39,1.42,4.08,4.72,4.33,8.18,3.8,6.25-.96,11.53-3.51,15.84-8.53,11.7-13.63,23.7-27,36.33-39.8,5.68-5.76,9.84-12.61,12.18-20.36,2.8-9.25-2.39-15.56-11.93-14.87-3.34,.24-6.59,.84-9.41,2.86,0,0,0,0,0,0,.89,3.97,3.45,1.59,5.45,1.45Z" fill="#322625"/><path d="M876.74,494.77c-.67-5.65-4.78-3.46-7.45-3.14-16.49,1.98-32.87,4.81-49.43,6.2-8.78,.74-17.57,1.33-26.35,1.92-9.34,.63-14.16,4.45-16.76,13.39-.94,3.24-2.32,5.74-6.31,3.47,0,0,0,0,0,0,.5,5.9,1.54,11.89,6.34,15.72,10.34,8.27,21.53,14.93,35.42,15.18,8.32,.15,16.51-1.23,24.75-1.76,26.2-1.68,41.71-25.5,43.22-49.65-1.41,.19-3.26-.03-3.42-1.33Z" fill="#f3a9aa"/><path d="M770.43,516.61c3.98,2.27,5.37-.23,6.31-3.47,2.6-8.95,7.42-12.77,16.76-13.39,8.79-.59,17.58-1.18,26.35-1.92,16.56-1.39,32.94-4.22,49.43-6.2,2.67-.32,6.78-2.51,7.45,3.14,.16,1.31,2.01,1.53,3.42,1.33,2.5-2.23,3.41-5.03,2.02-8.06-1.35-2.95-4.27-3.6-7.21-3.43-5.64,.34-11.3,.61-16.88,1.41-16.29,2.34-32.55,4.81-49.09,4.77-6.47-.01-12.94,.86-19.41,1.44-11.25,1.02-24.34,14-19.16,24.37,0,0,0,0,0,0Z" fill="#332625"/><path d="M155.34,569.77c14.66-2.54,25.13-10.63,33.78-21.98,1.85-2.43,2.74-4.1-1.42-5.45-9.92-3.22-16.53-10.44-20.96-19.58-9.6-19.77-11.27-40.12-3.55-60.91,.97-2.6,.11-3.19-2-4.24-7.62-3.79-15.65-5.23-24.1-5.43-14.6-.35-26.72,5.17-37.59,14.53,27.7,25.51,31.94,73.89,7.32,98.57,15.78,6.65,31.83,7.39,48.52,4.5Z" fill="#d4e062"/><path d="M93.69,551.15s0,0,0,0c-.33-2.06,.98-3.29,2.11-4.78,3.43-4.53,6.38-9.37,7.54-15.04,3.79-18.57-1.82-34.8-12.48-49.76-1.84-2.58-2.99-1.41-4.31,.65-11.44,17.85-12.83,36.49-5.22,56.21,2.52,6.53,4.63,13,10.7,17.18,.28-1.59-.33-3.51,1.67-4.46Z" fill="#d4e062"/><path d="M194.48,521.56c2.92,1.25,3.97,1.38,4.04-2.35,.25-13.53-3.87-25.84-9.75-37.76-2.81-5.69-5.49-11.42-12.38-14.31-2.46,8.1-3.66,16.02-1.91,24.23,2.7,12.7,6.67,24.46,20,30.18Z" fill="#d4e062"/><path d="M101.08,474.3c-.87-1.34-2.34-2.42-3.75-3.24-2.97-1.73-3.45,1.58-4.92,2.77-1.03,.84-1.7,1.8-.07,3.17,11.15,9.36,15.25,22.27,17.48,35.96,2.13,13.08-.75,25.14-8.52,35.9-1.79,2.48-3.87,5.56-7.6,2.28,0,0,0,0,0,0-2,.95-1.39,2.87-1.67,4.46,1.08,1.02,2.08,2.15,3.25,3.06,6.31,4.88,6.34,4.81,11.12-.9,4.49-5.38,6.98-11.78,8.74-18.33,6.43-24.03-1.07-45.23-14.06-65.13Z" fill="#fefefe"/><path d="M111.26,450.38s-.07,.06-.1,.09c.07,0,.13,.02,.2,.02l-.1-.11Z" fill="#fff"/><path d="M172.14,466.79c1.68-2.81,.23-4.3-2.03-5.47-3.1-1.6-2.66,1.54-3.19,2.75-2.92,6.69-3.31,13.84-3.39,21.02-.14,10.61,1.35,20.94,6,30.56,4.63,9.56,11.21,17.19,21.79,20.67,3.2,1.05,4.15-.08,5.31-2.87,1.35-3.28-1-3.06-2.64-3.85-7.38-3.58-14.81-7.26-18.59-15.13-5.12-10.65-7.91-21.9-6.85-33.79,.42-4.76,1.04-9.64,3.59-13.89Z" fill="#fdfdfd"/><path d="M111.26,450.39s.1,.11,.1,.11c.07-.07,.13-.13,.19-.2-.1,.03-.19,.06-.29,.09Z" fill="#fefefe"/><path d="M77.54,482.36c2.44-3.37,4.18-5.78,6.11-8.45-6.89-.24-7.02-.09-6.11,8.45Z" fill="#e0dcda"/><path d="M138.42,579.33c-5.96-1.47-11.95-.33-17.94-.58,1.26,1.08,2.5,1.85,4.05,1.64h0c4.5-2.01,9.32,0,13.89-1.06Z" fill="#766965"/><path d="M223.46,464.45c-.81-1.86-1.42-3.89-3.63-4.78-1.09,2.8,1.68,4.45,1.49,6.82,.1-.09,.19-.18,.29-.28,.62-.59,1.23-1.18,1.85-1.77Z" fill="#e4e0de"/><path d="M78.55,552.23c-.51,.49-1.01,.98-1.52,1.47,1.35,1.97,2.97,3.62,5.88,5.37-1.15-3.34-2.45-5.29-4.37-6.84Z" fill="#e8e5e3"/><path d="M182.35,461.57c.59,1.1,1.05,2.37,2.69,2.09-.28-2.56-.55-5.01-.83-7.47-.08,.1-.15,.21-.21,.32-.83,1.59,.75,4.01-1.65,5.05Z" fill="#594a45"/><path d="M89.79,565.72c-.13-.09-.25-.17-.38-.26,.13,.13,.25,.21,.38,.26Z" fill="#978983"/><path d="M90.59,565.48s0,0,0,0c-1.63-1.9-3.06-4.04-6.52-5.37,1.66,2.9,3.5,4.12,5.34,5.35,0,0,0,0,0,0,.39,0,.79,.01,1.18,.02,0,0,0,0,0,0Z" fill="#978983"/><path d="M188.26,469.64c.71-1.45,2.28-.72,3.32-1.3-1.08-.29-2.15-.64-3.25-.82-.53-.09-1.46-.39-1.55,.51-.09,.88,.71,1.33,1.48,1.62Z" fill="#cfc8c5"/><path d="M93.46,567.48c-.36,0-.72,0-1.08,.01h0c.91,.99,1.86,1.87,3.67,1.52-.79-1.18-1.59-1.53-2.6-1.53Z" fill="#584844"/><path d="M90.59,565.48s0,0,0,0c-.4,0-.79-.01-1.18-.02h0s0,0,0,0c.13,.09,.25,.17,.38,.26,.86,.59,1.73,1.18,2.59,1.77h0c.36,0,.72,0,1.08-.01-.62-1.15-1.46-1.98-2.86-2Z" fill="#6c5c56"/></svg>