<?xml version="1.0" encoding="UTF-8"?><svg id="_레이어_1" xmlns="http://www.w3.org/2000/svg" viewBox="0 0 1019.35 1028.53"><path d="M914.36,147.3c-4.95-3.88-10.04-7.59-15.64-11.81,4.5-.79,8.4-1.33,12.24-2.16,19.97-4.35,33.74-15.71,39.97-35.54,3.29-10.48,2.16-21.08,.96-31.69-.24-2.1-1.58-4.37-.36-6.29,1.77-2.77,.73-5.18-.36-7.55-4.77-10.34-10.46-20.19-18.49-28.3-10.89-11-24.47-15.44-39.86-14.74-12.03,.55-22.42,5.29-32.54,11.44-15.76,9.57-26.16,22.99-30.52,40.84-4.38,17.91-.95,34.51,9.17,49.91,2.25,3.43,4.88,6.52,8.09,10.11-5.1,.26-9.38,.46-13.65,.69-4.52,.24-8.93,1.12-13.15,2.76-36.47,14.24-64.93,38.66-88.24,69.58-5.74,7.61-10.24,15.96-13.96,24.91-.55-.51-.75-.6-.79-.73-1.76-6.06-3.49-12.12-5.25-18.18-2.42-8.32-5.76-11.01-14.28-11.07-18.67-.13-37.27,.64-55.57,4.76-2.68,.6-4.34,.3-5.24-2.67-1.91-6.37-6.02-11.42-10.28-16.36-7.39-8.55-13.46-9.93-23.28-4.53-7.58,4.17-14.87,8.85-22.33,13.24-1.49,.88-2.77,3.16-4.61,2.14-1.42-.78-.77-3.04-.92-4.65-.83-8.88-2.94-17.39-7.31-25.22-5.22-9.35-12.24-11.72-22.27-7.92-24.88,9.43-43.59,27.78-63.66,44.12-2.47,2.01-3.44,2.15-5.38-.08-5.17-5.92-11.23-10.9-17.34-15.8-10.5-8.42-19.55-8.39-26.97,1.17-7.93,10.22-15.8,20.66-19.58,33.41-.85,2.86-1.39,6.25-3.28,8.26-2.55,2.71-5.76-.8-8.78-.73-.17,0-.33-.03-.5-.05-25.25-2.4-49.77,.07-73.39,10.07-6.98,2.95-10.91,7.52-11.46,14.81-2.22,29.04,0,57.55,10.9,84.89,1.13,2.83,.98,4.26-1.75,5.93-6.61,4.05-12.74,8.67-14,17.17-.02,2.32-.04,4.65-.06,6.97,.63,7.56,4.12,14.11,7.28,20.78,.77,1.63,1.77,3.16,2.91,5.18-4.05,0-7.73-.05-11.42,.02-2.46,.05-2.02-1.57-1.92-3.05,.36-4.97,.74-9.95,1.11-14.92,.01-12,.02-24,.03-35.99-.73-11.45-.94-22.98-3.35-34.23-7.67-35.87-19.72-69.74-44.6-97.87-13.12-14.83-27.04-28.49-44.73-37.86-3.36-1.78-7.3-2.68-10.41-5.7,4.33-1.11,8-2.49,11.52-4.52,14.73-8.48,20.38-23.06,25.81-37.82,1.06-2.89,.93-5.91,.62-8.9-.56-5.28-.85-10.62-1.92-15.8-2.96-14.31-7.37-28-18.52-38.42-10.87-10.16-23.61-14.9-38.51-16.56-19.22-2.14-34.55,4.57-48.27,16.7-21,18.56-24.85,52.24-14.62,76.07,3.2,7.45,7.56,14.06,15.03,18.1,1.64,.89,3.57,1.68,4.59,3.58-16.6,4.61-31.42,11.65-44.94,22.9-30.2,25.13-44.01,57.79-47.43,95.67-3.38,37.46,6.24,72.65,20.41,106.85,7.29,17.6,16.96,33.79,28.31,49.16,14.41,19.52,30.46,36.92,51.91,48.92,10.35,5.79,21.45,9.56,32.27,14.15,9.7,4.12,19.33,7.87,29.57,10.18,4.38,.99,8.72,2.14,13.04,3.35,7.56,2.12,12.08,7.25,14.29,14.65,1.1,3.66,2.15,7.36,3.61,10.89,5.74,13.83,11.95,27.47,17.38,41.41,7.92,20.33,18.01,39.65,26.98,59.49,2.57,5.68,7.35,8.69,13.24,10.5,9.53,2.93,17.03-1.86,24.08-6.63,8.01-5.42,9.45-12.32,6.31-21.57-.39-1.14-1.48-2.22-.51-3.82,2.97,.92,3.84,4.62,6.96,5.22,6.25,1.2,12.05,5.21,18.88,2.9,.81-.27,1.96,.17,2.87,.52,7.47,2.83,14.88,5.82,22.39,8.53,2.68,.97,3.14,1.98,1.99,4.68-2.6,6.11-4.88,12.38-7.09,18.65-10.1,28.58-17.02,58.09-25.43,87.17-6.53,22.59-12.91,45.05-11.77,69.02,1.23,26.05,10.59,48.83,25.67,69.64,6.45,8.89,13.66,17.08,21.08,25.22,14.42,15.82,14.86,36.03,14.46,56.04-.08,4.17-4.64,7.06-8.98,6.69-9.91-.85-18.78,7.19-17.88,16.97,.33,3.59-.64,5.81-2.66,8.42-5.4,6.98-4.89,13.8,2.1,17.33,4.96,2.51,9.15,4.84,11.19,10.3,.48,1.28,2.47,2.15,3.93,2.89,4.34,2.22,9.03,2.04,13.7,1.57,1.49-.15,2.76-.43,4.24,.49,13,7.97,22.67,2.93,29.22-9.11,1.35-2.48,2.67-4.81,4.95-6.75,10.44-8.87,21.09-16.76,27.44-30.32,8.2-17.53,23.61-29.85,39.85-40.45,.65-.43,1.55-.6,2.35-.65,16.14-1.04,32.27-.81,48.41,.02,2.28,.12,3.16,1.25,3.84,3.13,1.59,4.43,4.07,8.35,7.14,11.93,3.14,3.67,6.84,4.78,11.61,3.71,6.39-1.43,12.43-3.64,18.24-6.6,1.41-.72,2.82-2.12,4.6-1.16,3.21,1.74,6.37,3.56,9.49,5.46,8.64,5.25,16.86,11.6,26.53,14.57,14.3,4.39,21.3,2.45,26.49-8.11,.11-.22,.5-.29,.97-.56,.59,.74,1.21,1.49,1.81,2.26,8.07,10.44,14.41,22,21.25,33.22,2.8,4.6,5.81,9,7.82,14.23,2.31,6,8.71,8.52,14.87,9.73,9.38,1.84,18.63-1.5,28.02-1.4,3.6,.04,7.2-1.15,10.58-2.68,7.59-3.44,11.07-9.67,9.46-17.74-.53-2.63-.76-5.22-.92-7.88-.37-6.49-6.83-14.27-12.43-13.59-5.55,.68-6.02-2.44-6.91-6-4.17-16.64-6.98-33.54-9.85-50.43-.42-2.45,.99-2.44,2.22-2.92,23.95-9.2,45.41-22.88,66.7-36.9,12.56-8.27,24.77-16.84,34.59-28.44,2.21-2.62,4.53-5.06,4.44-8.62-.45-16.71-1.73-33.33-8.77-48.8-1.53-3.37-1.21-4.64,1.94-6.42,7.82-4.4,9.31-8.29,7.09-16.95-1.24-4.85-2.83-9.62-5.64-13.81-1.45-2.16-1.38-3.6,.48-5.56,10.75-11.41,20.47-23.66,29.67-36.37,21.32-29.45,36.28-61.59,41.74-97.76,.81-5.35,2.03-11.04-.96-16.14-5.63-9.61-11.4-19.13-19.54-26.99-11.37-10.98-22.02-22.73-35.2-31.71-2.6-1.77-6.41-3.54-7-5.96-.55-2.27,2.54-5.35,3.8-8.17,5.28-11.87,3.56-18.25-6.42-23.52-2.39-1.26-5.1-1.97-3.9-5.61,.87-2.67,1.22-7.33,2.63-7.67,5.35-1.3,7.4-6.05,11.07-8.95,21.12-16.7,43.12-32.21,61.33-52.55,15.23-17,29.06-34.77,39.52-54.94,6.02-11.61,13.01-22.91,16.03-35.92,3.44-14.84,4.68-29.97,5.02-45.1,.74-32.94-6.6-63.86-22.6-92.99-9.17-16.7-18.99-32.46-34.14-44.32Zm11.62-27.52c-5.13-19.3-.32-52.19,17.11-66,6.55,34.14,2.5,53.07-17.11,66Zm12.46-75.22c2.14,2.05,3.45,4.03,.2,7.17-18.05,17.44-22.85,39.35-20.46,63.48,.11,1.16,.22,2.32,.34,3.47q.51,5.05-4.4,6.42c-4.33-11.37-5.97-23.05-3.93-35.14,2.36-13.93,8.12-26.24,17.47-36.85,1.87-2.12,3.57-4.41,5.65-6.31,1.38-1.26,2.2-5.08,5.15-2.25Zm-59.27-24.57c11.41-4.14,23.07-4.5,34.13,.03,8.52,3.49,14.79,10.54,20.34,17.95,1.82,2.44-.2,3.09-1.6,4.16-15.22,11.65-24.51,26.98-27.87,45.77-2.13,11.94-1.97,23.92,2.4,35.43,1.27,3.35,.37,3.89-2.66,4.18-3.8,.36-7.64,.87-11.3,1.9-3.91,1.11-7.51,.8-11.08-.83-9.8-4.47-19.82-8.47-29.14-13.94-2.69-1.58-3.3-2.39-.11-4.52,20.06-13.39,29.84-32.43,30.27-58.14-1.17-8.33-1.5-18.52-5.22-28.07-.93-2.38-.34-3.12,1.85-3.92Zm-42.03,68.06c-2.52-8.69-1.74-17.14,.8-25.51,3.75-12.35,9.79-23.24,20.84-30.69,.66-.44,1.31-.88,2.05-1.37,7.11,24.57,.97,45.74-18.32,59.48-3.27,2.33-4.21,2.08-5.37-1.92Zm5.35,16.21c-2.13-3.56-3.31-5.27,1.56-8.34,20.57-13,27.91-32.47,25.19-56.15-.24-2.1-1.17-4.15-1.9-6.17q-2.38-6.56,4.98-10.05c5.74,24.21,7.49,47.64-8.83,68.87-4.11,5.35-9.63,9.11-14.83,13.22-2.66,2.1-4.34,1.68-6.17-1.38Zm-353.16,90.76c12.8-9.51,24.82-20.04,38.21-28.75,6.97-4.53,14.44-8.19,22.2-11.19,4.87-1.88,8.28-.66,11,3.86,4.94,8.22,6.13,17.45,6.8,25.63,0,2.8,.12,4.47-.03,6.12-.26,2.95-1.2,4.21-4.93,4.43-11.47,.67-22.55,3.87-33.52,7.16-10.8,3.24-21.79,5.97-32.16,10.54-2.35,1.03-3.67,.47-4.93-1.54-1.24-1.97-2.67-3.81-4.07-5.67-4.4-5.85-4.6-6.1,1.43-10.58ZM226.25,128.79c-1.91-14.01,1.39-25.82,8.26-37.35,4.32,10.1,1.61,22.44-8.26,37.35Zm4.88-54.01c2.29,5.04,3.19,9.47-.76,14.88-9.41,12.88-10.92,27.89-9.45,43.36,.14,1.43,1.09,2.99-.13,4.29-.77,.82-1.76,1.66-2.79,1.92-.93,.23-1.05-.98-1.25-1.77-5.65-22.39-1.49-42.83,12.24-61.34,.47-.63,.91-1.44,2.15-1.34Zm-77.05-28.94c2.31-.9,4.64-1.78,6.96-2.67,23.33-6.43,43.92-2.23,60.97,15.71,.23,.24,.48,.46,.7,.71,6.43,7.54,6.29,7.55,.56,15.43-13.55,18.64-18.05,39.26-13.13,61.87,1.72,7.89,1.64,7.9-5.88,10.07-.96,.28-2.14,.33-2.82,.93-5.64,4.99-11.79,2.84-17.81,1.27-8.99-2.34-18.49-1.81-27.33-5.25-3.08-1.2-3.12-1.8-1.31-4.21,16.59-21.94,22.39-46.27,16.29-73.32-1.53-6.78-1.84-13.85-5.55-20-1.01-1.68-1.76-3.75-4.4-3.15l-.29-.07s.3,.07,.29,.07c5.64,18.5,7.89,37.41,5.24,56.58-2,14.46-9.28,26.83-17.57,38.61-2.15,3.05-3.87,1.06-5.81-.08-2.73-1.6-.87-2.85,.25-4.23,15.73-19.42,19.83-41.57,15.24-65.67-1.27-6.67-2.44-13.42-5.67-19.53-.84-1.59-.46-2.48,1.07-3.07Zm-18.75,85.44c-3.04-.08-4.57-5.25-5.88-8.58-3.05-7.73-5.68-15.64-4.74-26.19-.65-13.09,3.88-26.48,13.54-38.12,.53-.64,1.05-1.29,1.54-1.96,2.21-3.08,5.56-6.34,8.65-6.02,2.91,.3,2.84,5.37,3.7,8.43,6.46,22.86,3.07,44.37-9.21,64.57-1.98,3.26-4.32,7.95-7.59,7.86Zm109.8,380.98c-3.34-13.55-12.86-19.85-25.71-22.99-16.99-4.15-33.34-10.61-49.3-17.46-31.76-13.64-56.24-36.13-74.49-65.61-16.84-27.2-28.63-56.56-35.27-87.55-8.05-37.52-6.26-74.96,13.23-109.14,15.39-26.98,37.08-48.1,68.86-54.12,24.17-4.58,47.26,.19,69.08,12.84,26.69,15.47,45.53,38.1,61.98,63.21,13.12,20.03,18.14,43.19,22.71,66.11,5.5,27.55,5.27,55.59,3.52,83.6-.42,6.68-5.94,5.4-9.4,6.71-5.3,2-6.19,.92-5.64-4.66,2.19-22.14-1.8-43.7-5.38-65.4-3.75-22.8-12.69-43.33-22.34-64.16-7.43-16.03-17.05-29.44-29.09-41.71-5.76-5.87-12.36-10.69-19.53-14.62-9.18-5.03-17.3-12.12-28.77-12.46-21.84-.65-39.93,5.7-53.58,23.84-9.04,12.01-16.19,24.76-20.79,38.97-10.22,31.56-12.69,63.35-3.64,95.78,5.92,21.2,13.3,41.6,27.16,58.96,18.29,22.91,37.92,44.56,65.65,56.32,14.01,5.94,28.62,8.69,44.29,6.32,15.66-2.37,26.94-11.02,37.54-21.51,.34-.33,.75-.59,1.44-1.14,2.85,7.59,4.77,15.36,8.9,22.22,.67,1.11,.08,2.24-.43,3.32-1.48,3.17-2.94,6.34-4.35,9.53-.74,1.67-.96,3.08-3.78,2.23-3.12-.94-3.23,1.66-2.75,4.1,.95,4.78,3.19,9.09,4.91,13.59,.9,2.33,.25,3.17-2.08,3.78q-17.71,4.62-31.02,15.66c-.66-1.55-1.52-2.98-1.91-4.53Zm30.5-84.97c.02,2.48-.67,4.39-1.98,6.44-5.31,8.33-13.22,13-21.75,17.53-17.61,9.36-34.85,6.91-52.34,.35-.49-.09-1.03-.08-1.46-.28-22.69-10.73-44.01-23.81-58.27-44.87-17.77-26.25-30.05-55.13-34.23-86.94-.45-3.41-1.56-6.81-.7-11.21,6.95,9.39,14.2,17.72,21.79,25.74,1.46,1.54,.41,2.72-.26,4.01-1.68,3.25-3.39,6.48-5.06,9.74-.72,1.4-1.24,3.03,.36,4.02,2,1.24,3.02-.57,3.92-1.9,2.15-3.16,4.18-6.39,6.59-10.1,7.07,8.04,13.85,15.76,20.65,23.47,1.46,1.65,0,2.74-.71,3.94-3.64,6.16-7.41,12.25-10.92,18.48-.86,1.53-2.75,3.84-.21,5.19,2.1,1.12,3.09-1.4,4.03-2.81,3.71-5.53,7.33-11.12,10.86-16.76,1.31-2.1,2.18-2.28,4.03-.39,5.72,5.82,11.58,11.5,17.57,17.05,2.26,2.1,2.51,3.74,.69,6.3-5.4,7.61-10.12,15.66-14.56,23.86-.56,1.02-1.23,2.01-1.62,3.09-.73,2.03-1.75,4.48,.68,5.81,2.33,1.28,3.6-.99,4.66-2.62,5.27-8.09,10.56-16.16,15.61-24.38,1.83-2.97,2.96-2.94,5.41-.52,5.2,5.15,10.72,9.98,16.24,14.79,2.32,2.02,2.62,3.62,.64,6.21-4.15,5.41-7.95,11.1-11.86,16.7-.86,1.22-1.7,2.49-2.31,3.84-.77,1.69-1.42,3.74,.46,4.97,1.86,1.21,3.53,0,4.72-1.54,2.44-3.14,4.79-6.35,7.17-9.53,0,0,0,0,0,0,2.31-3.24,4.75-6.39,6.88-9.75,1.57-2.48,2.8-2.16,4.51-.24,5.06,5.74,10.2,11.41,15.3,17.12,.89,.99,1.64,2.13,2.61,3.01,2.08,1.88,4.55,2.5,6.7,.45,2.21-2.11,.89-4.24-.8-6.1-6.15-6.77-12.17-13.68-18.53-20.25-2.2-2.28-2.34-3.66-.35-6.09,5.27-6.44,10.42-12.99,15.29-19.73,2.26-3.13,3.06-2.26,5.12,.25,6.46,7.89,12.07,16.29,16.78,25.31,.08,.15,.17,.28,.26,.42,1.64,2.59,3.74,4.75,6.91,2.84,2.92-1.76,2.21-4.61,.76-7.06-3.9-6.57-7.42-13.4-12.33-19.34-3.28-3.96-8.46-7.66-8.73-12.38-.25-4.55,5.3-8,8.14-12.06,2.1-3,4.46-5.81,6.69-8.71,1.31-1.7,2.34-3.51,5.17-2.91,1.84,.39,3.8-1.46,3.24-2.9-1.45-3.73,4.09-7.15,.16-10.62-.54-.47-1.85-.87-2.26-.57-3.89,2.88-5.63-.64-7.64-2.63-5.2-5.15-10.15-10.55-15.33-15.73-1.87-1.87-2.15-3.29-.24-5.37,4.16-4.53,8.15-9.23,12.11-13.95,1.46-1.74,2.48-1.67,3.87,.05,2.72,3.36,5.58,6.61,8.41,9.88,.76,.88,1.57,2.28,2.47,2.37,6.04,.61,5.23,5.55,5.6,9.19,2.36,23.3,4.9,46.51,1.57,70.08-1.26,8.94-.32,18.45-.24,27.71Zm-18.7-134.56c-1.35,.46-1.8-.48-2.4-1.12-6.01-6.46-11.95-13-18.02-19.41-1.57-1.66-.56-2.7,.44-3.78,2.48-2.69,5.02-5.33,7.6-7.93,1.74-1.75,3.49-3.71,1.33-5.96-2.11-2.2-4.38-.78-6.1,.97-2.68,2.73-5.33,5.51-7.71,8.5-1.45,1.83-2.36,2.24-4.21,.46-6.6-6.36-13.29-12.61-20.05-18.8-1.84-1.68-1.53-2.86,0-4.5,4.64-5.01,9.13-10.16,13.74-15.19,1.91-2.09,3.76-4.4,1.38-6.91-2.64-2.79-5.23-.94-7.25,1.26-4.51,4.9-9,9.83-13.28,14.93-1.78,2.12-2.95,2.39-5.14,.47-5.39-4.71-10.91-9.3-16.62-13.61-2.45-1.85-2.24-2.92-.39-4.98,3.56-3.96,6.8-8.2,10.83-11.74,1.53-1.34,2.82-2.97,2.01-5.23-.93-2.59-3.11-2.66-5.37-2.47-5.11,4.33-9.41,9.4-13.3,14.8-1.77,2.46-3.16,2.97-5.94,1.11-4.97-3.31-10.25-6.17-15.56-8.92-1.21-.63-3.44-1.99-4.48-.13-.93,1.66,.95,2.87,2.26,3.84,4.81,3.56,9.62,7.13,14.47,10.64,1.44,1.04,2.61,1.77,.93,3.79-5.31,6.4-10.53,12.88-15.57,19.49-1.96,2.57-3.38,2.25-5.58,.39-4.71-3.97-9.71-7.59-15.55-9.79-1.24-.47-2.74-2.37-3.84-.46-.87,1.52,.98,2.79,2.09,3.48,5.12,3.19,9.4,7.38,14.01,11.19,2.5,2.06,2.65,3.5,.79,6.02-4.14,5.62-7.47,11.8-12.15,17.06-1.55,1.74-2.43,2.67-4.63,.71-4.59-4.09-9.21-8.21-14.92-10.75-1.79-.8-1.34-2.2-1.02-3.38,5.77-20.81,13.92-40.27,31.01-54.66,1.01-.85,1.98-1.81,3.43-1.86,0,0,0,0,0,0,14.44-7.2,29.51-9.62,45.32-5.67,2.36,.59,4.53,1.98,6.36,3.73,1.93,.41,3.54,1.37,4.87,2.82,13.62,7.23,24.36,17.8,34.12,29.49,11.27,13.5,17.27,29.87,24.65,45.48,.85,1.8,1.47,3.71,2.26,5.55,2.88,6.76,1.99,8.73-4.81,11.03Zm9.32,1.69c1.01,4.88,3.16,8.84,2.13,13.81-2.36-3.06-4.83-5.55-6.23-8.55-.39-.83,2.39-3.15,4.1-5.26Zm-76.21,30.05c5.23-6.22,10.46-12.44,15.58-18.76,1.38-1.7,2.32-1.08,3.67-.08,6.86,5.08,12.49,11.38,18.02,17.8,1.12,1.3,.99,2.22,0,3.41-5.42,6.5-10.82,13.01-16.18,19.55-.4,.49-.46,1.27-.74,2.09-1.66-1.52-2.41-2.13-3.09-2.83-5.68-5.81-11.3-11.69-17.05-17.43-1.38-1.38-1.38-2.37-.21-3.76Zm-4.47-4.66c-.62,.75-1.09,1.72-2.49,1.69-.77-.64-1.7-1.33-2.54-2.12-6.28-5.95-12.49-11.97-18.83-17.84-1.54-1.42-1.76-2.46-.44-4.14,4.8-6.17,9.55-12.38,14.17-18.68,1.52-2.07,2.49-1.26,3.87,.04,6.78,6.39,13.58,12.75,20.47,19.02,1.63,1.48,2.16,2.46,.48,4.41-5.01,5.77-9.8,11.75-14.68,17.64Zm23.54-28.78c-1.59,2.04-2.55,2.32-4.54,.47-6.43-6.02-12.96-11.93-19.6-17.71-2.33-2.02-2.78-3.41-.44-5.89,4.67-4.95,8.96-10.26,13.41-15.41,.73-.84,1.48-1.67,2.34-2.63,.95,.82,1.58,1.33,2.17,1.88,6.64,6.27,13.23,12.62,19.96,18.8,1.84,1.69,1.53,2.64,.03,4.36-4.59,5.25-9.04,10.63-13.33,16.13Zm-16.62-44.57c-4.75,5.58-9.58,11.08-14.25,16.73-1.63,1.97-2.83,2.03-4.85,.44-5.76-4.53-11.67-8.86-17.59-13.17-1.46-1.07-2.04-1.8-.63-3.44,5.53-6.44,10.95-12.98,16.39-19.5,1.08-1.29,2.12-2.01,3.7-.6,5.85,5.2,11.76,10.33,17.63,15.51,.49,.43,.86,.99,1.36,1.58-.61,.86-1.13,1.71-1.77,2.46Zm-22.95,23.22c.49,.4,.88,.92,1.46,1.54-.61,.9-1.14,1.73-1.71,2.51-4.43,6.02-8.95,11.98-13.26,18.08-1.45,2.05-2.34,2.58-4.45,.63-5.24-4.84-10.67-9.49-16.19-14.02-1.82-1.5-2.22-2.62-.57-4.39,5.01-5.37,8.78-11.67,13.17-17.51,.95-1.27,1.55-3.09,3.73-1.27,5.88,4.88,11.88,9.62,17.82,14.43Zm-15.8,38c1.5-2.29,2.58-2.36,4.5-.43,6.32,6.36,12.77,12.6,19.24,18.81,1.28,1.23,1.64,2.16,.51,3.77-6.6,9.34-13.1,18.75-19.88,28.5-7.06-7.78-13.82-15.3-20.66-22.74-1.41-1.53-.68-2.62,.19-3.92,5.39-7.98,10.82-15.94,16.1-23.99Zm9.87,52.61c6.78-9.21,13.45-18.5,20.4-28.1,6.84,7.27,13.3,14.15,19.8,21,1.15,1.21,1,2.25,.14,3.52-5.89,8.64-11.78,17.27-17.59,25.96-1.23,1.83-2.07,1.42-3.41,.12-6.19-6.01-12.45-11.96-18.74-17.86-1.58-1.48-2.01-2.72-.59-4.65Zm28.84,26.57c5.64-7.61,10.94-15.47,16.4-23.21,.63-.9,1.02-2.13,3.03-2.38,.25,.36,.66,1.12,1.22,1.73,5.86,6.35,11.68,12.75,17.67,18.98,1.75,1.82,1.77,3.11,.24,5.04-5.56,7.04-11.01,14.18-16.43,21.33-1.27,1.67-2.14,2.68-4.2,.75-5.69-5.35-11.49-10.58-17.41-15.67-2.57-2.21-2.52-3.89-.53-6.57Zm25.15-30.67c-1.49-1.55-1.98-2.72-.4-4.59,5.28-6.22,10.42-12.56,15.62-18.85,.75-.91,1.46-1.95,2.76-.6,6.47,6.71,12.97,13.4,19.44,20.11,.33,.34,.49,.85,.87,1.53-.37,.6-.75,1.3-1.22,1.93-4.92,6.51-9.93,12.95-14.75,19.53-1.51,2.06-2.44,2-4.11,.19-5.98-6.5-12.06-12.89-18.2-19.25Zm14.36-39.67c-5.23-6.52-11.13-12.36-17.87-17.32-1.59-1.17-1.63-2.18-.4-3.65,4.7-5.6,9.34-11.26,13.99-16.91,.99-1.2,1.96-1.77,3.25-.37,6.2,6.73,12.41,13.44,18.61,20.17,.33,.35,.5,.85,.8,1.4-.51,.63-.99,1.28-1.53,1.89-4.25,4.9-8.61,9.72-12.72,14.73-1.6,1.95-2.6,1.97-4.14,.06Zm-109.73-41.7c2.45,1.99,2.08,3.24,.66,5.67-3.67,6.31-8.69,11.84-11.12,18.85-.41,1.17-2.21,2.86-.26,3.89,1.49,.79,2.82-.76,3.68-1.94,4.11-5.65,8.23-11.29,12.11-17.1,1.62-2.42,2.68-3.21,5.26-.97,5.29,4.58,10.52,9.2,15.36,14.25,1.11,1.15,2.54,2.01,1.16,4.14-5.87,9.06-11.57,18.23-17.32,27.35-4.13-3.93-8.22-7.67-12.13-11.59-2.94-2.94-5.2-6.77-8.56-9.02-6.32-4.23-7.28-9.79-6.71-16.7,.8-9.63,1.77-19.18,4.47-28.95,4.76,4.36,8.89,8.48,13.39,12.13Zm168.59,197.72c11.6,14.07,22.01,28.75,36.43,39.8,14.41,11.04,31.14,17.7,48.07,26.22-4.64,.86-7.78,2.21-12.49,.49-7.95-2.9-16.82-5.12-24.81,.43-2.42,1.69-2.91,.6-4.04-.93-2.6-3.52-5.58-6.55-9.84-8.15-7.91-2.97-12.27-1.61-17.41,6.24-2.83-5.71-5.47-10.87-7.95-16.09-3.93-8.26-7.64-16.61-11.67-24.82-1.57-3.19-1.98-6.1-.67-9.5,1.66-4.33,2.86-8.83,4.39-13.69Zm-36.18,60.66c-.06-.16-.11-.32-.19-.46-6.1-10.6-5.31-13.76,5.5-19.79,6.31-3.52,13.31-4.93,20.45-5.71,2.86-.31,4.6,.59,5.46,3.59,.96,3.32,2.45,6.49,3.9,10.22-12.16,1.68-23.12,5.13-32.32,12.84-1.52,1.27-2.21,.97-2.8-.68Zm7.13,15.51c-4.98-9.59-4.82-10.44,4.87-15.22,7.08-3.49,14.61-5.46,23.44-6.33,3.3-.84,3.91,2.7,5.18,5.26,3.82,7.67,3.73,7.33-4.57,8.41-8.62,1.12-17.03,3.48-23.97,9.08-2.66,2.15-3.56,1.49-4.96-1.2Zm6.09,13.81c-2.53-6.27-2.49-6.29,3.64-9.65,4.82-2.65,10.03-4.17,16.12-5.61-1.11,5.38-1.35,10.04,1.35,14.45,1.47,2.4-1.23,2.21-2.24,2.63-5,2.11-10.43,3.3-14.71,7.64-1.52-3.44-2.93-6.41-4.16-9.46Zm52.02,59.27c-3.49,2.63-7.57,4.25-11.65,5.45-5.93,1.74-12.05-1.77-14.9-7.9-6.01-12.93-11.79-25.97-18.08-38.75-1.88-3.82-1.23-5.64,2.39-7.07,1.83-.72,3.61-1.53,6.43-2.74-1.07,6.41,0,11.5,3.15,16.05,.84,1.21,1.76,2.85,2.97,3.23,5.37,1.65,6.54,5.12,6.8,10.48,.22,4.53,4.24,7.25,9.04,7.87,4.74,.61,9.31-.05,13.6-2.08,2.43-1.15,3.38-.6,4.21,1.99,2.01,6.32,1.23,9.56-3.97,13.48Zm11.86-28.74c-.49,1-.45,2.73-1.91,2.51-6.32-.94-10.89,3.56-16.42,5.03-1.28,.34-2.55,.78-3.85,.94-6.49,.79-9.79-2.29-8.41-8.68,.88-4.05-.16-5.71-3.89-6.97-8.39-2.84-9.92-11.73-3.5-17.98,2.69-2.62,4.74-5.86,1.32-9.52-2.69-2.88-2.42-6.24-1.03-9.29,1.4-3.07,4.9-3.95,7.74-3.39,6.71,1.31,10.6-.97,12.69-7.41,1.06-3.26,4.12-2.32,6.43-1.64,7.51,2.19,11.21,8.39,13.35,15,1.69,5.23,3.09,10.9,2.49,14.74-.74,10.38-1.22,18.85-5.02,26.68Zm15.21,10.42c-2.82-.94-5.85-1.25-8.71-2.09-1.27-.37-2.92-.79-1.6-3.08,8.86-15.38,9.27-31.6,3.75-48.02-1.32-3.94-.29-5.24,3.01-5.82,11.17-1.97,21.67,.43,23.18,14.27,.47,4.3,.77,8.62,1.04,11.66-.32,11.15-.59,20.93-7.91,28.88-3.61,3.92-7.36,5.99-12.75,4.2Zm211.36,314.61c-.52,2.03-2.52,.89-3.84,.82-15.31-.79-30.63-1.1-45.89,.67-4.06,.47-8.36,.92-10.65,5.35-.47,.92-1.75,1.5-2.76,2.05-14.63,7.98-24.39,20.81-34.16,33.76-6.2,8.21-10.35,17.91-17.8,25.13-6.19,6-12.84,11.27-17.01,19.29-3.43,6.59-8.18,7.7-14.85,4.71-4.8-2.15-9.67-2.01-14.61-2.26-7.1-.37-8.22-1.28-9.1-8.17-.29-2.3-1.43-2.96-3.57-3.25-3.55-.49-8.18-.46-9.25-4.47-1.08-4.06,1.97-7.5,4.91-10.3,1.28-1.22,2.24-2.24,1.68-4.25-2.54-9.17,4.28-16.18,13.56-13.41,4.29,1.28,5.77-.45,8.07-3.32,6.17-7.72,6.86-16.22,6.02-25.69-1.16-13.07-5.25-25.33-8.74-37.78-.41-1.45-1.95-2.65-3.12-3.8-16.34-16.06-31.34-33.11-40.33-54.6-.57-1.37-1.03-2.79-1.54-4.19h0c-7.09-15.93-7.97-32.69-7.29-49.84,.82-20.99,8.85-40.19,13.87-60.13,1.78-7.08,3.87-14.08,5.83-21.11,3.55-16.78,9.22-32.96,14.23-49.32,2.72-8.9,5.93-17.65,8.79-26.51,.81-2.5,1.76-3.53,4.6-2.51,2.46,.88,5.2,1.08,7.84,1.37,2.55,.27,4.85-.5,5.32-3.32,.52-3.12-1.58-4.56-4.32-5.03-12.52-2.13-24.28-6.85-36.34-10.54-1.23-.38-2.41-.89-3.76-1.39,14.54-17.11,13.09-35.99,6.94-55.33-.85-2.67,.45-2.78,2.08-3.19,7.26-1.8,14.54-3.57,21.8-5.35,1.29-.32,2.66-.49,3.86-1.02,2.24-.99,4.17-2.5,3.66-5.28-.47-2.6-2.69-3.17-4.96-3.32-7.18-.46-14.22-1.67-20.99-4.1-33.42-11.96-60.21-32.15-78.7-62.9-6.77-11.27-12.26-22.86-13.72-36.05-.35-3.12-.39-6.28-.59-9.68,12.87,3.52,22.4-1.85,30.61-10.41,5.27-5.49,3.64-11.33-5.15-16.88,7.36,.07,13.67-.89,19.81,1.05,2.23,.7,4.05,.66,6.24,.04,2.76-.79,5.36-1.02,2.03-4.5-1.2-1.25-.11-2.88,.41-4.24,6.17-16.08,15.55-30.08,27.5-42.42,1.19-1.23,2.26-1.57,3.93-1.26,18.21,3.45,36.75,3.34,55.13,4.98,10.92,.97,21.92,1.1,32.85,2.2,4.46,.45,7.37,1.66,6.64,6.82-.05,.32,0,.68,.08,.99,2.36,8.91,1.58,12.09,13.41,10.66-3.54,4.96-6.06,9.93-8.37,15.03-2.72,5.99-2.18,8.8,3.83,11.64,8.16,3.86,17.16,5.02,25.9,6.97,5.18,1.16,10.48,.27,16.39,.92-8.14,9.83-15.52,19.42-22.28,29.45-8.18,12.12-17.36,23.63-22.68,37.5-2.86,7.45-2.97,14.65-.6,22.4,5.55,18.1,15.14,33.96,25.85,49.27,1.43,2.05,2.19,3.32-.37,5.15-12.98,9.31-12.83,20.88-2.13,34.99,1.84,2.42,2.13,3.74,.58,6.28-5.28,8.69-9.58,17.87-13.44,27.28-5.27,12.85-5.67,25.7-1.59,39.03,8.14,26.58,18.31,52.42,27.89,78.48,1.52,4.12,1.7,7.5-.82,11.64-3.87,6.33-7.16,13.06-8.78,20.54-1.22,5.64-1.03,11.04,2.8,15.07,8.45,8.88,7.05,18.18,3.01,28.28-1.89,4.73-2.86,9.9-3.78,14.95-3.65,20.03,4.51,36.29,17.43,50.45,12.44,13.64,24.72,27.53,39.63,38.67,.8,.6,1.56,1.26,2.23,1.99,1.43,1.55,1.05,3.59,.64,5.22ZM373.77,323.07c.06-.5,.09-1,.19-1.49,1.11-5.73,1.9-12,5.52-16.39,4.07-4.93,10.59-.8,15.98-1.65,3.25-.51,6.65-.09,9.97-.09,19.05-1.09,37.84,2.55,56.79,3.15,3.19,.1,5.12,1.07,4.29,5.18-1.74,8.63-2.75,17.4-3.07,26.22-.07,1.97,.12,3.34-2.89,3.02-24.99-2.66-50.08-3.88-75.17-4.8-13.09-.48-13.1-.29-11.6-13.16Zm209.86,613.93c-7.05,2.06-8.24,1.64-11.94-4.84-3.22-5.65-4.8-11.92-4.48-18.2,.22-4.31-1.54-6.52-4.41-8.69-16.05-12.13-29.37-27.05-42.73-41.9-13.86-15.4-17.62-33.21-11.26-52.92,2.15-6.65,1.88-13.88,5.29-20.18,.87-1.61-.07-3.33-.89-4.74-1.42-2.44-2.78-5.02-4.71-7.04-7.03-7.36-6-15.41-2.13-23.55,2.69-5.66,4.2-11.95,8.97-16.56,1.89-1.82,1.04-4.41,.22-6.64-4.6-12.49-9.21-24.97-13.87-37.43-6.29-16.83-12.19-33.81-16.81-51.17-2.43-9.12-.63-18.14,2.71-26.91,3.85-10.12,8.21-20.03,13.09-29.67,2.23-4.4,1.89-7.84-.96-11.39-2.22-2.77-3.77-5.86-5.08-9.12-1.77-4.41-.85-8.18,2.69-11.27,2.13-1.86,4.41-3.55,6.62-5.31,4.3-3.43,4.8-5.84,1.62-10.13-5.36-7.24-9.96-14.97-14.92-22.46-6.45-9.72-10.17-20.56-13.73-31.46-2.41-7.39,.82-14.12,4.09-20.53,5.24-10.26,12.09-19.53,18.64-28.96,8.74-12.58,17.77-24.95,26.62-37.45,3.32-4.69,2.78-5.32-2.69-6.34-9.55-1.79-19.3,1.04-28.78-1.68-4.94-1.42-10-2.48-15.04-3.52-3.42-.71-4.38-2.44-2.93-5.59,2.68-5.82,4.13-12.32,9.44-16.68,1.95-1.6,1.71-3.9,1.05-6.03-.68-2.19-2.72-1.38-4.27-1.58-.49-.06-1,.04-1.49,.07q-10.42,.63-10.8-10.17c-.47-12.68,.39-25.29,2.03-37.85,1.01-7.76,.86-8.12-6.83-9.9-2.57-.6-5.27-.74-7.93-.85-18.12-.76-36.17-3.12-54.36-2.13-6.48,.36-12.97,.68-19.46,.95-4.57,.2-7.73,2.3-9.96,6.35-4.78,8.72-7.9,17.98-9.38,27.75-.43,2.86-1.56,4.74-3.71,6.61-13.61,11.85-24.93,25.4-31.19,43.44-6.89-9.53-12.73-19.24-10.23-31.11,1.33-6.34,7.78-9.28,13.35-11.76,5.49-2.43,6.33-3.86,3.71-9.15-8.28-16.74-10.74-34.88-12.34-53.17-.87-9.96-.72-19.97-.11-29.96,.28-4.59,2.12-7.42,6.72-9.29,23.69-9.66,48.3-11.83,73.51-9.85,2.49,.2,5,.12,7.49,.29,2.88,.19,4.8-1.04,5.87-3.66,.82-2,1.94-3.95,2.37-6.03,2.48-12.31,9.7-22.16,16.56-32.18,5.41-7.9,9.18-8.59,16.91-2.96,11.19,8.16,21.78,17.05,30.48,27.93,2.07,2.58,4.88,4.37,5.62,8.4,.66,3.55,4.84,2.04,7.3,1.07,8.07-3.17,16.36-5.58,24.66-8.01,8.45-2.48,16.81-5.34,25.59-6.53,0,0,0,0,0,0,1.13-.9,2.46-1.66,3.56-.32,.41,.5-.71,1.18-1.51,1.34-19.12,13.62-35.94,30.16-55.24,43.55-1.74,1.21-2.84,2.74-3.27,4.79,0,0,0,0,0,0,0,0,0,0,0,0,1.13,4.3,3.32,4.32,6.49,1.81,31.2-24.67,62.48-49.24,96.12-70.58,4.49-2.85,9.18-5.39,13.89-7.87,5.83-3.07,7.87-2.18,12.49,2.71,8.34,8.83,10.43,20.23,13.7,31.18,4.88,16.32,4.07,32.08-4.18,47.37-10.44,19.35-26.53,30.7-47.87,34.86-9.81,1.91-19.92,3.92-29.73,2.91-11.04-1.14-22.13-2.75-33.17-3.7-7.06-.61-9.47-3.86-11.94-9.4-4.77-10.69-10.84-20.64-20.42-27.9-1.8-.51-3.83-2.57-5.39-.34-1.56,2.23,.78,3.64,2.19,4.89,8.66,7.69,12.84,18.07,17.26,28.33,1.58,3.67,3.05,7.39,4.87,10.94,2.23,4.35,4.45,4.88,8.11,1.82,1.32-1.1,2.29-.8,3.59-.66,14.52,1.56,28.88,4.79,43.59,4.2,2.83-.11,2.26,1.37,2.04,3.1-2.25,17.82-4.59,35.63-6.6,53.48-1.08,9.59-2.18,19.24-2.22,28.87-.22,56.15-.83,112.3,.09,168.45,.69,42.15,2.01,84.27,4.95,126.32,2.23,31.9,3.69,63.85,5.9,95.75,1.74,25.09,5.4,49.99,8.17,74.98,2.85,25.67,6.95,51.11,13.43,76.13,.71,2.76-.19,3.89-2.75,4.64Zm26.53-4.17c-5.22-3.59-9.84-4.51-15.64-.13-2.07-9.27-4.21-17.79-5.85-26.4-7.83-41.11-11.97-82.72-15.76-124.32-2.54-27.85-3.02-55.89-5.13-83.79-4.85-64-6.66-128.12-6.55-192.25,.07-42.3-2.03-84.64,.46-126.9,1.42-24.08,4.54-48.06,6.82-72.09,.18-1.93,.96-2.49,2.74-2.67,8.06-.82,16.08-1.9,24.19-4.99-5.65,27.62-10.35,54.76-13.11,82.19-2,19.91-1.7,39.94-1.83,59.92-.22,33.82,2.11,67.57,3,101.37,.47,18.15,.39,36.34,2.08,54.43,4.03,43.29,4.13,86.84,8.43,130.11,1.18,11.92,3.06,23.78,4.47,35.68,3.81,32.08,7.4,64.19,11.35,96.26,3.32,26.91,6.28,53.89,12.93,81.4-4.83-2.71-8.85-5.25-12.58-7.81Zm136.5,39.62c1.95-.1,2.94,1.35,4.08,2.49,.93,.92,2.29,2.06,1.62,3.36-.93,1.79-2.99,.68-4.5,.81-2.59,.23-1.06-1.84-1.07-2.82-.02-1.26-.97-2.5-.12-3.84Zm-15.64-10.53c1.21,6.08,4.51,11.04,7.86,16.01,.96,1.43,2.23,2.62,4.09,2.44,1.71-.17,2.26,.41,2.45,2.1,.2,1.69,1.64,2.37,3.27,2.53,3.8,.38,4.94,2.91,5,6.27,.06,3.51-1.32,6.1-4.78,7.34-5.07,1.82-10.36,2.4-15.02,2.74-6.36,.05-11.85-1.11-17.79,.52-5.84,1.6-11.26-3.63-13.04-9.61-2.17-7.31-7.4-12.95-11.31-19.29-5.86-9.49-11.94-18.86-19.7-26.99-.75-.79-2.08-1.68-1.26-2.93,.82-1.25,2.13-.21,3.19,.01,3.42,.7,6.81,1.54,10.24,2.21,12.85,2.51,22.31-2.78,26.47-15.07,1.6-4.71,2.58-9.63,3.85-14.46,.71-2.71,5.56-5.64,8.13-5.01,1.49,.37,.97,1.49,1.01,2.36,.77,16.53,4.12,32.66,7.33,48.82Zm106.16-518.79c-3.48,16.45-7.93,32.65-11.53,49.06-1.32,6.04-.85,6.85,5.06,8.14,8.24,1.79,10.87,6.76,7.7,14.4-1.5,3.62-4.1,6.4-6.58,9.33-3.23,3.82-2.5,6.03,2.12,7.46,.76,.24,1.62,.48,2.2,.99,17.94,15.87,36.45,31.18,51.23,50.27,2.44,3.15,4.53,6.58,7,9.71,3.59,4.55,2.22,9.62,1.43,14.41-5.79,35.03-20.34,66.26-41.27,94.75-9.09,12.37-18.7,24.27-29.19,35.47-3.06,3.26-4.11,5.95-.87,10.34,3.62,4.9,4.97,11.18,6.04,17.29,.46,2.62-.41,4.49-2.9,5.68-1.95,.93-3.83,2.02-5.64,3.21-2.88,1.89-3.64,4.16-2.14,7.65,6.91,16.04,8.24,33.14,8.99,50.32,.07,1.57-.5,2.82-1.61,4.02-7.24,7.86-14.86,15.18-23.85,21.13-21.38,14.17-42.65,28.48-66.21,38.91-6.86,3.04-13.88,5.62-21.18,7.36-5.95,1.42-9.56,4.64-10.48,11.04-.69,4.74-2.08,9.42-3.6,13.99-2.21,6.63-7.39,9.61-14.31,8.56-2.79-.43-5.56-1.05-8.3-1.76-6.39-1.66-11.31,.75-15.37,5.46-1.84,2.14-3.87,4.3-5.04,6.81-2.73,5.85-7.42,5.83-12.6,4.94-4.34-.74-8.15-2.82-12.01-4.76-1.01-.51-2.02-1.12-2.28-2.46-7.41-39.23-12.3-78.79-16.75-118.46-3.41-30.43-6.91-60.87-11.32-91.2-2.18-14.97-3.06-30.15-4.05-45.27-1.96-29.9-3.05-59.86-5.47-89.72-3.35-41.37-2.73-82.88-5.13-124.27-1.77-30.5-.95-60.99,.56-91.41,1.1-22.06,4.11-44.05,7.24-65.97,.87-6.1,2.27-12.45,.56-18.72-.58-2.14,1.28-1.56,2.01-1.86,27.21-11.18,41.46-32.31,46.01-60.56,1.71-10.59-1.41-20.85-4.34-30.91-1.07-3.67-.74-4.76,3.26-5.37,17.18-2.62,34.48-2.87,51.78-3.42,4.71-.15,6.46,2.05,7.66,6.48,7.55,27.75,12.19,55.9,12.78,84.69,.06,2.74,.42,5.61,3.72,6.29,3,.61,4.25-1.42,5.43-3.95,1.51-3.24,12.23-6.5,15.79-5.4,1.88,.58,2.17,2.01,2.36,3.42,.36,2.63,.45,5.3,.65,7.96,.52,7.06,1.8,8.09,8.73,8.31,18.46,.58,36.98,.63,55.23,3.92,9.45,1.7,19.04,2.72,27.9,7.2,6,3.03,8.95,7.23,8.95,13.77,0,9.83,0,19.65,0,26.45,1.05,31.17-2.58,58.81-8.39,86.31Zm68.76-125.31c-1.15-.33-1.2-1.43-1.43-2.39-1.95-8.24-3.88-16.48-5.92-24.7-.48-1.92-.12-3.07,1.74-3.98,6.25-3.05,12.42-6.23,19.41-9.76,.3,12.07-.09,23.31-3.24,34.3-.42,1.47-9.21,6.92-10.56,6.54Zm6.73,9.5c-.77,3.31-1.09,6.76-3.44,11.14-1.02-4.49-1.7-7.65-2.47-10.79-.38-1.55,.15-2.6,1.54-3.18,1.6-.67,3.11-2.89,4.76-1.74,1.45,1.01-.03,3.04-.39,4.58Zm-106.4-82.99c-.84-5.4-1.96-10.77-3.21-16.09-.46-1.96,.32-2.71,1.8-3.45,8.43-4.29,16.85-8.63,25.28-12.92,1.13-.57,2.53-1.59,3.13,.54,1.48,5.27,2.86,10.56,4.29,15.85,.45,2-.97,2.64-2.37,3.26-8.84,3.91-16.97,9.1-25.09,14.27-2.14,1.36-3.32,1.79-3.82-1.45Zm-7.14,55.58c-2.45-.38-4.96-.43-8.88-.76,6.02-3.03,10.74-5.4,15.39-7.74,.38,.23,.8,.33,.86,.54,2.71,9.56,2.71,9.52-7.37,7.96Zm11.2-46.41c9.07-4.88,17.54-10.82,27.06-14.89,1.88-.8,2.79-.9,3.46,1.48,1.84,6.55,3.91,13.04,6.08,19.49,.73,2.18,.29,3.31-1.77,4.31-10.45,5.08-20.84,10.27-31.55,15.56-1.59-7.93-3.08-15.55-4.67-23.16-.3-1.44,.24-2.18,1.38-2.79Zm76.19,32.42c-6.22,3.17-12.52,6.2-18.61,9.62-2.95,1.66-3.62,.58-4.05-2.09-1.33-8.22-3.43-16.27-5.85-24.22-.63-2.06-.2-3.05,1.69-3.86,6.26-2.7,12.48-5.48,18.71-8.26,.99-.44,1.91-.81,2.34,.6,2.61,8.59,5.19,17.18,7.5,24.86,.53,2.51-.69,2.83-1.73,3.36Zm5.11,9.14c1.72,8.46,3.81,16.85,5.74,25.26,.33,1.75-.8,2.36-2.03,3.07-6.06,3.46-12.13,6.91-18.11,10.52-2.28,1.38-3.32,1.5-3.84-1.59-1.4-8.2-3.54-16.23-6.15-24.12-.8-2.41-.78-3.85,1.81-5.17,6.08-3.08,12.02-6.43,17.93-9.81,2.52-1.44,3.91-1.73,4.64,1.84Zm-15.89-45.49c-6.27,2.66-12.52,5.36-18.68,8.26-2.14,1.01-2.5-.04-3.04-1.62-2.13-6.29-4.22-12.59-6.55-18.81-.9-2.41-.33-3.52,1.95-4.57,6.92-3.2,13.75-6.63,20.88-10.09,2.41,7.87,4.77,15.63,7.16,23.39,.55,1.76,0,2.71-1.73,3.44Zm-10.04-33.1c-6.37,3.19-12.76,6.33-19.12,9.55-1.74,.88-2.6,.63-3.2-1.39-1.42-4.76-3.06-9.45-4.67-14.14-.58-1.67-.38-2.76,1.43-3.53,6.25-2.66,12.44-5.44,18.67-8.16,.86-.37,1.93-1.18,2.58,.08,2.51,4.85,4.78,9.81,6.23,14.52,.25,2.07-.9,2.56-1.92,3.07Zm-48.59,69.14c10.07-4.75,20.16-9.47,30.26-14.16,1.07-.5,2.43-1.78,3.09,.52,2.56,8.95,4.69,18,6.15,27.31,.47,1.98-1.23,2.37-2.5,3.04-3.54,1.85-7.24,3.55-9.48,7.06-1,1.58-2,1.43-3.3,.71-6.63-3.65-13.71-5.9-21.22-6.86-1.12-.14-2.36-.31-2.67-1.78-.91-4.39-1.86-8.78-2.73-13.18-.36-1.84,1.3-2.14,2.41-2.66Zm38.28,24.64c2.27-1.49,3.4-1.65,4.4,1.61,2.57,8.44,4.43,17.01,6.19,25.63,.28,1.38,.63,2.62-.89,3.45-3.71,2.02-7.43,4.03-11.73,6.35,.79-12.26-1.35-23.15-6.77-33.55,2.89-.9,6.07-1.69,8.81-3.49Zm-.93,78.35c.92-8.98,.45-17.97-.08-26.93-.21-3.59,.53-5.85,4.06-7.42,3.29-1.46,6.21-3.77,9.9-5.09,2.68,8.07,2.97,16.41,4.21,24.59,.57,3.78,1.1,7.56,1.68,11.34,.15,.98,.07,2.43,.67,2.85,5.79,4.07,.85,6.61-1.34,9.31-6.57,8.1-13.29,16.1-22.32,23.08,1.14-11.27,2.17-21.51,3.21-31.74Zm22.13-41.77c-.59-2.2,.32-3.33,2.11-4.4,5.71-3.42,11.38-6.9,16.97-10.5,2.34-1.5,3.11-1.21,3.9,1.62,1.32,4.76,.16,10.58,5.43,13.83,.86,.53,.45,1.49,.11,2.25-5.8,12.91-12.83,25.05-22.3,36.46-2.53-13.62-2.86-26.69-6.24-39.26Zm39.76-74.79c-5.88,2.22-11.46,5.28-17.11,8.08-2.12,1.05-3.3,1.39-4.15-1.63-2.06-7.35-4.5-14.59-6.99-21.81-.85-2.47-.7-3.81,1.9-5.08,6.27-3.04,12.34-6.49,18.55-9.68,2.47-1.27,4.37-2.8,3.08-5.79-1.22-2.83-3.82-2.51-6.01-1.58-4.42,1.87-8.7,4.07-13.03,6.14-7.7,5.52-7.73,5.53-10.73-2.98-1.76-5.01-3.27-10.11-5.13-15.07-.98-2.62-.25-3.8,2.24-4.82,3.68-1.51,7.19-3.43,10.76-5.19,2.22-1.09,4.33-2.52,3.03-5.32-1.41-3.04-4.09-2.32-6.45-1.25-3.48,1.57-6.9,3.28-10.28,5.05-2.07,1.09-3.1,.69-4.13-1.51-2.17-4.66-4.61-9.2-7.12-13.69-3.04-5.44-5.9-6.26-11.74-3.59-4.83,2.21-9.73,4.29-14.4,6.81-3.1,1.67-4.15,.59-5.29-2.25-1.49-3.68-3.42-7.19-5.37-10.65-.63-1.12-1.08-3.53-2.95-2.5-1.34,.74-.46,2.69,.03,4.11,.97,2.82,1.87,5.66,2.8,8.49h0s0,0,0,0c2.82,6.57,2.81,6.54-3.38,9.84-6.02,3.21-12.15,6.24-17.97,9.79-3.96,2.42-6.22,2.82-7.13-2.67-.42-2.56-1.88-4.95-2.88-7.41-.39-.97-.97-1.89-2.16-1.56-1.29,.35-1.07,1.63-.92,2.51,.57,3.44,1.24,6.85,1.95,10.26,.6,2.88,.1,4.83-2.88,6.45-7.01,3.82-13.75,8.12-20.58,12.27-2.21,1.34-4.56,2.95-2.79,5.91,1.82,3.03,4.26,1.51,6.47,.18,6.57-3.93,13.15-7.85,19.73-11.76,.27-.16,.62-.18,1.45-.41,1.04,6.9,2.14,13.74,3.07,20.6,.34,2.47-2.07,2.81-3.55,3.58-9.27,4.88-18.62,9.63-27.93,14.44-2.66,1.37-5.3,2.79-7.92,4.24-1.92,1.06-4.29,2.28-2.73,4.89,1.31,2.19,3.52,1.08,5.33,.17,11.17-5.57,22.32-11.15,33.48-16.73,1.48-.74,2.97-1.45,4.64-2.26,2.32,7.73,2.76,15.54,3.93,23.23,.31,2.05-.99,2.62-2.29,3.31-7.21,3.81-14.44,7.56-21.64,11.38-5.82,3.09-12.09,1.51-18.16,1.82-3.47,.18-7.82,1.3-10.15-.33-1.93-1.36-1.59-6.1-2.06-9.36-.42-2.87-1.05-5.62-3.37-7.55-1.47-1.22-1.3-2.55-.71-4.02,6.51-16.36,11.62-33.4,20.88-48.47,9.3-15.14,20.86-28.49,36.11-38.11,5.35-3.38,11.13-5.91,17.37-7.27,0,0,0,0,0,0,15.89-7.64,32.02-7.43,48.26-1.34,6.83,2.56,12.05,7.66,17.37,12.36,10.35,9.14,17.79,20.51,23.61,32.96,.69,1.47,.91,3.17,1.35,4.76,0,0,0,0,0,0,4.85,10.87,7.36,22.29,8.21,34.15,.22,3.02-.25,4.62-3.51,5.85Zm40.38,56.3c-3.53,15.15-11.8,28.62-19.65,41.89-17.83,30.14-41.27,55.48-68.93,76.92-8.65,6.7-17.45,13.22-26.86,20.34,2.27-10.96,4.38-21.15,6.49-31.34,.31-1.47,1.66-1.94,2.63-2.82,28.82-26.22,55.01-54.52,67.69-92.42,10.6-31.68,15.8-64.06,7.31-97.22-7.11-27.78-21.6-50.64-46.13-66.4-6.46-4.15-13.84-5.8-21.26-6.72-37.56-4.63-65.82,11.27-88.71,39.88-15.09,18.86-21.72,41.36-29.35,63.49-1.25,3.62-2.63,5.79-6.37,6.32-2.73,.38-5.72,3.71-7.55,2.13-1.54-1.33-.81-5.31-1.05-8.13-1.01-11.94-1.45-23.94-3.52-35.78-.47-2.71,.17-5.25,1.1-7.8,5.88-16.22,15.29-30.24,26.59-43.11,18.45-21.01,39.74-38.35,65.13-50.39,7.6-3.6,15.42-6.06,23.99-5.95,10.64,.14,21.2-.32,31.82,1.84,9.61,1.96,17.8,6.41,25.77,11.52,24.94,15.98,38.72,40.33,50.77,66.4,5.41,11.71,10.3,23.29,12.39,35.96,4.5,27.26,3.95,54.52-2.31,81.38Z" fill="#322625"/><path d="M187.71,197.68c-.04-.15,.05-.32,.19-.49-.15,.15-.24,.32-.19,.49Z" fill="#322625"/><path d="M198.2,450.67c.4,.31,.85,.62,1.36,.93-.31-.57-.82-.78-1.36-.93Z" fill="#322625"/><path d="M197.97,523.85c-6.92,1.59-8.72,.25-12.59-4.42-3.42-4.14-5.79-8.8-8.82-13.1-1.3-1.85-3.02-3.14-5.53-2.22-2.33,.86-2.68,2.79-2.54,4.88,.29,4.35-.25,8.65-.97,12.91-.7,4.17-2.7,7.86-5.01,11.32-1.53,2.28-4.04,.55-6.08,.93-3.1,.58-3.09,3.28-3.64,5.35-.55,2.05,.89,3.57,2.84,4.04,11.59,2.8,18.27,10.8,22.85,21.16,1.18,2.67,2.75,5.26,6.26,4.58,3.55-.69,3.88-3.65,3.93-6.6,.02-1-.03-2,.04-2.99,.79-11.42,2.71-22.26,14.43-28.09,1.58-.79,2.39-2.26,2.46-4.07-.09-3.27-3.12-4.73-7.65-3.7Z" fill="#f5d543"/><path d="M294.67,191.17c5.1-2.02,6.31,1.67,7.88,4.92,1.08,2.24,1.87,4.63,3.1,6.78,1.41,2.48,3.16,4.99,6.59,4.2,3.59-.83,3.64-3.85,3.57-6.77-.17-6.73,2.72-11.79,8.24-15.53,3.29-2.23,6.42-4.62,10.28-5.96,2.31-.8,3.91-2.8,3.02-5.52-.88-2.66-3.17-3.23-5.67-2.88-1.13,.16-2.21,.66-3.3,1.05-3.94,1.4-7.13,.59-9.5-3.02-2.39-3.64-4.29-7.49-5.22-11.76-.49-2.26-1.31-4.13-3.88-4.37-2.28,0-3.52,1.36-4.06,3.2-.89,3.01-1.74,6.07-2.2,9.17-1.27,8.4-3.51,16.19-11.41,20.95-1.27,.77-1.97,1.88-1.43,3.34,.67,1.82,2.5,2.79,4,2.19Z" fill="#f5d544"/><path d="M344.46,206.56c0,1.91-.03,3.07,0,4.23,.08,2.25,1.13,3.92,3.4,4.27,2.07,.32,3.49-.93,4.23-2.79,2.95-7.45,6.27-14.39,15.63-15.48,1.84-.21,3.15-1.94,2.79-4.12-.34-2.06-1.86-3.63-3.78-3.24-5.6,1.14-6.71-2.87-8.1-6.57-.81-2.16-1.38-4.43-1.84-6.7-.32-1.6-.76-3.13-2.58-3.11-2.06,.03-2.66,1.72-2.73,3.51-.07,1.83,.01,3.66-.04,5.48-.15,5.46-2.28,8-7.61,9.58-3.21,.96-4.61,3.45-2.32,6.02,2.63,2.95,3.13,6.07,2.93,8.9Z" fill="#f5d544"/><path d="M223.29,544.57c-3.82,1.18-5.14-.29-5.52-3.77-.23-2.07-.91-4.31-3.31-4.32-2.7,0-2.95,2.69-2.78,4.48,.4,4.23-1.02,6.76-5.1,8.23-2.05,.74-2.61,2.96-1.94,5.12,.54,1.73,2.19,2.41,3.6,1.9,4.45-1.59,4.88,1.14,5.37,4.36,.37,2.44,1.07,4.87,1.9,7.2,.79,2.22,2.59,3.38,5.12,3.58,2.81-.64,4.19-2.35,3.41-5.38-.66-2.58-1.39-5.14-2.26-7.65-1.12-3.26-.67-5.21,3.31-5.62,2.86-.29,5.28-1.88,4.58-5.28-.73-3.54-3.83-3.66-6.39-2.87Z" fill="#f5d545"/><path d="M310.63,358.38c.02-2.32,.04-4.65,.06-6.97-1.82-1.57-.83-3.68-1.04-5.56-.58-5.14,1.12-10.43-1.02-15.46-.01,12-.02,24-.03,35.99,2.42-2.23-.4-5.79,2.04-8.01Z" fill="#f6f4f4"/><path d="M845.57,356.81c0-6.8,0-16.63,0-26.45,0-6.53-2.95-10.74-8.95-13.77-8.86-4.48-18.45-5.5-27.9-7.2-18.25-3.29-36.77-3.34-55.23-3.92-6.93-.22-8.21-1.25-8.73-8.31-.19-2.66-.29-5.33-.65-7.96-.19-1.42-.49-2.85-2.36-3.42-3.56-1.09-14.28,2.16-15.79,5.4-1.18,2.54-2.43,4.57-5.43,3.95-3.3-.68-3.67-3.55-3.72-6.29-.59-28.79-5.23-56.94-12.78-84.69-1.21-4.44-2.96-6.63-7.66-6.48-17.3,.54-34.6,.8-51.78,3.42-4,.61-4.33,1.7-3.26,5.37,2.92,10.06,6.04,20.32,4.34,30.91-4.56,28.25-18.8,49.37-46.01,60.56-.72,.3-2.59-.29-2.01,1.86,1.71,6.27,.31,12.62-.56,18.72-3.13,21.92-6.14,43.91-7.24,65.97-1.51,30.42-2.33,60.91-.56,91.41,2.4,41.39,1.78,82.9,5.13,124.27,2.42,29.86,3.51,59.82,5.47,89.72,.99,15.12,1.87,30.3,4.05,45.27,4.41,30.33,7.91,60.77,11.32,91.2,4.45,39.67,9.35,79.23,16.75,118.46,.25,1.34,1.27,1.96,2.28,2.46,3.86,1.94,7.67,4.02,12.01,4.76,5.18,.89,9.87,.91,12.6-4.94,1.17-2.51,3.2-4.67,5.04-6.81,4.05-4.71,8.98-7.12,15.37-5.46,2.73,.71,5.51,1.34,8.3,1.76,6.92,1.06,12.1-1.92,14.31-8.56,1.52-4.56,2.92-9.25,3.6-13.99,.93-6.4,4.53-9.62,10.48-11.04,7.3-1.74,14.32-4.32,21.18-7.36,23.56-10.44,44.83-24.75,66.21-38.91,8.99-5.96,16.62-13.28,23.85-21.13,1.1-1.2,1.68-2.44,1.61-4.02-.75-17.18-2.08-34.28-8.99-50.32-1.5-3.49-.75-5.76,2.14-7.65,1.81-1.18,3.69-2.28,5.64-3.21,2.49-1.19,3.35-3.06,2.9-5.68-1.07-6.11-2.42-12.39-6.04-17.29-3.24-4.39-2.19-7.08,.87-10.34,10.49-11.2,20.1-23.09,29.19-35.47,20.93-28.5,35.49-59.72,41.27-94.75,.79-4.78,2.17-9.86-1.43-14.41-2.47-3.13-4.56-6.56-7-9.71-14.79-19.08-33.29-34.39-51.23-50.27-.58-.51-1.43-.75-2.2-.99-4.62-1.44-5.35-3.64-2.12-7.46,2.48-2.93,5.08-5.71,6.58-9.33,3.16-7.64,.53-12.61-7.7-14.4-5.9-1.29-6.38-2.1-5.06-8.14,3.59-16.41,8.05-32.61,11.53-49.06,5.81-27.49,9.44-55.14,8.39-86.31Z" fill="#d4e062"/><path d="M555.41,910.88c-14.91-11.14-27.19-25.04-39.63-38.67-12.91-14.16-21.07-30.42-17.43-50.45,.92-5.05,1.89-10.22,3.78-14.95,4.04-10.1,5.44-19.4-3.01-28.28-3.84-4.03-4.02-9.43-2.8-15.07,1.61-7.49,4.91-14.21,8.78-20.54,2.53-4.14,2.34-7.51,.82-11.64-9.58-26.06-19.75-51.9-27.89-78.48-4.08-13.33-3.68-26.18,1.59-39.03,3.86-9.41,8.17-18.6,13.44-27.28,1.54-2.54,1.25-3.86-.58-6.28-10.71-14.12-10.85-25.68,2.13-34.99,2.55-1.83,1.8-3.11,.37-5.15-10.71-15.32-20.3-31.18-25.85-49.27-2.37-7.75-2.26-14.95,.6-22.4,5.32-13.87,14.5-25.38,22.68-37.5,6.76-10.03,14.14-19.61,22.28-29.45-5.9-.64-11.21,.24-16.39-.92-8.74-1.95-17.74-3.12-25.9-6.97-6.01-2.84-6.55-5.65-3.83-11.64,2.31-5.09,4.84-10.06,8.37-15.03-11.83,1.43-11.06-1.76-13.41-10.66-.08-.32-.12-.67-.08-.99,.73-5.16-2.17-6.37-6.64-6.82-10.94-1.1-21.93-1.23-32.85-2.2-18.38-1.63-36.92-1.53-55.13-4.98-1.67-.32-2.74,.03-3.93,1.26-11.95,12.34-21.33,26.34-27.5,42.42-.52,1.36-1.6,2.99-.41,4.24,3.33,3.48,.74,3.72-2.03,4.5-2.18,.62-4.01,.66-6.24-.04-6.14-1.93-12.46-.98-19.81-1.05,8.79,5.55,10.42,11.38,5.15,16.88-8.21,8.56-17.74,13.93-30.61,10.41,.2,3.4,.25,6.55,.59,9.68,1.46,13.19,6.95,24.79,13.72,36.05,18.49,30.76,45.28,50.95,78.7,62.9,6.77,2.42,13.82,3.63,20.99,4.1,2.27,.15,4.49,.72,4.96,3.32,.51,2.79-1.42,4.29-3.66,5.28-1.2,.53-2.56,.7-3.86,1.02-7.27,1.78-14.54,3.55-21.8,5.35-1.63,.4-2.93,.52-2.08,3.19,6.15,19.34,7.6,38.22-6.94,55.33,1.35,.5,2.53,1.02,3.76,1.39,12.06,3.7,23.82,8.41,36.34,10.54,2.74,.47,4.84,1.91,4.32,5.03-.47,2.82-2.78,3.6-5.32,3.32-2.64-.28-5.38-.48-7.84-1.37-2.85-1.02-3.8,0-4.6,2.51-2.86,8.86-6.07,17.61-8.79,26.51-5.01,16.36-10.68,32.54-14.23,49.32,6.32,.17,8.01,2.95,9.01,12.11,.62,5.65,.02,11.17-.05,16.76-.2,15.65,.17,31.31-.16,46.96-.38,18.32-3.41,36-14.88,51.18-1.66,2.2-3.2,4.3-6.33,4.08h0c.51,1.4,.96,2.82,1.54,4.19,8.99,21.49,23.99,38.54,40.33,54.6,1.17,1.15,2.72,2.35,3.12,3.8,3.5,12.45,7.58,24.7,8.74,37.78,.84,9.47,.15,17.97-6.02,25.69-2.3,2.87-3.78,4.6-8.07,3.32-9.28-2.77-16.1,4.24-13.56,13.41,.56,2.01-.4,3.03-1.68,4.25-2.94,2.81-5.99,6.24-4.91,10.3,1.07,4.01,5.7,3.98,9.25,4.47,2.14,.29,3.27,.95,3.57,3.25,.87,6.89,1.99,7.81,9.1,8.17,4.94,.26,9.81,.12,14.61,2.26,6.66,2.98,11.41,1.88,14.85-4.71,4.17-8.01,10.82-13.29,17.01-19.29,7.45-7.22,11.6-16.92,17.8-25.13,9.77-12.95,19.53-25.78,34.16-33.76,1.01-.55,2.28-1.13,2.76-2.05,2.29-4.43,6.59-4.88,10.65-5.35,15.26-1.77,30.58-1.46,45.89-.67,1.32,.07,3.32,1.21,3.84-.82,.42-1.63,.8-3.66-.64-5.22-.67-.73-1.43-1.4-2.23-1.99Zm-195.96-510.38c-1.2,3.25-3.28,5.84-7.15,6.02-3.92,.19-5.87-2.32-7.53-5.44-4.86-9.12-1.71-17.72,1.56-26.3,1.66-4.36,4.44-8.12,7.08-11.94,1.31-1.9,3.19-2.67,4.4-.78,3.13,4.9,7.75,9.24,7.48,13.31-.94,10.36-3.12,17.82-5.83,25.13Zm49.01,56.05c-.58,1.59-2.07,2.06-3.71,1.68-1.52-.35-2.08-1.46-2.22-2.91-.27-2.86,.21-5.61,1.26-8.25,.81-2.04,1.72-4.21,4.56-3.49,2.61,.66,2.19,2.93,2.28,5.77-.55,1.87-1.22,4.59-2.17,7.2Zm12.51,.77c-2.81,.24-4.2-1.57-4.39-4.23-.14-1.97-.05-3.95-.05-5.93,0-1.78,.4-3.34,2.47-3.68,1.94-.32,3.23,.72,3.78,2.44,.68,2.18,1.1,4.44,1.66,6.77-.43,2.03-.77,4.4-3.47,4.63Zm15.08,2.04c-2.64,.02-6.17-5.03-6.28-9.11-.06-2.23,.94-3.99,3.27-4.31,2.5-.34,7.47,5.44,7.47,8.78-.5,2.21-1.17,4.62-4.46,4.64Zm-.91-44.65c-4.47,7.39-12.23,10.62-20.01,8.58-7.92-2.08-13.25-9.01-13.5-17.69-.18-6.08,1.24-11.88,3.49-17.47,1.7-4.24,4.45-7.01,9.38-7.84,6.38-1.07,12.7-2.48,19.17-3.03,8.89-.76,8.92-.76,9.31,7.96-.07,10.51-2.35,20.45-7.83,29.5Z" fill="#fdebd1"/><path d="M572.95,856.23c-2.78-24.99-6.43-49.89-8.17-74.98-2.21-31.9-3.67-63.85-5.9-95.75-2.94-42.05-4.26-84.18-4.95-126.32-.92-56.15-.31-112.3-.09-168.45,.04-9.63,1.14-19.28,2.22-28.87,2.01-17.85,4.36-35.66,6.6-53.48,.22-1.73,.79-3.22-2.04-3.1-14.71,.6-29.07-2.64-43.59-4.2-1.3-.14-2.27-.44-3.59,.66-3.66,3.05-5.88,2.52-8.11-1.82-1.82-3.54-3.29-7.27-4.87-10.94-4.41-10.26-8.6-20.64-17.26-28.33-1.41-1.25-3.75-2.67-2.19-4.89,1.56-2.23,3.59-.17,5.39,.34,1.13-1.84,2.18-3.93,4.61-1.38,0,0,0,0,0,0,.43-2.05,1.53-3.58,3.27-4.79,19.3-13.39,36.12-29.93,55.24-43.55-.68-.34-1.37-.68-2.05-1.02,0,0,0,0,0,0,0,0,0,0,0,0-8.78,1.19-17.13,4.05-25.59,6.53-8.3,2.44-16.59,4.84-24.66,8.01-2.46,.97-6.64,2.47-7.3-1.07-.75-4.04-3.56-5.82-5.62-8.4-8.7-10.88-19.29-19.77-30.48-27.93-7.73-5.63-11.5-4.94-16.91,2.96-6.86,10.01-14.08,19.87-16.56,32.18-.42,2.08-1.54,4.03-2.37,6.03-1.08,2.62-3,3.85-5.87,3.66-2.49-.17-5-.09-7.49-.29-25.21-1.99-49.81,.19-73.51,9.85-4.6,1.87-6.44,4.7-6.72,9.29-.62,9.99-.76,20,.11,29.96,1.59,18.28,4.05,36.43,12.34,53.17,2.62,5.29,1.77,6.72-3.71,9.15-5.58,2.47-12.02,5.41-13.35,11.76-2.5,11.87,3.34,21.58,10.23,31.11,6.26-18.04,17.58-31.6,31.19-43.44,2.15-1.87,3.27-3.75,3.71-6.61,1.49-9.77,4.61-19.04,9.38-27.75,2.22-4.05,5.38-6.15,9.96-6.35,6.49-.28,12.97-.6,19.46-.95,18.19-1,36.24,1.36,54.36,2.13,2.65,.11,5.36,.25,7.93,.85,7.7,1.78,7.84,2.14,6.83,9.9-1.63,12.57-2.49,25.17-2.03,37.85q.4,10.8,10.8,10.17c.5-.03,1.01-.13,1.49-.07,1.55,.2,3.59-.61,4.27,1.58,.66,2.12,.91,4.42-1.05,6.03-5.32,4.36-6.76,10.86-9.44,16.68-1.45,3.14-.5,4.88,2.93,5.59,5.04,1.04,10.09,2.11,15.04,3.52,9.48,2.72,19.23-.1,28.78,1.68,5.47,1.02,6.02,1.65,2.69,6.34-8.85,12.5-17.88,24.87-26.62,37.45-6.55,9.43-13.4,18.7-18.64,28.96-3.27,6.4-6.5,13.14-4.09,20.53,3.55,10.9,7.28,21.74,13.73,31.46,4.97,7.49,9.56,15.22,14.92,22.46,3.18,4.29,2.68,6.7-1.62,10.13-2.21,1.76-4.49,3.45-6.62,5.31-3.54,3.08-4.46,6.86-2.69,11.27,1.31,3.26,2.86,6.36,5.08,9.12,2.85,3.55,3.19,6.99,.96,11.39-4.88,9.64-9.24,19.54-13.09,29.67-3.34,8.77-5.14,17.79-2.71,26.91,4.63,17.36,10.52,34.34,16.81,51.17,4.66,12.47,9.27,24.95,13.87,37.43,.82,2.22,1.67,4.81-.22,6.64-4.77,4.61-6.29,10.91-8.97,16.56-3.87,8.14-4.9,16.19,2.13,23.55,1.92,2.01,3.28,4.6,4.71,7.04,.82,1.41,1.77,3.12,.89,4.74-3.41,6.31-3.15,13.54-5.29,20.18-6.36,19.71-2.6,37.52,11.26,52.92,13.36,14.85,26.68,29.78,42.73,41.9,2.86,2.16,4.63,4.37,4.41,8.69-.33,6.28,1.25,12.56,4.48,18.2,3.7,6.48,4.88,6.91,11.94,4.84,2.56-.75,3.46-1.88,2.75-4.64-6.48-25.02-10.58-50.46-13.43-76.13Z" fill="#d4e062"/><path d="M280.15,497.34c-1.72-4.49-3.96-8.8-4.91-13.59-.49-2.45-.37-5.05,2.75-4.1,2.82,.85,3.04-.56,3.78-2.23,1.42-3.19,2.87-6.37,4.35-9.53,.5-1.08,1.09-2.21,.43-3.32-4.13-6.86-6.05-14.64-8.9-22.22-.7,.55-1.11,.81-1.44,1.14-10.6,10.49-21.88,19.14-37.54,21.51-15.67,2.38-30.29-.38-44.29-6.32-27.73-11.76-47.36-33.42-65.65-56.32-13.86-17.36-21.24-37.76-27.16-58.96-9.05-32.43-6.58-64.22,3.64-95.78,4.6-14.21,11.75-26.96,20.79-38.97,13.65-18.13,31.74-24.48,53.58-23.84,11.48,.34,19.59,7.43,28.77,12.46,7.17,3.93,13.77,8.75,19.53,14.62,12.04,12.27,21.67,25.68,29.09,41.71,9.65,20.83,18.59,41.36,22.34,64.16,3.57,21.7,7.57,43.27,5.38,65.4-.55,5.58,.34,6.66,5.64,4.66,3.46-1.31,8.98-.03,9.4-6.71,1.75-28.01,1.98-56.05-3.52-83.6-4.58-22.92-9.6-46.08-22.71-66.11-16.45-25.11-35.29-47.73-61.98-63.21-21.82-12.65-44.91-17.42-69.08-12.84-31.77,6.02-53.47,27.14-68.86,54.12-19.49,34.18-21.28,71.62-13.23,109.14,6.65,30.99,18.44,60.35,35.27,87.55,18.25,29.49,42.73,51.98,74.49,65.61,15.96,6.85,32.31,13.31,49.3,17.46,12.84,3.14,22.37,9.44,25.71,22.99,.38,1.55,1.24,2.99,1.91,4.53q13.33-11.01,31.02-15.66c2.33-.61,2.98-1.45,2.08-3.78Z" fill="#69a0c0"/><path d="M895.88,144.57c-7.97-5.11-16.16-9.56-25.77-11.52-10.62-2.17-21.18-1.71-31.82-1.84-8.57-.11-16.39,2.35-23.99,5.95-25.4,12.03-46.68,29.37-65.13,50.39-11.31,12.87-20.71,26.89-26.59,43.11-.93,2.56-1.57,5.09-1.1,7.8,2.07,11.84,2.51,23.84,3.52,35.78,.24,2.81-.49,6.8,1.05,8.13,1.83,1.58,4.82-1.74,7.55-2.13,3.74-.52,5.12-2.7,6.37-6.32,7.63-22.13,14.26-44.64,29.35-63.49,22.89-28.61,51.14-44.5,88.71-39.88,7.42,.91,14.8,2.57,21.26,6.72,24.53,15.76,39.02,38.62,46.13,66.4,8.49,33.16,3.29,65.54-7.31,97.22-12.68,37.9-38.87,66.2-67.69,92.42-.97,.88-2.33,1.35-2.63,2.82-2.11,10.19-4.22,20.38-6.49,31.34,9.41-7.12,18.2-13.64,26.86-20.34,27.66-21.43,51.1-46.77,68.93-76.92,7.85-13.27,16.11-26.74,19.65-41.89,6.26-26.86,6.81-54.11,2.31-81.38-2.09-12.68-6.98-24.26-12.39-35.96-12.05-26.07-25.83-50.42-50.77-66.4Z" fill="#69a0c0"/><path d="M598.46,762.98c-1.41-11.9-3.29-23.76-4.47-35.68-4.3-43.27-4.4-86.81-8.43-130.11-1.69-18.09-1.6-36.28-2.08-54.43-.88-33.79-3.22-67.55-3-101.37,.13-19.98-.17-40.01,1.83-59.92,2.76-27.42,7.46-54.56,13.11-82.19-8.1,3.09-16.12,4.17-24.19,4.99-1.78,.18-2.56,.74-2.74,2.67-2.27,24.03-5.4,48.01-6.82,72.09-2.49,42.26-.39,84.6-.46,126.9-.11,64.13,1.7,128.25,6.55,192.25,2.12,27.9,2.59,55.93,5.13,83.79,3.79,41.61,7.93,83.22,15.76,124.32,1.64,8.61,3.78,17.13,5.85,26.4,5.8-4.38,10.42-3.46,15.64,.13,3.73,2.56,7.74,5.11,12.58,7.81-6.65-27.51-9.62-54.49-12.93-81.4-3.95-32.06-7.54-64.17-11.35-96.26Z" fill="#fff"/><path d="M486.39,256.1c9.58,7.26,15.65,17.21,20.42,27.9,2.47,5.54,4.88,8.8,11.94,9.4,11.04,.95,22.14,2.56,33.17,3.7,9.81,1.02,19.92-1,29.73-2.91,21.34-4.16,37.43-15.51,47.87-34.86,8.25-15.29,9.06-31.05,4.18-47.37-3.27-10.94-5.37-22.35-13.7-31.18-4.63-4.9-6.66-5.78-12.49-2.71-4.71,2.48-9.4,5.02-13.89,7.87-33.64,21.35-64.92,45.91-96.12,70.58-3.17,2.51-5.36,2.49-6.49-1.81,0,0,0,0,0,0-2.43-2.55-3.48-.46-4.61,1.38Zm26.81,4.16c7.54-7.53,15.95-14.14,24.48-20.39,14.99-10.97,29.9-22.16,46.43-30.85,3.4-1.79,6.82-3.43,10.47-4.59,11.06-3.51,18.88,.14,24.23,10.57,6.91,13.48,4.24,25.3-5.36,36.22-7.29,18.95-22.86,26.89-41.36,30.02-16.82,2.85-33.71,.95-50.42-1.88-8.08-1.37-11.28-5.21-10.85-12.17,0,0,0,0,0,0,0,0,0,0,0,0-1.53-3.1,.48-5.03,2.38-6.92Z" fill="#fdebd1"/><path d="M165.73,46.39c3.71,6.16,4.02,13.23,5.55,20,6.11,27.06,.3,51.38-16.29,73.32-1.82,2.4-1.78,3,1.31,4.21,8.84,3.44,18.34,2.91,27.33,5.25,6.02,1.57,12.17,3.71,17.81-1.27,.68-.6,1.86-.65,2.82-.93,7.52-2.17,7.59-2.18,5.88-10.07-4.92-22.61-.42-43.23,13.13-61.87,5.73-7.88,5.87-7.89-.56-15.43-.22-.25-.47-.47-.7-.71-17.05-17.95-37.64-22.14-60.97-15.71l.29,.07c2.64-.59,3.39,1.47,4.4,3.15Z" fill="#d4e062"/><path d="M882.56,51.98c-.42,25.71-10.21,44.75-30.27,58.14-3.19,2.13-2.58,2.95,.11,4.52,9.33,5.47,19.35,9.47,29.14,13.94,3.57,1.63,7.17,1.94,11.08,.83,3.66-1.04,7.5-1.54,11.3-1.9,3.03-.29,3.93-.83,2.66-4.18-4.37-11.51-4.53-23.49-2.4-35.43,3.36-18.79,12.65-34.13,27.87-45.77,1.4-1.07,3.42-1.72,1.6-4.16-5.55-7.42-11.82-14.46-20.34-17.95-11.06-4.53-22.72-4.17-34.13-.03-2.18,.79-2.78,1.53-1.85,3.92,3.72,9.55,4.06,19.74,5.22,28.07Z" fill="#d4e062"/><path d="M722.68,910.73c-2.56-.63-7.41,2.31-8.13,5.01-1.27,4.82-2.25,9.74-3.85,14.46-4.16,12.3-13.62,17.59-26.47,15.07-3.43-.67-6.82-1.51-10.24-2.21-1.06-.22-2.37-1.26-3.19-.01-.82,1.24,.51,2.14,1.26,2.93,7.76,8.13,13.84,17.5,19.7,26.99,3.91,6.34,9.14,11.98,11.31,19.29,1.78,5.98,7.2,11.21,13.04,9.61,5.94-1.63,11.43-.47,17.79-.52,4.66-.34,9.95-.93,15.02-2.74,3.46-1.24,4.84-3.83,4.78-7.34-.06-3.35-1.2-5.89-5-6.27-1.64-.16-3.08-.85-3.27-2.53-.2-1.69-.75-2.27-2.45-2.1-1.86,.18-3.12-1.01-4.09-2.44-3.35-4.97-6.65-9.93-7.86-16.01-3.22-16.16-6.56-32.29-7.33-48.82-.04-.87,.48-2-1.01-2.36Z" fill="#fdebd1"/><path d="M460.55,341.03c3.02,.32,2.82-1.06,2.89-3.02,.32-8.82,1.33-17.58,3.07-26.22,.83-4.12-1.1-5.08-4.29-5.18-18.95-.61-37.74-4.25-56.79-3.15-3.33,0-6.73-.42-9.97,.09-5.39,.85-11.91-3.29-15.98,1.65-3.62,4.39-4.41,10.65-5.52,16.39-.09,.49-.13,.99-.19,1.49-1.49,12.87-1.49,12.68,11.6,13.16,25.1,.92,50.19,2.14,75.17,4.8Z" fill="#fff"/><path d="M361.63,830.32c11.47-15.18,14.5-32.85,14.88-51.18,.33-15.65-.04-31.31,.16-46.96,.07-5.59,.67-11.11,.05-16.76-1.01-9.16-2.7-11.94-9.01-12.11-1.95,7.03-4.04,14.03-5.83,21.11-5.03,19.94-13.05,39.14-13.87,60.13-.67,17.15,.2,33.9,7.29,49.84h0c3.13,.22,4.67-1.88,6.33-4.08Z" fill="#f8cdcd"/><path d="M491.98,211.26c1.26,2.01,2.59,2.57,4.93,1.54,10.36-4.56,21.36-7.29,32.16-10.54,10.96-3.29,22.05-6.49,33.52-7.16,3.73-.22,4.67-1.48,4.93-4.43,.15-1.65,.03-3.32,.03-6.12-.67-8.18-1.86-17.41-6.8-25.63-2.71-4.51-6.13-5.74-11-3.86-7.76,2.99-15.23,6.66-22.2,11.19-13.38,8.71-25.41,19.24-38.21,28.75-6.03,4.48-5.83,4.73-1.43,10.58,1.4,1.86,2.83,3.7,4.07,5.67Z" fill="#fdebd1"/><path d="M334.24,551.64c-2.14-6.61-5.85-12.81-13.35-15-2.31-.67-5.37-1.62-6.43,1.64-2.1,6.44-5.98,8.72-12.69,7.41-2.83-.55-6.33,.32-7.74,3.39-1.4,3.06-1.66,6.42,1.03,9.29,3.42,3.66,1.37,6.9-1.32,9.52-6.42,6.26-4.89,15.14,3.5,17.98,3.73,1.26,4.76,2.93,3.89,6.97-1.39,6.39,1.92,9.47,8.41,8.68,1.3-.16,2.57-.6,3.85-.94,5.53-1.46,10.1-5.97,16.42-5.03,1.45,.22,1.42-1.51,1.91-2.51,3.8-7.83,4.29-16.3,5.02-26.68,.6-3.84-.79-9.51-2.49-14.74Z" fill="#fdebd1"/><path d="M152.13,58.84c-.86-3.06-.79-8.13-3.7-8.43-3.08-.32-6.43,2.94-8.65,6.02-.48,.67-1.01,1.32-1.54,1.96-9.65,11.64-14.19,25.03-13.54,38.12-.93,10.55,1.69,18.45,4.74,26.19,1.31,3.32,2.84,8.49,5.88,8.58,3.27,.09,5.62-4.6,7.59-7.86,12.28-20.2,15.66-41.71,9.21-64.57Z" fill="#d4e062"/><path d="M366.55,558.73c-1.51-13.85-12.01-16.25-23.18-14.27-3.31,.58-4.34,1.88-3.01,5.82,5.52,16.42,5.12,32.64-3.75,48.02-1.32,2.29,.34,2.71,1.6,3.08,2.86,.84,5.89,1.16,8.71,2.09,5.39,1.79,9.15-.28,12.75-4.2,7.32-7.95,7.59-17.74,7.91-28.88-.27-3.05-.57-7.37-1.04-11.66Z" fill="#fff"/><path d="M860.85,30.48c-.74,.49-1.4,.93-2.05,1.37-11.04,7.44-17.09,18.34-20.84,30.69-2.54,8.37-3.32,16.82-.8,25.51,1.16,4,2.1,4.25,5.37,1.92,19.29-13.75,25.43-34.92,18.32-59.48Z" fill="#d4e062"/><path d="M319.61,606.34c-4.3,2.03-8.87,2.69-13.6,2.08-4.8-.62-8.83-3.34-9.04-7.87-.26-5.36-1.43-8.83-6.8-10.48-1.21-.37-2.13-2.02-2.97-3.23-3.15-4.55-4.21-9.64-3.15-16.05-2.82,1.21-4.61,2.02-6.43,2.74-3.63,1.43-4.27,3.25-2.39,7.07,6.3,12.79,12.07,25.83,18.08,38.75,2.85,6.13,8.97,9.64,14.9,7.9,4.08-1.2,8.15-2.82,11.65-5.45,5.2-3.92,5.98-7.16,3.97-13.48-.82-2.58-1.78-3.13-4.21-1.99Z" fill="#689fc0"/><path d="M925.98,119.78c19.61-12.93,23.67-31.87,17.11-66-17.43,13.82-22.24,46.7-17.11,66Z" fill="#d4e062"/><path d="M863.5,92.42c16.32-21.23,14.57-44.66,8.83-68.87q-7.39,3.49-4.98,10.05c.74,2.03,1.66,4.07,1.9,6.17,2.72,23.68-4.62,43.15-25.19,56.15-4.86,3.07-3.69,4.78-1.56,8.34,1.83,3.07,3.5,3.48,6.17,1.38,5.21-4.11,10.73-7.88,14.83-13.22Z" fill="#fff"/><path d="M158.68,68.44c4.59,24.1,.5,46.26-15.24,65.67-1.12,1.38-2.97,2.63-.25,4.23,1.94,1.14,3.66,3.13,5.81,.08,8.29-11.78,15.57-24.15,17.57-38.61,2.65-19.18,.4-38.08-5.24-56.58,0,0-.29-.07-.29-.07-2.32,.89-4.64,1.77-6.96,2.67-1.54,.6-1.91,1.49-1.07,3.07,3.22,6.11,4.4,12.86,5.67,19.53Z" fill="#fefeff"/><path d="M927.65,53.12c-9.34,10.62-15.1,22.93-17.47,36.85-2.05,12.08-.41,23.77,3.93,35.14q4.91-1.38,4.4-6.42c-.12-1.16-.22-2.32-.34-3.47-2.38-24.13,2.42-46.04,20.46-63.48,3.25-3.14,1.94-5.12-.2-7.17-2.95-2.83-3.77,.98-5.15,2.25-2.07,1.9-3.78,4.19-5.65,6.31Z" fill="#fefefe"/><path d="M285.84,510.84c-.86-2.99-2.61-3.9-5.46-3.59-7.13,.78-14.13,2.19-20.45,5.71-10.81,6.03-11.6,9.19-5.5,19.79,.08,.14,.13,.3,.19,.46,.59,1.65,1.28,1.96,2.8,.68,9.2-7.71,20.16-11.16,32.32-12.84-1.45-3.73-2.94-6.9-3.9-10.22Z" fill="#fff"/><path d="M290.67,540.84c8.29-1.08,8.38-.73,4.57-8.41-1.27-2.56-1.88-6.1-5.18-5.26-8.83,.88-16.36,2.84-23.44,6.33-9.69,4.78-9.85,5.63-4.87,15.22,1.39,2.68,2.29,3.35,4.96,1.2,6.94-5.6,15.35-7.96,23.97-9.08Z" fill="#fff"/><path d="M216.74,137.46c.2,.79,.32,2.01,1.25,1.77,1.04-.26,2.03-1.11,2.79-1.92,1.23-1.3,.27-2.86,.13-4.29-1.47-15.47,.04-30.48,9.45-43.36,3.95-5.41,3.05-9.83,.76-14.88-1.23-.1-1.68,.71-2.15,1.34-13.74,18.52-17.89,38.95-12.24,61.34Z" fill="#fefefe"/><path d="M288.93,561.72c-2.69-4.41-2.45-9.07-1.35-14.45-6.09,1.44-11.3,2.96-16.12,5.61-6.12,3.36-6.16,3.38-3.64,9.65,1.23,3.05,2.64,6.02,4.16,9.46,4.28-4.35,9.71-5.53,14.71-7.64,1.01-.43,3.71-.23,2.24-2.63Z" fill="#fefefe"/><path d="M226.25,128.79c9.87-14.9,12.58-27.25,8.26-37.35-6.87,11.53-10.17,23.33-8.26,37.35Z" fill="#d1de60"/><path d="M308.59,366.39c-.37,4.97-.74,9.95-1.11,14.92-.11,1.48-.54,3.09,1.92,3.05,3.68-.07,7.37-.02,11.42-.02-1.14-2.02-2.14-3.55-2.91-5.18-3.16-6.67-6.65-13.22-7.28-20.78-2.44,2.22,.38,5.78-2.04,8.01Z" fill="#fdfdfd"/><path d="M262.14,299.67c1.4,2.99,3.87,5.49,6.23,8.55,1.03-4.97-1.12-8.93-2.13-13.81-1.71,2.11-4.49,4.43-4.1,5.26Z" fill="#f1f0ef"/><path d="M747.86,979.1c1.51-.13,3.56,.98,4.5-.81,.68-1.3-.69-2.44-1.62-3.36-1.14-1.13-2.13-2.59-4.08-2.49-.85,1.34,.11,2.58,.12,3.84,.01,.98-1.52,3.05,1.07,2.82Z" fill="#d9c7b1"/><path d="M549.52,206.38c.8-.17,1.93-.84,1.51-1.34-1.1-1.33-2.43-.58-3.56,.32,0,0,0,0,0,0,.68,.34,1.37,.68,2.05,1.02Z" fill="#a6ac4d"/><path d="M433.67,377.25c-6.47,.55-12.79,1.96-19.17,3.03-4.93,.83-7.68,3.6-9.38,7.84-2.24,5.59-3.66,11.39-3.49,17.47,.25,8.68,5.58,15.6,13.5,17.69,7.79,2.05,15.54-1.18,20.01-8.58,5.47-9.05,7.76-18.99,7.83-29.5-.38-8.71-.41-8.71-9.31-7.96Zm-3.86,22.15c-3.9-.05-5.6-2.63-5.47-6.28,.12-3.37,1.68-5.82,5.43-5.81,4.06,0,5.17,2.91,5.76,6.02-.66,3.46-2.03,6.12-5.72,6.07Z" fill="#322625"/><path d="M353.4,362.84c-2.64,3.82-5.41,7.58-7.08,11.94-3.27,8.58-6.42,17.19-1.56,26.3,1.66,3.12,3.61,5.62,7.53,5.44,3.88-.19,5.95-2.78,7.15-6.02,2.71-7.3,4.89-14.77,5.83-25.13,.26-4.07-4.36-8.41-7.48-13.31-1.21-1.89-3.08-1.12-4.4,.78Zm8.98,17.07c-.45,2.86-.96,6.02-4.53,6.21-3.74,.19-4.55-2.9-4.6-5.86-.05-3.03,.86-5.86,4.59-5.86,3.45,0,4.2,2.67,4.54,5.51Z" fill="#322625"/><path d="M433.05,445.94c-2.33,.32-3.33,2.08-3.27,4.31,.11,4.08,3.64,9.13,6.28,9.11,3.29-.02,3.96-2.44,4.46-4.64,0-3.34-4.97-9.12-7.47-8.78Z" fill="#f4abab"/><path d="M408.37,443.58c-2.83-.71-3.74,1.45-4.56,3.49-1.05,2.64-1.54,5.39-1.26,8.25,.14,1.45,.7,2.56,2.22,2.91,1.64,.37,3.12-.09,3.71-1.68,.96-2.61,1.62-5.33,2.17-7.2-.09-2.83,.34-5.11-2.28-5.77Z" fill="#f4abab"/><path d="M419.01,443.48c-2.07,.34-2.48,1.9-2.47,3.68,0,1.98-.08,3.96,.05,5.93,.19,2.66,1.58,4.47,4.39,4.23,2.7-.23,3.03-2.59,3.47-4.63-.56-2.33-.98-4.59-1.66-6.77-.54-1.73-1.83-2.76-3.78-2.44Z" fill="#f3aaab"/><path d="M611.53,248c-.02-4.03,.95-7.91,2.08-11.73,2.29-7.72-.19-14.42-4.39-20.67-2.73-4.06-6.53-5.05-11.35-3.52-5.31,1.69-10.05,4.37-14.75,7.17-21.26,12.68-42.38,25.58-62.11,40.62-3.31,2.52-5.11,7.25-10.19,7.3,0,0,0,0,0,0-.43,6.96,2.77,10.8,10.85,12.17,16.71,2.83,33.59,4.73,50.42,1.88,18.5-3.13,34.07-11.07,41.36-30.02-2.39-.02-1.92-1.81-1.93-3.21Z" fill="#f3a9aa"/><path d="M510.83,267.18c5.09-.04,6.88-4.77,10.19-7.3,19.73-15.04,40.84-27.94,62.11-40.62,4.7-2.8,9.44-5.49,14.75-7.17,4.82-1.53,8.62-.54,11.35,3.52,4.2,6.24,6.67,12.95,4.39,20.67-1.13,3.81-2.1,7.7-2.08,11.73,0,1.4-.46,3.19,1.93,3.21,9.6-10.92,12.27-22.74,5.36-36.22-5.35-10.43-13.17-14.07-24.23-10.57-3.64,1.15-7.07,2.8-10.47,4.59-16.54,8.69-31.45,19.89-46.43,30.85-8.53,6.24-16.94,12.85-24.48,20.39-1.89,1.89-3.91,3.82-2.38,6.92,0,0,0,0,0,0Z" fill="#322625"/><path d="M429.77,387.3c-3.75,0-5.32,2.44-5.43,5.81-.13,3.66,1.57,6.23,5.47,6.28,3.68,.05,5.05-2.61,5.72-6.07-.59-3.11-1.7-6.01-5.76-6.02Z" fill="#fafafa"/><path d="M353.25,380.26c.05,2.96,.87,6.05,4.6,5.86,3.57-.18,4.09-3.34,4.53-6.21-.34-2.84-1.09-5.52-4.54-5.51-3.73,0-4.64,2.84-4.59,5.86Z" fill="#f7f6f6"/></svg>