<?xml version="1.0" encoding="UTF-8"?><svg id="_레이어_1" xmlns="http://www.w3.org/2000/svg" viewBox="0 0 885.39 894.03"><path d="M78.58,366.01c.16-.25,.31-.51,.47-.76-.35,.14-.45,.42-.47,.76Z" fill="#322625"/><path d="M174.02,184.46c.31-.31,.55-.55,.77-.74-.24,.12-.49,.35-.77,.74Z" fill="#322625"/><path d="M849.25,504.23c-8.44-9.39-14.6-20.69-24.61-28.81-9.84-7.99-9.21-4.82-2.4-16.27,2.18-3.67,2.34-6.63,.17-10.14-4.13-6.68-8.26-13.47-14.41-18.41-4.82-3.87-5.02-7.46-1.52-11.97,.3-.39,.5-.87,.72-1.31,8.04-15.88,15.69-31.92,21.3-48.88,3.67-11.09,2.1-20.97-5.89-29.67-1.24-1.35-2.41-2.76-3.67-4.09-20.23-21.46-41.1-42.28-64.38-60.48-3.63-2.84-4.23-5.47-1.91-9.18,.7-1.12,1.27-2.34,1.8-3.56,5.45-12.49,9.03-25.38,8.57-39.17-.18-5.3-2.13-9.13-7.45-11.19-4.38-1.69-8.72-3.34-13.42-3.64-2.48-.16-3.65-.76-2.99-3.59,5.11-21.73,6.32-44.14,11.45-65.89,2.38-10.08,1.28-20.21-.99-30.2-1.05-4.59-3.55-7.75-8.64-8.38-14.07-1.75-28.22-2.35-42.37-2.38-16.66-.04-33.32,.27-49.97,.68-3.63,.09-4.2-1.28-3.69-4.33,.97-5.78,.96-11.57,.4-17.42-2.02-21.1-11.28-39.25-23.39-56.01-10.24-14.18-31.03-17.19-45.67-7.34-7.89,5.31-13.96,12.27-18.48,20.64-4.82,8.92-8.66,18.34-14.22,26.91-3.7,5.71-7.15,11.04-15.05,10.38-.62-.05-1.33,.23-1.91,.53-3.65,1.9-4.54,.27-5.26-3.26-3.03-14.91-8.23-29.11-15.19-42.64-4.51-8.77-10.11-10.83-19.38-7.54-1.1,.39-2.18,.84-3.24,1.32-29.97,13.44-57.55,30.61-82.44,52.11-10.1,8.72-19.57,18.05-28.89,28.51-6.24-13.83-12.28-27.15-18.26-40.49-3.82-8.52-8.05-16.83-13.51-24.42-4.46-6.19-9.8-7.81-17.1-5.52-2.37,.74-4.71,1.62-7.01,2.58-12.13,5.06-19.2,15.18-25.06,26.13-5.61,10.47-8.57,21.9-10.86,33.58-3.66,18.65-3.29,37.02,2.14,55.88-4.66-.69-9.13-.62-13.59-.78-10.61-.38-15.29,1.23-17.16,16.24-.34,2.71,.1,5.32,.78,7.9,3.99,15.37,9.57,30.1,17.31,44,3.54,6.36,3.4,6.25-2.89,9.77-2.13,1.19-2.8,.49-3.78-1.19-2.26-3.88-4.88-7.57-6.99-11.53-12.39-23.25-31.18-40.6-52.32-55.38-11.26-7.87-24.07-13.48-35.9-20.57-8.31-4.99-17.28-6.81-26.67-7.22-35.78-1.56-63.69,15.12-84.35,41.87-28.15,36.44-43.93,78.15-41.37,125.34,1.32,24.23,3.64,48.21,15.74,69.99,4.05,7.29,7.2,14.99,10.7,22.53,5.67,12.26,11.88,24.25,21.14,34.28,5.99,6.48,12.2,12.76,18.43,19.01,16.75,16.81,36.11,30.33,57.35,40.37,21.91,10.35,45.01,18.18,67.53,27.26,5.79,2.33,11.01,5.92,13.29,11.96,7.82,20.69,15.2,41.54,22.98,62.25,7.55,20.09,15.33,40.09,23.13,60.08,3.54,9.08,9.29,13.83,18.6,14.8,1.98,.21,3.26,.69,4.18,2.71,9.22,20.37,20.38,39.68,32.59,58.38,2.47,3.79,2.61,6.14-.69,9.58-3.28,3.43-5.56,7.85-8.06,11.98-6.33,10.47-5.37,15.44,3.06,24.26,6.8,7.11,14.83,12.32,23.33,16.92,2.86,1.55,3.11,3.02,2.07,5.9-2.27,6.27-3.39,12.84-4.4,19.43-.76,4.94,1.18,8.06,5.53,9.92,11.19,4.8,22.48,9.21,34.94,9.38,1.48,.02,4.59-1.3,4.05,2.44-.36,2.51-.05,5.34-4.28,5.09-6.1-.37-10.61,2.43-12.82,8.32-2.19,5.83-.96,10.83,4.03,14.67,1.46,1.13,2.29,2.14,1.73,4.13-1.37,4.95,1.14,8.23,4.92,10.99,5.84,4.25,12.48,2.74,18.87,2.57,1.75-.05,2.91-.08,4.37,1.17,8.21,7.06,17.33,6.48,25.25-1.48,.87-.87,1.56-1.56,2.9-1.46,11.02,.84,14.51-7.19,14.73-16.07,.15-5.99,2.47-10.53,5.2-15.18,2.95-5.02,6.49-9.69,9.5-14.67,2.14-3.54,3.4-3.39,5.81-.03,6.31,8.82,13.6,16.74,22.42,23.25,6.02,4.44,12.26,4.97,18.84,2.27,6.6-2.7,13.19-5.38,19.13-9.6,7.99-5.67,9.7-5.42,17.76,.31,8.97,6.37,18.03,12.57,27.9,17.49,6.62,3.3,13.24,3.59,20.26,.87,7.39-2.86,14.22-6.46,20.17-11.72,.86-.76,1.51-2.25,3.29-1.03,3.38,2.3,6.8,9.81,6.13,14.06-1.64,10.48,4.92,18.22,15.69,18.26,1.76,0,2.65,.73,3.82,1.71,6.38,5.35,13.75,5.52,19.9,.14,1.83-1.6,3.09-1.67,5.19-.93,5.2,1.84,9.92,1.49,14.1-2.95,2.84-3.02,4.99-6.82,9.3-8.48,1.7-.65,2.52-3.04,2.68-5.12,.45-6.03-.75-11.34-6.77-14.26-3.04-1.48-2.11-4.23-2.13-6.53-.02-2.99,2.5-1.03,3.77-1.59,3.99-1.75,4.87,3.22,7.94,3.68,9.4,1.39,18.82,3.06,28.32,1.87,9.51-1.19,18.51-4.07,22.73-13.86,3.06-7.11,8.3-11.29,14.82-15.19,12.42-7.42,23.98-16.25,36.25-23.94,10.68-6.69,20.13-14.77,29.04-23.54,5.94-5.84,8.99-12.9,8.84-21.51-.26-15.05-1.74-29.98-5.17-44.56-1.49-6.34-.35-10.66,4.5-14.12,7.56-5.39,7.29-12.38,4.75-20.03-1.21-3.64-2.38-7.38-4.91-10.31-2.34-2.7-1.63-4.84-.05-7.56,16.98-29.27,28.6-60.72,37.78-93.18,5.08-17.94,2.11-33.88-10.66-47.77-2.7-2.94-5.09-6.17-7.76-9.14ZM533.36,89.45c11.3-13.63,21.34-28.08,28.68-44.28,4.16-9.18,9.29-17.64,17.62-23.8,9.62-7.12,19.79-6.38,30.06-.23,6.85,4.1,9.37,10.41,12.83,16.38,8.62,14.89,14.2,30.64,13.95,48.27-.3,21.35-9.76,36.82-28.2,47.12-13.55,7.57-28.01,11.69-43.51,13.28-5.66,.58-9.56-.68-13.88-3.66-13.01-9-27.95-12.84-43.3-15.41-1.74-.29-3.48-.64-5.94-1.09,12.27-11.31,21.52-24.33,31.68-36.58Zm-247.76,559.93c-5.81,0-8.73-2.61-10.63-8.12-2.28-6.6-5.26-12.94-7.76-19.47-8.43-22.06-16.4-44.31-24.82-66.36-7.11-18.6-13.9-37.45-23.83-54.86-.8-1.41-1.13-4.16-3.46-3.58-2.87,.72-1.87,3.39-1.58,5.99-10.57-4.62-20.73-9.31-31.11-13.51-10.64-4.3-21.63-7.65-32.11-12.41-23.11-10.5-43.97-24.29-62.1-42.03-7.97-7.79-16.04-15.49-22.87-24.41-7.17-9.36-12.2-19.85-16.79-30.53-3.56-8.28-7.81-16.19-11.77-24.24-9.17-18.61-10.27-38.72-11.86-58.82-2.39-30.25,5.06-58.53,17.5-85.63,13.79-30.03,33.54-54.89,64.81-68.35,19.64-8.46,39.35-9.69,58.98,1.09,10.06,5.52,19.87,11.44,29.85,17.08,5.68,3.21,10.6,7.44,15.52,11.7,18.35,15.87,33.16,34.49,44.45,55.94,.92,1.75,1.5,3.08,0,4.92-2.65,3.26-2.54,7.09-1.37,10.91,2.8,9.21,8.56,16.48,15.37,22.99,6.52,6.23,6.57,6.16,.41,12.66-.67,.71-1.14,1.61-2.21,3.17-8.18-18.74-16.37-35.9-26.77-51.73-13.14-20.01-30.99-35.4-50.35-49.39-10.85-7.84-22.77-12.4-35.17-15.99-17.31-5.01-33.57-.88-48.93,7.74-30.33,17.02-45.57,44.73-53.74,77.04-4.92,19.46-3.03,39.32-1.8,59.15,1.15,18.67,7.68,35.56,14.26,52.69,5.79,15.08,13.23,29.09,22.92,41.87,6.73,8.88,14.32,17.07,22.73,24.48,6.12,5.39,12.09,10.97,17.86,16.73,16.73,16.69,37.62,25.17,59.92,31.25,11.49,3.14,23.21,4.02,34.67,2.31,19.02-2.83,36.37-13.18,43.16-34.87,.54-1.73,1-3.48,1.7-5.96,3.51,3.42,6.67,6.49,9.81,9.58,1.31,1.29,.45,2.39-.37,3.49-3.82,5.1-5.84,11.25-9.31,16.48-3.7,5.58-9.12,9.91-12.78,15.56-2.43-1.48-2.6-6.28-5.93-4.44-2.8,1.55-.52,4.81,.05,7.26,.41,1.77,1.13,3.48,1.79,5.19,7.85,20.43,11.54,42.15,20.06,62.44,8.49,20.23,16.01,40.91,22.14,62.02,1.72,5.94,5.44,10.94,6.85,16.91,.3,1.26,1.06,2.41,.65,3.86-1.19,4.29-11.51,12.21-16.04,12.2ZM60,265.2c2.51-26.89,14.25-49.57,31.8-69.58,.92-1.05,1.58-3.13,3.86-1.28,6.4,5.17,14.17,8.01,21.28,11.97,2.92,1.62,3.71,2.85,1.87,6.01-4.51,7.77-8.69,15.73-12.83,23.71-1.2,2.32-2.16,3.05-4.86,1.84-7.43-3.33-15.03-6.27-22.57-9.36-1.05-.43-2.22-1.38-3.19-.24-1.23,1.45,.22,2.49,1.08,3.34,4.13,4.07,9.52,6.02,14.65,8.36,10.42,4.76,10.45,4.71,5.06,14.97-3.32,6.34-6.87,12.57-9.9,19.04-1.59,3.4-2.99,3.33-5.87,1.52-6.04-3.79-12.75-6.31-19.26-9.18-.34,.98-.67,1.97-1.01,2.95,4.97,5.09,11.8,7.33,17.51,11.3,3.08,2.14,3.79,3.67,1.79,7.03-3.05,5.13-5.59,10.57-8.22,15.94-.86,1.77-1.47,3.69-1.92,5.61-.28,1.2,.41,2.37,1.62,2.79,1.52,.52,1.81-.74,2.39-1.81,3.7-6.87,7.59-13.65,11.24-20.55,1.26-2.38,2.24-3,4.87-1.5,5.76,3.3,11.75,6.23,17.74,9.11,2.56,1.23,2.77,2.5,1.53,4.96-5.33,10.52-10.54,21.11-15.6,31.77-1.16,2.44-2.16,2.76-4.45,1.46-6.65-3.76-13.4-7.36-20.15-10.92-1-.53-2.3-2.26-3.36-.55-.79,1.27,.56,2.47,1.58,3.32,5.91,4.9,12.48,8.85,19.03,12.77,2.86,1.71,3.49,3.14,1.98,6.2-3.09,6.25-5.78,12.69-8.64,19.06-.67,4.04,.1,6.89,5.14,6.18,4.69-6.16,7.01-13.5,10-20.48,1.64-3.82,3.01-4.62,6.66-2.13,6.18,4.22,12.7,7.94,19.09,11.83,1.73,1.05,2.73,2.03,1.67,4.37-6.26,13.77-12.37,27.61-18.79,42.02-10.09-9.88-16.62-21.66-22.82-33.68-1.47-1.46-2.24-3.28-2.7-5.26-3.08-7.71-5.95-15.52-9.3-23.12-6.07-13.81-7.4-28.53-9.02-43.26-1.19-10.83-1.12-21.57,.29-32.34-.29-1.48-.36-2.93,.73-4.17Zm100.09,16.72c-3.98,8.22-7.76,16.54-11.53,24.86-.87,1.93-1.5,2.96-3.96,1.65-6.89-3.65-13.93-7.03-20.98-10.39-2.57-1.22-3.29-2.3-1.75-5.2,4.35-8.22,8.21-16.69,12.35-25.02,.58-1.17,.67-3.05,2.66-2.97,.7,.37,1.3,.65,1.87,.98,6.62,3.82,13.18,7.74,19.87,11.43,2.24,1.23,2.6,2.32,1.47,4.65Zm6.11,3.84c1.1-2.52,2.11-3.27,4.72-1.66,4.95,3.06,10.06,5.88,15.2,8.62,2.01,1.07,2.52,2.14,1.58,4.31-3.71,8.55-7.25,17.17-10.92,25.74-.33,.78-.37,2.04-1.74,2.03-.64-.29-1.26-.54-1.85-.85-5.44-2.89-10.8-5.94-16.34-8.61-2.92-1.41-2.78-3-1.6-5.5,3.75-7.98,7.42-16.01,10.95-24.09Zm-37.66-22.67c-4.58,8.68-8.87,17.51-13.33,26.25-.55,1.07-.73,2.68-2.19,2.6-3.76-1.8-7.21-3.45-10.66-5.1-4.19-2-10.52-2.74-11.92-6.44-1.43-3.78,3.49-8.08,5.6-12.15,2.99-5.76,6.24-11.38,9.18-17.16,1.17-2.3,2.18-2.69,4.51-1.35,5.62,3.24,11.41,6.18,17.14,9.21,1.75,.93,2.98,1.67,1.67,4.14Zm-12.9,42.29c1.03-2.19,1.99-1.95,3.77-1,6.74,3.61,13.52,7.17,20.4,10.5,3,1.45,3.72,2.74,2.12,6-5.13,10.45-9.83,21.1-14.75,31.66-.5,1.08-.55,2.72-2.37,2.73-.74-.43-1.48-.82-2.18-1.26-6.77-4.24-13.64-8.33-20.84-11.8-2.11-1.02-3.08-1.93-1.8-4.49,5.35-10.71,10.54-21.51,15.65-32.34Zm22.51,41.22c3.22-7.47,6.99-14.69,10.2-22.16,1.42-3.3,2.76-3.07,5.46-1.45,5.12,3.08,10.46,5.79,15.79,8.48,2.19,1.1,2.62,2.11,1.75,4.6-4.11,11.83-10.73,22.46-15.85,33.8-.38,.84-.61,2.04-2.61,1.47-2.27-1.22-5.08-2.66-7.81-4.23-4.16-2.39-10.32-3.99-11.83-7.55-1.54-3.63,3.02-8.6,4.9-12.97Zm24.77,25.48c5.22-10.93,11.42-21.41,15.39-32.93,.28-.83,.47-2.03,2.62-1.96,6.94,4.23,14.49,8.75,21.91,13.45,1.27,.81,.04,2.12-.53,3.06-6.39,10.51-12.61,21.11-17.96,32.2-1.2,2.49-2.38,1.48-3.87,.64-5.21-2.94-10.35-6.03-15.69-8.7-2.93-1.47-3.22-2.92-1.86-5.77Zm21.04-42.6c-1.73-1.02-.69-2.28-.2-3.45,3.49-8.45,6.99-16.89,10.48-25.34,.6-1.45,1.06-2.78,3.13-1.49,7.77,4.83,15.75,9.31,22.85,15.16,1.42,1.17,1.66,2.11,.8,3.76-4.09,7.8-8.06,15.67-12.1,23.5-.33,.65-.94,1.15-1.31,1.6-.53-.24-.69-.29-.83-.37-7.61-4.45-15.22-8.9-22.81-13.36Zm18.34-37.42c-2.81-1.56-3.57-2.98-2.38-6.23,2.93-8.01,6.9-15.48,10.64-23.09,1.29-2.61,2.43-2.78,4.88-1.42,9.41,5.25,19.04,10.11,27.95,16.37-6.11,8.23-8.96,18.34-14.73,26.9-1.8,2.67-2.7,3.25-5.44,1.01-6.45-5.27-13.65-9.51-20.92-13.54Zm3.05-33.49c-4.71,8.2-9.47,16.39-12.47,25.43-.25,.77-.63,1.54-1.84,1.46-.62-.32-1.36-.67-2.08-1.08-4.92-2.76-9.81-5.57-14.76-8.27-1.77-.97-2.91-1.82-1.87-4.2,3.64-8.36,7.16-16.78,10.56-25.24,.9-2.26,1.85-2.14,3.64-1.11,5.75,3.31,11.57,6.5,17.39,9.69,1.4,.77,2.59,1.32,1.44,3.33Zm-28.07-15.02c-3.75,8.12-7.31,16.34-10.81,24.58-.89,2.1-1.65,2.93-3.95,1.6-6.75-3.9-13.6-7.62-20.43-11.37-1.31-.72-2.23-1.34-1.19-3.01,4.91-7.91,8.55-16.47,12.56-24.85,.38-.79,.59-2.04,2.01-1.73,.6,.3,1.19,.59,1.78,.9,6.17,3.24,12.3,6.53,18.52,9.68,2,1.02,2.55,1.94,1.51,4.19Zm-29.31-15.62c-4.33,7.47-7.45,15.59-12.24,22.82-.69,1.04-1.07,2.44-2.54,2.71-.75-.38-1.34-.69-1.93-.98-5.97-2.91-11.9-5.9-17.94-8.67-2.45-1.12-3.25-2.07-1.65-4.72,4.82-7.95,9.44-16.03,13.96-24.15,1.22-2.19,2.22-2.26,4.21-1.03,5.51,3.4,11.1,6.69,16.76,9.84,1.97,1.1,2.62,2.01,1.36,4.18Zm-23.06-27.21c-.71,1.55-1.6,1.71-3.15,.97-7.05-3.38-14.17-6.61-21.25-9.93-1.34-.63-2.9-.92-.9-3.01,8.92-9.33,28.13-16.63,40.56-14.95-5.01,9.11-10.97,17.55-15.25,26.92Zm-15.08,208.51c3.56-4.39,4.84-10.15,7.13-15.31,3.51-7.89,7.03-15.79,10.4-23.74,1.14-2.7,2.17-3.57,5.03-1.72,5.02,3.24,10.27,6.17,15.57,8.94,2.44,1.27,2.85,2.41,1.71,4.94-5.84,13.04-11.49,26.18-17.19,39.28-.46,1.07-1.04,2.11-1.3,3.23-.46,1.99-.74,4.18,1.58,5.21,2.35,1.05,4.21,.02,5.39-2.18,.63-1.17,1.18-2.39,1.71-3.6,5.46-12.49,11.02-24.93,16.27-37.51,1.41-3.39,2.68-3.72,5.67-1.8,4.76,3.04,9.71,5.81,14.74,8.38,2.85,1.46,3.24,2.83,1.8,5.74-8.02,16.24-15.83,32.59-23.69,48.92-.77,1.6-1.39,3.28-2.06,4.88-5.31-1.19-7.7-6.05-11.49-9.16-10.67-8.78-20.47-18.51-30.65-27.83-2.45-2.24-3.07-3.64-.62-6.65Zm62.96,18.88c4.46-8.36,8.35-17.03,12.29-25.65,1.22-2.68,2.35-3,4.78-1.39,4.99,3.31,10.05,6.54,15.29,9.43,2.78,1.54,2.94,2.85,1.29,5.34-5.43,8.21-10,16.89-13.44,26.13-.35,.93-.77,1.85-1.02,2.81-.6,2.28-.49,4.49,2.06,5.43,2.42,.89,4.3-.31,5.3-2.51,1.72-3.78,3.11-7.72,4.88-11.47,2.69-5.72,5.71-11.28,8.33-17.03,1.26-2.78,2.43-2.66,4.8-1.23,6.82,4.14,13.82,8,20.76,11.95,2.46,1.4,5.15,2.51,6.92-.66,1.68-3.01-.33-5.09-2.8-6.51-6.92-3.99-13.83-8-20.89-11.72-3.11-1.64-3.3-3.23-1.74-6.21,3.17-6.02,6.45-12.03,8.63-18.52,.4-1.2,1.62-2.57,.11-3.58-1.63-1.09-3.03,.31-3.77,1.45-2.34,3.62-4.41,7.43-6.58,11.16-1.42,2.45-2.94,4.85-4.22,7.36-1.06,2.09-2.17,2.5-4.23,1.18-5.75-3.68-11.57-7.25-17.43-10.74-1.66-.99-1.84-1.94-1.03-3.61,5.39-11.08,11.15-21.95,17.39-32.57,.95-1.62,1.85-2.18,3.5-.92,1.59,1.21,3.37,2.18,4.9,3.44,3.02,2.49,5.89,2.97,8.97-.68,3.05,23.15,13.66,42,26.73,59.72,2.84,3.85,8.4,7.04,8.2,11.5-.33,7.68-2.8,15.31-7.18,22.05-7.73,11.91-19.6,16.55-32.83,18.32-22.47,3.01-42.49-5.31-62.53-13.96,6.57-8.84,9.61-19.06,14.55-28.32Zm52.6-72.74c-1.55-1.23-2.54-2.06-3.57-2.84-7.91-5.96-7.94-5.97-3.56-15.11,2.44-5.1,5.12-10.09,7.47-15.23,1.03-2.25,1.95-2.71,3.99-1.14,2.3,1.76,5.1,2.63,7.01-.21,2.11-3.16,.36-5.77-2.51-7.48-2.09-1.25-2.91-2.37-1.31-4.67,6.28-9.11,8.69-20.09,14.24-29.58,1.87-3.19-.87-10.13-5.11-12.64-7.29-4.33-14.67-8.53-22.22-12.39-3.32-1.7-3.66-3.25-2.09-6.45,1.88-3.86,3.11-8.05,4.57-12.11,.43-1.2,1.41-2.7-.11-3.59-1.69-.99-2.8,.61-3.67,1.7-2.73,3.41-4.41,7.46-6.03,11.44-1.35,3.32-2.75,3.88-5.83,2.02-4.84-2.92-9.79-5.7-14.9-8.1-3.81-1.8-3.89-3.74-2.12-7.25,3.36-6.67,6.24-13.59,9.11-20.49,.53-1.27,2.32-3.25,.09-4.33-2.02-.98-3.51,.91-4.34,2.45-3.47,6.44-7.13,12.82-9.95,19.55-1.87,4.45-3.77,4.21-7.29,2.18-5.18-2.99-10.55-5.67-15.98-8.19-2.7-1.26-3.28-2.41-1.87-5.21,4.18-8.31,7.46-17.06,12.09-25.17,1.43-2.5,2.03-5.25,2.51-8.04-3.32-2-4.03,1.2-5.16,2.84-5.76,8.38-9.86,17.66-13.91,26.92-1.62,3.69-3.21,4-6.46,2-4.37-2.7-8.93-5.13-13.58-7.32-3.59-1.69-4.56-3.39-2.11-7.01,3.71-5.49,6.94-11.31,10.38-16.98,1.03-1.7,2.14-3.36,3.13-5.09,3.47-6.13,3.47-6.16,10.27-3.62,5.59,2.08,11.13,4.21,17.05,5.36,4.52,.88,7.52,4.61,10.8,7.62,21.95,14.72,40.64,32.5,54.32,55.47,7.51,12.61,13.05,26.27,20.9,38.53,3.78,5.9,1.42,8.42-1.41,12.28-5.99,8.19-12.1,16.3-17.77,24.71-7.15,10.61-14.75,21.11-15.08,35.21Zm47.79,176.79s0,0,0,0c1.08,1.38,.88,2.94,.78,4.62-1.33-.58-1.74-1.5-1.74-2.68-4.28-6.46-4.67-14.19-6.95-21.31-.84-2.62,.15-4.86,2.69-6.31,2.95-1.69,5.47-.03,8.02,1.01,1,.41,.28,1.53-.01,2.17-3.3,7.22-3.08,14.85-2.78,22.5Zm107.65,285.34c-12.21,.71-23.17-3.85-34.28-7.79-2.38-.85-1.84-3.01-1.57-4.71,1.12-6.89,2.16-13.81,3.73-20.61,1.03-4.44,0-7.2-4.01-9.49-8.21-4.71-16.46-9.34-22.97-16.57-5.27-5.85-5.55-6.16-1.97-13.36,3.39-6.82,7.74-13.08,10.85-20.1,1.81-4.08,.68-6.63-1.19-9.59-8.27-13.09-16.65-26.11-24.87-39.24-3.18-5.08-5.94-10.41-9.05-15.53-1.42-2.34-1.72-3.64,1.11-5.45,5.39-3.44,9.49-8.26,12.04-14.25,1.62-3.81,.94-7.55-.46-11.17-8.63-22.34-15.31-45.39-24.64-67.47-.64-1.52-1.09-3.13-1.63-4.7,0,0,0,0,0,0-.86-1.6-1.72-3.19-2.7-5.01,2.42-.11,3.15,1.38,4.06,2.63,10.46,6.38,21.8,9.28,32.77,3,4.66-2.67,8-2.16,12.22-1.34,5.91,1.15,11.91,1.21,17.91,1.21,6.26,0,6.01-.03,4.48,5.76-8.81,33.4-15.92,67.16-15.37,101.87,.36,22.8,2.42,45.58,11.78,66.97,7.81,17.84,18.03,34.1,31.14,48.5,1.66,1.82,3.66,3.43,5.73,4.77,3.72,2.41,4.78,5.6,3.89,9.82-1.29,6.19-2.46,12.41-3.54,18.64-.37,2.1-1.07,3.07-3.46,3.21Zm-79.85-312.09c.9,1.32,.29,2.93,.25,4.41-.3,10.31-1.42,20.69,.9,30.88,1.04,4.58,1.1,10.02,6.79,12.23-6.34,4.48-19.12,.01-23.78-8.84-6.75-12.82-6.47-25.86-1.02-39.03,.4-.97,.89-1.6,1.98-1.98,5-1.77,9.95-3.67,16.1-5.97-2.31,3.31-3.01,5.67-1.21,8.3Zm300.29,338.36c-5.65,4.91-12.19,8.11-19.24,10.23-4.55,1.37-8.8-.2-12.88-2.44-8.33-4.57-16.24-9.77-24.09-15.09-12.03-8.15-16.9-8.2-28.9,.33-5.38,3.82-11.48,5.94-17.43,8.45-3.53,1.49-6.64,.8-9.83-1.37-8.12-5.5-13.96-13.25-20.64-20.18-.92-.95-1.84-1.98-2.45-3.13-.87-1.63-4.69-1.77-2.6-4.86,1.76-2.61,2.63-6.01,7.28-5.4,4.58,.6,9.3,.13,13.96,.13,26.98,.85,53.73,4.25,80.56,6.65,5.26,.47,10.44,1.93,15.61,3.1,1.03,.23,1.97,1.18,2.8,1.95,5.99,5.53,11.87,11.19,17.96,16.61,2.23,1.98,2.09,3.11-.1,5.02Zm80.37,15.35c.83,2.76,.71,5.9-1.9,7.15-3.87,1.85-5.58,5.51-8.41,8.18-2.14,2.02-4.24,2.77-7.2,2.06-4.62-1.11-8.95-1.14-12.92,2.64-2.86,2.72-9.02,1.72-11.79-1.61-2.35-2.83-4.94-4.12-8.56-4.13-3.06-.01-5.64-1.6-6.48-4.6-.85-3.03-2.38-6.24,1.27-9.04,2.66-2.04,1.56-4.83-.23-7.1-4.91-6.22-9.09-13.01-15.34-18.19-8.46-7.01-16.31-14.73-25.23-21.21-6.61-4.8-14.5-4.61-21.93-5.42-20.35-2.21-40.76-4.12-61.2-5.33-17.96-1.07-35.97-.7-53.87,1.57-2.21,.28-4.74,.58-4.78,3.34-.05,3.34,2.99,3.06,5.19,3.28,2.29,.23,4.63,.05,7.91,.05-3.98,5.63-7.52,10.52-10.92,15.51-4.78,7.02-9.51,14.08-12.76,21.99-1.2,2.93-2.2,5.65,.03,8.91,2.08,3.04-.28,7.91-4.07,9.15-4.86,1.6-9.7,2.92-14.12,5.82-3.76,2.47-8.17,1.61-11.68-1.23-3.6-2.91-7.53-3.94-12.05-3.52-2.31,.22-4.67,.24-6.99,.08-6.27-.42-8.33-3.46-6.53-9.57,.81-2.75,.47-4.9-2.41-6.21-2.46-1.12-4.19-2.79-3.51-5.83,.62-2.74,2.52-4.12,5.09-4.94,1.72-.55,2.75-.58,3.19,1.57,.48,2.35,1.98,3.97,4.59,3.62,2.71-.37,3.79-2.43,4.27-4.89,1.58-8.17,3.19-16.34,4.73-24.52,1.11-5.89,2.13-11.79,3.19-17.69,.26-1.43,.18-2.83,1.85-3.78,4.17-2.38,3.18-5.36,.34-8.05-5.54-5.24-11.47-10.02-16.81-15.54-5.77-5.97-10.07-12.79-14.42-19.66-14.42-22.8-20.88-47.9-22.46-74.68-1.67-28.2,1.82-55.83,7.1-83.38,2.25-11.76,4.15-23.6,7.17-35.21,.62-2.4,.74-4.92,2.38-6.99,1.42-1.8,.8-3.97,.3-5.76-.74-2.63-3.04-3.16-4.22-.67-1.48,3.1-3.9,3.33-6.52,3.48-12.73,.69-25.22-1.46-37.74-3.27-1.72-.25-2.44-.88-2.96-2.63-3.3-11.2-3.77-22.6-2.87-34.14,.19-2.39,.7-4.37,3.27-5.63,20.75-10.18,37.5-25.63,54.02-41.36,6.04-5.76,12.37-11.12,19.88-14.97,2.54-1.3,4.95-1.71,7.67-1.19,12.5,2.39,25.16,2.53,37.83,2.63,3.05,.02,6-.35,6.05-4.22,.05-3.71-2.86-4.69-5.85-4.73-9.83-.14-19.66-.41-29.44-1.44-27.66-2.9-48.77-16.98-66.06-38.1-11.92-14.57-20.42-30.33-21.01-49.57-.03-1-.17-1.99-.21-2.99-.01-.49,.11-.98,.25-2.05,3.35,2.49,6.37,4.91,9.57,7.08,10.68,7.26,26.09,4.99,34.63-4.82,2.49-2.86,5.72-5.04,7.56-8.54,4.11-7.77,2.19-14.09-5.86-17.52-3.94-1.68-8.11-2.95-12.49-3.17,0,0,0,0,0,0,0,0,0,0,0,0-3.38,0-6.75,0-11.03,0,2.01-1.21,3.23-2.09,4.96-1.83,9.86-2.63,19.84-2.4,29.75-.69,6.95,1.2,11.8-.8,15.57-6.89,3.49-5.64,7.73-10.83,11.68-16.18,2.81-3.8,9.67-2.83,11.76,1.52,4.64,9.66,10.35,18.61,18.1,26.13,7.08,6.87,16.1,9.54,25.31,12.18,15.31,4.38,28.74-.12,42.1-7.04,10.82-5.61,20.44-12.22,27.23-22.73,4.21-6.52,6.35-13.52,7.33-20.96,.37-2.8,1.26-3.65,3.98-3.57,10.02,.3,19.89,2.02,29.72,3.57,4.13,.65,5.82,6.38,9.27,9.19,.16,.13-.92,1.93-1.56,2.86-3.21,4.66-6.54,9.23-9.11,14.31-2.15,4.24-2.17,8.08,.6,12.17,7.86,11.57,18.15,20.33,30.53,26.56,3.71,1.87,4.6,3.06,2.04,6.77-6.72,9.78-10.77,20.99-15.9,31.62-2.26,4.68-1.01,9.26,1.03,13.92,12.42,28.37,31.19,51.79,55.09,71.21,3.64,2.96,5.76,5.29,1.78,9.77-5.12,5.76-5.12,11.83,.28,17.8,3.68,4.06,6.59,8.89,10.57,12.6,2.73,2.55,3.63,5,3.76,8.51,.71,19.61,5.32,38.55,10.4,57.37,.87,3.23,.47,5.43-1.65,8.12-5.57,7.07-9.82,15.02-13.99,22.99-2.34,4.47-1.6,8.69,.75,12.83,7.39,13.01,17.54,23.46,30.2,31.31,3.8,2.36,4.65,4.49,3.17,8.72-10.71,30.66-15.11,62.34-14.76,94.75,.08,7.54,.96,14.97,3.29,22.15,.59,1.81,.54,3-.77,4.47-1.76,1.98-3.11,4.32-4.73,6.43-4.08,5.32-4.8,11.01-1.28,16.75,6,9.76,4.55,20.92,6.11,31.49,.81,5.44,2.15,10.75,3,16.17,.38,2.39,1.82,4.2,4.39,3.8,2.74-.43,4.62,.11,5.45,2.86ZM351,215.93c-.32-5.79,2.23-8.86,7.6-10.6,23.59-7.61,47.46-14.07,71.8-18.9,12.36-2.45,24.38-6.32,37.1-7.34,13.77-1.11,27.53-1.98,46.96-2.31,6.52-.55,18.57,1.56,30.74,1.22,5.14-.14,10.27,3.13,15.92,2.72,1.19-.09,1.7,2.61,1.81,4.26,.55,7.8-1.98,15.1-3.73,22.52-.4,1.71-1.65,2.47-3.23,2.66-2.31,.27-4.66,.76-6.94,.55-21.21-2-42.29,.32-63.29,2.44-20,2.02-39.81,5.87-59.77,8.43-24,3.07-47.29,9.24-70.59,15.39-3.33,.88-4.37,.47-4.27-3.06,.16-5.99,.22-12-.11-17.98Zm4.8,28.29c19.74-3.8,39.17-9.18,58.88-13.16,11.06-2.24,22.44-2.87,33.64-4.45,17.94-2.54,35.7-6.28,53.9-6.9,13.37-.45,26.7-2.99,40.25-.83-5.3,9.2-4.82,11.71,2.84,19.59,7.59,7.81,16.99,13.38,25.14,20.48,1.18,1.03,2.3,2.13,3.2,3.67-7.8,.17-15.09-1.66-22.25-4.05-17.47-5.83-35.07-10.27-53.8-8.29-17.03,1.8-34.11,3.21-51.19,4.44-11.58,.84-21.6,4.77-29.87,12.99-6.29,6.25-14.04,5.01-23.85-.63-7.76-4.46-15.35-6.3-24.14-5.9-10.62,.49-21.25,.55-32.29,1.88,3.93-9.51,8.54-16.72,19.53-18.84Zm108.53,31.37c1.47,.44,2.77,1.5,2.24,3.31-.48,1.69-1.84,2.25-3.54,1.87-1.3-.29-2.73-.35-3.85-.97-5.47-2.98-8.9,1.13-12.83,3.52-.27,.16-.57,.38-.69,.65-1.85,4.29-1.77,4.11-6.82,2.24-2.1-.78-4.57-.48-6.84-.87-6.83-1.16-9.59-7.41-5.37-12.93,3.56-4.66,7.87-8.13,14.41-8.64,9.72-.76,19.46,.2,29.16-.73,1.2-.11,3.47-.65,3.65,1.4,.12,1.39-1.79,1.78-3.01,2.17-3.16,1-6.33,1.97-9.54,2.76-2.3,.57-3.94,1.62-4.37,4.54,2.59,.56,5.05,.96,7.42,1.67Zm-119.24,4.63c1.18,.64,2.63,1.45,2.41,2.84-.27,1.78-2.14,2.08-3.59,1.94-3.13-.3-6.22-.96-9.34-1.39-1.64-.23-3.4-.7-4.93-.32-2.47,.62-4.51,2.64-5.41,4.72-.7,1.6,2.06,2.63,3.3,3.88,1.75,1.76,3.72,3.31,5.35,5.17,.79,.91,1.74,2.37,.45,3.57-1.13,1.05-2.23-.08-3.06-.72-2.89-2.23-5.83-4.43-8.45-6.96-2.98-2.88-5.43-2.54-7.71,.6-.61,.84-.95,1.82-2.2,1.36-3.32-1.23-7.3-9.1-6.83-13.42,.78-7.08,1.93-8.24,9.2-9.27,2.63-.37,5.25-.77,6.52-.96,5.51-.34,9.49-.37,10.89,4.76,.42,1.53,1.78,1.16,2.87,1.38,3.57,.71,7.24,1.06,10.52,2.83Zm331.79,547.61c.61,.3,1.04,.8,.85,1.77-.33,.08-.9,.38-1.1,.22-.32-.26-.53-.81-.56-1.26-.03-.41,.08-1.09,.81-.73Zm70.26-12.99c-4.65,2.52-8.44,5.37-10.26,10.29-4.8,12.98-15.06,15.72-27.3,14.85-3.73-.27-7.45-.72-11.41-1.11,.97-2.4,2.83-2.51,4.19-3.25,2.51-1.36,3.98-3.2,2.75-6.06-1.26-2.92-3.91-3.09-6.37-2.09-4.3,1.76-8.45,3.91-12.66,5.88-.74,.34-1.5,.62-2.07,.85-1.06-.46-1.1-1.26-.8-1.76,3.65-6.01,.93-10.51-3.06-15.11-4.5-5.19-7.03-11.66-10.41-17.59-1.42-2.49-1.35-4.99,.47-6.97,7.89-8.58,7.74-17.91,6.09-29.16-3.36-22.86-.05-45.77,3.92-68.53,2.35-13.49,6.54-26.47,9.46-39.78,.99-4.49-.21-7.13-4.15-9.41-11.71-6.79-21.18-16.03-28.66-27.35-2.36-3.57-2.81-6.87-.45-10.63,5.02-8,8.29-17.1,15.26-23.89,1.47-1.43,1.92-3.41,1.19-5.56-6.5-19.16-10.55-38.87-11.87-59.02-.42-6.38-2.74-10.95-7.03-15.19-4.02-3.98-7.69-8.28-11.07-12.85-1.62-2.2-2.05-3.95-.42-6.22,1.46-2.02,2.62-4.25,4.06-6.28,3.93-5.52,3.83-7.44-1.11-11.83-9.09-8.08-18.03-16.31-26.48-25.07-6.75-6.99-12.87-14.42-17.54-22.95-4.31-7.88-8.39-15.89-12.64-23.81-1.35-2.51-1.86-5.01-.54-7.62,5.33-10.54,9.22-21.78,15.31-31.95,.9-1.51,1.37-3.37,3.84-3.3,2.73,.08,4.46-1.48,4.53-4.25,.07-2.73-1.74-4.1-4.18-4.9-10.62-3.49-19.77-9.43-27.97-16.93-3.44-3.15-6.87-6.29-9.47-10.24-1.1-1.67-1.66-3.09-.56-5.03,3.44-6.08,6.59-12.39,11.43-17.51,3.1-3.29,2.5-5.76-.71-8.31-6.66-5.28-6.78-5.7-3.57-13.1,1.12-2.58,2.11-5.28,3.64-7.61,2.84-4.34,1.47-7.54-2.2-10.3-7.04-5.31-14.14-10.55-21.19-15.86-1.73-1.3-3.35-2.74-4.96-4.19-7.19-6.49-7.04-9.09,1.4-13.97,2.78-1.61,5.4-3.84,8.94-4.05,1.83-.11,2.92-1.48,3.34-3.26,2.17-9.06,4.41-18.1,3.17-27.56-.46-3.55-2.18-6.21-5.18-8.08-.42-.26-1.16-.28-1.33-.62-4.76-9.52-14.25-7.03-21.86-7.9-20.11-2.27-40.21-.58-60.21,2.28-20.06,2.87-40.2,5.23-60.2,8.49-9.14,1.49-18.03,4.55-27.02,6.97-13.01,3.5-26.05,6.87-38.67,11.66-8.62,3.28-11.66,7.4-11.69,16.48-.03,6.98-.53,14.02,1.17,20.9,.57,2.32-.61,3.72-1.93,5.3-5.28,6.27-10.12,12.84-12.31,20.91-.66,2.44-2.47,2.34-4.25,2.57-5.77,.75-11.54,1.53-17.32,2.25-2.97,.37-5.47,1.39-6.82,4.3-7.8,16.93-9.48,34.33-.04,50.77,3.25,5.66,4.79,9.81,3.93,16.31-3.54,26.56,6.22,48.94,23.41,68.6,5.59,6.4,11.44,12.53,17.75,18.26,8.52,7.74,18.36,12.99,29.82,16.47-16.57,11.55-30.03,25.6-44.55,38.43-6.26,5.53-14.3,9.04-21.56,13.44-.66,.4-1.42,.89-2.27,.23-5.04-3.94-10.13-1.89-15.08,.1-4.89,1.97-10.1,3.54-13.27,8.32-.54,.82-1.22,.95-2.02,.21-3.09-2.88-6.91-2.93-10.69-2.48,3.67-15.53,9.64-30,16.28-44.21,.56-1.19,1.13-2.47,2.02-3.4,4.4-4.55,4.11-5.49-.18-9.81-13.28-13.37-25.24-27.81-35.01-44.04-7.03-11.68-12.44-23.83-14.6-37.38-1.09-6.84-.31-13.26,2.87-19.39,3.99-7.71,8.62-15.09,13.83-21.96,11.18-14.72,21.29-30.25,33.62-44.09,1-1.12,1.93-2.3,2.83-3.5,.78-1.04,1.89-2.11,1.08-3.56-.82-1.48-2.38-2.21-3.84-1.57-2.82,1.25-4.22-.47-5.97-2.08-5.9-5.44-11.67-10.97-15.25-18.32-1.12-2.3-3.02-4.85,1.48-5.93,.76-.18,1.77-1.42,1.79-2.19,.19-7.35,6.67-9.09,11.23-12.01,5.73-3.67,6.29-3.94,2.56-9.79-9.32-14.59-15.53-30.49-19.91-47.16-.42-1.59-.71-3.28-.7-4.91,.04-6.7,1.25-7.51,7.9-8.27,5.72-.65,11.28,.97,16.93,.42,2.23-.22,3.3,1.21,4.41,2.69,7.61,10.16,18.62,12.93,30.39,13.42,6.46,.27,12.97-.48,19.45-.89,4.55-.29,5.79-2.08,5.11-6.96,0,0,0,0,0,0,0,0,0,0,0,0-3.17-2.49-6.84-2.1-10.51-1.91-6.78,.36-13.5,1.61-20.34-.05-13.91-3.37-22.73-12.45-25.26-26.67-4.67-26.23-.92-51.41,10.48-75.3,5.08-10.64,12.15-19.73,24.9-22.54,4.38-.96,7.21-.46,9.75,3.36,7.78,11.72,12.63,24.87,18.61,37.46,5.49,11.56,10.8,23.19,17.78,33.99,4.05,6.27,8.89,11.46,15.58,14.84,2.97-2.39,.74-4.75-.15-7.02-.34-.86-1.46-1.37-2-2.19-2.39-3.6-5.7-6.98-6.77-10.96-1.26-4.68,4.28-6.3,6.87-9.05,22.13-23.46,47.89-42.26,75.97-57.95,8.85-4.95,17.63-10.07,27.17-13.7,7.9-3.01,8.56-2.75,12.26,4.7,6.5,13.06,10.71,26.86,13.49,41.11,1.73,8.86,4.14,10.46,13.08,8.04,.74-.2,1.53-.22,3.11-.44-10.41,12.47-19.02,25.39-29.93,36.44-2.69,2.73-4.93,5.46-5.79,9.57-.77,3.7,.63,4.46,3.47,4.96,12.65,2.23,24.85,6.02,36.65,11.06,2.44,1.04,5.25,1.78,7.12,3.5,11.75,10.81,25.45,10.43,39.55,7.02,17.14-4.15,33.17-10.67,46.77-22.47,6.66-5.77,11.07-12.76,14.17-20.78,.8-2.07,1.24-3.88,4.32-3.61,2.89,.26,3.32,.81,2.88,3.82-5.09,34.79-8.59,69.71-8.73,104.92-.04,10.99-1.11,22.03-.41,32.97,2.61,41.01,1.2,82.2,5.65,123.14,3.58,32.96,8.76,65.6,15.24,98.14,4.98,24.97,10,49.88,16.72,74.41,9.43,34.4,21.69,67.86,37.05,100.01,9.38,19.64,20.67,38.36,31.03,57.54,14.44,26.74,32.2,51.31,49.68,76.06,1.01,1.43,2.39,2.6,4.05,4.36-17.89,10.23-33.51,23.7-51.54,33.46Zm69.82-50.51c-3.81,4.2-7.9,8.11-12.62,11.57-9.58-13.82-18.85-27.22-28.15-40.61-14.36-20.69-25.82-43.08-38.28-64.89-16.64-29.13-30.19-59.63-41.16-91.25-5.66-16.31-11.47-32.67-15.26-49.55-2.84-12.64-4.61-25.51-6.98-38.26-3.28-17.67-8.99-34.79-11.86-52.56-5.28-32.7-9.66-65.48-11.89-98.58-1.68-24.96-2.95-49.89-2.6-74.88,.21-14.99,1.16-30-.18-44.95-2.98-33.27,2.31-66.01,5.77-98.88,.42-3.97,.92-7.94,1.22-11.93,.18-2.47,1.18-3.51,3.76-3.4,5.16,.22,10.33,.27,15.49,.25,2.15,0,2.97,.54,2.48,2.89-8.99,43.54-8.51,87.72-9.05,131.84-.5,41.03,.69,82.05,6.65,122.64,5.48,37.35,10.98,74.72,19.19,111.66,8.63,38.85,17.77,77.48,32.59,114.52,17.61,44.01,40.81,85.15,64.89,125.84,8.71,14.71,17.21,29.54,26.69,43.78,1.42,2.13,.55,3.37-.69,4.74Zm41.6-205.03c-8.72,31.7-20.18,62.32-36.82,90.81-2.22,3.8-2.69,7.12-.73,11.19,2.44,5.06,5.24,9.99,6.35,15.67,.65,3.3,.41,5.63-2.4,7.86-2.99,2.36-5.54,5.28-8.28,7.96-1.51,1.48-2.85,3.45-1.8,5.33,3.24,5.79,2.84,12.25,3.64,18.42,1.29,9.97,2.94,19.95,2.16,30.15-17.93-26.31-33.68-53.7-48.95-81.35-22.74-41.17-42.57-83.54-55.05-129.16-13.8-50.48-23.19-101.76-31.08-153.46-8.39-54.93-9.29-110.12-9.17-165.42,.06-29.31,.83-58.63,3.58-87.85,.64-6.79,1.5-13.56,2.09-20.35,.2-2.35,1.49-2.53,3.33-2.6,17.34-.64,34.63,.03,51.9,1.7,2.87,.28,3.48,1.81,3.91,4.16,1.88,10.32,1.2,20.45-1.04,30.7-4.34,19.84-5.73,40.2-10.21,60.03-.33,1.46-.71,2.92-.94,4.39-.78,5.1,.51,6.49,5.59,7,5.12,.51,10.19,1.32,15.11,3.04,3.76,1.32,5.08,3.54,4.86,7.47-.61,11.3-3.35,22.01-8.12,32.23-1.54,3.3-3.1,6.62-4.93,9.77-1.46,2.5-.02,4.07,1.26,5.8,6.89,9.36,16.36,16.09,24.68,23.99,16.18,15.37,32.51,30.56,47.53,47.1,6.03,6.64,7.5,13.76,4.61,22.1-5.78,16.69-12.91,32.79-21.28,48.34-5.25,9.77-5.2,11.43,2.25,19.74,4.57,5.1,8.92,10.31,12.51,16.17,1.46,2.38,2.19,4.38,.02,6.63-.45,.46-.67,1.15-.99,1.73-5.09,9-4.76,12.69,3.04,19.88,14.92,13.77,25.63,31.02,38.76,46.26,9.01,10.45,7.92,22.51,4.6,34.57Z" fill="#322625"/><path d="M205.01,130.91c3.52,.86,5.43,2.88,6.86,5.85,1.37,2.84,2.74,5.69,4.19,8.5,1.11,2.16,2.68,3.94,5.33,3.91,2.78-.03,4.57-1.71,5.77-4.1,1.7-3.42,3.28-6.91,5.17-10.22,2.69-4.72,5.79-8.85,12.16-8.89,2.88-.02,4.91-1.93,5.1-5.26-.1-2.25-1.24-3.92-3.43-4.92-2.86-1.32-5.65-2.79-8.54-4.04-5.66-2.44-8.31-6.83-8.67-12.84-.13-2.15-.55-4.29-.68-6.44-.19-3.26-1.62-5.65-5.02-5.66-3.6-.01-4.66,2.93-4.84,5.88-.75,12.29-6.77,21.92-15.03,30.47-3.69,3.83-3.31,6.55,1.64,7.77Z" fill="#f5d543"/><path d="M156.57,109.45c3.4-.31,3.94,1.33,3.7,4.11-.2,2.33,0,4.68,.94,6.85,.97,2.2,2.73,3.4,5.18,2.97,2.53-.44,3.63-2.27,3.55-4.68-.07-2.15-.4-4.29-.74-6.42-.63-3.86-.13-6.54,4.85-6.11,2.27,.2,4.51-.88,4.4-3.63-.11-2.74-2.32-3.67-4.66-3.2-5.49,1.11-7.12-1.5-6.92-6.42,.07-1.65-.09-3.45-2.45-3.58-1.7,.19-2.82,1.17-3.2,2.73-.48,1.92-1.1,3.94-.92,5.85,.33,3.61-.78,5.62-4.53,6.15-1.93,.27-4.46,.86-4.13,3.39,.36,2.69,3.16,2.15,4.93,1.99Z" fill="#f5d545"/><path d="M676.19,856.28c-2.58,.4-4.02-1.41-4.39-3.8-.85-5.41-2.19-10.72-3-16.17-1.57-10.56-.12-21.72-6.11-31.49-3.52-5.74-2.8-11.43,1.28-16.75,1.62-2.11,2.97-4.45,4.73-6.43,1.31-1.47,1.36-2.66,.77-4.47-2.33-7.18-3.21-14.61-3.29-22.15-.35-32.41,4.04-64.09,14.76-94.75,1.48-4.23,.63-6.36-3.17-8.72-12.66-7.86-22.81-18.3-30.2-31.31-2.35-4.14-3.08-8.36-.75-12.83,4.17-7.97,8.42-15.92,13.99-22.99,2.12-2.69,2.52-4.89,1.65-8.12-5.08-18.82-9.69-37.76-10.4-57.37-.13-3.5-1.03-5.96-3.76-8.51-3.98-3.71-6.89-8.53-10.57-12.6-5.4-5.97-5.4-12.04-.28-17.8,3.98-4.47,1.85-6.81-1.78-9.77-23.91-19.43-42.68-42.85-55.09-71.21-2.04-4.66-3.29-9.25-1.03-13.92,5.13-10.63,9.18-21.83,15.9-31.62,2.55-3.71,1.66-4.91-2.04-6.77-12.38-6.23-22.68-14.99-30.53-26.56-2.78-4.09-2.75-7.93-.6-12.17,2.57-5.08,5.9-9.65,9.11-14.31,.64-.93,1.72-2.73,1.56-2.86-3.45-2.81-5.13-8.54-9.27-9.19-9.83-1.55-19.71-3.27-29.72-3.57-2.73-.08-3.61,.78-3.98,3.57-.99,7.44-3.12,14.44-7.33,20.96-6.79,10.51-16.41,17.12-27.23,22.73-13.36,6.92-26.79,11.42-42.1,7.04-9.22-2.64-18.24-5.31-25.31-12.18-7.74-7.51-13.46-16.46-18.1-26.13-2.09-4.36-8.95-5.33-11.76-1.52-3.96,5.35-8.19,10.53-11.68,16.18-3.76,6.09-8.62,8.09-15.57,6.89-9.91-1.71-19.89-1.94-29.75,.69,1.45,2.5,4.29,.42,6.07,1.83,0,0,0,0,0,0,4.37,.22,8.55,1.49,12.49,3.17,8.05,3.43,9.96,9.75,5.86,17.52-1.85,3.49-5.07,5.67-7.56,8.54-8.53,9.82-23.94,12.09-34.63,4.82-3.19-2.17-6.22-4.59-9.57-7.08-.13,1.07-.26,1.56-.25,2.05,.03,1,.17,1.99,.21,2.99,.6,19.24,9.09,35.01,21.01,49.57,17.28,21.12,38.4,35.2,66.06,38.1,9.78,1.02,19.61,1.29,29.44,1.44,2.99,.04,5.9,1.03,5.85,4.73-.05,3.87-3,4.24-6.05,4.22-12.66-.1-25.33-.24-37.83-2.63-2.72-.52-5.12-.11-7.67,1.19-7.52,3.85-13.84,9.21-19.88,14.97-16.52,15.73-33.27,31.18-54.02,41.36-2.56,1.26-3.08,3.24-3.27,5.63-.9,11.53-.43,22.94,2.87,34.14,.52,1.75,1.23,2.38,2.96,2.63,12.52,1.81,25.01,3.96,37.74,3.27,2.62-.14,5.04-.37,6.52-3.48,1.18-2.49,3.49-1.96,4.22,.67,.5,1.79,1.13,3.96-.3,5.76-1.63,2.07-1.75,4.59-2.38,6.99-3.02,11.61-4.92,23.44-7.17,35.21-5.28,27.55-8.77,55.18-7.1,83.38,1.58,26.78,8.04,51.88,22.46,74.68,4.35,6.87,8.64,13.7,14.42,19.66,5.34,5.52,11.27,10.3,16.81,15.54,2.84,2.69,3.83,5.67-.34,8.05-1.67,.95-1.59,2.34-1.85,3.78-1.05,5.9-2.08,11.8-3.19,17.69-1.54,8.18-3.14,16.35-4.73,24.52-.48,2.46-1.56,4.52-4.27,4.89-2.61,.36-4.11-1.27-4.59-3.62-.44-2.15-1.47-2.12-3.19-1.57-2.57,.82-4.47,2.2-5.09,4.94-.69,3.03,1.05,4.7,3.51,5.83,2.87,1.31,3.21,3.45,2.41,6.21-1.8,6.11,.26,9.15,6.53,9.57,2.32,.16,4.68,.14,6.99-.08,4.52-.42,8.44,.61,12.05,3.52,3.51,2.84,7.92,3.7,11.68,1.23,4.42-2.9,9.26-4.23,14.12-5.82,3.79-1.24,6.15-6.11,4.07-9.15-2.23-3.27-1.23-5.98-.03-8.91,3.25-7.91,7.98-14.97,12.76-21.99,3.4-4.99,6.95-9.87,10.92-15.51-3.28,0-5.62,.18-7.91-.05-2.2-.22-5.24,.06-5.19-3.28,.04-2.76,2.57-3.06,4.78-3.34,17.91-2.27,35.92-2.64,53.87-1.57,20.43,1.21,40.84,3.12,61.2,5.33,7.43,.81,15.32,.62,21.93,5.42,8.92,6.48,16.77,14.2,25.23,21.21,6.25,5.18,10.42,11.97,15.34,18.19,1.79,2.27,2.89,5.06,.23,7.1-3.65,2.8-2.13,6.01-1.27,9.04,.85,3.01,3.42,4.59,6.48,4.6,3.62,.01,6.21,1.3,8.56,4.13,2.77,3.33,8.93,4.33,11.79,1.61,3.98-3.78,8.3-3.75,12.92-2.64,2.96,.71,5.05-.04,7.2-2.06,2.83-2.67,4.54-6.33,8.41-8.18,2.61-1.25,2.72-4.4,1.9-7.15-.82-2.75-2.71-3.28-5.45-2.86Zm-152.45-513.57c3.04,1.26,5.57,3.45,7.84,5.84,1.09,1.15,1.23,2.66,.32,4.11-.81,1.3-1.84,2.3-3.07,2.47-3.29,.09-9.98-6.53-9.57-9.36,.34-2.38,1.85-4.14,4.48-3.05Zm-18.11,2.52c3.75,.28,11.68,9.97,11.01,13.61-.35,1.91-1.57,3.28-3.5,3.88-2.09,.65-3.69-.36-4.71-1.93-2.27-3.47-4.44-7.03-6.4-10.69-1.59-2.97,.12-5.14,3.6-4.88Zm-19.51,5.97c.21-1.84,.63-3.79,3.02-3.85,2.12-.05,3.38,1.35,3.78,3.29,.73,3.54,1.25,7.13,1.92,11.02-.3,1.86-.67,4.15-3.32,4.53-2.59,.37-3.97-1.3-4.43-3.68-.72-3.73-1.4-7.48-.97-11.3Zm139.2,391.89c-4.16,17.22-15.98,27.38-30.82,34.82-7.66,3.84-16.34,4.1-24.68,5.21-4.9,.65-9.83,1.96-12.63,1.33-21.54-.78-40.12-4.51-57.4-13.41-5.03-2.59-10.77-3.53-15.36-7.05-.94-.72-2.08-1.02-3.16,.03-12.92,12.53-29.59,15.85-46.41,17.97-8.94,1.13-17.62-1.98-26.06-5.31-15.39-6.08-25.24-17.71-31.65-32.17-7.08-15.96-12-32.62-12.18-50.42-.22-20.76,12.31-40,32.54-47.37,15.45-5.63,31.71-6.23,47.66-3.2,12.61,2.4,22.99,10.16,32.52,18.58,1.96,1.74,2.76,2.1,4.74,.34,17.63-15.76,39.08-23.77,61.61-28.79,12.11-2.7,24.01-.59,35.75,4.74,22.57,10.25,35.21,28.47,43.98,50.42,4.11,10.29,6.06,20.98,6.23,32.02,.12,7.78-2.89,14.89-4.68,22.29Zm11.27-138.65c-9.92,9.14-20.72,17.04-34.26,19.47-17.39,3.13-33.4-.05-46.52-12.89-3.9-3.82-6.41-8.54-7.42-13.89-.46-2.45-1.31-3.82-3.86-4.28-18.3-3.3-38.4-27.65-39.5-50.72-.46-9.56-.86-19.13,1.33-28.28,4.81-20.09,16.27-35.38,36.28-42.5,13-4.62,26.68-6.31,40.33-3.12,8.54,1.99,17.53,4.32,24.02,10.3,5.49,5.06,9.54,11.86,13.48,18.35,7.56,12.44,14.01,25.4,13.68,40.58,1.3,8.11-1.57,15.4-4.54,22.68-.51,1.25-1.88,2.28-.07,3.82,6.5,5.51,9.91,12.79,11.33,21.05,.29,1.66,.73,2.54,2.55,3.01,3.68,.96,3.41,3.65,1.97,6.29-2.19,4-5.5,7.08-8.81,10.13Z" fill="#fdebd1"/><path d="M744.96,700.96c-10.35-19.18-21.64-37.9-31.03-57.54-15.37-32.16-27.63-65.61-37.05-100.01-6.72-24.53-11.75-49.45-16.72-74.41-6.48-32.54-11.66-65.18-15.24-98.14-4.45-40.93-3.04-82.12-5.65-123.14-.7-10.94,.37-21.98,.41-32.97,.14-35.21,3.64-70.14,8.73-104.92,.44-3.01,0-3.56-2.88-3.82-3.08-.28-3.52,1.53-4.32,3.61-3.09,8.02-7.51,15.01-14.17,20.78-13.6,11.79-29.63,18.31-46.77,22.47-14.1,3.42-27.8,3.8-39.55-7.02-1.87-1.72-4.68-2.46-7.12-3.5-11.8-5.05-23.99-8.83-36.65-11.06-2.84-.5-4.24-1.26-3.47-4.96,.86-4.11,3.1-6.84,5.79-9.57,10.91-11.05,19.52-23.97,29.93-36.44-1.58,.22-2.37,.24-3.11,.44-8.94,2.42-11.35,.82-13.08-8.04-2.78-14.25-6.99-28.05-13.49-41.11-3.71-7.45-4.36-7.71-12.26-4.7-9.54,3.63-18.32,8.75-27.17,13.7-28.07,15.69-53.83,34.49-75.97,57.95-2.6,2.75-8.14,4.38-6.87,9.05,1.07,3.97,4.38,7.36,6.77,10.96,.54,.82,1.66,1.33,2,2.19,.89,2.27,3.12,4.63,.15,7.02,.04,1.86,0,3.7-1.01,5.35,0,0,0,0,0,0,1.14-.18,2.29-.52,3.42-.48,.75,.02,1.73,.39,2.18,.94,.81,.99-.05,1.96-.78,2.54-2.06,1.66-4.4,3-6.34,4.78-7.96,7.34-15.38,15.21-22.32,23.53-3.94,4.72-6.91,4.34-9.41-1.32-2.24,.48-4.49,.97-6.73,1.45,0,0,0,0,0,0,.68,4.88-.56,6.67-5.11,6.96-6.48,.41-12.99,1.16-19.45,.89-11.77-.49-22.78-3.26-30.39-13.42-1.11-1.48-2.18-2.9-4.41-2.69-5.65,.55-11.21-1.07-16.93-.42-6.66,.76-7.87,1.57-7.9,8.27,0,1.64,.29,3.32,.7,4.91,4.38,16.67,10.59,32.57,19.91,47.16,3.74,5.85,3.17,6.12-2.56,9.79-4.56,2.92-11.05,4.66-11.23,12.01-.02,.77-1.04,2.01-1.79,2.19-4.5,1.07-2.6,3.63-1.48,5.93,3.58,7.35,9.35,12.88,15.25,18.32,1.75,1.61,3.15,3.33,5.97,2.08,1.46-.64,3.02,.09,3.84,1.57,.81,1.45-.3,2.52-1.08,3.56-.9,1.2-1.83,2.38-2.83,3.5-12.32,13.84-22.44,29.37-33.62,44.09-5.22,6.87-9.84,14.25-13.83,21.96-3.18,6.13-3.96,12.55-2.87,19.39,2.16,13.55,7.57,25.7,14.6,37.38,9.77,16.23,21.73,30.67,35.01,44.04,4.29,4.32,4.57,5.26,.18,9.81-.89,.92-1.46,2.21-2.02,3.4-6.65,14.21-12.62,28.68-16.28,44.21,3.78-.45,7.6-.4,10.69,2.48,.79,.74,1.47,.62,2.02-.21,3.16-4.78,8.38-6.35,13.27-8.32,4.95-2,10.03-4.04,15.08-.1,.85,.66,1.6,.17,2.27-.23,7.25-4.4,15.3-7.91,21.56-13.44,14.53-12.83,27.98-26.88,44.55-38.43-11.46-3.47-21.3-8.72-29.82-16.47-6.31-5.73-12.16-11.86-17.75-18.26-17.18-19.66-26.95-42.05-23.41-68.6,.87-6.5-.68-10.65-3.93-16.31-9.44-16.43-7.76-33.83,.04-50.77,1.34-2.91,3.85-3.93,6.82-4.3,5.78-.72,11.55-1.5,17.32-2.25,1.79-.23,3.59-.13,4.25-2.57,2.19-8.07,7.03-14.64,12.31-20.91,1.33-1.58,2.51-2.98,1.93-5.3-1.7-6.88-1.19-13.92-1.17-20.9,.03-9.08,3.07-13.21,11.69-16.48,12.62-4.79,25.67-8.16,38.67-11.66,8.98-2.42,17.87-5.48,27.02-6.97,20-3.26,40.14-5.62,60.2-8.49,20-2.86,40.1-4.55,60.21-2.28,7.61,.86,17.1-1.63,21.86,7.9,.17,.34,.92,.36,1.33,.62,3,1.87,4.72,4.52,5.18,8.08,1.23,9.46-1,18.5-3.17,27.56-.43,1.78-1.52,3.16-3.34,3.26-3.54,.21-6.16,2.44-8.94,4.05-8.44,4.88-8.59,7.48-1.4,13.97,1.61,1.45,3.23,2.89,4.96,4.19,7.04,5.31,14.14,10.55,21.19,15.86,3.66,2.76,5.04,5.96,2.2,10.3-1.53,2.33-2.52,5.03-3.64,7.61-3.21,7.39-3.09,7.82,3.57,13.1,3.21,2.55,3.82,5.02,.71,8.31-4.84,5.12-7.98,11.43-11.43,17.51-1.1,1.94-.53,3.36,.56,5.03,2.6,3.95,6.03,7.1,9.47,10.24,8.2,7.5,17.35,13.43,27.97,16.93,2.44,.8,4.25,2.17,4.18,4.9-.07,2.77-1.8,4.33-4.53,4.25-2.47-.07-2.94,1.8-3.84,3.3-6.09,10.18-9.98,21.41-15.31,31.95-1.32,2.61-.81,5.11,.54,7.62,4.25,7.92,8.33,15.92,12.64,23.81,4.66,8.54,10.78,15.96,17.54,22.95,8.46,8.76,17.39,17,26.48,25.07,4.94,4.39,5.03,6.32,1.11,11.83-1.44,2.03-2.6,4.26-4.06,6.28-1.64,2.27-1.21,4.02,.42,6.22,3.38,4.57,7.05,8.88,11.07,12.85,4.28,4.24,6.61,8.81,7.03,15.19,1.32,20.15,5.36,39.86,11.87,59.02,.73,2.15,.27,4.13-1.19,5.56-6.97,6.78-10.25,15.88-15.26,23.89-2.35,3.76-1.91,7.05,.45,10.63,7.47,11.32,16.94,20.55,28.66,27.35,3.94,2.29,5.13,4.93,4.15,9.41-2.93,13.31-7.11,26.29-9.46,39.78-3.97,22.76-7.28,45.66-3.92,68.53,1.65,11.25,1.8,20.58-6.09,29.16-1.82,1.99-1.89,4.48-.47,6.97,3.38,5.92,5.91,12.4,10.41,17.59,3.99,4.6,6.71,9.1,3.06,15.11-.3,.49-.26,1.3,.8,1.76,.56-.23,1.33-.51,2.07-.85,4.22-1.97,8.36-4.12,12.66-5.88,2.45-1,5.11-.84,6.37,2.09,1.23,2.86-.23,4.7-2.75,6.06-1.37,.74-3.22,.85-4.19,3.25,3.96,.39,7.68,.85,11.41,1.11,12.24,.87,22.51-1.87,27.3-14.85,1.82-4.92,5.61-7.77,10.26-10.29,18.03-9.77,33.65-23.23,51.54-33.46-1.65-1.76-3.04-2.93-4.05-4.36-17.48-24.75-35.24-49.32-49.68-76.06Z" fill="#d4e062"/><path d="M815.2,478.47c-7.8-7.2-8.13-10.88-3.04-19.88,.33-.58,.55-1.26,.99-1.73,2.17-2.25,1.44-4.25-.02-6.63-3.59-5.86-7.94-11.07-12.51-16.17-7.45-8.31-7.51-9.97-2.25-19.74,8.37-15.55,15.5-31.64,21.28-48.34,2.89-8.34,1.43-15.45-4.61-22.1-15.02-16.54-31.35-31.74-47.53-47.1-8.32-7.9-17.78-14.63-24.68-23.99-1.28-1.73-2.72-3.3-1.26-5.8,1.83-3.15,3.39-6.46,4.93-9.77,4.77-10.22,7.5-20.93,8.12-32.23,.21-3.94-1.1-6.16-4.86-7.47-4.93-1.72-9.99-2.53-15.11-3.04-5.08-.51-6.37-1.9-5.59-7,.23-1.48,.61-2.93,.94-4.39,4.47-19.83,5.87-40.2,10.21-60.03,2.25-10.26,2.93-20.38,1.04-30.7-.43-2.35-1.04-3.88-3.91-4.16-17.27-1.67-34.56-2.34-51.9-1.7-1.84,.07-3.13,.25-3.33,2.6-.58,6.79-1.45,13.56-2.09,20.35-2.75,29.22-3.52,58.54-3.58,87.85-.12,55.3,.78,110.48,9.17,165.42,7.9,51.7,17.28,102.97,31.08,153.46,12.47,45.62,32.31,87.99,55.05,129.16,15.27,27.66,31.03,55.04,48.95,81.35,.78-10.2-.87-20.18-2.16-30.15-.8-6.17-.4-12.63-3.64-18.42-1.05-1.88,.29-3.85,1.8-5.33,2.74-2.68,5.29-5.59,8.28-7.96,2.81-2.22,3.05-4.55,2.4-7.86-1.11-5.69-3.91-10.61-6.35-15.67-1.96-4.07-1.49-7.39,.73-11.19,16.65-28.48,28.1-59.11,36.82-90.81,3.32-12.06,4.41-24.12-4.6-34.57-13.14-15.24-23.84-32.49-38.76-46.26Z" fill="#d4e062"/><path d="M301.64,637.18c.4-1.45-.35-2.59-.65-3.86-1.42-5.97-5.13-10.97-6.85-16.91-6.12-21.1-13.65-41.78-22.14-62.02-8.51-20.29-12.21-42.01-20.06-62.44-.66-1.71-1.37-3.41-1.79-5.19-.57-2.45-2.85-5.72-.05-7.26,3.32-1.84,3.49,2.96,5.93,4.44,3.66-5.65,9.08-9.98,12.78-15.56,3.46-5.23,5.49-11.38,9.31-16.48,.83-1.1,1.69-2.2,.37-3.49-3.14-3.09-6.3-6.15-9.81-9.58-.71,2.48-1.16,4.23-1.7,5.96-6.8,21.69-24.14,32.04-43.16,34.87-11.45,1.7-23.17,.82-34.67-2.31-22.3-6.09-43.19-14.56-59.92-31.25-5.77-5.76-11.74-11.34-17.86-16.73-8.41-7.41-16-15.6-22.73-24.48-9.68-12.79-17.12-26.8-22.92-41.87-6.58-17.13-13.11-34.03-14.26-52.69-1.22-19.82-3.12-39.69,1.8-59.15,8.17-32.31,23.41-60.03,53.74-77.04,15.36-8.62,31.62-12.74,48.93-7.74,12.4,3.59,24.32,8.14,35.17,15.99,19.36,14,37.21,29.39,50.35,49.39,10.4,15.84,18.6,32.99,26.77,51.73,1.07-1.55,1.54-2.46,2.21-3.17,6.16-6.5,6.12-6.43-.41-12.66-6.82-6.51-12.57-13.78-15.37-22.99-1.16-3.82-1.28-7.65,1.37-10.91,1.5-1.84,.91-3.17,0-4.92-11.3-21.45-26.11-40.07-44.45-55.94-4.93-4.26-9.85-8.5-15.52-11.7-9.98-5.64-19.79-11.56-29.85-17.08-19.63-10.78-39.34-9.54-58.98-1.09-31.27,13.46-51.02,38.32-64.81,68.35-12.44,27.1-19.89,55.38-17.5,85.63,1.59,20.1,2.69,40.21,11.86,58.82,3.97,8.05,8.21,15.96,11.77,24.24,4.59,10.68,9.62,21.17,16.79,30.53,6.83,8.92,14.9,16.63,22.87,24.41,18.14,17.74,39,31.52,62.1,42.03,10.48,4.76,21.46,8.11,32.11,12.41,10.38,4.19,20.55,8.89,31.11,13.51-.3-2.6-1.29-5.27,1.58-5.99,2.32-.58,2.65,2.17,3.46,3.58,9.92,17.42,16.72,36.27,23.83,54.86,8.43,22.05,16.39,44.3,24.82,66.36,2.49,6.53,5.48,12.88,7.76,19.47,1.91,5.52,4.82,8.12,10.63,8.12,4.52,0,14.85-7.92,16.04-12.2Z" fill="#69a0c0"/><path d="M790.97,715.81c-24.08-40.68-47.28-81.82-64.89-125.84-14.82-37.05-23.96-75.67-32.59-114.52-8.21-36.94-13.71-74.32-19.19-111.66-5.96-40.59-7.14-81.61-6.65-122.64,.53-44.12,.06-88.31,9.05-131.84,.49-2.35-.33-2.9-2.48-2.89-5.16,.02-10.33-.03-15.49-.25-2.58-.11-3.58,.93-3.76,3.4-.3,3.98-.8,7.95-1.22,11.93-3.46,32.87-8.75,65.61-5.77,98.88,1.34,14.94,.39,29.95,.18,44.95-.35,24.99,.92,49.92,2.6,74.88,2.23,33.11,6.61,65.88,11.89,98.58,2.87,17.77,8.58,34.89,11.86,52.56,2.37,12.75,4.14,25.62,6.98,38.26,3.79,16.88,9.6,33.24,15.26,49.55,10.97,31.61,24.53,62.12,41.16,91.25,12.46,21.81,23.93,44.2,38.28,64.89,9.29,13.39,18.57,26.79,28.15,40.61,4.72-3.46,8.81-7.37,12.62-11.57,1.25-1.37,2.11-2.61,.69-4.74-9.47-14.24-17.98-29.07-26.69-43.78Z" fill="#fff"/><path d="M384.3,814.3c1.08-6.23,2.25-12.45,3.54-18.64,.88-4.22-.17-7.41-3.89-9.82-2.08-1.34-4.07-2.95-5.73-4.77-13.11-14.4-23.33-30.66-31.14-48.5-9.36-21.39-11.42-44.17-11.78-66.97-.55-34.71,6.56-68.47,15.37-101.87,1.53-5.79,1.78-5.76-4.48-5.76-6,0-11.99-.06-17.91-1.21-4.22-.82-7.56-1.33-12.22,1.34-10.97,6.28-22.32,3.38-32.77-3-1.06,.45-1.16,1.45-1.36,2.38h0s0,0,0,0c.54,1.57,.98,3.18,1.63,4.7,9.33,22.08,16.01,45.13,24.64,67.47,1.4,3.62,2.08,7.36,.46,11.17-2.55,5.99-6.65,10.81-12.04,14.25-2.83,1.8-2.53,3.11-1.11,5.45,3.11,5.12,5.87,10.46,9.05,15.53,8.21,13.13,16.6,26.15,24.87,39.24,1.87,2.96,3,5.51,1.19,9.59-3.11,7.03-7.46,13.29-10.85,20.1-3.58,7.2-3.3,7.51,1.97,13.36,6.51,7.22,14.76,11.86,22.97,16.57,4,2.29,5.04,5.06,4.01,9.49-1.58,6.79-2.61,13.72-3.73,20.61-.28,1.7-.82,3.87,1.57,4.71,11.12,3.94,22.08,8.5,34.28,7.79,2.39-.14,3.09-1.1,3.46-3.21Z" fill="#d4e062"/><path d="M355.39,236.96c23.3-6.15,46.59-12.32,70.59-15.39,19.96-2.55,39.77-6.41,59.77-8.43,21-2.12,42.08-4.45,63.29-2.44,2.28,.22,4.63-.28,6.94-.55,1.59-.19,2.83-.95,3.23-2.66,1.75-7.42,4.28-14.72,3.73-22.52-.12-1.65-.62-4.34-1.81-4.26-5.65,.41-10.79-2.87-15.92-2.72-12.17,.34-24.22-1.77-30.74-1.22-19.43,.33-33.19,1.2-46.96,2.31-12.71,1.02-24.74,4.89-37.1,7.34-24.33,4.83-48.2,11.29-71.8,18.9-5.37,1.73-7.93,4.81-7.6,10.6,.33,5.98,.27,11.99,.11,17.98-.1,3.53,.94,3.94,4.27,3.06Z" fill="#fff"/><path d="M336.27,263.05c11.04-1.33,21.67-1.39,32.29-1.88,8.8-.4,16.39,1.44,24.14,5.9,9.81,5.64,17.56,6.88,23.85,.63,8.27-8.22,18.29-12.16,29.87-12.99,17.08-1.23,34.16-2.65,51.19-4.44,18.73-1.98,36.33,2.46,53.8,8.29,7.16,2.39,14.45,4.22,22.25,4.05-.9-1.55-2.02-2.64-3.2-3.67-8.16-7.1-17.55-12.66-25.14-20.48-7.66-7.88-8.14-10.38-2.84-19.59-13.55-2.16-26.88,.38-40.25,.83-18.2,.61-35.96,4.36-53.9,6.9-11.2,1.58-22.58,2.22-33.64,4.45-19.71,3.98-39.14,9.36-58.88,13.16-10.99,2.12-15.6,9.33-19.53,18.84Z" fill="#fdebd1"/><path d="M501.67,126.04c2.46,.45,4.2,.8,5.94,1.09,15.35,2.56,30.28,6.41,43.3,15.41,4.32,2.99,8.22,4.24,13.88,3.66,15.49-1.59,29.96-5.71,43.51-13.28,18.44-10.31,27.89-25.77,28.2-47.12,.25-17.63-5.33-33.39-13.95-48.27-3.46-5.97-5.97-12.28-12.83-16.38-10.27-6.14-20.44-6.88-30.06,.23-8.34,6.17-13.46,14.62-17.62,23.8-7.34,16.2-17.38,30.66-28.68,44.28-10.16,12.25-19.42,25.27-31.68,36.58Zm27.92-11.08c3.09-3.94,6.58-7.48,10.41-10.7,10.73-9,18.91-19.92,24.97-32.53,4.26-8.89,10.27-16.7,16.46-24.26,6.4-7.83,17.5-9.74,24.34-2.97,5.81,5.76,12.32,12.23,12.01,21.84,3.68,29.94-13.07,49.68-31.79,58.16-17.83,8.08-36.48,9.47-54.02-2.22-1.07-.71-1.9-1.79-2.84-2.69,0,0,0,0,0,0,0,0,0,0,0,0-2.06-1.78-.69-3.15,.48-4.64Z" fill="#fdebd1"/><path d="M364.2,148.98c6.3-6.17,12.89-12,20.97-15.84,0,0,0,0,0,0,0,0,0,0,0,0,1.02-1.66,1.05-3.5,1.01-5.35-6.69-3.38-11.53-8.57-15.58-14.84-6.97-10.81-12.29-22.43-17.78-33.99-5.98-12.59-10.83-25.74-18.61-37.46-2.54-3.82-5.37-4.33-9.75-3.36-12.74,2.8-19.82,11.9-24.9,22.54-11.4,23.89-15.15,49.07-10.48,75.3,2.53,14.23,11.35,23.31,25.26,26.67,6.84,1.66,13.57,.4,20.34,.05,3.67-.19,7.34-.59,10.51,1.91,0,0,0,0,0,0,2.24-.48,4.49-.97,6.73-1.45,2.28-6.29,7.8-9.77,12.27-14.15Zm-48.09-6.89c-7.94-9.69-10.06-22.06-11.72-33.96-1.41-10.11-1.15-20.59,1.77-30.69,0,0,0,0,0,0,0,0,0,0,0,0,.07-6.37,2.61-11.95,5.79-17.26,3.4-5.68,10.55-6.62,15.31-2,5.06,4.92,7.9,11.17,9.18,17.95,3.78,19.95,13.89,36.47,27.1,51.4,4.63,5.24,4.41,8.71-.73,13-4.36,3.01-7.3,7.57-12.21,10.12-14.28,7.43-24.42,3.72-34.49-8.57Z" fill="#fdebd1"/><path d="M601.37,838.77c-6.09-5.42-11.97-11.08-17.96-16.61-.84-.77-1.77-1.72-2.8-1.95-5.18-1.18-10.35-2.63-15.61-3.1-26.83-2.4-53.58-5.81-80.56-6.65-4.66,0-9.38,.47-13.96-.13-4.64-.61-5.51,2.8-7.28,5.4-2.09,3.09,1.74,3.23,2.6,4.86,.61,1.15,1.54,2.18,2.45,3.13,6.67,6.93,12.52,14.68,20.64,20.18,3.2,2.17,6.3,2.85,9.83,1.37,5.96-2.51,12.05-4.63,17.43-8.45,12-8.53,16.88-8.48,28.9-.33,7.85,5.32,15.77,10.52,24.09,15.09,4.08,2.24,8.33,3.8,12.88,2.44,7.05-2.12,13.59-5.32,19.24-10.23,2.19-1.9,2.32-3.04,.1-5.02Z" fill="#d4e062"/><path d="M286.1,503.09c-1.09,.38-1.58,1.01-1.98,1.98-5.45,13.17-5.73,26.21,1.02,39.03,4.66,8.85,17.44,13.32,23.78,8.84-5.69-2.21-5.75-7.65-6.79-12.23-2.32-10.18-1.2-20.56-.9-30.88,.04-1.48,.65-3.09-.25-4.41-1.79-2.63-1.09-4.99,1.21-8.3-6.15,2.3-11.1,4.2-16.1,5.97Z" fill="#fff"/><path d="M461.29,269.38c3.21-.8,6.38-1.76,9.54-2.76,1.23-.39,3.13-.78,3.01-2.17-.18-2.05-2.45-1.52-3.65-1.4-9.7,.93-19.44-.03-29.16,.73-6.54,.51-10.85,3.98-14.41,8.64-4.21,5.52-1.46,11.77,5.37,12.93,2.27,.39,4.74,.09,6.84,.87,5.05,1.87,4.98,2.05,6.82-2.24,.11-.27,.42-.49,.69-.65,3.93-2.39,7.36-6.5,12.83-3.52,1.13,.61,2.56,.68,3.85,.97,1.7,.38,3.06-.18,3.54-1.87,.52-1.81-.78-2.88-2.24-3.31-2.37-.71-4.83-1.1-7.42-1.67,.43-2.92,2.07-3.97,4.37-4.54Z" fill="#fff"/><path d="M331.7,276.01c-1.4-5.13-5.38-5.1-10.89-4.76-1.27,.19-3.89,.59-6.52,.96-7.26,1.03-8.42,2.19-9.2,9.27-.47,4.32,3.51,12.2,6.83,13.42,1.25,.46,1.6-.52,2.2-1.36,2.28-3.14,4.73-3.48,7.71-.6,2.61,2.53,5.56,4.73,8.45,6.96,.83,.64,1.94,1.77,3.06,.72,1.29-1.2,.35-2.66-.45-3.57-1.63-1.86-3.61-3.41-5.35-5.17-1.24-1.25-4-2.27-3.3-3.88,.9-2.08,2.95-4.11,5.41-4.72,1.52-.38,3.29,.09,4.93,.32,3.12,.43,6.21,1.09,9.34,1.39,1.44,.14,3.32-.16,3.59-1.94,.21-1.39-1.23-2.2-2.41-2.84-3.28-1.77-6.95-2.12-10.52-2.83-1.09-.22-2.45,.15-2.87-1.38Z" fill="#fefeff"/><path d="M275.99,507.5c-2.54-1.04-5.06-2.7-8.02-1.01-2.53,1.45-3.53,3.68-2.69,6.31,2.28,7.11,2.66,14.85,6.95,21.31,.32-.64,.64-1.29,.96-1.93h0s0,0,0,0c-.29-7.65-.51-15.28,2.78-22.5,.29-.64,1.01-1.76,.01-2.17Z" fill="#f8e6cc"/><path d="M77.3,368.1c.46,1.98,1.23,3.8,2.7,5.26,.92-1.68,3.4,.03,4.19-1.93-5.04,.71-5.81-2.13-5.14-6.18-.16,.25-.31,.51-.47,.76-.43,.69-.86,1.39-1.28,2.08Z" fill="#aa9f9a"/><path d="M341.12,316.33c-1.72-.26-2.95,.62-4.96,1.83,4.28,0,7.66,0,11.03,0,0,0,0,0,0,0-1.78-1.41-4.62,.67-6.07-1.83Z" fill="#7d6f65"/><path d="M283.29,555.09c-.91-1.25-1.64-2.74-4.06-2.63,.98,1.82,1.84,3.42,2.7,5.01h0c.2-.94,.3-1.93,1.36-2.38Z" fill="#acb34e"/><path d="M272.23,534.11c0,1.18,.42,2.1,1.74,2.68,.1-1.68,.3-3.24-.78-4.62h0c-.32,.64-.64,1.29-.96,1.93Z" fill="#9a8b7e"/><path d="M60.13,269.28c.34-.98,.67-1.97,1.01-2.95-.38-.38-.76-.75-1.14-1.13-1.1,1.24-1.02,2.69-.73,4.17l.44,.03,.42-.13Z" fill="#c2bab6"/><path d="M677.73,829.6c.19-.97-.24-1.47-.85-1.77-.73-.36-.84,.31-.81,.73,.03,.45,.24,1,.56,1.26,.2,.16,.77-.14,1.1-.22Z" fill="#858640"/><path d="M579.8,638.36c-11.74-5.33-23.64-7.43-35.75-4.74-22.53,5.02-43.98,13.02-61.61,28.79-1.97,1.77-2.77,1.4-4.74-.34-9.53-8.43-19.91-16.18-32.52-18.58-15.95-3.03-32.21-2.43-47.66,3.2-20.23,7.37-32.76,26.61-32.54,47.37,.19,17.8,5.1,34.46,12.18,50.42,6.41,14.46,16.27,26.09,31.65,32.17,8.44,3.34,17.12,6.44,26.06,5.31,16.82-2.12,33.48-5.44,46.41-17.97,1.08-1.05,2.22-.75,3.16-.03,4.58,3.52,10.33,4.46,15.36,7.05,17.28,8.9,35.86,12.64,57.4,13.41,2.81,.63,7.73-.68,12.63-1.33,8.34-1.11,17.01-1.37,24.68-5.21,14.84-7.44,26.66-17.6,30.82-34.82,1.79-7.4,4.8-14.5,4.68-22.29-.17-11.04-2.12-21.73-6.23-32.02-8.77-21.95-21.41-40.17-43.98-50.42Z" fill="#f8cdcd"/><path d="M643.44,588.01c-1.83-.48-2.27-1.35-2.55-3.01-1.43-8.26-4.83-15.54-11.33-21.05-1.82-1.54-.44-2.58,.07-3.82,2.96-7.28,5.83-14.57,4.54-22.68,.34-15.18-6.12-28.14-13.68-40.58-3.94-6.49-8-13.3-13.48-18.35-6.49-5.98-15.48-8.31-24.02-10.3-13.66-3.18-27.34-1.5-40.33,3.12-20,7.12-31.46,22.41-36.28,42.5-2.19,9.15-1.79,18.72-1.33,28.28,1.1,23.07,21.2,47.43,39.5,50.72,2.55,.46,3.4,1.83,3.86,4.28,1.01,5.34,3.52,10.07,7.42,13.89,13.11,12.84,29.12,16.02,46.52,12.89,13.54-2.44,24.34-10.33,34.26-19.47,3.31-3.05,6.63-6.13,8.81-10.13,1.44-2.64,1.71-5.33-1.97-6.29Zm-33.48-93.29c11.39,10.25,19.53,41.1,14.5,54.91-14.22-8.17-20.45-38.73-14.5-54.91Zm-87.16,1.23c8.42-11.88,20.43-17.38,34.18-20.57,12.16-2.82,23.35-.31,34.54,4.04,3.75,1.46,1.78,3.89,1.08,5.65-3.42,8.61-5.46,17.53-5.36,26.73,.13,13.25,2.81,26.1,8.25,38.23,1.33,2.96,1.99,5.07-1.26,7.03-1.08,.65-1.97,1.85-2.6,2.99-1.23,2.24-2.36,2.05-4.69,1.15-10.24-3.96-19.41-2.68-24.07,6.83h0s0,0,0,0c-.36,1.15-.71,2.3-1.37,4.39-.71-3.17-.7-5.2-.31-7.25,.76-20.31-7.07-37.28-20.49-51.94-4.74-5.18-10.58-9.13-16.81-12.39-2.52-1.32-2.78-2.51-1.09-4.89Zm14.49,81.34c-.94,3.44-2.28,3-4.32,1.06-9.81-9.32-18.14-19.49-19.41-33.73-.66-7.43-1.72-14.83-.41-22.34,.56-3.21,1.4-3.45,4.02-1.72,15.25,10.1,20.41,25.43,22.44,42.42,.15,4.98-1.04,9.62-2.32,14.3Zm12.06,6.27c-1.43,1.8-2.33,1.74-3.99,1.32-2.35-.6-2.02-1.99-1.42-3.76,6.21-18.07,2.05-34.64-7.33-50.48-4.49-7.58-10.83-13.02-18.85-16.38-5.79-2.42-1.27-5.3-.51-7.81,1.15-3.79,3.16-1.33,4.8-.27,16.24,10.49,26.63,25.21,31.33,43.89,.92,3.67,.89,7.57,1.3,11.37,.36,7.9-.02,15.46-5.33,22.12Zm60.23,29.63c-.18,.48-1.03,.76-1.62,1.02-13.9,6.08-39.36,.93-47.56-10.26-3.49-4.77-5.59-9.81-4.65-15.8,.69-4.36,3.47-6.22,7.76-5.27q5.26,1.16,4-4.09c-.67-2.8,3.73-10.98,6.63-11.39,4.38-.62,8.86-1.26,12.82,2.1,2.18,1.85,4.17,4.15,6.62-1.07,1.38-2.94,4.57-6.93,8.82-8.09,4.43-1.21,11.56,3.8,12.24,9.5,.69,5.76,2.58,11.38,2.17,18.48,.44,8.26-3.96,16.42-7.23,24.88Zm8.85-50.91c-3.12-4.2-6.53-7.58-11.58-9.26-2.7-.9-3.67-4.15-4.81-6.71-7.85-17.74-12.82-35.5-3.7-62.29,8.07,1.69,8.87,3.05,6.46,10.88-5.02,16.33-3.35,32.13,3.79,47.5,2.36,5.08,6.14,9.22,10.06,12.87,3.01,2.8,2.53,4.27-.22,7Zm15.41,32.15c-.08,3.73-3.04,5.75-5.58,7.86-2.11,1.75-4.38,3.31-7.36,5.53,1.65-7.16,3.33-13.24,3.27-19.61-.04-3.69,.11-7.57-1.51-10.78-2.33-4.62-1.89-7.75,3.39-9.88,5.6,7.91,8.02,17.02,7.8,26.88Z" fill="#322625"/><path d="M561.18,565.17c.12,.21,.25,.42,.37,.63-.03-.27-.12-.49-.37-.63Z" fill="#322625"/><path d="M508.43,360.81c1.02,1.56,2.61,2.58,4.71,1.93,1.93-.6,3.15-1.98,3.5-3.88,.67-3.64-7.26-13.34-11.01-13.61-3.48-.26-5.19,1.91-3.6,4.88,1.96,3.66,4.12,7.22,6.4,10.69Z" fill="#f3aaab"/><path d="M491.52,366.19c2.65-.38,3.02-2.67,3.32-4.53-.67-3.89-1.19-7.47-1.92-11.02-.4-1.94-1.65-3.34-3.78-3.29-2.39,.06-2.81,2.01-3.02,3.85-.43,3.82,.25,7.57,.97,11.3,.46,2.38,1.84,4.05,4.43,3.68Z" fill="#f4abab"/><path d="M528.82,355.13c1.23-.17,2.26-1.16,3.07-2.47,.91-1.45,.77-2.95-.32-4.11-2.26-2.39-4.79-4.58-7.84-5.84-2.63-1.09-4.14,.68-4.48,3.05-.41,2.84,6.28,9.45,9.57,9.36Z" fill="#f4abab"/><path d="M364.2,148.98c-4.47,4.38-9.99,7.86-12.27,14.15,2.49,5.66,5.47,6.04,9.41,1.32,6.94-8.32,14.36-16.18,22.32-23.53,1.93-1.79,4.28-3.12,6.34-4.78,.72-.58,1.58-1.55,.78-2.54-.45-.56-1.43-.92-2.18-.94-1.13-.04-2.28,.3-3.42,.48,0,0,0,0,0,0-8.08,3.84-14.66,9.67-20.97,15.84Z" fill="#332725"/><path d="M613.57,65.1c-1.04-7.34-6.01-10.82-12.05-13.81-5.73-2.83-10.12-2.64-14.23,2.32-6.05,7.28-11.76,14.83-16.24,23.26-6.28,11.84-13.89,22.65-24.65,30.98-3.41,2.64-6.61,5.58-9.74,8.55-2.17,2.06-4.53,3.31-7.55,3.19,0,0,0,0,0,0,.94,.91,1.77,1.98,2.84,2.69,17.54,11.69,36.19,10.29,54.02,2.22,18.72-8.48,35.47-28.22,31.79-58.16-2.19,2.25-3.87,1.09-4.2-1.24Z" fill="#f3a9aa"/><path d="M529.12,119.6s0,0,0,0c3.01,.11,5.38-1.13,7.55-3.19,3.13-2.97,6.33-5.91,9.74-8.55,10.76-8.33,18.36-19.14,24.65-30.98,4.47-8.43,10.19-15.98,16.24-23.26,4.12-4.96,8.51-5.15,14.23-2.32,6.04,2.99,11.01,6.47,12.05,13.81,.33,2.33,2.01,3.5,4.2,1.24,.3-9.61-6.2-16.09-12.01-21.84-6.84-6.77-17.93-4.87-24.34,2.97-6.18,7.57-12.19,15.38-16.46,24.26-6.05,12.61-14.24,23.53-24.97,32.53-3.83,3.21-7.32,6.76-10.41,10.7-1.17,1.49-2.53,2.86-.48,4.64Z" fill="#322625"/><path d="M362.81,140.55c-3.15,.44-5.29-.41-5.15-4.08,.07-1.87-1.12-3-2.18-4.29-13.15-15.96-23.37-33.35-26.87-54.13-.71-4.24-2.22-8.31-4.5-12.05-3.31-5.42-5.52-5.57-9-.42-2.14,3.16-4.17,6.36-5.26,10.1-.48,1.68-1.16,3.89-3.68,1.78,0,0,0,0,0,0-2.92,10.09-3.18,20.58-1.77,30.69,1.66,11.9,3.79,24.27,11.72,33.96,10.07,12.3,20.21,16,34.49,8.57,4.9-2.55,7.85-7.12,12.21-10.12Z" fill="#f3a9aa"/><path d="M309.85,75.67c1.08-3.74,3.12-6.94,5.26-10.1,3.48-5.15,5.69-4.99,9,.42,2.29,3.74,3.79,7.82,4.5,12.05,3.5,20.78,13.72,38.17,26.87,54.13,1.06,1.29,2.25,2.42,2.18,4.29-.14,3.67,2.01,4.52,5.15,4.08,5.14-4.29,5.36-7.76,.73-13-13.2-14.94-23.32-31.46-27.1-51.4-1.28-6.78-4.12-13.03-9.18-17.95-4.76-4.62-11.91-3.69-15.31,2-3.18,5.31-5.72,10.88-5.79,17.26,0,0,0,0,0,0,2.52,2.11,3.2-.1,3.68-1.78Z" fill="#322625"/><path d="M523.89,500.84c6.23,3.26,12.07,7.21,16.81,12.39,13.42,14.66,21.25,31.63,20.49,51.94,.25,.13,.34,.36,.37,.63,.43,.74,.87,1.48,1.3,2.22h0c4.66-9.51,13.83-10.79,24.07-6.83,2.33,.9,3.46,1.09,4.69-1.15,.63-1.14,1.52-2.34,2.6-2.99,3.25-1.96,2.59-4.07,1.26-7.03-5.44-12.13-8.12-24.98-8.25-38.23-.09-9.2,1.94-18.12,5.36-26.73,.7-1.75,2.67-4.19-1.08-5.65-11.19-4.34-22.38-6.86-34.54-4.04-13.74,3.19-25.76,8.69-34.18,20.57-1.69,2.39-1.42,3.58,1.09,4.89Z" fill="#d4e062"/><path d="M614.63,569.82c-.68-5.7-7.81-10.71-12.24-9.5-4.26,1.16-7.44,5.15-8.82,8.09-2.45,5.22-4.44,2.92-6.62,1.07-3.96-3.36-8.44-2.71-12.82-2.1-2.89,.41-7.3,8.59-6.63,11.39q1.26,5.25-4,4.09c-4.29-.95-7.08,.92-7.76,5.27-.94,5.99,1.16,11.04,4.65,15.8,8.19,11.19,33.66,16.34,47.56,10.26,.59-.26,1.43-.54,1.62-1.02,3.27-8.46,7.67-16.62,7.23-24.88,.41-7.1-1.48-12.72-2.17-18.48Z" fill="#fdebd1"/><path d="M517.16,520.56c-2.62-1.73-3.46-1.49-4.02,1.72-1.3,7.51-.25,14.9,.41,22.34,1.27,14.24,9.6,24.4,19.41,33.73,2.04,1.94,3.38,2.37,4.32-1.06,1.28-4.68,2.47-9.32,2.32-14.3-2.03-16.99-7.19-32.32-22.44-42.42Z" fill="#d4e062"/><path d="M553.37,550.06c-4.7-18.68-15.09-33.4-31.33-43.89-1.64-1.06-3.66-3.52-4.8,.27-.76,2.52-5.28,5.39,.51,7.81,8.03,3.36,14.37,8.81,18.85,16.38,9.38,15.84,13.54,32.4,7.33,50.48-.61,1.76-.94,3.16,1.42,3.76,1.67,.42,2.56,.48,3.99-1.32,5.31-6.66,5.7-14.23,5.33-22.12-.41-3.8-.38-7.7-1.3-11.37Z" fill="#fefefe"/><path d="M618.64,555.28c-3.92-3.66-7.7-7.79-10.06-12.87-7.14-15.38-8.81-31.17-3.79-47.5,2.41-7.83,1.61-9.2-6.46-10.88-9.12,26.79-4.15,44.55,3.7,62.29,1.14,2.56,2.11,5.81,4.81,6.71,5.04,1.68,8.46,5.06,11.58,9.26,2.75-2.73,3.23-4.2,.22-7Z" fill="#fefefe"/><path d="M624.45,549.63c5.03-13.81-3.11-44.66-14.5-54.91-5.95,16.18,.28,46.74,14.5,54.91Z" fill="#d4e062"/><path d="M622.63,577.42c1.62,3.21,1.48,7.09,1.51,10.78,.07,6.37-1.61,12.45-3.27,19.61,2.97-2.22,5.24-3.78,7.36-5.53,2.55-2.11,5.5-4.13,5.58-7.86,.22-9.86-2.2-18.97-7.8-26.88-5.29,2.13-5.73,5.26-3.39,9.88Z" fill="#fdfdfd"/><path d="M561.18,565.17c-.39,2.04-.4,4.08,.31,7.25,.65-2.1,1.01-3.25,1.37-4.39,0,0,0,0,0,0-.43-.74-.87-1.48-1.3-2.22-.12-.21-.25-.42-.37-.63Z" fill="#858640"/></svg>