<?xml version="1.0" encoding="UTF-8"?><svg id="_레이어_1" xmlns="http://www.w3.org/2000/svg" viewBox="0 0 1009.43 1008.83"><path d="M686.53,305.79s.02,0,.03,0c0,0,0,0,.01-.01-.01,0-.03,0-.04,.01Z" fill="#fefefe"/><path d="M931.09,423.29c-6.51-27.06-19.67-49.95-40.3-68.65-9.94-9.01-20.59-16.97-32.85-22.45-16.04-7.16-32.76-7.39-49.29-2.32-16.61,5.09-32.59,4.38-48.72-1.73-22.54-8.53-45.26-16.55-69.02-21.11-1.67,.38-3.08-.17-4.39-1.2,.02-.02,.03-.04,.05-.06,0,0-.02,0-.03,0,.01,0,.03,0,.04-.01,.65-.84,1.52-.64,2.36-.51,1.45-.35,2.9-.72,4.36-1.05,19.74-4.51,38.37-11.76,53.66-25.29,25.84-22.85,42.32-50.44,45.07-86.02,2.08-26.85-2.86-50.84-19.11-72.43-10.77-14.31-23.77-25.24-42.26-27.09-18.17-1.82-36.25-1.35-53.59,5.6-23.69,9.49-44.01,23.41-58.81,44.62-.48,.68-.9,1.41-1.83,1.4-.73-1.51-1.39-3.04-2.18-4.51-6.62-12.33-14.9-22.58-30.15-24.13-5.49-.56-11.01-.73-16.47-.12-18.14,2.04-39.46,17.27-37,39.04,.31,2.71-1.05,3.06-3.22,2.86-7.79-.72-15.57-1.68-23.38-2.01-9.66-.41-9.67-.19-9.9-9.68-.28-11.49-7.73-17.3-19.09-14.82-6.86,1.49-13.4,3.95-19.73,6.96-2.7,1.28-5.81,4.32-7.86,3.7-2.81-.86-1.24-5.28-2.07-8.09-2.4-8.18-7.95-11.08-15.52-7.34-3.27,1.61-6.4,3.58-9.39,5.68-4.53,3.17-8.89,6.59-13.64,10.15-.64-4.27-1.28-8.03-1.74-11.8-1.05-8.54-4.06-11.23-12.66-11.34-5.68-.07-10.44,2.12-14.31,6.06-5.79,5.91-10.39,12.69-12.15,20.88-.86,4.01-2.24,3.92-5.22,2.14-7.1-4.25-11.33-2.99-15.63,4.03-5.04,8.22-5.93,17.32-5.19,26.5,.39,4.8-1.14,5.97-5.51,6.78-18.25,3.35-25.54,16.2-19.05,33.32,1.21,3.19,.48,5.79-.25,9.12-7.67-8.22-16.71-9.5-26.56-7.42-5.02,1.06-7.1,3.82-6.6,8.92,.26,2.57-.09,4.89-.77,7.34-4.59,16.63-4.35,33.48-2.58,50.5,.89,8.61,4.64,16.24,6.75,24.41,.43,1.66,1.82,3.21-1.33,4.06-12.36,3.35-24.16,8.43-36.32,12.31-5.75,1.83-11.55,4.05-17.69,4.92-10.24,1.45-19.78-1.68-29.54-3.64-10.75-2.15-21.49-4.82-32.58-2.44-9.31,2.01-18.26,4.83-26.47,9.97-25.69,16.09-45.91,36.99-56.8,65.66-6.97,18.36-11.69,37.34-14.15,56.98-2.45,19.55,1.27,37.79,8.84,55.44,4.72,11,10.62,21.48,15.63,32.36,20.64,44.9,53.82,76.78,99.48,95.43,18.91,7.73,38.4,14.06,56.67,23.32,6.94,3.52,14.27,6.61,19.74,12.44,4.56,4.86,7.54,10.61,4.75,17.25-2.88,6.86-7.05,11.98-16.11,11.28-8.57-.66-13.14,4.06-14.47,12.6-2.98,19.23,4.63,26.08,20.94,32.89,11.94,4.99,24.12,1.33,35.7-2.19,10.69-3.25,18.58-10.74,24.62-20.16,6.01-9.36,8.9-19.31,6.35-30.4,1.65-.37,2.6,.71,3.62,1.52,19.49,15.51,40.27,29.02,62.88,39.46,13.28,6.13,20.86,16.43,25.27,29.82,2.61,7.92,4.38,16.04,6.2,24.16,.83,3.68-.49,4.08-3.63,4.11-7.48,.06-14.96,.47-22.44,.76-1.83,.07-4.07-.08-4.69,2.03-1.37,4.63-5.07,7.73-7.23,11.85-14.31,27.24-30.89,53.26-43.7,81.32-1.85,4.04-4.84,7.72,1.36,10.62,.72,.34,1.05,1.65,1.4,2.57,9.16,23.44,21.16,45.57,31.58,68.43,1.96,4.3,3.54,8.98,7.26,12.31h0c1.89-.08,3.78-.15,5.51-1.09,0,0,0,0,0,0,0,0-.05,0-.05,0,0,0,0,0,0,0,0,0,0,0,0,0-.01-2.01-.03-4.01-.04-6.02-4.86-10.37-9.64-20.78-14.6-31.1-6.84-14.25-13.71-28.49-20.81-42.61-1.94-3.85-.82-4.42,2.84-4.26,76.53,3.31,153.1,1.8,229.66,1.57,17.22-.05,34.58,.53,51.8-1.5,1.63-.19,3.31-.03,4.9-.03,.93,1.66-.3,2.66-.83,3.75-11.66,24.12-23.36,48.22-35.03,72.33-.43,.88-.64,1.87-.96,2.8-.18,2.45,.13,4.92,2.78,5.7,2.69,.79,3.51-1.77,4.72-3.48,.36-.51,1.01-.81,1.53-1.2,.69-1.11,1.51-2.17,2.06-3.35,10.85-23.39,22.92-46.21,32.64-70.12,.99-2.43,1.69-4.85,4.48-6.23,2.29-1.14,2.15-3.61,.94-5.71-8.39-14.57-13.86-30.69-23.17-44.74-10.49-15.84-17.52-33.62-28.38-49.29-2.46-3.55-4.47-4.62-7.97-4.74-7.15-.25-14.3-.45-21.45-.63-1.77-.04-3.21,.11-2.71-2.63,2.57-14.15,5.91-28.04,13.39-40.53,2.58-4.31,6.01-7.81,10.55-10.35,15.96-8.93,32.56-16.72,47.66-27.19,8.88-6.16,17.5-12.65,26.36-19.36-1.37,12.24,.25,20.73,4.76,28.66,12.01,21.12,31.47,28.38,54.04,26.73,17.92-1.31,33.82-14.2,28.93-34.67-2.03-8.52-5.8-12.34-14.57-12.66-2.6-.09-5.36,.91-7.8-.78-6.93-4.82-13.02-14.56-5.85-24.56,2.16-3.02,4.77-5.61,7.9-7.55,13.76-8.54,28.53-15.32,43.56-20.91,17.34-6.44,34.49-12.96,50.81-21.75,23.21-12.52,41.74-30.21,57.13-51.26,15.23-20.83,25.19-44.63,35.67-67.95,6.66-14.82,10.14-30.76,8.3-47.64-1.54-14.15-4.81-27.8-8.12-41.56ZM618.35,157.34c12.28-23.75,32.1-39.14,55.91-49.86,13.59-6.12,28.28-6.82,42.88-7.48,6.33,.26,12.45,.22,18.73,2.21,22.57,7.13,33.64,25.04,42.83,44.63,6.75,14.37,5.18,29.94,4.85,45.2-.74,34.37-18.28,60.22-43.04,81.75-14.86,12.92-33.2,19.36-52.37,23.26-3.08,.63-6.15,.95-9.36,.92-6.57-.07-11.18,3.64-14.59,9.03-4.12,6.5-7.1,13.54-10.01,20.63-.54,1.32-.44,4.19-3.45,2.6-2.27-1.2-5.69-1.99-3.71-5.53,5.59-10.03,9.78-20.73,15.04-30.91,.88-1.7,2.5-1.28,3.94-1.49,20.9-2.98,40.49-9.5,57.48-22.35,23.21-17.56,36.78-40.28,38.87-70.02,1.41-20.05-2.89-38.19-12.32-55.55-12.27-22.59-31.87-26.55-50.8-23.32-24.84,4.24-46.76,13.96-63.14,34.01-9.95,12.18-16.39,25.69-17.43,41.61-.5,7.79-1.63,15.53-2.45,23.3-.39,3.66-.16,7.3,.03,10.97,.12,2.31,2.39,5.63-1.1,6.78-3.28,1.08-8.23-2.67-8.88-6.03-1.78-9.25-1.57-18.54-.33-27.83,2.15-16.03,4.86-31.91,12.4-46.5Zm41.97,195.78c-1.22-.53-2.46-1.02-3.7-1.49-3.97-1.51-5.6-5.1-2.71-7.76,4.35-4,5.42-9.42,7.81-14.26,.94-1.89,1.76-2.97,4.08-2.5,19.85,4.03,39.81,7.59,59.54,12.16,9.47,2.19,18.89,5.42,26.29,12.5,7.33,7.02,7.21,10.51-1.83,14.71-23.75,11.04-48.27,19.8-74.51,22.71-3.27,.36-6.5,1.54-10.17,.76,2.25-6.33,4.54-12.48,5.26-19.17,1.18-10.94,.09-13.28-10.07-17.66Zm8.76-155.55c1.26-.43,2.44-1.25,2.86,1.01,1.23,6.67,2.59,13.33,3.9,19.99,.25,1.67-.73,2.25-2.06,2.92-9.92,5.02-10.71,4.7-13.37-5.71-.16-.64-.31-1.29-.46-1.93-2.91-11.99-2.76-12.25,9.13-16.28Zm-12.9-.96c-1.32-5.92-2.62-11.85-3.99-17.76-.37-1.58,.15-2.54,1.58-3.16,1.52-.66,3.02-1.36,4.53-2.06q8.55-3.96,10.33,5.09,1.96,9.95-6.85,15.1c-1.7,.99-3.16,2.46-5.6,2.79Zm11.22,34.34c9.72-3.74,9.72-3.84,11.91,6.24,.92,4.22,1.64,8.49,2.46,12.73,.44,2.5-1.7,2.5-3.1,3.08-7.45,3.06-7.48,3.04-9.63-4.55-1.27-4.48-2.35-9.01-3.71-13.46-.68-2.23-.19-3.16,2.06-4.03Zm48.29-26.26c-12.17,5.63-12.22,5.63-14.96-7.31-.82-3.86-3.08-8.41-1.81-11.46,1.33-3.21,6.9-3.24,10.36-5.17,3.12-1.74,4.46-1.47,4.98,2.43,.83,6.25,2.19,12.43,3.26,18.23,.61,2.13-.5,2.66-1.82,3.27Zm6.35,17.93c.82,3.72,1.63,7.45,2.7,12.36,.26,1.64-2.26,1.6-3.72,1.98-3.85,.99-6.98,4.54-11.28,3.4-.64-.17-.63-2.74-.93-4.19-1.13-5.52-2.14-11.07-3.45-16.55-.57-2.41-.04-3.51,2.31-4.5,11.66-4.88,11.63-4.95,14.37,7.5Zm-10.61-51.36c-.3,.85-13.38,6.64-14.35,6.47-1.12-.21-1.02-1.14-1.16-1.89-1.06-5.36-2.06-10.73-3.17-16.07-.34-1.64,.32-2.39,1.75-3,3.65-1.57,7.29-3.17,10.84-4.94,1.82-.9,2.75-.63,3.1,1.39,.96,5.54,1.93,11.08,3.05,17.51,.03-.42,.1,.1-.06,.54Zm-17.46,27.98c.69,3.41,1.4,6.82,2.29,11.1,.24,.74-.45,1.56-1.94,2.15-3.24,1.29-6.43,2.68-9.6,4.11-1.63,.73-2.37,.37-2.73-1.43-1.24-6.18-2.56-12.33-3.91-18.48-.47-2.16,.32-3.23,2.31-4.18,11.17-5.34,11.14-5.39,13.6,6.74Zm-26.93,65.09c4.59-1.68,9.08-3.28,13.53-4.98,2.13-.81,3.38-.52,3.79,1.99,.9,5.38,1.85,10.76,2.96,16.1,.35,1.71-.12,2.52-1.69,2.88-6.23,1.41-12.45,2.82-18.8,4.26-.07-7.11,6.51-13.44,.21-20.23Zm17.17-37.22c-.34-1.51,.03-2.63,1.61-3.13,.16-.05,.31-.13,.45-.21q11.48-6.26,13.97,6.32c.42,2.12,1.08,4.23,1.19,6.36,.15,2.76,2.67,6.39,.51,8.01-3.19,2.4-7.57,3.2-10.52,4.33-2.5,.38-2.56-.8-2.77-1.72-1.5-6.65-2.97-13.31-4.46-19.97Zm7.45,29.38c2.63-2.36,6.92-2.91,10.53-4.14,2.21-.75,1.87,1.21,2.21,2.31,.73,2.39-.05,5.01,1.09,7.36,.8,1.66,1.99,2.76,3.89,2.47,1.99-.3,2.66-1.8,2.65-3.65-.01-2-.33-4.03-.05-5.98,.31-2.21-1.92-5.14,.47-6.47,4.03-2.25,8.51-3.74,12.88-5.34,1.13-.41,1.37,1.19,2.07,1.82,2.86,2.61,5.92,1.73,6.47-2.1,.28-1.95,.79-3.16,2.35-4.48,2.9-2.45,2.1-5.59-1.6-5.85-2.77-.19-2.76-1.72-3.15-3.39-1.34-5.83-2.44-11.72-3.99-17.5-.66-2.44,.17-3.31,2.2-4,4.72-1.62,9.41-3.32,14.1-5.02,2.34-.85,4.51-2.11,3.53-5.02-.96-2.86-3.48-2.78-5.86-1.99-4.42,1.47-8.83,2.96-13.16,4.67-2.32,.91-3.07,.53-3.48-2.05-1.02-6.4-2.31-12.76-3.71-19.08-.59-2.68,.28-3.96,2.75-4.81,4.4-1.51,8.74-3.22,13.1-4.86,2.28-.86,4.65-1.98,3.62-4.94-1-2.89-3.52-2.56-5.89-1.74-4.4,1.52-8.85,2.93-13.16,4.68-2.2,.9-2.97,.33-3.39-1.78-.91-4.56-1.72-9.16-2.95-13.64-.91-3.33,.23-4.67,3.32-5.71,2.81-.94,8.06-.92,6.22-5.71-1.71-4.46-5.84-1.52-8.57-.33-3.1,1.35-4.13,.4-4.76-2.43-.4-1.77-1.06-3.48-1.61-5.21,0,0,0,0,0,0-.61-.77-1.2-1.58-1.85-2.31-.96-1.08-2.29-1.75-3.54-.95-1.18,.75-.44,2.06-.18,3.19,2.78,12.09,2.68,11.9-8.71,17.11-4.09,1.87-5.28,.98-5.99-3.15-.72-4.23-1.62-8.54-3.86-12.31-.84-1.41-.61-1.96,.83-2.42,9.7-3.1,19.45-5.74,29.79-3.65,11.37,1.51,20.61,6.82,26.16,16.86,13.24,23.97,16.06,49.45,8.61,75.76-5.67,20.01-19.24,34.24-35.86,45.86-5.18,3.62-10.75,6.56-16.67,8.94-3.43,1.38-3.99,.03-4.39-2.68-.39-2.63-.89-5.25-1.33-7.87-.49-2.9-2.87-6.83-1.08-8.44Zm-3.95-90.73c.68,4.25,1.37,8.49,2.12,13.1,.24,1.11-.11,2.24-1.69,2.75-.47,.15-.92,.37-1.37,.57q-10.47,4.74-12.9-6.42-1.9-8.7,6.08-12.42c.6-.28,1.19-.58,1.79-.86q5.08-2.36,5.97,3.28Zm-3.37-11.31c-4.16,2.08-8.32,4.21-12.61,5.98-1.73,.71-1.48-1.26-1.69-2.26-.74-3.6-1.51-7.19-3.43-10.37-.69-1.15-1.12-3.35-3.05-2.49-1.45,.65-.46,2.32-.27,3.59,.64,4.11,1.13,8.24,1.82,12.33,.29,1.69,.03,2.94-1.62,3.7-3.78,1.73-7.59,3.42-11.33,5.23-2.45,1.18-2.21-.94-2.77-2.09-1.5-3.11-.84-7.58-5.45-8.76-2.87,3.56-.29,7.03,.49,10.35,.78,3.33,.23,5.2-2.95,6.67-3.29,1.52-6.33,3.57-9.48,5.39-1.71,.99-2.99,2.16-1.94,4.37,5.17,.9,8.67-2.78,12.72-4.81,2.82-1.41,4.02-1.45,4.31,2.13,.27,3.46,.66,7.04,1.81,10.28,1.97,5.52-.32,7.81-5.36,8.98-2.24,.52-4.39,1.55-6.49,2.53-1.77,.82-4.14,1.72-3.04,4.27,.96,2.23,3.1,1.32,4.81,.72,2.98-1.05,6-2.02,8.85-3.34,2.84-1.31,3.72-.4,4.19,2.46,.8,4.91,1.6,9.89,3.16,14.59,1.33,4-.25,5.28-3.58,6.37-2.35,.76-4.54,2.04-6.72,3.25-1.57,.88-3.49,1.89-2.24,4.2,1.13,2.08,3.04,1.61,4.83,.93,2.49-.94,5.03-1.77,7.42-2.9,2.32-1.1,3.26-.34,3.82,1.94,1.45,5.97,3.02,11.91,4.55,17.86,.28,1.08,1.1,2.24-.27,3.12-1.19,.77-2.55,1-3.75,.11-11.14-8.26-24.07-13.16-36.26-19.45h0c-1.7-8.58-.77-17.19,.26-25.7,1.72-14.16,2.63-28.6,10.1-41.37,3.01-5.15,5.94-10.4,10.59-14.35,10.35-11.95,22.58-20.97,38.71-25.02,.15,6.63,1.32,12.74,2.39,18.86,.17,.98,.55,2.15-.56,2.7Zm-83.47,65.14c.06,.63-.16,1.41-1,1.04-.45-.2-.65-.96-.96-1.47-2.31-2.71-5.47-3.83-8.81-3.92-3.27-.09-2.75-1.42-2.71-3.99,.12-8.78,7.45-8.53,12.63-11.17v12c1.21,2.4,.6,5.01,.86,7.52Zm-8.24-23.63c-1.13-.24-.95-.97-1.03-1.83-1.26-13.75,5.06-24.2,14.48-33.28,.67-.65,1.65-.99,2.46-1.45,.91,1.11,.54,2.13,.16,2.99-3.89,8.73-5.68,17.97-6.93,27.37-.39,2.95-6.31,6.8-9.14,6.2Zm15.14-47.85c1.39,.81,.94,2.71,1.36,4.12,.47,1.7-.63,2.29-1.91,2.96-7.76,4.04-12.53,10.99-17.21,17.98-.65,.97-.95,2.43-2.34,1.89-1.44-.56-.76-1.86-.36-2.97,3.34-9.3,8.83-16.97,17.14-22.46,1.02-.67,1.96-2.33,3.33-1.53Zm-48.67-23.02c5.45-1.7,10.99-2.48,16.57-2.64,13.96-.98,23.62,5.29,29.95,17.35,1.2,2.28,1.28,3.72-1.44,5.07-10.08,5.03-17.34,12.74-20.95,23.54-.74,2.23-1.75,2.44-3.62,1.48-5.78-2.97-11.96-4.93-18.15-6.84-1.99-.62-2.68-1.54-2.21-3.6,2.22-9.89,.83-19.51-2.88-28.77-1.36-3.39-.49-4.59,2.73-5.6Zm-8.5,4.77c2.02-.96,2,1.37,2.36,2.64,1.36,4.77,2.6,9.58,2.87,14.48-.24,4.25-.89,8.31-2.03,12.3-.3,1.06-.77,1.9-2.04,1.51-1.01-.32-.95-1.25-.78-2.06,1.73-8.48,.16-16.37-3.83-23.99-1.6-3.06,1.69-4.05,3.45-4.88Zm-14.59,26.52c.07-6.08,1.65-11.75,4.7-16.99,.54-.93,1.07-2.4,2.47-1.98,1.17,.35,1.32,1.77,1.59,2.87,.77,3.22,1.35,6.47,1.09,9.12,0,2.01,.05,3.34,0,4.66-.24,5-4.66,7.41-8.88,4.91-1.09-.65-.97-1.61-.96-2.58Zm-8.88,9.33c.5-1.97,2.06-1.37,3.25-1.29,16.21,1.12,31.95,4.18,46.75,11.28,5.48,2.63,9.29,5.97,8.07,11.36-.07,10.83-4.12,19.46-5.87,28.59-1.22,6.39-.11,7.71,6.46,6.73,6.2-.93,7.79,.34,8.16,6.48,.08,1.33,.4,2.66,.35,3.98-.19,4.71,1.22,6.63,6.67,7.24,6.28,.71,12.32,3.83,18.39,6.11,14.08,5.29,27.33,12.15,39.57,20.97,3.02,2.18,3.92,4.38,2.97,7.94-1.63,6.16-4.24,11.89-6.81,17.66-4.34,9.73-8.63,19.46-13.61,28.9-3.12,5.91-2.55,8.17,3.17,11.49,3.13,1.81,3.37,3.86,2.8,6.96-2.46,13.31-2.39,13.32,10.09,19.32,6.96,3.34,6.98,3.63,5.75,11.58-.93,6-3.27,11.49-5.51,17.04-1.07,2.65-2.99,3.56-5.73,3.96-22.89,3.38-45.82,6.43-68.82,8.97-3.82,.42-5.36-.68-6.89-4.25-18.5-43.16-27.66-88.74-35.46-134.7-1.78-10.49-3.38-21.01-5.45-31.43-1.04-5.25-.65-9.68,1.95-14.66,5.4-10.37,4.54-21.18-.43-31.66-1.01-2.14-2.57-3.88-4.56-5.2-2.7-1.77-6.02-10.32-5.23-13.37Zm38.9,237.18c-10.09,.26-8.71,2.85-12.13-8.24-10.05-32.56-19.74-65.23-27.32-98.45-3.14-13.75-4.98-27.79-7.5-41.69-.92-5.06-2.04-10.09-3.23-15.1-.41-1.72-.2-2.63,1.46-3.59,4.15-2.41,8.13-5.12,13.02-8.25,1.39,12.11,2.75,23.31,3.96,34.52,1.91,17.72,6.37,34.95,9.84,52.38,5.66,28.48,14.08,56.07,25.28,82.82,1.68,4,1.22,5.49-3.36,5.61Zm-49.77-239.75c4.86,.08,6.06,2.12,6.36,6.48,.6,8.91,.8,8.9-6.98,10.91q-6.99,1.8-7.38-5.38c-.07-1.32,0-2.65,0-3.97-.15-8.52-.16-8.17,8.01-8.03Zm6.61,22.9c6.24-1.16,8.82,.01,9.72,6.16,2.93,19.86-4.78,33.16-25.56,39.13-9.88,2.84-17.9-2.85-25.64-8.11-.69-.47-.97-1.67-1.24-2.59-2.13-7.24-4.8-14.14-11.86-18.7,11.58-3.55,22.49-6.98,33.44-10.23,6.99-2.07,13.93-4.32,21.14-5.66Zm-201.33,14.65c4.87-6.15,11.3-9.55,18.82-11.38,6.67-1.62,7.09-2.57,6.75-9.29-.42-8.33-.68-16.68,3.64-24.31,1.12-1.99,2.3-5.04,4.97-3.67,3.09,1.58,8,.81,8.32,6.81,.62,11.86,6.48,20.71,17.33,26,2.71,1.32,5.35,1.97,7.72-.65,0,0,0,0,0,0h0c.23-2.38-.43-4.19-2.87-5.17-17.52-7.04-18.12-21.96-11.46-36.9,1.89-4.25,4.66-8.05,7.95-11.42,1.91-1.94,4.1-3.47,6.69-4.19,5.69-1.57,8.41,.29,9.3,6.07,2.1,13.6,2.9,27.39,5.58,40.91h0s0,0,0,0l.42-.17s0,0,0,0c1.49,.59,2.96,.71,4.42-.09,1.11-5.67-.96-11.08-1.7-16.54-.62-4.55,.28-7.66,3.77-10.43,6.67-5.31,13.97-9.62,21.4-13.73,3.29-1.82,5.56-.8,6.33,2.75,.87,4.03,1.91,8.16,1.81,12.22-.11,4.13,.98,4.26,4.19,2.76,9.63-4.49,19.02-9.59,29.49-12.09,9.81-2.34,13.56,.47,13.53,10.41-.01,3.67,1.46,8.33-4.89,8.48-.87,.02-1.35,.95-1.18,1.88,.27,1.43,1.57,1.77,2.66,1.85,4.31,.34,8.63,.6,12.95,.7,3.35,.08,5.36,.5,4.84,4.96-.53,4.56,.11,9.31,.71,13.92,.39,3.03-.76,4.06-3.42,4.8-9.78,2.71-19.37,6.02-28.78,9.83-7.01,2.84-8.16,6.99-3.38,12.51,3.43,3.97,4.26,8.98,5.29,13.8,.86,4.06,2.91,6.77,6.3,9.06,9.23,6.22,18.89,10.44,30.36,8.14,2.91-.58,2.18,1.67,2.34,3.16,2.41,21.96,4.99,43.91,10.39,65.39,8.02,31.93,16.79,63.64,27.71,94.72,.22,.62,.31,1.28,.45,1.88-.23,.15-.36,.29-.5,.32-11.04,1.7-11.43,1.33-13.23-10.06-.63-3.94,.66-9.13-5.82-9.93-1.53-.19-1.13-2.37-.9-3.5,.85-4.12-1.31-6.16-4.65-7.63-6.24-2.75-12.26-5.93-18.28-9.15-13.5-7.24-14.45-8.84-12.7-24.22,.09-.82,.28-1.64,.44-2.46,1.41-7.16,2.07-13.67-7.11-16.72-3.85-1.28-1.85-5.42-.79-7.88,2.03-4.67,.25-6.82-3.99-8.06-3.23-.24-6.45-.48-9.68-.71-4.25-.72-8.54-1.3-12.76-2.2-6.52-1.39-9.08-4.17-10.16-10.63-1.3-7.76-2-15.51,.46-23.19,1.29-4.02-.24-6.34-4.26-7.38-2.1-.55-5.4-.37-5.07-3.55,.31-2.96,2.1-5.57,5.36-6.57,4.48-1.38,7.72-4.55,10.6-7.97,2.72-3.23,2.22-6.41-.55-9.83-15.43-19.06-36.32-27.9-59.67-31.74-8.95-1.47-18.14-2.43-27.26-.38-6.79,1.53-12.09,5.5-16.5,10.59-2.16,2.5-4.69,4.03-7.62,5.32-6,2.63-11.95,5.77-15.1,11.73-2.71,5.13-5.57,4.25-9.79,1.32,6.34-2.96,3.85-7.08,1.69-11.22-1.47-2.82-2.03-5.94-2.89-8.98-.93-3.31-.02-5.81,1.95-8.3Zm66.21,14.36c-9.86-2.33-19.74-2.29-30.7-1.85,7.73-8.98,17.01-9.65,26.7-8.69,23.3,2.31,44.2,10.44,62.03,25.9,.75,.65,1.59,1.21,2.42,1.76,5.82,3.88,5.81,6.41,.03,10.03-1.09,.68-1.77,1.11-2.99,.07-16.75-14.15-36.35-22.21-57.49-27.22Zm-99.65,27.54c.43-2.23,.81-3.32,3.74-3.05,6.65,.61,13.32-.33,19.71-2.28,2.56-.78,4.73-.9,7.18-.01,5.31,1.91,10.54,4.04,16.18,4.9,2.52,.38,4.58,1.8,6.42,3.61,2.97,2.91,6.17,5.6,9.1,8.55,2.84,2.86,5.42,4.43,8.64,.43,.98-1.22,2.73-1.81,4.13-2.68,1.87-3.56,3.74-7.11,5.6-10.67,.37-2.3,.95-4.58,1.07-6.89,.43-8.71-6.49-13.2-14.3-9.29-5.24,2.62-8.89,6.93-11.87,11.84-3.74,6.16-6.36,.12-9.04-1.08-3.91-1.75-.2-3.51,.85-4.67,5.92-6.56,13.36-9.86,22.2-11.08,29.24-4.03,53.75,7.93,77.65,22.23,2.26,1.36,4.32,3.05,6.47,4.61,.11,.08,.12,.3,.17,.46-1.37,1.63-2.97,3.12-4.04,4.93-3.35,5.65-2.03,10.07,4.1,12.31,2.82,1.03,3.12,2.36,2.58,4.75-2.02,8.96-1.03,17.93,.47,26.79,1.22,7.17,6.7,10.59,13.21,11.98,6.32,1.35,12.62,3.15,19.17,3.09,2.91-.02,3.66,.95,2.99,3.94-1.45,6.48-.42,8.71,5.27,11.88,2.88,1.6,4.35,2.88,3.33,6.81-1.4,5.42-1.29,11.21-2.16,16.79-1.18,7.64,3.49,11.87,8.95,15.32,7.59,4.8,15.44,9.19,23.79,12.59,2.74,1.11,4.81,2.35,4.52,6.03-.21,2.65,.75,5.39,4.12,5.96,1.5,.25,1.83,1.13,1.64,2.49-.55,4.02,.69,7.84,1.77,11.92-13.47,1.03-26.62,.79-39.74,.62-21.34-.27-42.59-2.01-63.78-4.54-2.68-.32-5.22-.33-3.65-4.19,.12-.29,.17-.74,.03-.98-4.59-7.8,1.36-13.95,3.23-20.73,.71-2.56,1.58-5.08,2.18-7.66,.28-1.18,1.03-2.82-.7-3.49-1.8-.69-2.74,.75-3.45,2.1-1.39,2.64-2.7,5.33-4.24,8.39-1.36-.95-2.73-1.72-3.9-2.74-5.67-4.96-12.31-6.53-19.55-5.26-2.7,.48-3.52,.09-3.46-2.73,.06-2.67,.78-7.1-2.27-7.18-2.74-.07-2.24,4.5-2.72,7.18-.72,4.09-1.21,8.22-2.57,12.19-1.09,3.18-2.27,5.86-5.54,7.76-4.31,2.5-5.69,6.74-3.47,12.15-7.69-1.44-14.78-3.16-21.98-4.01-7.5-.89-12.73-3.63-18.08-9.79-14.98-17.25-28.07-35.61-37.83-56.15-12.58-26.45-17.74-54.23-12.14-83.45Zm67.61-5.89c-1.94,.2-3.75-.88-3.7-3.1,.09-3.61,2.72-4.93,5.21-5.6,2.9,0,4.73,.94,4.58,3.36-.21,3.59-2.96,5.01-6.09,5.34Zm5.77,5.66c-.47,2.41-1.99,3.62-4.16,3.67-2.18,.05-3.39-1.39-3.26-3.5,.14-2.33,1.68-3.51,3.99-3.5,2.22,.01,3.19,1.4,3.43,3.33Zm35.84,143.56c7.93,0,14.15,3.88,20.7,7.26,1.2,.62,.92,1.65,.75,2.56-.31,1.71-1.58,1.3-3.02,1-3.1-1.76-5.63-.06-8.34,1.87-3.54,2.52-11.99,1.98-14.94-1.1-1.89-1.97-3.87-3.01-6.46-3.14-2.22-.11-3.59-1.36-3.37-3.44,.2-1.9,.91-3.26,3.7-3.63,3.65-.48,7.12-1.37,10.98-1.36Zm-5.32-5.69c1.37-2.94,.61-6.92,3-7.62,4.43-1.3,9.24-.7,13.64,1.27,3.6,1.61,5.96,4.71,8.74,7.31,.7,.65,1.12,1.23,.48,2.08-.63,.84-1.41,.48-2.23,.24-3.82-1.12-7.61-2.59-11.52-3.16-3.73-.54-7.6-.12-12.12-.12Zm-108.26-11.95c-3.05-.56-4.9,1.07-5.48,3.73-.78,3.55-2.63,1.74-4.38,1.28-2.34-.61-2.46-1.78-1.71-3.94,1.19-3.42,3.72-4.67,6.85-4.55,2.34,.09,5.69-.74,5.99,3.35h0s0,0,0,0c1.32,2.39,2.65,4.78,4,7.21-4.91,1.22-6.19-.07-5.12-4.74,.17-.73-.09-1.56-.14-2.35Zm-6.09-8.64c-5.66-.15-13.5-1.13-17.53,6.01-.67,1.18-1.81,.42-2.6-.11-2.14-1.43-4.99-2.3-4.87-5.94-.05-2.47,1.56-4.32,3.29-6.18,8.77-9.44,20.69-12.08,32.44-15.04,2.67-.67,6.63-2.02,8.03-.8,2.86,2.49,4.4,6.5,6.45,9.91,1.09,1.82-.39,2.14-1.6,2.77-3.08,1.62-6.16,3.27-9.13,5.11-4.46,2.76-8.57,4.43-14.47,4.27Zm-12.4,10.06c-.41-.14-1.02-.76-.95-.97,.18-.55,.62-1.33,1.07-1.4,.8-.14,.82,.75,.94,1.23,.09,.91-.23,1.42-1.06,1.15Zm38.29-14.18c1.28-.83,2.46-2.52,4.03-.19,3.74,5.56,7.6,11.04,11.65,16.9-4.88,1.07-8.67,1.83-10.37-4.14-.97-3.41-3.05-6.65-5.76-9.17-1.7-1.58-.98-2.48,.45-3.41Zm-7.6,5.63c1.76-1.82,3.02-.18,3.88,1.27,2.01,3.43,3.74,7.01,5.09,11.44-1.77,.12-3.1,.21-4.42,.31-4.76,.33-9.28-2.53-10.23-7.27-.8-4.02,3.78-3.78,5.67-5.74Zm25.57,16.81c1.23-.31,2.18-.47,3.12,.58,2.93,3.32,5.91,6.59,9.58,10.67-11.83-1.5-22.5-2.77-32.51-7.28,6.75-.94,13.31-2.32,19.81-3.97Zm2.7,335.26c-1.02,7.14-5.01,13.16-9.95,18.14-10.59,10.68-22.85,17.4-38.75,15.76-12.86-1.33-23.09-12.64-21.46-24.67,.52-3.85,2.1-6.25,6.41-5.76,11.59,1.32,17.78-5.66,22.45-14.79,4.72-9.21,2.77-17.77-2.99-25.77-6.42-8.9-16.3-12.96-25.58-17.75-18.81-9.71-39.09-15.87-58.52-24.09-40.6-17.17-70.61-45.72-90.05-85.33-6.16-12.55-13.05-24.8-18.34-37.71-4.82-11.76-9.18-23.85-8.7-37.1,1.01-27.84,7.11-54.5,19.49-79.35,11.95-23.98,30.96-41.61,54.59-53.89,14.05-7.3,29.22-6.96,44.37-3.31,8.57,2.07,17.23,3.68,26.59,5.15-11.6,6.48-13.54,18-16.38,29.14-2.21,8.66-2.87,9.58-11.41,6.74-24.57-8.19-40.14,4.61-53.66,22.13-13.67,17.71-20.18,38.34-20.83,60.41-.52,17.9,4.5,34.87,13.01,50.73,8.61,16.05,18.21,31.44,30.54,44.91,19.16,20.94,41.5,37.93,65.97,52.18,8.2,4.78,16.58,9.25,24.38,14.69,3.3,2.3,6.41,4.77,8.97,7.89,.84,1.03,1.65,2.64,2.95,2.49,5.36-.6,6.8,3.77,9.21,6.9,11.92,15.48,24.99,29.89,39.47,43.04,8.77,7.97,9.76,18.39,8.21,29.22Zm-92.72-166.77c6.68,22.77,15.46,44.81,25.95,66.88-28.35-15.04-54.48-31.78-76.96-53.72-13.06-12.75-23.75-27.28-32.87-43.12-7.89-13.7-14.36-27.78-16.1-43.64-2.37-21.56,2.23-41.61,13.55-60.14,6.44-10.54,14.05-19.74,25.6-25.12,5.53-2.58,10.87-3.7,16.85-1.77,4.59,1.48,9.36,2.49,14.24,2.2,2.55-.15,3.46,.54,3.35,3.27-2.15,53.57,11.53,104.48,26.39,155.15Zm348.72,260.63c7.3-.34,14.64,.67,21.92-.75,2.11-.41,2.7,1.56,3.46,3.01,6.81,12.96,13.07,26.26,20.56,38.82,8.97,15.04,16.38,30.83,24.43,46.31,1.56,3,.8,3.78-2.32,3.65-3.49-.14-7-.03-10.5-.03-81.77-1.43-163.55-1.23-245.33-.81-10.28,.05-20.6,.68-30.9,.85-3.3,.06-4.5-.21-2.7-3.93,9.15-18.87,19.16-37.26,29.58-55.45,5.36-9.37,9.89-19.23,14.66-28.93,1.36-2.76,2.73-3.63,6.15-3.12,5.38,.81,10.96,.33,16.46,.37,6.63,.05,7.35,.42,7.16,6.92-.22,7.51,1.33,14.52,4.31,21.3,4.27,9.71,11.49,16.49,21.01,20.96,6.31,2.96,12.7,5.68,19.31,7.99,22.63,7.91,44.37,4.9,65.81-4.3,9.38-4.02,18.46-8.37,24.5-17.17,4.81-7.01,7.75-14.61,8.22-23.15,.18-3.31,.67-6.6,.85-9.91,.12-2.32,1.51-2.55,3.35-2.64Zm48.79-86.1c-10.7,6.4-21.96,11.88-32.96,17.77-4.8,2.57-8.13,5.76-11.17,10.95-12.66,21.6-16.29,45.11-17.91,69.4-.69,10.37-4.93,19.48-13.85,25.44-18.68,12.48-39.11,17.22-61.52,13.78-9.67-1.49-19.02-4.26-27.54-8.43-12.91-6.31-21.31-16.91-21.92-32.11-.64-16.07-3.25-31.79-8.18-47.09-1.27-3.95-2.79-7.86-4.64-11.57q-8.66-17.32-27.79-26.87c-54.3-27.07-98.2-65.88-131.52-116.6-10.43-15.87-16.51-33.76-22.88-51.44-11.08-30.72-19.8-62.18-26.44-94.11-5.53-26.58-8.68-53.55-6.98-80.87,.53-8.53,2.21-16.78,4.14-25.06,1.82-7.79,6.31-13.63,12.81-17.78,16.49-10.54,33.71-19.56,53.31-22.82,2.02-.34,4.46-2.12,6.39,.39,3.15,4.09,2.6,5.87-2.4,7.26-11.58,3.23-22.96,6.86-32.54,14.53-1.56,1.25-3.11,2.53-4.52,3.93-7.55,7.51-6.8,16.87,2.49,21.99,10.03,5.53,20.4,10.48,31.08,14.73,23.36,9.3,48.11,11.42,72.7,14.71,32.51,4.35,65.07,8.29,97.73,11.25,35.93,3.26,71.88,2.96,107.75-.72,27.33-2.8,54.64-5.89,81.86-9.62,21.89-3,44.07-4.22,65.47-10.64,15.08-4.53,29.25-11.06,43.16-18.17,12.87-6.57,13.7-15.94,2.97-25.52-9.33-8.33-20.56-12.91-32.5-15.58-17.03-3.82-34.18-7.07-51.29-10.53-1.95-.39-3.93-.59-6.22-.93,2.84-8.78,3.74-9.81,13.47-8.01,28.78,5.3,57.64,10.55,83.79,24.8,4.82,2.63,9.63,5.3,14.24,8.28,6.77,4.37,11.53,10.19,13.74,18.29,5.57,20.46,5.33,41.18,3.45,62-4.84,53.5-20.52,104.27-38.72,154.44-12.33,33.99-33.84,61.64-58.82,87.04-20.44,20.79-43.28,38.55-68.27,53.48Zm175.1-329.87c-.15-2.54,.64-3.18,2.98-3.06,5.22,.27,10.28-.87,15.22-2.38,5.42-1.66,10.36-.69,15.46,1.55,14.65,6.44,23.56,18.54,30.15,32.08,15.42,31.67,13.01,62.48-4.06,93.46-22.12,40.15-55.29,68.03-94.07,90.45-5.76,3.33-11.49,6.68-17.25,10.01-.06,.04-.23-.11-.71-.36,4.09-7.72,7.29-15.85,10.66-23.91,13.97-33.41,23.48-68.19,31.33-103.44,6.92-31.06,12.19-62.36,10.29-94.4Zm118.42,118.22c-10.34,22.67-20.03,45.87-34.91,66.13-14.83,20.19-32.57,37.25-54.96,49.24-15.32,8.21-31.42,14.21-47.63,20.3-15.82,5.94-31.35,13.02-45.84,21.97-5.47,3.38-9.64,8.01-12.74,13.75-7.55,13.96,2.27,29.79,12.45,34.81,2.98,1.47,6.1,1.41,9.28,1.09,4.59-.47,6.61,1.65,6.89,6.26,.75,12.23-6.87,21.69-19.34,23.96-22.78,4.16-46.34-14.32-50.44-32.63-2.56-11.45-.85-22.34,8.62-30.91,15.49-14.01,29.37-29.5,41.7-46.37,.67-.92,1.66-2.54,2.27-2.43,5.51,.93,7.31-3.84,10.41-6.52,5.71-4.93,12.02-9.03,18.6-12.56,24.96-13.38,48.21-29.26,68.17-49.32,24.78-24.89,45.04-53.06,51.08-88.57,5.75-33.81-5.48-63.06-28.66-87.77-6.1-6.5-14.23-10.34-22.7-13.17-4.96-1.66-9.82-.85-14.73,.47q-15.69,4.21-19.7-11.06-2.76-10.51-14.97-23.81c10.87-.87,20.92-3.21,30.98-5.45,19.7-4.4,37.27,.49,53.34,11.93,26.45,18.84,44.72,43.31,52.42,75.34,3.5,14.57,7.05,28.99,8.24,44.05,1.16,14.69-2,28.51-7.82,41.26Z" fill="#322625"/><path d="M620.39,985.26c-1.21,1.71-2.03,4.27-4.72,3.48-2.66-.78-2.97-3.25-2.78-5.7-1.86,1.65-.41,3.78-.9,6.03-8.55-.31-17.17,.61-25.77-.68-1.8-.27-3.65-.26-5.47-.26-19.15-.07-38.3,.19-57.43-.33-8.29-.23-16.61-1.07-24.89-.61-24.27,1.36-48.57,.24-72.83,1.11-8.29,.3-16.59,.65-24.89,.73-1.59,.01-3.37,.59-4.69-.94-1.72,.94-3.61,1.01-5.51,1.09h0c2.82,2.64,3.9,6.41,9.52,6.55,68.46,1.65,136.9,1.63,205.36,.12,9.27-.2,13.03-5.06,16.53-11.79-.52,.4-1.17,.7-1.53,1.2Z" fill="#322625"/><path d="M128.6,171.79c3.23,2.07,4.01,8,8.83,7.04,3.73-.74,7.07-3.44,10.57-5.31,10.75-5.75,18.21-14.02,20.49-26.39,.43-2.36-.41-3.94-2.19-5.07-2.38-1.51-4.83-2.94-7.38-4.14-3.82-1.8-7.36-3.82-9.41-7.76-.96-1.84-2.3-3.32-4.66-3.1-2.39,.23-3.11,2.09-3.95,3.97-3.54,7.93-8.39,14.53-17.07,17.63-2.84,1.01-5.13,3.16-5.08,7.15,.66,6.62,3.84,12.13,9.87,16Z" fill="#e14d4b"/><path d="M817.58,219.94c9.87,4.71,20.6,6.18,31.07,8.56,5.03,1.14,9.17-1.66,9.88-6.04,.67-4.09,.97-8.24,1.43-12.36,.21-6.41-2.54-8.69-9.06-7.96-6.61,.74-12.81,.1-18.06-4.92-3.95-3.78-6.51-3.23-9.18,1.26-2.95,4.97-4.81,10.51-8.42,15.19-1.81,2.36-.92,4.72,2.32,6.27Z" fill="#e14d4b"/><path d="M500.85,65.48c.44,7.64,1.45,8.74,8.89,8.51,13.1-.4,24.64-4.37,33.37-14.8,3.84-4.58,3.69-7.43-1.03-11.25-2.05-1.67-4.24-3.25-5.97-5.22-4.2-4.78-5.13-5.04-10.02-.88-4.87,4.15-10.14,7.62-16.38,9.11-8.72,2.08-9.43,2.76-9.04,11.55,.06,.99,.13,1.99,.19,2.98Z" fill="#f5d544"/><path d="M292.26,90.67c3.17-.46,6.29-.35,9.43-.24,10.46,.62,20.26-2.62,29.18-7.18,6.82-3.49,9.12-5.44,2.84-12.82-1.72-2.02-3.41-4.08-5.03-6.19-2.17-2.84-4.53-3.24-7.79-1.54-5.92,3.09-12.17,5.16-18.98,5.51-3.08,.16-6.3,1.07-7.97,4.26-2.08,3.97-4.18,7.93-6.08,11.99-1.83,3.9,.16,6.82,4.39,6.2Z" fill="#e14d4b"/><path d="M594.15,94.27c.15,4,2.26,5.99,6.22,4.78,8.92-2.72,17.62-6.02,25.9-10.38,2.16-1.14,3.07-2.93,3.1-5.28-.63-3.84-2.66-7.16-3.93-10.76-1.33-3.75-3.92-5.75-8.02-5.21-8.69,1.14-15.69,5.94-22.47,10.93-1.54,1.14-2.3,3.76-1.73,6,.82,3.28,.81,6.59,.94,9.91Z" fill="#3b98d0"/><path d="M781.52,94.05c6.97,2.13,14.09,3.84,21.36,4.35,6.06,.42,8.81-1.79,10.52-7.66,.59-2.04,.6-4.24,.88-6.37-.08,0-.16-.02-.24-.02,0-.66,.02-1.33,0-1.99-.35-8.87-2.92-11.47-10.84-7.66-3.9,1.88-8.68,3.36-13.16-.22-1.76-1.41-4.14-.57-5.93,1.01-3.18,2.81-5.5,6.17-6.67,10.29-1.14,4.03,.09,7.05,4.1,8.28Z" fill="#f5d544"/><path d="M275.08,175.02c5.6,3.19,8.2,7.92,9.38,13.92,.47,2.38,1.8,4.33,5.12,4.37,2.04-.41,3.18-1.94,3.6-4.35,.69-3.93,1.75-7.76,3.44-11.42,1.57-3.41,3.82-5.82,7.77-6.15,2.46-.2,4.25-1.4,4.39-3.91,.15-2.83-1.79-4.12-4.37-4.49-3.44-.49-5.23-2.68-6.06-5.81-.8-3.05-1.67-6.1-2.13-9.21-.34-2.31-.65-4.6-3.44-4.59-2.98,.01-2.96,2.59-3.11,4.77-.06,.83,.11,1.71-.12,2.48-2.26,7.5-3.17,15.91-13.33,17.63-3.55,.6-4.34,4.91-1.15,6.73Z" fill="#f6cb3b"/><path d="M130.2,85.38c3.82,.27,7.65,.38,12.45,.61,2.72,.32,6.33-.43,9.95-.96,11.01-1.6,12.52-6.47,10.19-17.64-.81-3.87-3.64-5.73-7.95-4.73-4.53,1.05-9.08,2.03-13.82,1.16-2.09-.39-3.95,.59-5.25,2.28-3.16,4.08-6.47,8.07-9.32,12.35-2.65,3.97-1.11,6.58,3.77,6.93Z" fill="#3b98d0"/><path d="M368.25,37.24c4.78-.06,10.57-.53,16.1-2.59,2.93-1.1,5.68-2.7,5.56-6.24-.17-5.17,1.42-10.79-2.98-15.12-.98-.96-2.45-.84-3.72-1.16-4.97-1.28-8.96,2.36-13.28,2.62-6.98,.42-9.15,4.7-11.43,9.86-4.83,10.91-3.31,13.2,9.75,12.64Z" fill="#f5d544"/><path d="M212.8,98.02c5.29,.5,10.61,.76,15.92,1.12,0-.04,0-.07,0-.11,2.16,0,4.35,.22,6.48-.05,3.36-.43,5.71-2.48,5.57-5.94-.15-3.74,1.29-7.14,1.51-10.81,.37-6.34-.51-7.34-6.78-5.47-5.35,1.6-10.66,2.49-16.12,.56-1.76-.62-3.3-.22-4.36,1.41-2.35,3.62-5.37,6.78-7.14,10.8-2.29,5.2-.8,7.94,4.92,8.48Z" fill="#f5d544"/><path d="M157.67,298.06c6.67,5.66,14.21,9.76,21.2,10.31,8.76,.1,9.85-.81,13.28-9.44,2.19-5.5,1.04-7.95-4.64-9.7-2.54-.78-5.66-.77-7.57-2.31-8.08-6.5-14.58-3.41-21.34,2.28-3.71,3.12-4.65,5.7-.94,8.85Z" fill="#e24d4b"/><path d="M347.5,757.09c-5.49-4.52-14.8-3.92-19.88,1.05-3.59,3.51-5.79,8.04-9.06,11.78-3.12,3.57-2.36,6.56,2.22,7.52,4.52,.95,9.16,1.36,13.74,2.01,8.73-.17,13.03-3.06,15.74-11.09,1.44-4.26,.92-8.23-2.77-11.26Z" fill="#e24d4b"/><path d="M387.3,97.42c-3.72,2.34-3.17,5.1-.31,7.7,4.55,4.16,9.6,7.2,15.79,6.14,8.62,.58,14.84-2.68,18.97-9.9,2.83-4.95,1.14-8-4.68-7.96-4.84,.03-9.36-.29-14-2.37-4.22-1.9-9.12-2.18-12.22,2.97-.84,1.4-2.08,2.5-3.54,3.42Z" fill="#f5d544"/><path d="M893.66,638.21c-2.94,.46-5.8,1.38-8.74,1.89-8.04,1.41-15.65,3.15-17.59,13-.45,2.29-3,4.26-1.19,6.86,2,2.87,4.94,1.84,7.75,1.65,4.78-.33,9.64-2.86,14.31,1.03,1.75,1.46,4.16,.31,4.81-1.89,1.86-6.33,3.39-12.76,5.06-19.16-.13-2.87-1.95-3.77-4.4-3.38Z" fill="#f5d544"/><path d="M819.59,271.42c-9.44-3.05-20.04,2.56-22.8,12.04-1.26,4.32,.19,7.05,4.51,8.39,4.06,1.26,8.2,1.2,12.36,.51,1.16,0,2.33,.02,3.49-.01,9.39-.24,11.58-3.49,8.23-12.17-.54-1.39-1.1-2.78-1.56-4.2-.72-2.19-2-3.84-4.24-4.56Z" fill="#e24d4b"/><path d="M494.81,115.95c2.98,.2,5.99,.04,8.98,.04,4.81,.18,9.64,.79,14.37-.71,2.42-.77,4.1-2.08,4.61-4.68,1.71-8.69-2.8-13.99-11.5-13.46-1.49,.09-3.01,.03-4.49,.21-9.7,1.19-14.6,4.83-16.48,12.18-1.02,4.01,.38,6.15,4.5,6.43Z" fill="#3b98d0"/><path d="M245.05,225.15c2-1.34,3.47-2.77,2.76-5.22-.72-2.49-2.75-3.04-5.16-2.78-2.34,.26-4.97,2.94-6.81,.86-1.43-1.62-1.23-4.67-1.77-7.09-.26-1.13-.59-2.24-.83-3.38-.4-1.91-.98-3.73-3.42-3.37-2.23,.33-2.83,2.18-2.89,4.07-.1,2.82-.31,5.7,.13,8.45,.74,4.65-1.19,6.71-5.62,7.21-2.44,.27-5.68,.47-5.17,3.9,.5,3.29,3.75,2.51,6.17,2.57,.66,.02,1.34,.01,1.99-.13,2.56-.55,3.34,.47,3.74,3.03,.56,3.58,.31,7.34,1.89,10.73,1.1,2.36,2.94,3.67,5.59,3.09,2.57-.56,3.81-2.44,4.16-5.22-.24-.93-.57-2.04-.81-3.17-.65-3.08-1.89-6.2-1.73-9.24,.24-4.81,5.26-2.64,7.79-4.34Z" fill="#f6cb3c"/><path d="M148.61,651.14c-5.97-.35-11.39,1.97-16.43,5.46-1.62,1.12-2.71,2.5-2.12,4.61,2.11,7.62,11.37,14.41,19.29,14.17,1.52-.05,3.78-.04,3.88-1.51,.32-4.7,4.26-7.78,4.87-12.28,1.09-8-1.18-10.65-9.49-10.45Z" fill="#f5d544"/><path d="M717.02,44.51c4.28-1.3,8.38-3.36,12.72-4.27,4.66-.98,6.74-3.19,6.09-7.39,.1-6.65-1.9-8.89-7.87-8.31-5.75,.56-11.51,1.36-16.79,4.15-5.2,2.75-7.77,7.83-6.04,12.62,1.14,3.18,6.68,4.79,11.9,3.2Z" fill="#3b98d0"/><path d="M97.49,321.14c.98,.12,1.99,.02,2.98,.02,0-.03,0-.07,0-.1,2.81,0,5.67,.31,8.42-.08,3.3-.47,5.51-2.45,4.99-6.16-.59-4.27-1.52-8.46-3.67-12.28-2.32-4.12-5.81-5.2-10.14-3.91-4.09,1.22-7.43,3.62-10.03,7-3.27,4.25-2.43,8.61-.39,13.09,1.76,3.86,5.09,2.09,7.83,2.44Z" fill="#3c98d0"/><path d="M232.36,176.18c-.03,4.2-3.2,8.89,1.49,12.5,1.2,.92,2.67,1.3,4.23,.94,5.32-1.23,10.72-2.21,15.74-4.44,3.01-1.34,5.25-3.49,5.21-7.73-.17-.59-.45-1.71-.81-2.79-.41-1.24-.84-2.37-.78-3.8,.16-4.22-2.58-6.36-6.29-4.41-4.53,2.39-9.24,3.49-14.17,4.16-3.22,.44-4.6,2.74-4.62,5.57Z" fill="#3c98d0"/><path d="M772.68,288.58c-.57-.66-1.81-1.09-2.72-1.05-4.63,.23-9.32,.26-13.85,1.1-5.59,1.04-10.09,8.09-9.22,13.74,.86,5.61,5.35,4.94,10.96,5.2,3.3,.39,7.82-1.46,12.43-2.81,2.42-.71,4.49-2.28,4.38-4.82-.18-3.84,.9-8.03-1.98-11.37Z" fill="#f5d544"/><path d="M664.89,743.48c-5.32-1.02-10.71-.43-15.51,2.03-3.35,1.71-5.47,5.15-5.28,8.96,.2,3.86,3.99,4.56,6.92,5.44,2.67,.79,5.53,.92,7.45,1.2,2.56-.11,4.25-.02,5.86-.3,3.87-.67,6.9-2.19,6.95-6.93,.06-5.81-1.88-9.54-6.38-10.4Z" fill="#e24e4b"/><path d="M257.37,230c-.01,2.78-.91,4.29-3.69,4.84-1.34,.27-2.5,1.28-2.45,2.78,.06,1.81,1.46,2.65,3.07,2.6,3.41-.1,3.68,1.99,3.56,4.56-.05,.99-.04,2.03,.21,2.97,.69,2.64,1.61,5.58,4.99,5.16,3.74-.46,3.16-3.62,2.83-6.29-.1-.82-.4-1.61-.6-2.41-.73-2.92-.43-5.19,3.11-6,1.87-.43,3.21-1.7,3.49-3.89-.65-2.79-2.62-3.74-5.21-2.93-2.22,.69-3.07-.08-3.43-2.09-.34-1.9-.19-4.42-3.17-4.02-2.64,.35-2.7,2.91-2.71,4.72Z" fill="#f6cc3d"/><path d="M686.57,305.77s0,0-.01,.01c-.02,.02-.03,.03-.05,.06,1.32,1.03,2.73,1.58,4.39,1.2l-1.97-1.78c-.85-.13-1.71-.34-2.36,.51Z" fill="#d8d3d1"/><path d="M697.23,667.49c24.97-25.39,46.48-53.05,58.82-87.04,18.2-50.17,33.89-100.95,38.72-154.44,1.88-20.81,2.12-41.53-3.45-62-2.21-8.1-6.96-13.91-13.74-18.29-4.61-2.98-9.42-5.65-14.24-8.28-26.15-14.25-55.01-19.5-83.79-24.8-9.73-1.79-10.64-.77-13.47,8.01,2.29,.34,4.27,.53,6.22,.93,17.11,3.46,34.26,6.71,51.29,10.53,11.94,2.68,23.17,7.26,32.5,15.58,10.73,9.58,9.89,18.94-2.97,25.52-13.91,7.1-28.08,13.64-43.16,18.17-21.39,6.42-43.57,7.64-65.47,10.64-27.22,3.72-54.53,6.82-81.86,9.62-35.87,3.68-71.82,3.98-107.75,.72-32.67-2.96-65.22-6.91-97.73-11.25-24.58-3.29-49.34-5.4-72.7-14.71-10.68-4.25-21.05-9.21-31.08-14.73-9.3-5.12-10.05-14.48-2.49-21.99,1.41-1.41,2.96-2.69,4.52-3.93,9.58-7.67,20.97-11.31,32.54-14.53,5-1.39,5.55-3.17,2.4-7.26-1.94-2.51-4.37-.73-6.39-.39-19.61,3.26-36.82,12.28-53.31,22.82-6.5,4.15-10.99,9.99-12.81,17.78-1.94,8.27-3.61,16.52-4.14,25.06-1.7,27.32,1.44,54.29,6.98,80.87,6.64,31.93,15.36,63.4,26.44,94.11,6.38,17.67,12.46,35.57,22.88,51.44,33.32,50.71,77.22,89.52,131.52,116.6q19.06,9.5,27.79,26.87c1.85,3.7,3.37,7.62,4.64,11.57,4.93,15.3,7.53,31.02,8.18,47.09,.61,15.2,9,25.79,21.92,32.11,8.52,4.17,17.87,6.94,27.54,8.43,22.41,3.44,42.84-1.3,61.52-13.78,8.92-5.96,13.16-15.07,13.85-25.44,1.63-24.29,5.26-47.79,17.91-69.4,3.04-5.19,6.38-8.38,11.17-10.95,11.01-5.89,22.26-11.37,32.96-17.77,24.98-14.93,47.82-32.69,68.27-53.48Zm-192.56-196.05c16.03,.2,34.27,13.79,32.27,32.15,.87,20.65-14.56,31.24-32.2,31.22-19.56-.03-33.4-12.59-32.97-33.02,.39-18.42,18.3-30.52,32.9-30.34Zm-218.12,6.58c-10.3,1.9-20.47,2.6-30.11-2.76-.71-.39-1.63-.38-2.38-.72-1.9-.86-3.58-.46-5.14,.73-1.92,1.47-.39,3.08,0,4.52,6.16,22.83,14.85,44.81,22.45,67.16,7.24,21.32,16.1,41.9,26.01,62.08,1.32,2.7,4.41,7.01,1.91,8.41-2.88,1.61-5.17-3.02-7.23-5.53-33.39-40.75-52.89-87.9-62.45-139.17-2.74-14.7-7.91-28.87-9.12-43.82-1.11-13.7-4.23-27.38-1.43-41.19,1.64-8.1,3.57-16.16,5.72-24.14,1.57-5.83,5.52-10.17,10.2-13.84,6.31-4.97,13.42-8.64,20.42-12.48,1.43-.78,3.01-1.4,5.86-.82-6.29,5.34-11.79,10.1-17.41,14.73-2.73,2.25-5.05,4.84-7.04,7.72-4.19,6.07-3.16,10.61,1.26,16.39,13.55,17.69,33.14,23.28,53.39,28.02,8.56,2.01,17.02,4.51,25.7,6,1.8,.31,3.6,.61,5.41,.79,5.11,.49,8.23,1.91,10.13,7.99,1.69,5.43,.75,11.31,3.94,16.54,1.95,3.19-.12,7.39-2.16,10.81-10.92,18.32-27.18,28.73-47.92,32.56Zm157.68,260.24c-2.31,1.38-4.24,.07-5.89-1.32-3.95-3.31-7.43-7.17-12.24-9.38-15.1-6.96-29.95-14.35-44.61-22.24-13.94-7.5-24.86-18.31-36.34-28.64-2.1-1.89-4.12-3.89-6.07-5.94-.92-.97-3.02-1.94-1.52-3.56,1.34-1.45,2.72,.26,3.88,1.04,6.09,4.06,12.35,7.91,18.17,12.33,13.31,10.13,28.68,15.91,43.98,22.07,10.16,4.09,20.68,7.42,30.18,13.08,6.81,4.06,10.75,10.17,13.01,16.6,.23,3.15-.71,4.84-2.57,5.95Zm188.44-156.36c-.59,7.87-5.26,14.54-10.53,20.51-15.17,17.2-35.38,24.62-56.87,29.67-8.23,1.93-16.58,.66-24.86,1.02-2.33,.1-4.66,0-7,.03-3.57,.05-5.99,2.29-7.7,4.92-1.77,2.71,1.5,4.23,2.75,5.65,4.95,5.61,10.41,10.77,15.66,16.12,5.18,5.28,5.51,12.12,.83,16.75-5.95,5.89-12,5.82-17.88,.26-6.51-6.16-13.39-11.92-19.92-18.06-2.27-2.13-4.02-1.29-5.56,.3-6.47,6.7-14.54,11.61-20.62,18.75-3.39,3.98-8.8,4.19-14.02,.92-5.84-3.65-7.61-8.19-5.37-13.89,.86-2.19,2.12-4.1,3.83-5.78,5.12-5.01,10.22-10.05,15.15-15.24,1.49-1.57,5.08-3.2,3.61-5.19-1.86-2.52-4.3-5.59-8.34-5.54-4.5,.05-9,.01-13.5,.01-22.53,.08-43.24-6.02-61.82-18.74-11.64-7.97-21.81-17.75-23.94-32.35-4.07-27.82,8.54-56.16,39.13-64.12,10.96-2.85,22.07-.58,32.71,3.49,16.32,6.23,29.19,16.61,37.25,32.11,6.6,12.71,11.11,26.2,11.33,40.85,.09,5.94,1.01,11.87,1.43,17.81,.29,4.08,2.99,6.4,6.36,7.11,2.73,.58,5.98-4.58,6.13-8.44,.7-17.96,2.43-35.7,10-52.37,6.17-13.58,15.54-24.21,28.51-31.55,11.62-6.57,23.85-10.55,37.54-9.91,9.85,.46,17.87,4.44,25.43,10.14,18.5,13.92,21.88,33.63,20.28,54.8Z" fill="#f6cb3a"/><path d="M338.06,382.18c5.35,6.16,10.59,8.9,18.08,9.79,7.2,.85,14.29,2.57,21.98,4.01-2.21-5.41-.84-9.65,3.47-12.15,3.27-1.9,4.45-4.58,5.54-7.76,1.36-3.98,1.85-8.1,2.57-12.19,.47-2.68-.03-7.25,2.72-7.18,3.06,.08,2.33,4.51,2.27,7.18-.06,2.82,.76,3.21,3.46,2.73,7.24-1.27,13.88,.3,19.55,5.26,1.16,1.02,2.54,1.79,3.9,2.74,1.54-3.06,2.84-5.75,4.24-8.39,.71-1.35,1.64-2.79,3.45-2.1,1.73,.67,.97,2.31,.7,3.49-.6,2.58-1.47,5.1-2.18,7.66-1.87,6.78-7.82,12.93-3.23,20.73,.14,.24,.09,.69-.03,.98-1.58,3.85,.96,3.87,3.65,4.19,21.19,2.53,42.44,4.26,63.78,4.54,13.12,.17,26.27,.41,39.74-.62-1.08-4.08-2.32-7.9-1.77-11.92,.19-1.36-.14-2.24-1.64-2.49-3.37-.57-4.33-3.3-4.12-5.96,.28-3.68-1.78-4.91-4.52-6.03-8.35-3.4-16.21-7.79-23.79-12.59-5.46-3.45-10.13-7.68-8.95-15.32,.87-5.58,.76-11.37,2.16-16.79,1.02-3.93-.46-5.21-3.33-6.81-5.7-3.17-6.73-5.41-5.27-11.88,.67-2.99-.07-3.96-2.99-3.94-6.55,.05-12.86-1.74-19.17-3.09-6.5-1.39-11.99-4.81-13.21-11.98-1.5-8.86-2.49-17.83-.47-26.79,.54-2.39,.23-3.72-2.58-4.75-6.13-2.24-7.45-6.66-4.1-12.31,1.07-1.81,2.68-3.3,4.04-4.93-.05-.15-.06-.38-.17-.46-2.14-1.55-4.2-3.25-6.47-4.61-23.9-14.3-48.4-26.27-77.65-22.23-8.84,1.22-16.28,4.52-22.2,11.08-1.05,1.16-4.76,2.92-.85,4.67,2.68,1.2,5.3,7.23,9.04,1.08,2.98-4.91,6.64-9.22,11.87-11.84,7.81-3.91,14.73,.58,14.3,9.29-.11,2.31-.7,4.59-1.07,6.89,1.37,.73,3.83-1.37,4.33,1.72,.11,.71,.88,1.05,1.55,.55,2.56-1.89,4.92-3.58,5.6,1.57,.13,.98,1.33,.43,2.12,.26,.79-.17,2.2-.42,2.36-.12,2.17,4.16,6.75,2.24,9.81,4.03h0s0,0,0,0c1.78-2.8,3.5-5.65,6.01-7.9,4-3.59,10.28-4.72,14.35-2.6,4.63,2.41,6.93,7.03,5.97,13.06-.95,5.95-2.88,11.62-6.97,16.25-1.62,1.83-1.52,3.1-.05,5.1,7.8,10.57,4.8,18.91-8,22.73,0,0,0,0,0,0,.19,2.22-.28,4.25-2.96,4.07-3.48-.24-3.75-3.09-3.95-5.8-4.36-3.44-5.24-8.04-3.66-12.98,1.46-4.57,2.98-8.75-1.88-12.36-1.04-.78-1.29-2.63-1.9-3.99-1.04-4.29-1.75-8.02-8.01-8.32-2.38-.11-4.95-.81-7.72-.54-4.87,.46-1.84-4.25-3.47-6.22-2.99,1-4.78,7.43-9.14,2.18,0,0,0,0,0,0-1.4,.88-3.15,1.47-4.13,2.68-3.22,4-5.8,2.43-8.64-.43-2.93-2.95-6.13-5.64-9.1-8.55-1.84-1.8-3.9-3.22-6.42-3.61-5.64-.86-10.88-2.99-16.18-4.9-2.45-.88-4.61-.77-7.18,.01-6.38,1.95-13.05,2.89-19.71,2.28-2.94-.27-3.32,.83-3.74,3.05-5.6,29.23-.44,57.01,12.14,83.45,9.77,20.54,22.85,38.9,37.83,56.15Zm82.68-93.7c2.07-.03,7.08,5.75,7.09,8.34,.02,2.55-1.36,4.09-3.9,4.24-2.75,.15-5.97-4.67-6.08-8.67-.06-2.16,.71-3.5,2.89-3.9Zm-30.03-.02c2.06-.18,3.12,2.07,2.47,3.97-1,2.89-.57,7.19-5.03,7.45-2.1,.12-2.67-2.05-2.63-3.8,.81-3.39,.95-7.25,5.19-7.61Z" fill="#fdebd1"/><path d="M922.06,424.01c-7.7-32.03-25.97-56.5-52.42-75.34-16.07-11.44-33.63-16.32-53.34-11.93-10.05,2.24-20.11,4.58-30.98,5.45q12.21,13.3,14.97,23.81,4,15.22,19.7,11.06c4.91-1.32,9.77-2.13,14.73-.47,8.47,2.84,16.6,6.68,22.7,13.17,23.18,24.71,34.41,53.96,28.66,87.77-6.04,35.51-26.3,63.67-51.08,88.57-19.97,20.06-43.21,35.94-68.17,49.32-6.58,3.53-12.89,7.63-18.6,12.56-3.1,2.68-4.9,7.45-10.41,6.52-.61-.1-1.6,1.51-2.27,2.43-12.33,16.87-26.2,32.37-41.7,46.37-9.48,8.57-11.19,19.46-8.62,30.91,4.1,18.31,27.65,36.79,50.44,32.63,12.48-2.28,20.09-11.73,19.34-23.96-.28-4.61-2.3-6.73-6.89-6.26-3.18,.32-6.3,.38-9.28-1.09-10.18-5.02-20-20.85-12.45-34.81,3.11-5.74,7.28-10.38,12.74-13.75,14.49-8.95,30.02-16.03,45.84-21.97,16.22-6.09,32.32-12.09,47.63-20.3,22.38-11.99,40.12-29.06,54.96-49.24,14.88-20.26,24.57-43.46,34.91-66.13,5.82-12.75,8.98-26.57,7.82-41.26-1.19-15.07-4.74-29.48-8.24-44.05Z" fill="#f6cb3a"/><path d="M400.7,989.03c8.3-.08,16.6-.43,24.89-.73,24.26-.87,48.56,.25,72.83-1.11,8.28-.46,16.59,.38,24.89,.61,19.13,.52,38.29,.25,57.43,.33,1.83,0,3.68,0,5.47,.26,8.6,1.29,17.22,.37,25.77,.68,.49-2.24-.96-4.38,.9-6.03,.31-.94,.53-1.92,.96-2.8,11.67-24.11,23.37-48.21,35.03-72.33,.53-1.09,1.75-2.09,.83-3.75-1.59,0-3.27-.17-4.9,.03-17.22,2.03-34.58,1.45-51.8,1.5-76.55,.22-153.13,1.74-229.66-1.57-3.67-.16-4.78,.41-2.84,4.26,7.11,14.12,13.97,28.36,20.81,42.61,4.96,10.32,9.74,20.73,14.6,31.1,1.49,1.99,1.62,4,.04,6.02,0,0,0,0,0,0,0,0,.05,0,.05,0,0,0,0,0,0,0,1.31,1.52,3.1,.95,4.69,.94Z" fill="#686454"/><path d="M315.97,683.99c-14.48-13.15-27.54-27.56-39.47-43.04-2.41-3.13-3.84-7.5-9.21-6.9-1.3,.15-2.11-1.47-2.95-2.49-2.56-3.12-5.68-5.59-8.97-7.89-7.8-5.45-16.17-9.92-24.38-14.69-24.47-14.25-46.81-31.24-65.97-52.18-12.33-13.47-21.93-28.86-30.54-44.91-8.51-15.86-13.54-32.83-13.01-50.73,.65-22.07,7.16-42.7,20.83-60.41,13.52-17.52,29.09-30.32,53.66-22.13,8.53,2.85,9.2,1.93,11.41-6.74,2.84-11.15,4.78-22.67,16.38-29.14-9.35-1.47-18.01-3.09-26.59-5.15-15.15-3.65-30.32-3.99-44.37,3.31-23.63,12.28-42.64,29.91-54.59,53.89-12.38,24.86-18.49,51.51-19.49,79.35-.48,13.25,3.89,25.34,8.7,37.1,5.29,12.91,12.17,25.16,18.34,37.71,19.44,39.6,49.45,68.15,90.05,85.33,19.43,8.22,39.71,14.39,58.52,24.09,9.28,4.79,19.16,8.84,25.58,17.75,5.77,8,7.71,16.56,2.99,25.77-4.67,9.12-10.85,16.11-22.45,14.79-4.31-.49-5.89,1.91-6.41,5.76-1.63,12.03,8.61,23.34,21.46,24.67,15.9,1.64,28.16-5.08,38.75-15.76,4.94-4.99,8.93-11,9.95-18.14,1.55-10.83,.56-21.25-8.21-29.22ZM122.52,389.38c.76-3.05,1.55-6.22,3.08-8.92,8.54-15.07,19.96-27.4,35.23-35.88,7.87-4.37,15.76-4.91,23.55,.41,2.23,1.52,4.82,2.07,7.54,2.33,2.45,.23,5.74,.72,5.44,3.81-.28,2.94-3.55,2.9-6.23,3.17-10.56-3.47-17.91,3.67-25.57,8.77-10.11,6.73-19.45,14.56-28.55,22.65-3.12,2.77-6.52,5.25-10.31,6.97-3.01,1.37-5.12,.43-4.19-3.32Zm16.5,171.28c-3.78,3.16-9.78,2.38-13.11-2.49-14.41-21.07-27.57-42.84-34.81-67.61-1.54-5.27-2.14-10.75-1.96-18.62,.43-5.11,.57-12.61,3.33-19.73,1.7-4.4,1.82-9.11,2.37-13.72,.76-6.37,2.91-12.28,5.8-17.94,1.13-2.22,3.07-4,5.62-2.97,2.92,1.16,1.96,3.8,1.26,6.05-2.85,9.21-6.18,18.31-8.48,27.65-4.27,17.32-.54,33.55,7.73,49.05,8.89,16.65,18.52,32.71,32.06,46.16,4.6,4.57,4.31,10.7,.18,14.15Z" fill="#f6cb3a"/><path d="M532.35,179.09c1.99,1.31,3.55,3.06,4.56,5.2,4.97,10.48,5.83,21.3,.43,31.66-2.6,4.98-2.99,9.41-1.95,14.66,2.07,10.43,3.67,20.95,5.45,31.43,7.8,45.96,16.96,91.54,35.46,134.7,1.53,3.57,3.07,4.67,6.89,4.25,23-2.54,45.93-5.59,68.82-8.97,2.74-.4,4.66-1.31,5.73-3.96,2.23-5.55,4.58-11.04,5.51-17.04,1.23-7.94,1.21-8.23-5.75-11.58-12.48-6-12.54-6.01-10.09-19.32,.57-3.1,.33-5.14-2.8-6.96-5.72-3.32-6.28-5.58-3.17-11.49,4.97-9.43,9.27-19.17,13.61-28.9,2.57-5.77,5.18-11.51,6.81-17.66,.94-3.56,.05-5.76-2.97-7.94-12.24-8.82-25.49-15.68-39.57-20.97-6.07-2.28-12.11-5.4-18.39-6.11-5.45-.61-6.86-2.53-6.67-7.24,.05-1.32-.27-2.65-.35-3.98-.37-6.14-1.96-7.41-8.16-6.48-6.57,.98-7.68-.34-6.46-6.73,1.75-9.12,5.8-17.75,5.87-28.59,1.22-5.39-2.58-8.73-8.07-11.36-14.8-7.1-30.53-10.16-46.75-11.28-1.18-.08-2.74-.68-3.25,1.29-.78,3.05,2.54,11.6,5.23,13.37Z" fill="#d4e062"/><path d="M322.46,217.97c2.16,4.15,4.65,8.26-1.69,11.22,4.21,2.93,7.07,3.81,9.79-1.32,3.15-5.96,9.1-9.1,15.1-11.73,2.94-1.29,5.46-2.82,7.62-5.32,4.42-5.1,9.71-9.06,16.5-10.59,9.12-2.06,18.31-1.1,27.26,.38,23.36,3.84,44.25,12.68,59.67,31.74,2.77,3.42,3.27,6.6,.55,9.83-2.88,3.42-6.12,6.59-10.6,7.97-3.26,1-5.05,3.61-5.36,6.57-.33,3.18,2.97,3,5.07,3.55,4.01,1.04,5.54,3.36,4.26,7.38-2.46,7.69-1.76,15.44-.46,23.19,1.08,6.46,3.64,9.24,10.16,10.63,4.22,.9,8.5,1.48,12.76,2.2,3.27-.31,6.62-1.77,9.68,.71,0,0,0,0,0,0,4.24,1.24,6.02,3.38,3.99,8.06-1.07,2.46-3.06,6.6,.79,7.88,9.18,3.05,8.52,9.56,7.11,16.72-.16,.82-.34,1.63-.44,2.46-1.75,15.38-.8,16.98,12.7,24.22,6.01,3.22,12.04,6.4,18.28,9.15,3.33,1.47,5.5,3.51,4.65,7.63-.23,1.12-.63,3.31,.9,3.5,6.48,.79,5.2,5.98,5.82,9.93,1.81,11.38,2.19,11.75,13.23,10.06,.14-.02,.27-.17,.5-.32-.14-.6-.24-1.26-.45-1.88-10.92-31.08-19.69-62.79-27.71-94.72-5.39-21.48-7.98-43.42-10.39-65.39-.16-1.49,.57-3.74-2.34-3.16-11.47,2.29-21.13-1.92-30.36-8.14-3.4-2.29-5.44-5-6.3-9.06-1.03-4.83-1.86-9.84-5.29-13.8-4.79-5.53-3.63-9.68,3.38-12.51,9.41-3.81,19-7.12,28.78-9.83,2.66-.74,3.81-1.77,3.42-4.8-.6-4.61-1.24-9.36-.71-13.92,.52-4.47-1.5-4.88-4.84-4.96-4.32-.11-8.64-.37-12.95-.7-1.1-.09-2.39-.42-2.66-1.85-.17-.93,.31-1.86,1.18-1.88,6.35-.15,4.88-4.81,4.89-8.48,.03-9.94-3.72-12.75-13.53-10.41-10.46,2.49-19.85,7.6-29.49,12.09-3.21,1.5-4.3,1.37-4.19-2.76,.1-4.06-.94-8.19-1.81-12.22-.77-3.54-3.04-4.57-6.33-2.75-7.43,4.11-14.72,8.42-21.4,13.73-3.49,2.78-4.39,5.88-3.77,10.43,.74,5.46,2.81,10.87,1.7,16.54-1.42,2.89-2.89,2.98-4.42,.09l-.42,.17h0c-.11,.79-.21,1.57-.32,2.36,0,0,0,0,0,0,.99,.05,1.98,.05,2.95,.17,1.56,.19,3.09,.74,3.11,2.55,.02,1.68-1.65,2.06-2.87,2.19-3.71,.37-6.3,2.65-9.01,4.8-2.77,2.19-5.08,2.35-6.44-1.51-.88,.04-1.75,.09-2.63,.13,0,0,0,0,0,0-2.37,2.62-5.01,1.97-7.72,.65-10.85-5.29-16.71-14.14-17.33-26-.32-6.01-5.23-5.23-8.32-6.81-2.66-1.37-3.84,1.69-4.97,3.67-4.32,7.63-4.05,15.98-3.64,24.31,.34,6.72-.08,7.67-6.75,9.29-7.52,1.83-13.96,5.23-18.82,11.38-1.97,2.49-2.88,4.99-1.95,8.3,.86,3.04,1.42,6.16,2.89,8.98Z" fill="#d4e062"/><path d="M576.83,809.71c-.18,3.31-.67,6.6-.85,9.91-.47,8.54-3.41,16.14-8.22,23.15-6.04,8.8-15.12,13.15-24.5,17.17-21.44,9.2-43.18,12.21-65.81,4.3-6.62-2.31-13-5.03-19.31-7.99-9.52-4.46-16.74-11.25-21.01-20.96-2.98-6.78-4.54-13.79-4.31-21.3,.19-6.5-.53-6.88-7.16-6.92-5.5-.04-11.08,.44-16.46-.37-3.43-.52-4.79,.35-6.15,3.12-4.77,9.7-9.29,19.56-14.66,28.93-10.42,18.19-20.43,36.58-29.58,55.45-1.8,3.72-.6,3.99,2.7,3.93,10.31-.18,20.62-.8,30.9-.85,81.78-.43,163.56-.62,245.33,.81,3.5,0,7-.11,10.5,.03,3.11,.13,3.87-.65,2.32-3.65-8.05-15.48-15.46-31.28-24.43-46.31-7.49-12.56-13.75-25.85-20.56-38.82-.76-1.45-1.35-3.42-3.46-3.01-7.28,1.42-14.62,.4-21.92,.75-1.84,.09-3.23,.32-3.35,2.64Z" fill="#686454"/><path d="M606.28,231.67c.65,3.37,5.59,7.11,8.88,6.03,3.49-1.15,1.22-4.47,1.1-6.78-.2-3.67-.42-7.31-.03-10.97,.82-7.77,1.95-15.51,2.45-23.3,1.03-15.93,7.48-29.44,17.43-41.61,16.38-20.06,38.3-29.77,63.14-34.01,18.92-3.23,38.53,.73,50.8,23.32,9.43,17.37,13.73,35.5,12.32,55.55-2.09,29.74-15.66,52.46-38.87,70.02-16.99,12.86-36.58,19.38-57.48,22.35-1.44,.2-3.06-.21-3.94,1.49-5.26,10.18-9.45,20.88-15.04,30.91-1.97,3.54,1.44,4.33,3.71,5.53,3.01,1.59,2.91-1.28,3.45-2.6,2.9-7.09,5.89-14.13,10.01-20.63,3.42-5.39,8.03-9.1,14.59-9.03,3.21,.03,6.28-.29,9.36-.92,19.17-3.89,37.51-10.34,52.37-23.26,24.76-21.53,42.3-47.37,43.04-81.75,.33-15.27,1.9-30.84-4.85-45.2-9.2-19.59-20.27-37.5-42.83-44.63-6.28-1.98-12.4-1.95-18.73-2.21-14.6,.66-29.29,1.37-42.88,7.48-23.81,10.72-43.63,26.11-55.91,49.86-7.54,14.59-10.25,30.47-12.4,46.5-1.24,9.29-1.45,18.58,.33,27.83Z" fill="#69a0c0"/><path d="M665.12,389.94c3.67,.78,6.91-.39,10.17-.76,26.25-2.92,50.76-11.67,74.51-22.71,9.03-4.2,9.16-7.69,1.83-14.71-7.4-7.08-16.82-10.31-26.29-12.5-19.73-4.57-39.69-8.12-59.54-12.16-2.33-.47-3.15,.61-4.08,2.5-2.4,4.84-3.46,10.26-7.81,14.26-2.9,2.66-1.27,6.25,2.71,7.76,1.24,.47,2.48,.96,3.7,1.49,10.16,4.38,11.25,6.72,10.07,17.66-.72,6.68-3.02,12.84-5.26,19.17Z" fill="#f6cb3a"/><path d="M534.26,262.08c-1.21-11.21-2.56-22.4-3.96-34.52-4.89,3.13-8.87,5.84-13.02,8.25-1.66,.96-1.87,1.87-1.46,3.59,1.19,5.01,2.31,10.04,3.23,15.1,2.53,13.89,4.37,27.94,7.5,41.69,7.58,33.23,17.27,65.9,27.32,98.45,3.42,11.1,2.04,8.51,12.13,8.24,4.59-.12,5.04-1.6,3.36-5.61-11.2-26.75-19.62-54.34-25.28-82.82-3.47-17.43-7.93-34.66-9.84-52.38Z" fill="#fff"/><path d="M559.24,159.46c-.46,2.06,.22,2.99,2.21,3.6,6.18,1.91,12.36,3.87,18.15,6.84,1.87,.96,2.88,.75,3.62-1.48,3.61-10.81,10.87-18.51,20.95-23.54,2.72-1.36,2.63-2.79,1.44-5.07-6.33-12.07-15.99-18.34-29.95-17.35-5.58,.16-11.12,.95-16.57,2.64-3.22,1-4.09,2.21-2.73,5.6,3.71,9.26,5.1,18.87,2.88,28.77Z" fill="#d4e062"/><path d="M468.27,201.93c7.06,4.56,9.73,11.46,11.86,18.7,.27,.92,.55,2.13,1.24,2.59,7.74,5.25,15.77,10.95,25.64,8.11,20.78-5.98,28.49-19.27,25.56-39.13-.91-6.14-3.48-7.32-9.72-6.16-7.2,1.34-14.14,3.59-21.14,5.66-10.96,3.25-21.86,6.68-33.44,10.23Zm56.88-5.28c1.51,2.82,1.71,5.75-1.42,7.91-2.79,4.79-4.83,9.85-10.16,13.01-10.47,6.2-23.45,3.73-30.62-6.57,0,0,0,0,0,0-4.35-5.33-3.79-8.41,2.7-9.81,10.54-2.26,20.52-6.69,31.32-7.88,3.39-.37,6.47,.13,8.18,3.34Z" fill="#fdead0"/><path d="M448.22,242.2c5.78-3.63,5.79-6.16-.03-10.03-.83-.55-1.67-1.11-2.42-1.76-17.83-15.46-38.74-23.58-62.03-25.9-9.69-.96-18.97-.29-26.7,8.69,10.96-.44,20.84-.48,30.7,1.85,21.14,5.01,40.74,13.07,57.49,27.22,1.22,1.03,1.9,.61,2.99-.07Z" fill="#fff"/><path d="M301.23,350.25c1.2-.63,2.69-.95,1.6-2.77-2.04-3.41-3.59-7.42-6.45-9.91-1.4-1.22-5.35,.12-8.03,.8-11.75,2.95-23.67,5.6-32.44,15.04-1.73,1.86-3.34,3.72-3.29,6.18-.12,3.65,2.73,4.51,4.87,5.94,.79,.53,1.93,1.29,2.6,.11,4.03-7.14,11.87-6.16,17.53-6.01,5.9,.16,10.02-1.51,14.47-4.27,2.96-1.83,6.04-3.48,9.13-5.11Z" fill="#f5cb3a"/><path d="M403.95,175.87h0s0,0,0,0c.11-.79,.21-1.57,.32-2.36h0c-2.68-13.53-3.48-27.31-5.58-40.91-.89-5.78-3.61-7.63-9.3-6.07-2.6,.71-4.79,2.24-6.69,4.19-3.3,3.36-6.06,7.17-7.95,11.42-6.66,14.94-6.06,29.86,11.46,36.9,2.44,.98,3.11,2.78,2.87,5.17h0c.88-.04,1.75-.09,2.63-.13,2.24-5.49,7.67-6.2,12.25-8.2Zm-25.64-17.68c-1.19-7.49-.73-15.2,5.57-21.01h0s0,0,0,0c.71-2.97,2.36-5.33,5.57-5.16,3.16,.17,3.65,3.14,3.8,5.59,.63,10.31,3.64,20.06,6.61,29.85,.79,2.62,.32,5.33-2.04,7.22-1.78,1.43-3.38,.73-4.84-.66-8-2.4-13.39-7.74-14.67-15.83Z" fill="#fce9d0"/><path d="M685.64,280.32c1.57-.36,2.04-1.17,1.69-2.88-1.11-5.34-2.06-10.72-2.96-16.1-.42-2.51-1.67-2.8-3.79-1.99-4.45,1.7-8.94,3.3-13.53,4.98,6.31,6.79-.27,13.12-.21,20.23,6.35-1.44,12.57-2.84,18.8-4.26Z" fill="#fefefe"/><path d="M382.62,390.9c-.22,2.08,1.14,3.34,3.37,3.44,2.59,.12,4.57,1.17,6.46,3.14,2.95,3.08,11.4,3.62,14.94,1.1,2.71-1.93,5.23-3.63,8.34-1.87,1.44,.3,2.71,.72,3.02-1,.17-.91,.45-1.94-.75-2.56-6.55-3.37-12.77-7.25-20.7-7.26-3.86,0-7.33,.89-10.98,1.36-2.78,.36-3.5,1.73-3.7,3.63Z" fill="#fce9cf"/><path d="M372.35,249.86c1.63,1.97-1.4,6.68,3.47,6.22,2.77-.26,5.35,.43,7.72,.54,6.26,.3,6.97,4.02,8.01,8.32-.13-5.41,.77-10.62,3.03-15.56h0c-3.06-1.79-7.65,.13-9.81-4.03-.15-.3-1.57-.04-2.36,.12-.79,.17-1.99,.72-2.12-.26-.68-5.15-3.04-3.46-5.6-1.57-.67,.5-1.44,.16-1.55-.55-.5-3.09-2.96-1-4.33-1.72-1.87,3.56-3.73,7.11-5.6,10.67,0,0,0,0,0,0,4.36,5.25,6.16-1.18,9.14-2.18Z" fill="#f3a9aa"/><path d="M608.69,162.4c.38-.85,.75-1.88-.16-2.99-.81,.46-1.79,.8-2.46,1.45-9.42,9.08-15.74,19.53-14.48,33.28,.08,.86-.11,1.58,1.03,1.83,2.83,.6,8.74-3.25,9.14-6.2,1.25-9.4,3.05-18.64,6.93-27.37Z" fill="#d2df61"/><path d="M643.79,157.92c-4.65,3.96-7.58,9.2-10.59,14.35-7.47,12.77-8.38,27.21-10.1,41.37-1.03,8.51-1.96,17.12-.26,25.7h0c1.32-12.42,.54-25.05,3.24-37.3,1.18-5.32-.11-11.33,3.99-15.93-1.05-2.21,.23-3.39,1.94-4.37,3.15-1.82,6.19-3.87,9.48-5.39,3.18-1.47,3.73-3.34,2.95-6.67-.78-3.32-3.36-6.79-.49-10.35h0c-.05-.47-.1-.93-.15-1.4Z" fill="#fdfdfd"/><path d="M508.23,175.14q.38,7.19,7.38,5.38c7.78-2.01,7.58-2,6.98-10.91-.29-4.36-1.5-6.39-6.36-6.48-8.17-.14-8.17-.49-8.01,8.03,0,1.33-.06,2.65,0,3.97Z" fill="#fcfcfd"/><path d="M324.6,378.54c-.94-1.06-1.89-.89-3.12-.58-6.5,1.65-13.06,3.03-19.81,3.97,10.01,4.51,20.68,5.78,32.51,7.28-3.67-4.08-6.65-7.35-9.58-10.67Z" fill="#f1c739"/><path d="M404.09,380.33c3.91,.57,7.69,2.04,11.52,3.16,.82,.24,1.6,.6,2.23-.24,.63-.84,.21-1.42-.48-2.08-2.78-2.6-5.14-5.7-8.74-7.31-4.4-1.97-9.21-2.57-13.64-1.27-2.39,.7-1.63,4.68-3,7.62,4.52,0,8.39-.42,12.12,.12Z" fill="#fbfbfb"/><path d="M536.96,158.97c4.22,2.5,8.64,.09,8.88-4.91,.06-1.32,0-2.65,0-4.66,.26-2.65-.32-5.9-1.09-9.12-.26-1.1-.41-2.52-1.59-2.87-1.4-.42-1.93,1.05-2.47,1.98-3.04,5.24-4.63,10.91-4.7,16.99-.01,.97-.13,1.94,.96,2.58Z" fill="#d0dc60"/><path d="M587.3,172.1c-.4,1.11-1.08,2.41,.36,2.97,1.39,.54,1.69-.93,2.34-1.89,4.68-6.99,9.46-13.94,17.21-17.98,1.28-.67,2.37-1.26,1.91-2.96-.42-1.41,.03-3.31-1.36-4.12-1.37-.8-2.31,.86-3.33,1.53-8.31,5.49-13.8,13.15-17.14,22.46Z" fill="#faf9f9"/><path d="M550.97,158.73c-.16,.81-.23,1.74,.78,2.06,1.27,.4,1.74-.45,2.04-1.51,1.14-3.99,1.79-8.06,2.03-12.3-.27-4.9-1.51-9.7-2.87-14.48-.36-1.27-.34-3.6-2.36-2.64-1.76,.83-5.05,1.82-3.45,4.88,3.99,7.62,5.56,15.51,3.83,23.99Z" fill="#f4f3f3"/><path d="M300.47,374.16c1.32-.09,2.64-.18,4.42-.31-1.35-4.43-3.08-8-5.09-11.44-.85-1.46-2.12-3.1-3.88-1.27-1.89,1.96-6.48,1.73-5.67,5.74,.95,4.74,5.47,7.6,10.23,7.27Z" fill="#fbfbfb"/><path d="M303.06,358.93c2.71,2.51,4.79,5.75,5.76,9.17,1.7,5.97,5.5,5.21,10.37,4.14-4.05-5.86-7.91-11.34-11.65-16.9-1.57-2.33-2.75-.64-4.03,.19-1.44,.93-2.15,1.83-.45,3.41Z" fill="#f7e4cb"/><path d="M284.98,368.13c-.3-4.09-3.65-3.26-5.99-3.35-3.13-.12-5.66,1.13-6.85,4.55-.75,2.16-.62,3.33,1.71,3.94,1.75,.46,3.59,2.27,4.38-1.28,.59-2.66,2.43-4.29,5.48-3.73,.42-.04,.84-.09,1.27-.13h0Z" fill="#f3e1c8"/><path d="M357.2,227.99c-2.49,.68-5.12,2-5.21,5.6-.05,2.22,1.75,3.3,3.7,3.1,3.14-.33,5.88-1.75,6.09-5.34,.14-2.42-1.68-3.37-4.58-3.36Z" fill="#f7f6f6"/><path d="M354.04,242.52c-.13,2.11,1.08,3.56,3.26,3.5,2.17-.05,3.7-1.26,4.16-3.67-.25-1.92-1.22-3.31-3.43-3.33-2.31-.02-3.84,1.17-3.99,3.5Z" fill="#eeedec"/><path d="M288.98,375.35c-1.35-2.44-2.68-4.83-4-7.21h0c-.42,.04-.84,.09-1.27,.13,.06,.78,.31,1.61,.14,2.35-1.07,4.67,.21,5.96,5.12,4.74Z" fill="#d7c5af"/><path d="M598.9,219.16c.31,.51,.51,1.27,.96,1.47,.84,.38,1.06-.41,1-1.04-.26-2.51,.35-5.12-.86-7.52-1.17,2.24,.87,4.97-1.1,7.08Z" fill="#b3a9a4"/><path d="M473.08,303.69c3.23,.24,6.45,.48,9.68,.71,0,0,0,0,0,0-3.06-2.49-6.41-1.03-9.68-.71Z" fill="#d2d891"/><path d="M409.11,173.25c-1.46,.8-2.93,.68-4.42,.09,0,0,0,0,0,0,1.53,2.89,3,2.8,4.42-.09Z" fill="#3c312a"/><path d="M395.92,982.08c.01,2.01,.03,4.01,.04,6.02,0,0,0,0,0,0,1.58-2.02,1.44-4.02-.04-6.02Z" fill="#322625"/><path d="M265.34,367.32c-.44,.08-.89,.86-1.07,1.4-.07,.21,.55,.84,.95,.97,.82,.27,1.14-.24,1.06-1.15-.12-.49-.14-1.37-.94-1.23Z" fill="#b7a694"/><path d="M336.64,434.65c-3.2-5.23-2.25-11.11-3.94-16.54-1.89-6.08-5.01-7.5-10.13-7.99-1.81-.17-3.61-.48-5.41-.79-8.69-1.5-17.14-4-25.7-6-20.25-4.74-39.84-10.33-53.39-28.02-4.43-5.78-5.46-10.32-1.26-16.39,1.99-2.88,4.3-5.47,7.04-7.72,5.62-4.62,11.12-9.39,17.41-14.73-2.85-.59-4.43,.04-5.86,.82-7,3.83-14.11,7.51-20.42,12.48-4.68,3.68-8.62,8.02-10.2,13.84-2.16,7.98-4.08,16.04-5.72,24.14-2.79,13.81,.32,27.49,1.43,41.19,1.21,14.94,6.38,29.12,9.12,43.82,9.57,51.27,29.07,98.43,62.45,139.17,2.05,2.51,4.35,7.14,7.23,5.53,2.5-1.4-.58-5.72-1.91-8.41-9.91-20.18-18.77-40.77-26.01-62.08-7.6-22.35-16.29-44.33-22.45-67.16-.39-1.45-1.92-3.06,0-4.52,1.56-1.19,3.25-1.59,5.14-.73,.75,.34,1.67,.32,2.38,.72,9.64,5.36,19.82,4.66,30.11,2.76,20.74-3.83,37.01-14.24,47.92-32.56,2.04-3.42,4.11-7.62,2.16-10.81Z" fill="#fefaeb"/><path d="M612.4,527.11c-7.56-5.69-15.58-9.68-25.43-10.14-13.69-.64-25.92,3.34-37.54,9.91-12.97,7.34-22.34,17.97-28.51,31.55-7.58,16.67-9.3,34.42-10,52.37-.15,3.87-3.4,9.02-6.13,8.44-3.37-.71-6.07-3.03-6.36-7.11-.43-5.94-1.34-11.86-1.43-17.81-.22-14.64-4.73-28.14-11.33-40.85-8.05-15.5-20.93-25.88-37.25-32.11-10.64-4.06-21.74-6.34-32.71-3.49-30.59,7.96-43.2,36.3-39.13,64.12,2.13,14.6,12.3,24.38,23.94,32.35,18.58,12.72,39.29,18.83,61.82,18.74,4.5,0,9,.04,13.5-.01,4.04-.05,6.48,3.02,8.34,5.54,1.47,2-2.12,3.62-3.61,5.19-4.93,5.19-10.04,10.23-15.15,15.24-1.71,1.68-2.97,3.59-3.83,5.78-2.24,5.7-.47,10.24,5.37,13.89,5.22,3.27,10.63,3.06,14.02-.92,6.08-7.14,14.16-12.05,20.62-18.75,1.54-1.6,3.3-2.44,5.56-.3,6.53,6.14,13.41,11.9,19.92,18.06,5.88,5.56,11.93,5.63,17.88-.26,4.68-4.63,4.36-11.47-.83-16.75-5.25-5.35-10.71-10.51-15.66-16.12-1.25-1.42-4.52-2.95-2.75-5.65,1.71-2.62,4.13-4.87,7.7-4.92,2.33-.03,4.67,.07,7-.03,8.29-.36,16.63,.92,24.86-1.02,21.49-5.04,41.71-12.47,56.87-29.67,5.27-5.98,9.94-12.65,10.53-20.51,1.6-21.16-1.78-40.87-20.28-54.8Zm-10.38,84.91c-11.94,8.07-25.75,11.63-39.46,14.67-7.9,1.75-16.43,1.57-24.69,.44-8.06-1.1-12.3,5.67-18.15,9.06-1.8,1.04-.51,3.15,.46,4.86,3.77,6.66,9.8,11.27,14.87,16.75,2.14,2.31,4.56,4.33,6.35,7.02,2.1,3.15,2.18,5.88-.76,8.34-3.05,2.55-6.18,3.06-9.27-.1-6.62-6.8-14.25-12.42-21.47-18.53-3.62-3.06-6.8-3.37-10.46-.19-7.14,6.2-14.46,12.18-21.59,18.39-3.51,3.05-6.55,3.1-9.99-.15-3.42-3.23-1.74-6.07,.73-8.6,6.83-7.03,13.56-14.14,19.69-21.8,2.52-3.15,2.35-4.78-1.1-7.82-7.25-6.41-14.71-7.61-24.2-6.69-10.07,.97-20.3-1.43-30.26-4.44-14.58-4.4-27.9-10.86-38.7-21.65-7.83-7.82-13.71-16.84-12.19-27.13-.12-22.87,8.38-39.25,27.8-48.47,12.06-5.72,24.61-3.59,36.79,.93,26.62,9.89,38.7,30.75,43.45,57.24,1.61,8.98,3.23,17.92,3.1,27.11-.07,4.67,6.75,12.36,10.97,13.18,1.43,.28,2.06-.9,3.04-1.4,5.94-3.02,8.58-7.55,9.13-14.59,1.64-20.7,3.77-41.69,16.78-58.98,14.65-19.46,34.55-28.6,59.13-26.2,4.84,.47,9.16,3.08,13.15,5.78,12.7,8.57,19.35,20.52,21.9,35.76,3.79,22.64-8.38,35.95-25.07,47.23Z" fill="#d5a932"/><path d="M504.74,534.81c17.63,.03,33.07-10.56,32.2-31.22,2.01-18.36-16.23-31.95-32.27-32.15-14.6-.18-32.51,11.92-32.9,30.34-.43,20.43,13.41,32.99,32.97,33.02Zm23.53-44.24c1.05,.17,1.5,1.22,1.88,2.15,3.05,7.59,2.21,15.1-.57,23.67-5.88-8.12-5.48-15.93-3.24-23.94,.25-.89,.67-2.08,1.93-1.88Zm-4.4-5.77c1.65,.88,1.8,2.27,.81,3.78-3.24,4.92-4.11,10.31-3.88,16.15,.18,4.87,1.52,9.12,4.28,13.01,.82,1.15,2.58,2.19,.74,3.69-1.79,1.47-3.15,.14-4.17-1.22-3.89-5.15-4.97-11.1-4.72-17.77-.53-5.51,1.37-10.77,4.21-15.76,.57-1,.76-2.95,2.74-1.89Zm-29.68-5.9c8.16-3.72,15.75-2.64,23.3,1.47,1.7,.93,2.42,1.51,1.19,3.71-7.39,13.25-9.13,26.57,.33,39.74,1.63,2.26-.38,2.89-1.83,3.59-8.64,4.18-19.11,3.48-27.79-1.93,3.6-5.04,6.12-10.38,6.7-16.8,.73-8.06-.28-15.56-4.64-22.32-2.69-4.17-1.16-5.69,2.74-7.47Zm-8.92,5.78c1.46-.71,2.05,.49,2.65,1.5,3.26,5.45,4.58,11.35,3.92,17.7,.66,5.65-.46,10.94-3.87,15.55-.87,1.18-1.93,3.3-3.93,2.02-1.95-1.25-.73-2.76,.19-4.26,5.45-8.87,6.16-17.97,1.08-27.29-.4-.73-.78-1.48-1.07-2.25-.47-1.25-.18-2.38,1.04-2.97Zm-4.21,5.25c4.69,6.57,3.99,20-1.64,25.7-3.87-10.61-3.29-18.78,1.64-25.7Z" fill="#d5a932"/><path d="M433.79,715.71c-9.5-5.66-20.03-8.99-30.18-13.08-15.3-6.15-30.67-11.94-43.98-22.07-5.82-4.43-12.07-8.28-18.17-12.33-1.16-.77-2.54-2.48-3.88-1.04-1.49,1.61,.6,2.58,1.52,3.56,1.94,2.06,3.96,4.05,6.07,5.94,11.48,10.33,22.4,21.14,36.34,28.64,14.66,7.89,29.51,15.28,44.61,22.24,4.81,2.22,8.29,6.08,12.24,9.38,1.65,1.38,3.57,2.7,5.89,1.32,1.86-1.11,2.79-2.8,2.57-5.95-2.26-6.43-6.2-12.54-13.01-16.6Z" fill="#fefaeb"/><path d="M391.55,264.94c.61,1.36,.86,3.21,1.9,3.99,4.85,3.61,3.34,7.79,1.88,12.36-1.58,4.94-.71,9.54,3.66,12.98,2.3,.58,4.6,1.16,6.9,1.73h0s0,0,0,0c12.8-3.82,15.8-12.15,8-22.73-1.47-1.99-1.57-3.27,.05-5.1,4.09-4.62,6.03-10.29,6.97-16.25,.96-6.03-1.34-10.65-5.97-13.06-4.07-2.12-10.35-.99-14.35,2.6-2.51,2.25-4.22,5.11-6.01,7.9,0,0,0,0,0,0-2.26,4.94-3.17,10.15-3.03,15.56Zm7.24-3.48c.23-1.51,1.25-2.33,2.81-2.12,1.36,.19,2.02,1.26,1.96,2.48-.08,1.48-.99,2.41-2.71,2.38-1.44-.27-2.28-1.19-2.05-2.74Zm8.08-19.86c2.47-.21,3.93,1.38,4.15,4.1-.41,3.09-2.4,4.94-5.47,5.3-2.54,.3-4.23-1.2-4.01-3.81,.26-3.12,2.15-5.31,5.33-5.59Zm4.2,19.44c-2.2,.12-3.33-1.36-3.22-3.46,.14-2.58,1.87-3.72,4.31-3.72,1.96,0,3.01,1.06,3.01,3.24-.33,2.25-1.67,3.82-4.1,3.94Zm-9.87,22.08c.46-2.27,1.17-4.5,1.51-6.79,.47-3.17,2.58-2.64,4.34-1.81,2.49,1.18,5.07,6.35,5.07,9.3,0,3.57-2.68,5.75-6.68,5.5-4.09-.26-4.94-2.72-4.23-6.2Z" fill="#322625"/><path d="M423.93,301.06c2.54-.14,3.92-1.69,3.9-4.24-.02-2.58-5.03-8.36-7.09-8.34-2.17,.4-2.95,1.74-2.89,3.9,.12,4,3.33,8.83,6.08,8.67Z" fill="#f4abab"/><path d="M388.14,299.88c4.46-.26,4.03-4.56,5.03-7.45,.65-1.9-.4-4.15-2.47-3.97-4.24,.36-4.38,4.22-5.19,7.61-.04,1.75,.52,3.93,2.63,3.8Z" fill="#f4acac"/><path d="M398.99,294.27c.19,2.71,.46,5.56,3.95,5.8,2.67,.18,3.15-1.84,2.96-4.07h0c-2.3-.58-4.6-1.16-6.9-1.73Z" fill="#eca9a7"/><path d="M106.78,500.35c-8.27-15.5-12.01-31.73-7.73-49.05,2.31-9.35,5.64-18.44,8.48-27.65,.69-2.25,1.65-4.89-1.26-6.05-2.56-1.02-4.49,.76-5.62,2.97-2.89,5.66-5.04,11.56-5.8,17.94-.55,4.61-.67,9.32-2.37,13.72-2.75,7.12-2.9,14.62-3.33,19.73-.18,7.87,.42,13.34,1.96,18.62,7.24,24.76,20.4,46.53,34.81,67.61,3.33,4.87,9.33,5.65,13.11,2.49,4.13-3.45,4.42-9.58-.18-14.15-13.54-13.45-23.17-29.51-32.06-46.16Z" fill="#fefaeb"/><path d="M126.71,392.7c3.79-1.72,7.19-4.2,10.31-6.97,9.09-8.08,18.44-15.92,28.55-22.65,7.66-5.1,15.01-12.24,25.57-8.77,2.67-.27,5.95-.23,6.23-3.17,.29-3.1-2.99-3.58-5.44-3.81-2.72-.26-5.31-.81-7.54-2.33-7.79-5.32-15.68-4.78-23.55-.41-15.27,8.47-26.69,20.81-35.23,35.88-1.53,2.7-2.32,5.87-3.08,8.92-.93,3.75,1.18,4.69,4.19,3.32Z" fill="#fefaeb"/><path d="M391.7,184.07c1.36,3.87,3.67,3.7,6.44,1.51,2.71-2.15,5.3-4.43,9.01-4.8,1.21-.12,2.89-.5,2.87-2.19-.03-1.81-1.55-2.36-3.11-2.55-.98-.12-1.97-.12-2.95-.17h0c-4.57,2-10.01,2.71-12.25,8.2Z" fill="#3c312a"/><path d="M175.83,422.49c-2.83-.65-5.94-.11-8.92-.11-3.12,.23-7.61-1.83-9.1,.36-3.08,4.53-7.64,7.84-10.02,12.85-1.3,2.75-.85,4.92,1.96,6.2,10.25,4.68,20.75,5.37,31.48,1.77,2.67-.89,4.01-2.89,4.42-5.52,.9-5.8-4.19-14.25-9.82-15.54Z" fill="#3b98d0"/><path d="M810.61,515.22c7.43-.11,15.42-1.98,20.23-4.55,3.02-1.61,4.34-3.79,3.64-7.31-.99-4.91-4.3-8.98-4.77-14.07-.09-1.02-1.23-1.52-2.2-1.83-2.58-.83-18.75,7.52-19.47,10.18-1.03,3.84-2.03,7.72-2.71,11.63-.67,3.9,1.37,6,5.28,5.94Z" fill="#3c98d0"/><path d="M788.86,549.61c-1.04,2.33-1.82,4.77,0,7.06,1.72,2.17,4.22,2.66,6.77,2.21,2.62-.47,5.2-1.1,7.57-.69,1.15,0,1.98,.03,2.81,0,6.27-.22,9.64-2.85,9.79-7.64,.21-6.57-1.34-8.22-8.66-9.23-.82-.11-1.65-.18-2.47-.3-6.48-.95-13.14,2.65-15.8,8.59Z" fill="#f5d544"/><path d="M520.43,202.87c-.3-5.18-3.73-3.84-6.74-3.58-8.31,.73-16.29,2.96-24.2,5.45-1.48,.46-2.71,.84-2.39,3.01,.46,3.12-1.68,3.53-4.14,3.25,0,0,0,0,0,0,0,0,0,0,0,0,7.17,10.3,20.15,12.77,30.62,6.57,5.33-3.16,7.37-8.22,10.16-13.01-1.3-.22-3.22-.23-3.3-1.69Z" fill="#f3a9aa"/><path d="M482.95,211s0,0,0,0c2.46,.28,4.6-.13,4.14-3.25-.32-2.17,.92-2.54,2.39-3.01,7.92-2.49,15.89-4.72,24.2-5.45,3.02-.27,6.44-1.61,6.74,3.58,.09,1.46,2,1.47,3.3,1.69,3.14-2.15,2.93-5.08,1.42-7.91-1.71-3.2-4.78-3.71-8.18-3.34-10.8,1.19-20.78,5.61-31.32,7.88-6.49,1.39-7.05,4.48-2.7,9.81Z" fill="#362928"/><path d="M391.44,158.69c-1.56-4.77-2.72-9.53-2.65-14.59,.04-2.68,.71-6.15-4.1-5.23-.16,.03-.54-1.1-.81-1.69h0c-6.31,5.81-6.76,13.52-5.57,21.01,1.28,8.09,6.67,13.43,14.67,15.83,2.51-5.41,.08-10.38-1.54-15.33Z" fill="#f3a9a9"/><path d="M384.7,138.88c4.81-.92,4.14,2.54,4.1,5.23-.07,5.06,1.09,9.82,2.65,14.59,1.61,4.95,4.04,9.93,1.54,15.33,1.45,1.39,3.05,2.1,4.84,.66,2.36-1.9,2.84-4.6,2.04-7.22-2.97-9.79-5.98-19.53-6.61-29.85-.15-2.45-.63-5.42-3.8-5.59-3.21-.17-4.86,2.19-5.57,5.16,0,0,0,0,0,0,.28,.59,.66,1.72,.81,1.69Z" fill="#352827"/><path d="M605.2,529.03c-4-2.7-8.31-5.31-13.15-5.78-24.58-2.4-44.48,6.74-59.13,26.2-13.02,17.3-15.14,38.28-16.78,58.98-.56,7.03-3.19,11.57-9.13,14.59-.98,.5-1.6,1.68-3.04,1.4-4.22-.82-11.04-8.51-10.97-13.18,.13-9.19-1.49-18.13-3.1-27.11-4.74-26.49-16.83-47.35-43.45-57.24-12.18-4.52-24.74-6.66-36.79-.93-19.43,9.23-27.92,25.6-27.8,48.47-1.52,10.28,4.35,19.31,12.19,27.13,10.8,10.79,24.12,17.25,38.7,21.65,9.95,3.01,20.19,5.41,30.26,4.44,9.49-.92,16.95,.28,24.2,6.69,3.45,3.05,3.62,4.67,1.1,7.82-6.13,7.66-12.85,14.78-19.69,21.8-2.47,2.54-4.15,5.37-.73,8.6,3.43,3.24,6.48,3.2,9.99,.15,7.13-6.2,14.45-12.19,21.59-18.39,3.66-3.18,6.84-2.86,10.46,.19,7.22,6.1,14.85,11.72,21.47,18.53,3.08,3.17,6.22,2.65,9.27,.1,2.95-2.46,2.87-5.19,.76-8.34-1.79-2.69-4.21-4.7-6.35-7.02-5.07-5.48-11.1-10.09-14.87-16.75-.97-1.71-2.26-3.82-.46-4.86,5.84-3.38,10.08-10.16,18.15-9.06,8.26,1.13,16.79,1.31,24.69-.44,13.71-3.04,27.51-6.6,39.46-14.67,16.69-11.28,28.86-24.59,25.07-47.23-2.55-15.24-9.2-27.19-21.9-35.76Zm-134.61,86.68c-14.15,7.43-28.41,5.61-41.99-1.43-9.24-4.79-18.25-10.25-24.33-19.3-8.63-12.83-11.17-26.47-5.62-41.12,3.92-10.34,17.19-17.76,31.45-17.75,12.52-1.08,21.69,6.24,29.74,14.76,6.94,7.35,12.29,16.1,16.56,25.33,3.06,6.62,4.99,13.74,5.41,20.98,.5,8.44-3.96,14.73-11.22,18.54Zm140.69-33.14c-6.57,21.26-36.93,39.31-54.89,37.52-6.67,.5-12.88-1.57-18.9-4.68-7.27-3.75-11.98-17.5-9.48-25.58,3.81-12.34,9.26-23.44,16.9-33.5,7.01-9.22,15.31-17.12,27.24-19.82,14.01-3.17,30.45,2.83,36.98,14.76,5.36,9.79,5.51,20.37,2.14,31.28Z" fill="#f6cb3a"/><path d="M496.09,508.69c-.58,6.42-3.1,11.76-6.7,16.8,8.68,5.41,19.15,6.11,27.79,1.93,1.44-.7,3.45-1.33,1.83-3.59-9.46-13.17-7.72-26.49-.33-39.74,1.23-2.21,.52-2.79-1.19-3.71-7.55-4.11-15.14-5.2-23.3-1.47-3.9,1.78-5.42,3.3-2.74,7.47,4.36,6.76,5.36,14.27,4.64,22.32Z" fill="#f6cb3a"/><path d="M516.93,502.45c-.25,6.66,.82,12.61,4.72,17.77,1.03,1.36,2.38,2.68,4.17,1.22,1.84-1.51,.07-2.54-.74-3.69-2.76-3.89-4.09-8.15-4.28-13.01-.22-5.85,.64-11.23,3.88-16.15,.99-1.51,.84-2.89-.81-3.78-1.97-1.06-2.17,.89-2.74,1.89-2.84,4.99-4.74,10.25-4.21,15.76Z" fill="#f4c93a"/><path d="M485.3,489.9c5.08,9.31,4.37,18.41-1.08,27.29-.92,1.5-2.14,3.01-.19,4.26,2,1.28,3.06-.84,3.93-2.02,3.41-4.61,4.54-9.9,3.87-15.55,.66-6.35-.65-12.25-3.92-17.7-.6-1.01-1.19-2.21-2.65-1.5-1.21,.59-1.51,1.72-1.04,2.97,.29,.77,.67,1.52,1.07,2.25Z" fill="#f3c83a"/><path d="M529.58,516.38c2.78-8.58,3.62-16.08,.57-23.67-.37-.93-.82-1.97-1.88-2.15-1.26-.21-1.69,.99-1.93,1.88-2.24,8.01-2.64,15.83,3.24,23.94Z" fill="#f4ca3a"/><path d="M481.06,489.93c-4.93,6.92-5.5,15.09-1.64,25.7,5.62-5.69,6.33-19.13,1.64-25.7Z" fill="#f5ca3a"/><path d="M412.11,283.81c0-2.95-2.57-8.12-5.07-9.3-1.77-.83-3.87-1.36-4.34,1.81-.34,2.29-1.05,4.52-1.51,6.79-.71,3.48,.14,5.94,4.23,6.2,4,.25,6.68-1.93,6.68-5.5Z" fill="#f9f5e6"/><path d="M405.55,251.01c3.07-.36,5.06-2.22,5.47-5.3-.22-2.72-1.69-4.31-4.15-4.1-3.18,.27-5.06,2.47-5.33,5.59-.22,2.62,1.47,4.11,4.01,3.81Z" fill="#f3f2f2"/><path d="M412.16,253.86c-2.44,0-4.16,1.14-4.31,3.72-.12,2.09,1.02,3.57,3.22,3.46,2.43-.13,3.77-1.7,4.1-3.94,0-2.18-1.04-3.24-3.01-3.24Z" fill="#efeeee"/><path d="M403.55,261.83c.06-1.22-.6-2.3-1.96-2.48-1.56-.21-2.58,.61-2.81,2.12-.23,1.56,.61,2.47,2.05,2.74,1.72,.03,2.63-.9,2.71-2.38Z" fill="#cac5c4"/><path d="M572.15,536.52c-11.93,2.7-20.23,10.59-27.24,19.82-7.65,10.06-13.09,21.16-16.9,33.5-2.5,8.08,2.21,21.82,9.48,25.58,6.02,3.11,12.23,5.18,18.9,4.68,17.96,1.78,48.32-16.27,54.89-37.52,3.37-10.91,3.22-21.5-2.14-31.28-6.53-11.94-22.97-17.93-36.98-14.76Zm18.05,5.67c6.03,.3,15.69,9.26,17.03,15.4,.51,2.35-.11,2.6-2.17,2.12-8.59-1.99-13.26-8.08-16.53-15.64-.8-1.86,.6-1.82,1.67-1.88Zm8.52,42.16c-.17,1.66-1.24,1.85-2.42,1.71-3.18-.38-6.18-1.05-7.27-4.77-.69-2.36-1.63-4.66-2.5-6.96-.59-1.55-.08-2.18,2.01-1.98,5.27,.27,10.75,6.51,10.18,12Zm-4.66-15.66c-11.35-.12-13.05-9.24-16.52-16.74,7.87-.15,14.75,6.83,16.52,16.74Zm-9.91,13.74c-9.07-.02-12.94-5.48-14.77-13.22-.54-2.27-.47-2.69,2.23-2.42,9.66,1,10.91,8.37,12.54,15.64Zm-10.5-40.12c.19-.49,.95-.87,1.54-1.06,4.74-1.51,8.07,.21,9.88,5.02,.39,1.05,.84,2.08,1.78,4.41-4.78-2.62-8.37-4.59-11.97-6.56-.73-.4-1.59-.87-1.22-1.81Zm-6.18,1.57c.77-.06,1.02,.16,1.47,.8,3.79,5.47,6.64,11.35,8.57,18.45-7.4-1.55-13.18-3.85-14.96-11.59-.8-3.48,1.42-7.38,4.92-7.66Zm-11.07,7.7c.79-.57,1.8,.11,1.98,.88,.35,1.57,2.25,3.08,.13,4.85-2.69,2.25-1.83,3.89,1.18,4.88,1.52,.5,2.57,1.49,3.09,2.99,1.28,3.7,2.52,7.42,4.16,12.24-4.08-2.02-8.74-1.13-10.4-4.11-2.53-4.54-4.12-9.78-5.14-14.91-.62-3.1,2.59-5.09,5.01-6.83Zm-8.46,9.8c2.33,3.26,1.95,6.9,3.57,9.93-1.82,.83-3.1-.24-4.39-.66-1.85-.59-3.34-.57-4.02,1.47-.59,1.77,.3,2.82,2.07,3.22,.47,.11,.9,.41,1.36,.61q7.95,3.51,8.47,13.05c-4.81-1.32-9.56-2.49-14.22-3.95-2.25-.7-4.11-.5-5.85,1.01,0,.02,0,.04-.01,.05l-.03-.02s.03-.02,.04-.03c2.12-9.25,8.1-16.41,13.02-24.69Zm10.55,53.64c-7.09-.63-14.29-1.02-20.11-5.93-6.53-5.51-6.45-12.54-4.48-19.97,.03-1.09-.16-2.26,.99-2.97,0-.01,0-.03,0-.04,0,0,.03,.02,.03,.02,0,0-.02,.01-.03,.02-.09,1.71,1.42,2.61,2.04,3.96,6.41,.27,12.13,3.24,18.24,4.71,1.54,.37,2.5,1.5,2.83,3.16,.92,4.54,1.99,9.04,2.82,13.6,.31,1.67,.13,3.66-2.33,3.45Zm.07-34.28c10.05,1.53,11.47,2.69,12.86,9.25,.59,2.76-.32,3.26-2.71,2.92-7.75-1.1-9.09-2.69-10.15-12.17Zm10.82,32.24c-1.67,.52-3.29,.2-3.52-2.24-.19-1.97-.83-3.89-1.15-5.85-.42-2.53-2.67-5.55-.18-7.48,2.18-1.69,9.28,2.15,10.37,5.1,.89,2.41,3.31,3.81,4.11,1.41,2.25-6.75,6.24-1.43,9.36-2-5.62,5.01-11.84,8.86-18.99,11.06Zm28.92-18.78c-3.47,5.09-7.87,3.99-12.43,1.92-4.74-.28-8.76-1.49-9.55-7.13-.17-1.18-.68-2.3,1.02-2.69,3.99-.94,9.74,3.3,10.56,7.79,0,0,0,0,0,0,2.91,2.18,5.22,2.96,4.8-2.16-.07-.9-.14-1.86,.98-1.69,1.91,.3,3.94,.63,5.58,1.55,.86,.48-.43,1.63-.96,2.41Zm8.3-13.81c-.71,2-1.82,3.86-2.76,5.78-.34-.02-.68-.05-1.01-.07,0-2.13,.11-4.27-.04-6.39-.09-1.38-.6-2.84,1.64-2.48,1.75,.28,2.79,1.42,2.17,3.17Zm.41-6.84c-2.53,.23-5.72-.48-6.99-3.58-1.16-2.85-2.09-5.8-3.36-9.39,3.32,1.01,5.77,2,8.32,2.48,3.03,.57,4.3,2.15,3.89,5.13-.27,1.96,1.01,5.11-1.85,5.36Z" fill="#d5a932"/><path d="M476.4,576.19c-4.27-9.23-9.62-17.98-16.56-25.33-8.05-8.51-17.22-15.83-29.74-14.76-14.26,0-27.53,7.41-31.45,17.75-5.55,14.65-3.01,28.3,5.62,41.12,6.08,9.04,15.09,14.5,24.33,19.3,13.57,7.04,27.83,8.87,41.99,1.43,7.26-3.81,11.72-10.11,11.22-18.54-.43-7.24-2.35-14.36-5.41-20.98Zm-15.81-15.55c5.4,8.45,11.07,15.47,13.31,24.46,0,0,.02,0,.03,0l-.02,.02s0-.01,0-.02c-5.45-.97-10.38,1.33-15.35,2.8-4.54,1.35-4.68,.5-4.02-3.91,.71-4.67,2.97-6.54,6.98-7.7,2.02-.59,5.51-.61,4.79-3.73-.78-3.36-3.79-2.21-6.19-1.4-.56,.19-1.17,.23-2.28,.43,.91-3.6,1.68-6.68,2.76-10.95Zm-10.46-6.28c-.42-.58,.44-2.32,1.62-2.76,1.12-.42,1.7,.75,2.46,1.32,3.33,2.48,4.65,5.45,2.56,9.43-.53,1.01-.93,2.16-1.11,3.29-1.13,7.32-5.41,10.93-13.25,10.9,1.19-3.54,2.27-6.83,3.4-10.1,.21-.62,.42-1.39,.89-1.76,3.4-2.69,7.2-5.12,3.43-10.31Zm-7.85-10.3c1.73,1.58,5,1.61,5.07,4.87,.13,5.37-8.13,13.65-13.32,13.73-2.24,.22-2.11-.91-1.74-2.16,1.74-5.89,5.5-10.81,7.92-16.38,.45-1.03,1.43-.64,2.06-.06Zm-26.3,24.65c-1.72-.66-.58-1.84-.4-2.89,1.47-8.66,8.09-11.82,15.98-14.63-1.74,4.31-3.19,7.98-4.72,11.63-.76,1.82-9.32,6.48-10.86,5.89Zm-1.98,17.23c-2.32,.45-4.13,.36-3.11-2.62,.32-6.6,3.94-10.53,9.92-11,.91-.07,1.58,0,1.77,1.12,.65,3.9-4.71,11.76-8.58,12.51Zm25.88-19.52c-2.32,12.19-3.8,14.64-14.6,15.71,1.89-11.8,3.54-13.59,14.6-15.71Zm-7.04-25.29c1.01,.15,2.18,.23,2.4,1.32,.22,1.08-.84,1.7-1.66,2.25-.54,.37-1.16,.64-1.75,.94-2.92,1.47-5.85,2.93-9.73,4.87,3.96-9.78,4.64-10.31,10.73-9.39Zm-14.55,1.35c.61-.1,1.46-.21,1.85,.11,1.06,.88,.04,1.79-.28,2.64-3.09,8.3-8.95,13.27-18.15,14.74,.82-7.53,9.32-16.33,16.59-17.49Zm-12.02,38.08c-.56,1.94-.45,3.9-.95,6.27-.94-1.87-1.87-3.75-2.82-5.62-.68-1.34-.68-2.59,.64-3.53,.86-.61,1.95-.77,2.83-.23,1.33,.82,.61,2,.29,3.1Zm2.98-11.13c-1.17,3.51-4.28,4.2-7.16,4.13-2.11-.05-2.04-2.59-2.15-4.4-.2-3.14,.55-5.44,4.2-6.14,2.67-.52,5.23-1.65,8.3-2.66-1.16,3.28-2.22,6.16-3.19,9.07Zm.45,23.33c-.99-2.58,2.52-1.46,3.86-2.26,1-.59,3.36-1.2,2.79,1.61-.39,1.91-.34,3.5,1.86,3.78,2.25,.29,2.46-1.72,3.03-3.27,1.11-3.03,7.16-6.69,10.5-6.46,.93,.06,1.78,.23,1.4,1.38-.9,2.76-.79,6.31-4.25,7.39-4.1,1.28-8.34,2.14-12.66,3.21-3.28-.34-5.55-2.87-6.52-5.39Zm35.95,7.71c-.69,3.06-1.41,6.11-2.06,9.18-.65,3.07-2.32,4.3-5.34,3.04-6.41-2.68-12.43-6.05-18.72-10.88,3.12-.64,5.19-1.05,7.25-1.49,1.73-.36,2.93,0,3.15,2.04,.13,1.21,.6,2.36,2.07,2.34,1.15-.02,1.85-.96,2.02-1.92,.96-5.59,5.92-4.47,9.42-5.47,2.37-.68,2.62,1.28,2.2,3.15Zm-6.52-7.42c-1.52-.08-2.04-.59-1.62-2.17,1.1-4.15,1.79-8.51,7.43-8.95,1.28-.1,2.52-.77,3.77-1.21,1.58-.56,2.18,.03,1.96,1.83-.21,5.92-5.53,10.83-11.54,10.5Zm20.95,21c-.64,.13-1.34-.02-1.99,.11-12.58,2.41-9.82,.39-8.63-9.34,.84-6.9,3.6-11.18,11.02-12.15,4.54-.6,8.93-2.36,13.39-3.6,0,0,0,0,0,0,.02-1.31,.04-2.62,.06-3.93,0,0-.01-.02-.02-.03,0,0,.02-.02,.02-.02,0,.01,0,.03,0,.04,1.44,1.73,1.9,3.78,1.97,5.96,3.47,11.47-4.76,20.74-15.83,22.95Z" fill="#d5a932"/><path d="M475.9,591.11l-.27-.27c.07,.11,.15,.21,.27,.27Z" fill="#d5a932"/><path d="M558.01,597.97c-.34-1.66-1.29-2.79-2.83-3.16-6.1-1.47-11.82-4.44-18.24-4.71-1.01-.33-2.02-.66-3.03-.99-1.96,7.44-2.04,14.47,4.48,19.97,5.82,4.91,13.03,5.3,20.11,5.93,2.46,.22,2.63-1.77,2.33-3.45-.83-4.55-1.91-9.06-2.82-13.6Z" fill="#f6cb3a"/><path d="M534.92,586.12s0-.04,.01-.05c-.01,.01-.03,.02-.04,.03l.03,.02Z" fill="#f4ca3a"/><path d="M540.78,585.06c4.66,1.46,9.41,2.63,14.22,3.95q-.52-9.55-8.47-13.05c-.46-.2-.88-.5-1.36-.61-1.78-.4-2.67-1.45-2.07-3.22,.68-2.04,2.17-2.06,4.02-1.47,1.29,.41,2.57,1.49,4.39,.66-1.62-3.04-1.23-6.67-3.57-9.93-4.92,8.28-10.9,15.44-13.02,24.69,1.74-1.51,3.59-1.71,5.85-1.01Z" fill="#f4ca3a"/><path d="M579.02,603.91c-.8,2.4-3.22,1.01-4.11-1.41-1.09-2.95-8.19-6.79-10.37-5.1-2.49,1.94-.23,4.96,.18,7.48,.32,1.96,.97,3.88,1.15,5.85,.23,2.45,1.85,2.76,3.52,2.24,7.14-2.2,13.37-6.06,18.99-11.06-3.13,.57-7.11-4.75-9.36,2Z" fill="#f5ca3a"/><path d="M556.54,573.32c1.66,2.98,6.31,2.09,10.4,4.11-1.63-4.82-2.88-8.53-4.16-12.24-.52-1.5-1.57-2.49-3.09-2.99-3.01-.99-3.86-2.63-1.18-4.88,2.11-1.77,.22-3.29-.13-4.85-.18-.78-1.18-1.45-1.98-.88-2.42,1.73-5.62,3.73-5.01,6.83,1.02,5.13,2.61,10.37,5.14,14.91Z" fill="#f5ca3a"/><path d="M577.52,563.13c-1.93-7.1-4.78-12.99-8.57-18.45-.44-.64-.7-.86-1.47-.8-3.5,.28-5.72,4.18-4.92,7.66,1.77,7.74,7.55,10.04,14.96,11.59Z" fill="#f5ca3a"/><path d="M605.07,559.71c2.06,.48,2.69,.23,2.17-2.12-1.34-6.15-11-15.1-17.03-15.4-1.07,.06-2.47,.02-1.67,1.88,3.27,7.56,7.94,13.65,16.53,15.64Z" fill="#f5ca3a"/><path d="M569.39,569.2c1.83,7.75,5.7,13.2,14.77,13.22-1.63-7.27-2.89-14.64-12.54-15.64-2.69-.28-2.76,.15-2.23,2.42Z" fill="#f4c93a"/><path d="M594.07,568.68c-1.76-9.91-8.65-16.89-16.52-16.74,3.47,7.5,5.17,16.63,16.52,16.74Z" fill="#f5ca3a"/><path d="M571.43,590c-1.39-6.56-2.81-7.72-12.86-9.25,1.06,9.48,2.4,11.07,10.15,12.17,2.39,.34,3.29-.16,2.71-2.92Z" fill="#f4c93a"/><path d="M586.54,574.32c.87,2.31,1.81,4.6,2.5,6.96,1.09,3.72,4.09,4.39,7.27,4.77,1.17,.14,2.24-.05,2.42-1.71,.56-5.49-4.91-11.72-10.18-12-2.09-.2-2.59,.42-2.01,1.98Z" fill="#f4c93a"/><path d="M605,563.06c-2.55-.48-5-1.47-8.32-2.48,1.27,3.59,2.2,6.54,3.36,9.39,1.26,3.09,4.45,3.8,6.99,3.58,2.87-.25,1.58-3.41,1.85-5.36,.41-2.98-.86-4.56-3.89-5.13Z" fill="#f4c93a"/><path d="M587.91,594.09s0,0,0,0c0,0,0,0,0,0-.82-4.49-6.57-8.73-10.56-7.79-1.69,.4-1.18,1.51-1.02,2.69,.79,5.63,4.81,6.84,9.55,7.13,1.31-.04,1.98-.72,2.03-2.03Z" fill="#f4c93a"/><path d="M574.88,544.11c3.6,1.97,7.2,3.94,11.97,6.56-.94-2.33-1.39-3.36-1.78-4.41-1.81-4.81-5.13-6.53-9.88-5.02-.58,.19-1.35,.57-1.54,1.06-.37,.94,.49,1.41,1.22,1.81Z" fill="#f2c83a"/><path d="M599.28,591.79c-1.64-.92-3.67-1.25-5.58-1.55-1.12-.18-1.06,.78-.98,1.69,.42,5.12-1.89,4.34-4.8,2.16,0,0,0,0,0,0-.04,1.31-.71,1.99-2.03,2.03,4.56,2.07,8.96,3.18,12.43-1.92,.54-.79,1.83-1.93,.96-2.41Z" fill="#f4c93a"/><path d="M604.45,577.22c-2.24-.35-1.74,1.1-1.64,2.48,.14,2.12,.04,4.26,.04,6.39,.34,.02,.68,.05,1.01,.07,.94-1.92,2.05-3.78,2.76-5.78,.62-1.75-.42-2.89-2.17-3.17Z" fill="#efc339"/><path d="M534.89,586.14c-1.15,.71-.96,1.88-.99,2.97,1.01,.33,2.02,.66,3.03,.99-.62-1.35-2.13-2.25-2.04-3.96Z" fill="#f4ca3a"/><path d="M534.89,586.1s0,.03,0,.04c0,0,.02-.01,.03-.02,0,0-.03-.02-.03-.02Z" fill="#f4ca3a"/><path d="M475.63,590.84c-.59-.59-1.18-1.17-1.77-1.76h0s0,0,0,0c-4.46,1.24-8.85,3-13.39,3.6-7.42,.97-10.17,5.25-11.02,12.15-1.19,9.73-3.95,11.76,8.63,9.34,.65-.12,1.34,.02,1.99-.11,11.07-2.21,19.3-11.48,15.83-22.95-.12-.06-.2-.16-.27-.27Z" fill="#f6cb3a"/><path d="M466.3,572.56c.73,3.12-2.77,3.14-4.79,3.73-4.01,1.16-6.27,3.03-6.98,7.7-.67,4.41-.52,5.26,4.02,3.91,4.97-1.48,9.9-3.78,15.35-2.8-2.25-8.99-7.91-16.01-13.31-24.46-1.08,4.27-1.85,7.35-2.76,10.95,1.11-.2,1.72-.24,2.28-.43,2.4-.81,5.41-1.96,6.19,1.4Z" fill="#f4c93a"/><path d="M473.93,585.1s-.02,0-.03,0c0,0,0,.01,0,.02l.02-.02Z" fill="#f4c93a"/><path d="M443.44,597.32c-3.51,1-8.46-.12-9.42,5.47-.16,.95-.87,1.9-2.02,1.92-1.48,.02-1.95-1.13-2.07-2.34-.22-2.05-1.41-2.4-3.15-2.04-2.06,.43-4.13,.85-7.25,1.49,6.29,4.83,12.31,8.2,18.72,10.88,3.01,1.26,4.69,.03,5.34-3.04,.65-3.07,1.38-6.12,2.06-9.18,.42-1.88,.17-3.83-2.2-3.15Z" fill="#f5ca3a"/><path d="M446.69,564.66c-.47,.37-.68,1.14-.89,1.76-1.12,3.27-2.21,6.55-3.4,10.1,7.85,.04,12.12-3.58,13.25-10.9,.17-1.13,.57-2.27,1.11-3.29,2.09-3.98,.77-6.95-2.56-9.43-.77-.57-1.34-1.74-2.46-1.32-1.18,.45-2.04,2.19-1.62,2.76,3.77,5.19-.03,7.61-3.43,10.31Z" fill="#f5ca3a"/><path d="M434.03,562.65c5.19-.08,13.45-8.36,13.32-13.73-.08-3.26-3.34-3.29-5.07-4.87-.64-.58-1.61-.97-2.06,.06-2.42,5.57-6.19,10.49-7.92,16.38-.37,1.24-.49,2.38,1.74,2.16Z" fill="#f5ca3a"/><path d="M419.86,545.24c.32-.85,1.34-1.76,.28-2.64-.38-.32-1.24-.21-1.85-.11-7.27,1.16-15.76,9.96-16.59,17.49,9.2-1.47,15.06-6.44,18.15-14.74Z" fill="#f5ca3a"/><path d="M439.88,566.42c-11.05,2.12-12.71,3.91-14.6,15.71,10.8-1.07,12.28-3.52,14.6-15.71Z" fill="#f5ca3a"/><path d="M433.13,587.54c.38-1.15-.47-1.32-1.4-1.38-3.33-.23-9.39,3.43-10.5,6.46-.57,1.55-.78,3.56-3.03,3.27-2.2-.29-2.25-1.87-1.86-3.78,.58-2.81-1.78-2.21-2.79-1.61-1.35,.79-4.85-.32-3.86,2.26,.97,2.51,3.23,5.04,6.52,5.39,4.32-1.08,8.56-1.93,12.66-3.21,3.46-1.08,3.35-4.63,4.25-7.39Z" fill="#f3c83a"/><path d="M426.85,562.82c1.52-3.65,2.97-7.32,4.72-11.63-7.89,2.81-14.51,5.96-15.98,14.63-.18,1.05-1.32,2.23,.4,2.89,1.54,.6,10.11-4.07,10.86-5.89Z" fill="#f5ca3a"/><path d="M448.7,580.72c-1.25,.44-2.49,1.11-3.77,1.21-5.64,.44-6.32,4.8-7.43,8.95-.42,1.58,.1,2.09,1.62,2.17,6.01,.32,11.33-4.59,11.54-10.5,.22-1.8-.38-2.39-1.96-1.83Z" fill="#f4c93a"/><path d="M420.81,572.31c-5.98,.47-9.61,4.41-9.92,11-1.02,2.98,.8,3.07,3.11,2.62,3.86-.75,9.23-8.61,8.58-12.51-.19-1.12-.86-1.19-1.77-1.12Z" fill="#f4c93a"/><path d="M404.14,563.02c-3.65,.7-4.39,3-4.2,6.14,.11,1.81,.04,4.35,2.15,4.4,2.88,.07,5.99-.62,7.16-4.13,.97-2.91,2.03-5.8,3.19-9.07-3.07,1.01-5.63,2.15-8.3,2.66Z" fill="#f4c93a"/><path d="M433.59,544.71c.81-.56,1.88-1.17,1.66-2.25-.22-1.1-1.4-1.17-2.4-1.32-6.09-.93-6.77-.39-10.73,9.39,3.88-1.94,6.8-3.4,9.73-4.87,.59-.3,1.21-.57,1.75-.94Z" fill="#f2c83a"/><path d="M405.98,577.46c-.89-.54-1.97-.38-2.83,.23-1.32,.94-1.32,2.18-.64,3.53,.95,1.87,1.88,3.75,2.82,5.62,.5-2.37,.39-4.33,.95-6.27,.32-1.1,1.04-2.28-.29-3.1Z" fill="#edc238"/><path d="M473.91,585.12s.01,.02,.02,.03c0-.01,0-.03,0-.04,0,0-.02,.02-.02,.02Z" fill="#f4c93a"/><path d="M475.63,590.84l.27,.27c-.08-2.18-.53-4.24-1.97-5.96-.02,1.31-.04,2.62-.06,3.93h0c.59,.59,1.18,1.17,1.77,1.76Z" fill="#f4c93a"/></svg>