<?xml version="1.0" encoding="UTF-8"?><svg id="_레이어_1" xmlns="http://www.w3.org/2000/svg" viewBox="0 0 192 192"><path d="M185.91,104.56c-.18-3.36-.31-6.72-.68-10.06-.61-5.45-1.18-10.93-2.21-16.31-.83-4.37-2.56-8.53-4.1-12.72-4.06-10.97-9.21-21.27-17.8-29.51-3.34-3.21-6.68-6.43-9.88-9.77-2.09-2.18-3.23-5.4-6.79-5.87-6.74-4.98-14.55-7.71-22.44-9.95-11.43-3.24-23.12-4.04-34.94-1.92-8.1,1.46-15.87,3.86-23.25,7.43-1.53,.74-2.34,1.07-2.99-.78-.24-.69-.77-1.29-1.24-1.88-1.8-2.29-4.06-2.8-6.6-1.33-2.55,1.47-4.67,3.46-5.98,6.14-1.58,3.22-3.38,6.35-4.15,9.91-.1,.44-.08,.94-.71,1.05-1.46,.24-2.45,1.27-3.49,2.18-6.42,5.58-12.01,11.9-17.11,18.69-8.36,11.16-13.35,23.64-14.79,37.5-.69,6.64-1.11,13.34-.43,19.97,1.01,9.82,3.33,19.38,7.01,28.59,2.21,5.53,5.06,10.68,8.46,15.53,8.1,11.55,19.74,18.79,31.77,25.37,5,2.74,10.73,3.94,16.29,5.35,5.71,1.45,11.57,1.76,17.41,2.11,4.86,.29,9.74,.56,14.61,.32,3.87-.2,7.73-.55,11.84-.85,0,.01-.01,.02-.02,.03,.77-.09,1.54-.15,2.32-.16,.05,0,.1,0,.14,.01,.21-.13,.47-.17,.71-.21,1.99-.34,3.98-.66,6.21-1.01,1.89-.4,3.93-1.03,5.89-1.25,1.11-.39,2.21-.8,3.3-1.2,.35-.13,.69-.27,1.04-.4,.44-.25,.89-.53,1.35-.73,.33-.15,.59-.21,.78-.14,1.04-.42,2.09-.8,3.17-1.06,2.11-.74,4.25-1.49,6.59-2.31,0,.02,0,.04,0,.06,.12-.1,.25-.19,.38-.28,.22-.2,.48-.36,.76-.45,.4-.26,.87-.44,1.42-.63,.23-.08,.44-.17,.66-.26,.48-.26,.98-.53,1.46-.76,.54-.3,1.08-.59,1.66-.8,.23-.08,.45-.15,.67-.21,.77-.59,1.6-1.09,2.46-1.55,.3-.16,.59-.23,.87-.23,.02-.01,.04-.03,.06-.04,.58-.38,1.22-.72,1.84-1.08,.41-.31,.83-.58,1.27-.81,.2-.16,.4-.32,.61-.49,.08-.07,.16-.14,.24-.22,.23-.23,.47-.37,.72-.45,.03-.03,.05-.05,.08-.08,.12-.11,.26-.22,.4-.32,.44-.45,.86-.93,1.35-1.32,0,0,.02-.01,.03-.02-.02,0-.03,0-.05-.02,.26-.28,.41-.45,.57-.6,8.58-8.37,14.95-18.19,18.46-29.64,3.04-9.93,5.35-20.05,4.79-30.58ZM39.57,34.34c.78-.57,1.5-1.2,2.58-2.06-.49,4.54-.11,8.59,.88,12.59-3.14,.51-3.09,.51-3.33-2.5-.16-2.01-.36-4.04-.81-6-.23-.99-.04-1.49,.69-2.03ZM12.92,124.7c-1.55-5.65-2.65-11.38-3.45-17.17-.8-5.84,.04-11.69-.08-17.52-.13-5.93,2.06-11.24,3.64-16.74,1.62-5.65,3.84-11.06,6.9-16.07,3.03-4.98,6.22-9.86,10.65-14.29,2.14,33.52-1.06,65.98-10.9,97.93-2.65-5.32-5.21-10.49-6.76-16.14Zm8.34,19.71c-.1-.18-.18-.5-.09-.63,2.01-3.04,2.06-6.68,3.06-10.02,2.6-8.65,4.55-17.46,5.9-26.4,1.29-8.53,2.5-17.1,2.86-25.71,.45-10.82,.93-21.66,.08-32.49-.18-2.31-.41-4.61-.68-6.91-.1-.9,.15-1.54,.82-2.14,1.33-1.18,2.61-2.42,4.26-3.97,.33,6.05,.79,11.51,.81,17.01,.06,10.62-.57,21.22-1.18,31.8-.61,10.57-1.19,21.18-3.04,31.63-1.43,8.08-2.75,16.21-5.25,24.06-1.05,3.3-2.33,6.52-3.02,10.3-2.07-2.13-3.32-4.33-4.54-6.54Zm111.31,32.78c-3.26,1.51-6.76,1.94-10.24,2.54-5.32,.91-10.7,1.2-16.06,1.7-.93,.09-1.84-.04-2.76-.22-2.58-.5-5.16-.36-7.78-.17-5.21,.39-10.45,.02-15.63-.44-4.05-.36-8.05-1.59-12.02-2.65-7.92-2.1-15.66-4.81-22.55-9.32-6.35-4.16-12.48-8.68-17.54-14.44-.65-.74-1.62-1.44-.12-2.34,.3-.18,.49-.66,.58-1.04,1.89-7.81,4.74-15.35,6.21-23.29,1.85-9.97,3.23-19.98,4.05-30.09,1.06-13.19,1.44-26.39,1.32-39.61,0-.21,.02-.41,.33-.8,.06,.16,.12,.31,.18,.47,1.53,3.86,4.48,6.59,7.5,9.21,1.05,.91,.92,1.38,.15,2.3-.96,1.15-1.79,2.43-2.55,3.72-1.16,1.98-1.01,2.88,.81,4.35,2.47,1.99,5.48,2.95,8.34,4.18,.51,.22,1.05,.35,1.69,.55-.77,.87-1.65,.86-2.49,.77-7.23-.78-9.43,6.61-7.04,11.47,5.53,11.21,14.81,17.15,26.86,19.21,2.34,.4,4.68,.79,7.04,1.02,4.17,.42,8.32,.12,12.45-.6,4.1-.72,8.23-1.3,12.19-2.69,1.98-.7,3.93-1.45,5.63-2.67,1.25-.9,1.99-1.02,2.48,.71,.32,1.13,1.07,2.04,2.2,2.57,.78,.37,1.5,.36,2.01-.37,.51-.72,.37-1.48-.28-2.03-1.92-1.6-1.95-3.98-2.57-6.11-.21-.71,.23-1.24,.86-1.54,.63-.3,1.29-.51,1.93-.77,1.51-.6,1.89-1.63,1.01-3-1-1.56-2.02-3.11-3.16-4.58-1.59-2.05-2.36-4.32-2.45-6.89-.05-1.27,.41-2.08,1.53-2.64,2.13-1.05,4.25-2.12,6.34-3.26,2.72-1.48,5.19-3.3,7.3-5.57,.81-.88,1.45-.96,2.25-.09,.19,.21,.47,.34,.71,.49,3.72,2.27,7.9-.04,8.02-4.45,.02-.87,.02-1.74,0-2.61-.02-.88-.45-1.5-1.36-1.46-.81,.03-1.18,.64-1.21,1.43-.04,.92,0,1.87-.16,2.77-.43,2.34-2.04,3.03-3.97,1.73-.62-.42-1.19-.92-1.75-1.42-1.31-1.18-2.02-1.16-3.19,.17-5.2,5.93-11.99,9.18-19.4,11.24-3.02,.84-3.12,.66-3.58-2.41-.19-1.25-.11-2.54-.19-3.81-.07-1.12-.3-1.59-1.73-1.15-4.31,1.31-8.39,3.21-12.77,4.37-6.26,1.65-12.51,2.23-18.91,1.48-2.87-.33-5.77-.32-8.62-.93-4.62-.98-8.89-2.87-13.13-4.89-1.19-.56-1.28-1.28-.56-2.31,.86-1.23,1.62-2.54,2.48-3.78,1.22-1.77,1.2-2.42-.33-3.88-1.22-1.16-2.51-2.24-3.72-3.4-3.7-3.55-6.16-7.77-6.83-12.92-.11-.84-.46-1.79,.79-2.12,1.18-.31,2.37-.76,3.22,.67,1.89,3.2,4.51,5.57,7.96,6.99,.64,.26,1.31,.51,1.98,.6,1.65,.22,2.23-.33,2.37-2.1,0,0,0,0,0,0-.57-.78-1.4-1.12-2.27-1.43-5.43-1.97-8.38-5.86-9.16-11.57-1.09-7.99,1.28-15.11,5.3-21.82,.95-1.58,2.3-2.88,3.92-3.88,1.32-.82,2.3-.55,3.1,.66,.63,.97,1.3,1.94,1.74,3,2.25,5.46,4.4,10.96,6.64,16.42,.77,1.87,.8,3.98,1.94,5.72,.47,.31,.33,.8,.37,1.23,.07,.91,.53,1.18,1.38,.85h0c.96-2.8-.11-5.43-.99-7.94-1.59-4.53-3.47-8.96-5.34-13.38-.59-1.39-.47-2.07,1.01-2.71,9.3-4.02,18.86-6.83,29.04-7.72,9.44-.82,18.68,.22,27.66,2.73,6.52,1.82,13.12,3.88,18.84,7.84,.47,.32,1.06,.49,1.41,1.23-4.15,2.05-7.73,4.97-11.51,7.61-6.32,4.43-11.48,10.06-16.64,15.71-.27,.3-.5,.64-.69,1-.37,.67-.77,1.5-.15,2.09,.66,.63,1.23-.2,1.82-.5,0,0,0,0,0,0,0,0,0,0,0,0,5.77-6.21,12.05-11.83,18.93-16.78,2.96-2.13,5.84-4.36,9.11-6.02,.36-.18,.71-.39,1.08-.54,2.76-1.16,3.46-.9,4.72,1.8,.93,1.99,2.02,3.93,2.71,6.01,2.39,7.16,2.37,14.08-3.18,19.92-2.82,2.97-6.69,4.23-10.57,5.27-2.19,.59-4.44,.72-6.69,.84,0,0,0,0,0,0,0,0,0,0,0,0-.64,.52-1.33,1.05-.92,2.01,.38,.88,1.22,1.01,2.05,.99,5.44-.14,10.47-1.71,15.12-4.46,8.63-5.12,10.28-15.76,7.26-25.08-.07-.22-.15-.44-.22-.66,0,0,0,0,0,0-.38-.35-.62-.76-.53-1.32,.49,.18,.76,.51,.9,.95,5.04,5.3,9.79,10.83,13.64,17.09,.63,1.03,.61,1.71-.1,2.61-2.72,3.47-5.35,7-8.08,10.46-8.99,11.37-15.9,23.95-21.03,37.45-2.13,5.6-3.34,11.56-4.98,17.35-2.1,7.4-2.75,15-3.89,22.54-1.55,10.31-.79,20.43,1.9,30.44,.57,2.12,1.26,4.21,2.02,6.28,.36,.98,.16,1.4-.77,1.83ZM56.99,85.53c-.91-.88-.29-1.09,.41-1.36,1.13-.43,1.97-1.32,3.49-1.08,2.16,.34,3.72,.78,3.38,3.4-.03,.21,.09,.45,.17,.67,.71,1.95,2.08,3.05,3.49,2.81,1.56-.26,2.84-1.93,2.71-3.95-.09-1.31,.33-1.41,1.48-1.42,3.29-.04,6.61,.35,9.88-.24,1.12-.2,1.36,.15,1.34,1.23-.03,1.69,.6,3.16,1.94,4.29,2.42,2.04,5.71,1.09,6.63-1.96,.48-1.58,.63-3.2,.27-4.81-.16-.71-.05-.99,.62-1.3,1.52-.71,3.02-1.49,4.45-2.35,1.54-.93,3.27-.48,4.87-.93,.18,1.79,.3,3.52,.56,5.23,.31,2.04,1.14,2.56,3.11,2.12,.23-.05,.45-.1,.68-.14,1.26-.2,2.7-.87,3.72-.46,1.28,.51,.38,2.2,.58,3.36,.55,3.18,2.16,5.82,3.91,8.41,.56,.83,.91,1.38-.37,1.9-1.75,.72-2.56,2.16-2.28,4.05,.2,1.3-.38,1.93-1.41,2.6-4.14,2.67-8.78,3.76-13.52,4.68-5.76,1.12-11.54,2.21-17.4,1.28-6.91-1.09-13.91-2.28-19.83-6.32-4.59-3.13-8.14-7.35-10.45-12.49h0s0,0,0,0c-.34-.24-.63-.72-.38-.93,.39-.33,.61,.21,.83,.49h0c2.06,.34,6.8-2.26,7.48-4.16,.32-.9,.37-1.93-.35-2.62Zm84.85,88.06c-1.62,.43-3.19,1.03-4.76,1.63-.8,.3-1.11,.23-1.44-.7-2.47-6.97-3.89-14.1-4.45-21.51-.55-7.27,.89-14.29,1.65-21.41,1.12-10.54,4.37-20.58,7.33-30.67,1.81-6.16,4.8-11.92,7.8-17.6,4.88-9.25,10.74-17.87,17.21-26.08,1.43-1.81,2.67-3.76,4.15-5.86,1.06,2.29,2.02,4.4,3.01,6.49,.3,.63,.37,1.09-.21,1.68-10.01,10.35-16.42,22.88-21.78,36.04-3.08,7.56-5.86,15.28-7.68,23.21-2.75,11.94-3.83,24.11-3.05,36.39,.35,5.51,1.52,10.88,3.25,16.11,.4,1.2,.39,1.9-1.02,2.27Zm38.82-50.16c-1.9,8.81-4.61,17.35-9.5,25.04-5.18,8.16-11.25,15.46-19.58,20.63-1.47,.92-2.83,2.01-4.49,2.63-.82,.31-1.2,.27-1.48-.66-1.6-5.15-2.78-10.38-3.24-15.78-.45-5.39-.54-10.81,.06-16.15,.98-8.71,1.79-17.46,4.58-25.92,2.89-8.75,5.76-17.5,9.65-25.86,4.26-9.17,9.46-17.8,15.88-25.65,.24-.3,.39-.73,.86-.81,3.76,7.96,5.77,16.34,7.36,24.83,.74,3.93,.73,7.95,1.14,11.92,.89,8.66,.55,17.27-1.27,25.76Z" fill="#322625"/><path d="M132.57,177.2c.93-.43,1.13-.86,.77-1.83-.76-2.06-1.45-4.16-2.02-6.28-2.69-10.01-3.46-20.14-1.9-30.44,1.14-7.54,1.79-15.15,3.89-22.54,1.64-5.79,2.85-11.74,4.98-17.35,5.13-13.5,12.04-26.08,21.03-37.45,2.73-3.46,5.36-6.99,8.08-10.46,.71-.9,.73-1.58,.1-2.61-3.85-6.26-8.6-11.79-13.64-17.09-.13,.12-.25,.25-.38,.37,0,0,0,0,0,0,.07,.22,.15,.44,.22,.66,3.02,9.32,1.37,19.96-7.26,25.08-4.65,2.76-9.69,4.32-15.12,4.46-.84,.02-1.67-.11-2.05-.99-.42-.96,.28-1.49,.92-2.01,0,0,0,0,0,0-.07-.05-.15-.08-.24-.1,0,0,0,0,0,0,0,0,0,0,0,0-.92,.01-1.84,.02-2.76,.04h0c.13,.83,.2,1.69-.78,2.04-1.01,.36-1.63-.27-2.15-1.03-1.32-1.91-2.75-3.72-4.34-5.4-1.27-1.35-2.52-2.68-4.31-3.4-.91-.36-1.79-.98-1.26-2.26h0c-.09-.13-.17-.26-.26-.39,0,0,0,0,0,0-.58,.3-1.16,1.13-1.82,.5-.62-.6-.22-1.42,.15-2.09,.19-.35,.42-.7,.69-1,5.16-5.65,10.32-11.28,16.64-15.71,3.77-2.64,7.36-5.55,11.51-7.61-.35-.73-.94-.9-1.41-1.23-5.72-3.95-12.32-6.01-18.84-7.84-8.98-2.51-18.22-3.56-27.66-2.73-10.17,.89-19.73,3.7-29.04,7.72-1.47,.64-1.6,1.32-1.01,2.71,1.87,4.42,3.75,8.85,5.34,13.38,.88,2.51,1.94,5.14,.99,7.94,.1,.41-.34,1.02,.59,1.09,.69,.05,1.11,.65,1.1,1.36,0,.72-.46,1.24-1.13,1.38-4.21,.85-6.98,3.68-9.54,6.83-.33,.4-.69,.88-1.27,.79-.71-.11-.52-.79-.64-1.27,0,0,0,0,0,0-.1,0-.2,0-.3,.03,0,0,0,0,0,0,0,0,0,0,0,0-.59,.2-1.17,.41-1.76,.61,0,0,0,0,0,0,0,0,0,0,0,0-.14,1.76-.72,2.31-2.37,2.1-.68-.09-1.34-.34-1.98-.6-3.44-1.42-6.07-3.8-7.96-6.99-.85-1.44-2.04-.99-3.22-.67-1.26,.33-.9,1.28-.79,2.12,.67,5.15,3.13,9.37,6.83,12.92,1.21,1.16,2.5,2.24,3.72,3.4,1.53,1.46,1.55,2.11,.33,3.88-.85,1.24-1.61,2.55-2.48,3.78-.72,1.03-.63,1.75,.56,2.31,4.23,2.01,8.5,3.91,13.13,4.89,2.85,.6,5.75,.59,8.62,.93,6.4,.74,12.65,.17,18.91-1.48,4.38-1.16,8.46-3.06,12.77-4.37,1.43-.44,1.66,.03,1.73,1.15,.08,1.27,0,2.56,.19,3.81,.46,3.07,.55,3.25,3.58,2.41,7.42-2.06,14.2-5.31,19.4-11.24,1.16-1.33,1.88-1.35,3.19-.17,.56,.5,1.13,1.01,1.75,1.42,1.93,1.3,3.55,.61,3.97-1.73,.16-.9,.12-1.84,.16-2.77,.04-.8,.4-1.4,1.21-1.43,.91-.04,1.34,.59,1.36,1.46,.02,.87,.03,1.74,0,2.61-.13,4.41-4.31,6.73-8.02,4.45-.25-.15-.52-.28-.71-.49-.8-.87-1.44-.78-2.25,.09-2.11,2.27-4.58,4.09-7.3,5.57-2.09,1.13-4.21,2.2-6.34,3.26-1.12,.56-1.58,1.36-1.53,2.64,.09,2.58,.86,4.85,2.45,6.89,1.13,1.46,2.16,3.02,3.16,4.58,.88,1.37,.49,2.41-1.01,3-.65,.26-1.31,.47-1.93,.77-.63,.3-1.06,.83-.86,1.54,.62,2.13,.66,4.51,2.57,6.11,.65,.55,.8,1.31,.28,2.03-.52,.72-1.23,.73-2.01,.37-1.13-.53-1.88-1.44-2.2-2.57-.48-1.74-1.23-1.61-2.48-.71-1.7,1.22-3.65,1.97-5.63,2.67-3.96,1.4-8.09,1.97-12.19,2.69-4.12,.72-8.28,1.02-12.45,.6-2.36-.24-4.7-.62-7.04-1.02-12.05-2.06-21.33-8.01-26.86-19.21-2.4-4.86-.2-12.25,7.04-11.47,.84,.09,1.72,.11,2.49-.77-.64-.21-1.18-.33-1.69-.55-2.86-1.23-5.87-2.2-8.34-4.18-1.82-1.47-1.97-2.36-.81-4.35,.76-1.3,1.59-2.57,2.55-3.72,.77-.92,.89-1.4-.15-2.3-3.02-2.62-5.97-5.35-7.5-9.21-.06-.16-.12-.31-.18-.47-.31,.39-.33,.6-.33,.8,.12,13.22-.26,26.42-1.32,39.61-.82,10.12-2.2,20.12-4.05,30.09-1.47,7.94-4.32,15.48-6.21,23.29-.09,.38-.28,.86-.58,1.04-1.5,.9-.53,1.6,.12,2.34,5.06,5.76,11.19,10.28,17.54,14.44,6.89,4.51,14.62,7.22,22.55,9.32,3.97,1.05,7.97,2.29,12.02,2.65,5.18,.46,10.42,.82,15.63,.44,2.62-.19,5.2-.34,7.78,.17,.92,.18,1.83,.3,2.76,.22,5.36-.51,10.74-.79,16.06-1.7,3.48-.6,6.98-1.03,10.24-2.54Z" fill="#d3df61"/><path d="M147.04,113.24c-2.79,8.46-3.6,17.2-4.58,25.92-.6,5.33-.52,10.76-.06,16.15,.46,5.4,1.63,10.62,3.24,15.78,.29,.93,.66,.96,1.48,.66,1.66-.62,3.01-1.71,4.49-2.63,8.32-5.17,14.39-12.48,19.58-20.63,4.89-7.7,7.6-16.24,9.5-25.04,1.83-8.5,2.17-17.1,1.27-25.76-.41-3.97-.41-8-1.14-11.92-1.59-8.49-3.6-16.87-7.36-24.83-.47,.08-.62,.51-.86,.81-6.43,7.85-11.62,16.47-15.88,25.65-3.88,8.36-6.76,17.1-9.65,25.86Z" fill="#d3df61"/><path d="M30.58,42.91c-4.43,4.43-7.62,9.32-10.65,14.29-3.06,5.02-5.28,10.43-6.9,16.07-1.58,5.49-3.77,10.81-3.64,16.74,.12,5.83-.72,11.69,.08,17.52,.8,5.79,1.9,11.52,3.45,17.17,1.55,5.64,4.11,10.82,6.76,16.14,9.84-31.95,13.04-64.4,10.9-97.93Z" fill="#d3df61"/><path d="M49.87,92.32h0c-.15,.15-.3,.3-.45,.45h0c2.31,5.15,5.86,9.37,10.45,12.49,5.92,4.03,12.92,5.22,19.83,6.32,5.86,.93,11.64-.16,17.4-1.28,4.74-.92,9.38-2.01,13.52-4.68,1.04-.67,1.61-1.3,1.41-2.6-.29-1.89,.52-3.33,2.28-4.05,1.28-.53,.93-1.07,.37-1.9-1.75-2.59-3.36-5.24-3.91-8.41-.2-1.16,.7-2.85-.58-3.36-1.02-.41-2.46,.27-3.72,.46-.23,.04-.45,.09-.68,.14-1.96,.44-2.8-.09-3.11-2.12-.26-1.71-.37-3.44-.56-5.23-1.61,.45-3.34,0-4.87,.93-1.43,.87-2.93,1.64-4.45,2.35-.66,.31-.77,.59-.62,1.3,.36,1.61,.21,3.23-.27,4.81-.92,3.05-4.21,4-6.63,1.96-1.34-1.13-1.97-2.6-1.94-4.29,.02-1.08-.22-1.43-1.34-1.23-3.27,.58-6.59,.2-9.88,.24-1.14,.01-1.57,.11-1.48,1.42,.14,2.02-1.14,3.69-2.71,3.95-1.41,.23-2.78-.87-3.49-2.81-.08-.22-.2-.46-.17-.67,.34-2.62-1.22-3.06-3.38-3.4-1.52-.24-2.36,.66-3.49,1.08-.7,.27-1.32,.48-.41,1.36,.72,.7,.68,1.72,.35,2.62-.68,1.91-5.42,4.5-7.48,4.16Zm45.26,4.32c.48-.52,.93-.35,1.3,.12,.38,.49,.7,1.03,1.05,1.54,0,0,0,0,0,0,0-.84-.61-1.91,.67-2.31,.78-.25,2.71,1.37,2.72,2.26,.01,1.1-.67,1.52-1.7,1.36-.79-.12-1.23-.75-1.69-1.32,0,0,0,0,0,0h0c.05,.83-.24,1.52-1.12,1.66-.74,.12-1.09-.51-1.37-1.09-.37-.77-.5-1.54,.15-2.24Zm-4.28,2.4c.03-.98,.28-1.96,1.42-1.97,.86-.01,.65,.89,.72,1.53-.1,.81-.06,1.78-1.29,1.79-.95,.01-.86-.73-.85-1.35Zm-25.07-3.3c0-.76,0-1.72,.97-1.7,.98,.02,1.1,1.01,1.16,1.67,.02,.94-.18,1.58-1.12,1.53-.94-.05-1.01-.77-1.01-1.5Zm-3.38-.41c.09-.8,.42-1.64,1.34-1.74,.67-.07,.65,.63,.69,1.02,0,.85-.09,1.54-1.02,1.59-.6,.04-1.07-.27-1-.88Zm-1.47-2.17c.52-.15,.99,.16,.95,.7-.07,.98-.55,1.73-1.5,2.01-.78,0-1.22-.32-1.18-1.03,.06-1.05,.87-1.44,1.72-1.68Z" fill="#fcead0"/><path d="M147.97,83.34c-3,5.69-5.98,11.44-7.8,17.6-2.97,10.08-6.21,20.13-7.33,30.67-.76,7.12-2.2,14.13-1.65,21.41,.56,7.4,1.98,14.54,4.45,21.51,.33,.93,.64,1.01,1.44,.7,1.57-.59,3.14-1.2,4.76-1.63,1.42-.37,1.42-1.07,1.02-2.27-1.74-5.23-2.9-10.6-3.25-16.11-.78-12.28,.3-24.46,3.05-36.39,1.82-7.93,4.6-15.64,7.68-23.21,5.36-13.16,11.77-25.69,21.78-36.04,.57-.59,.51-1.05,.21-1.68-.99-2.09-1.95-4.2-3.01-6.49-1.48,2.1-2.72,4.05-4.15,5.86-6.47,8.21-12.32,16.83-17.21,26.08Z" fill="#fff"/><path d="M34.07,116.59c1.85-10.45,2.43-21.06,3.04-31.63,.61-10.58,1.24-21.18,1.18-31.8-.03-5.5-.49-10.96-.81-17.01-1.65,1.55-2.93,2.79-4.26,3.97-.67,.59-.92,1.24-.82,2.14,.27,2.3,.49,4.6,.68,6.91,.85,10.83,.38,21.68-.08,32.49-.36,8.61-1.57,17.18-2.86,25.71-1.35,8.94-3.3,17.74-5.9,26.4-1,3.34-1.05,6.98-3.06,10.02-.09,.14-.01,.45,.09,.63,1.23,2.21,2.47,4.41,4.54,6.54,.69-3.79,1.97-7.01,3.02-10.3,2.5-7.85,3.82-15.97,5.25-24.06Z" fill="#fff"/><path d="M114.33,48.61s0,0,0,0c2.15,.21,3.96,1.22,5.71,2.4,.15-.15,.31-.31,.46-.46-.36-1.56,.2-2.82,1.2-3.98,4.13-4.81,9.38-8.23,14.6-11.67,1.3-.85,2.57-1.75,4.12-2.19,3.56-1.02,5.22,.72,6.5,3.79,.33,.8-.12,1.45-.7,2-.02,7.66-3.26,13.57-9.67,17.74-1.78,1.16-3.92,1.33-5.88,2.03-.26,.09-.58,.05-.73,.36,0,0,0,0,0,0,.09,.02,.17,.05,.24,.1,0,0,0,0,0,0,2.25-.13,4.5-.25,6.69-.84,3.89-1.04,7.75-2.29,10.57-5.27,5.55-5.85,5.57-12.76,3.18-19.92-.69-2.07-1.78-4.01-2.71-6.01-1.25-2.7-1.96-2.96-4.72-1.8-.37,.16-.72,.36-1.08,.54-3.27,1.66-6.15,3.89-9.11,6.02-6.89,4.95-13.17,10.57-18.93,16.78,0,0,0,0,0,0,.09,.13,.17,.26,.26,.39h0Z" fill="#fcead0"/><path d="M58.43,52.46s0,0,0,0c-3.66-.89-5.75-3.51-7.18-6.72-1.35-3.03-1.82-6.27-2.25-9.56-.41-3.16,0-6.21,.46-9.28,.11-.73,.48-1.42,.73-2.12-.17-1.65,.88-2.57,2.14-3.22,1.25-.64,2.08,.38,2.85,1.1,3.02,2.82,4.83,6.44,6.46,10.15,1.52,3.44,2.45,7.08,3.5,10.67,.13,.44,0,1.5,.86,1.01,.79-.44,2.42-.24,2.08-1.92-.16-.8-.26-1.59-.21-2.4h0c-1.14-1.74-1.18-3.85-1.94-5.72-2.24-5.46-4.39-10.96-6.64-16.42-.44-1.06-1.1-2.03-1.74-3-.79-1.21-1.78-1.48-3.1-.66-1.61,1.01-2.97,2.3-3.92,3.88-4.02,6.71-6.39,13.83-5.3,21.82,.78,5.71,3.73,9.6,9.16,11.57,.87,.32,1.71,.65,2.27,1.43,0,0,0,0,0,0,.59-.2,1.17-.41,1.76-.61Z" fill="#fcead0"/><path d="M68.09,42.58c.34,1.68-1.29,1.48-2.08,1.92-.87,.49-.74-.58-.86-1.01-1.05-3.6-1.99-7.24-3.5-10.67-1.63-3.71-3.45-7.33-6.46-10.15-.77-.72-1.6-1.74-2.85-1.1-1.26,.64-2.3,1.57-2.14,3.22,.06-.01,.11-.03,.17-.03,.96-.09,1.32-1.67,2.3-1.22,1.09,.5,1.72,1.7,2.33,2.73,2.96,4.94,4.97,10.27,6.5,15.81,.36,1.33,.53,2.73,1.35,3.9,.5,.71-.2,.89-.49,1.24-1.35,1.65-2.94,3.12-3.62,5.24h0s0,0,0,0c.11,.48-.07,1.16,.64,1.27,.58,.09,.94-.38,1.27-.79,2.56-3.15,5.33-5.98,9.54-6.83,.67-.14,1.12-.66,1.13-1.38,0-.71-.41-1.31-1.1-1.36-.93-.07-.49-.68-.59-1.09h0c-.84,.33-1.3,.06-1.38-.85-.03-.44,.1-.92-.37-1.23h0c-.05,.81,.05,1.6,.21,2.4Z" fill="#322625"/><path d="M130.68,58.25c1.95-.69,4.1-.87,5.88-2.03,6.41-4.17,9.65-10.09,9.67-17.74-1.2,.15-1.93-.4-2.47-1.45-1.08-2.09-2.2-2.55-4.14-1.38-5.54,3.34-10.81,7.05-15.53,11.51-1.19,1.13-1.32,2.57-1.93,3.88,0,0,0,0,0,0-.9,.63,.06,1.22,.04,1.83h0s0,0,0,0c1.85,1.76,3.54,3.67,5.01,5.77,0,0,0,0,0,0h0c.92-.01,1.84-.02,2.76-.04,0,0,0,0,0,0,.15-.31,.47-.26,.73-.36Z" fill="#f2a7a9"/><path d="M62.35,47.19c.29-.35,.99-.54,.49-1.24-.83-1.16-.99-2.57-1.35-3.9-1.52-5.53-3.54-10.87-6.5-15.81-.62-1.03-1.24-2.22-2.33-2.73-.98-.45-1.34,1.13-2.3,1.22-.06,0-.11,.02-.17,.03-.25,.71-.62,1.4-.73,2.12-.47,3.07-.87,6.12-.46,9.28,.42,3.29,.9,6.53,2.25,9.56,1.43,3.22,3.53,5.83,7.18,6.72,0,0,0,0,0,0,.1-.03,.2-.04,.3-.03h0c.68-2.11,2.27-3.59,3.62-5.24Z" fill="#f2a8a9"/><path d="M122.18,52.88s0,0,0,0c-.71-.63-1.43-1.25-2.14-1.88-1.75-1.17-3.56-2.19-5.71-2.4,0,0,0,0,0,0-.53,1.28,.35,1.89,1.26,2.26,1.8,.72,3.04,2.05,4.31,3.4,1.59,1.69,3.03,3.5,4.34,5.4,.52,.76,1.15,1.39,2.15,1.03,.98-.35,.91-1.21,.78-2.04,0,0,0,0,0,0-1.47-2.1-3.15-4.01-5.01-5.77Z" fill="#332725"/><polygon points="97.48 98.3 97.48 98.31 97.48 98.31 97.48 98.3 97.48 98.31 97.48 98.3" fill="#f3abab"/><path d="M99.18,99.62c1.02,.15,1.71-.27,1.7-1.36-.01-.89-1.94-2.51-2.72-2.26-1.28,.4-.68,1.47-.67,2.31,.47,.56,.91,1.2,1.69,1.32Z" fill="#f3abab"/><path d="M96.36,99.97c.88-.14,1.16-.83,1.12-1.67,0,0,0,.01,0,.01,0,0,0,0,0,0-.35-.52-.67-1.05-1.05-1.54-.37-.47-.82-.64-1.3-.12-.65,.7-.52,1.47-.15,2.24,.28,.58,.63,1.21,1.37,1.09Z" fill="#f4b2af"/><path d="M91.69,100.39c1.23-.02,1.2-.98,1.29-1.79-.07-.64,.14-1.54-.72-1.53-1.14,.01-1.4,1-1.42,1.97-.02,.62-.11,1.37,.85,1.35Z" fill="#f3abab"/><path d="M66.79,97.23c.94,.05,1.14-.59,1.12-1.53-.06-.66-.18-1.65-1.16-1.67-.97-.02-.96,.94-.97,1.7,0,.73,.06,1.45,1.01,1.5Z" fill="#f3abaa"/><path d="M60.4,95.87c.94-.28,1.43-1.03,1.5-2.01,.04-.54-.43-.85-.95-.7-.85,.25-1.66,.64-1.72,1.68-.04,.71,.4,1.03,1.18,1.03Z" fill="#f3adac"/><path d="M63.41,96.2c.93-.06,1.01-.75,1.02-1.59-.03-.39-.02-1.09-.69-1.02-.92,.09-1.25,.94-1.34,1.74-.07,.61,.41,.92,1,.88Z" fill="#f3aead"/><path d="M122.14,51.05c.61-1.31,.74-2.75,1.93-3.88,4.73-4.46,10-8.17,15.53-11.51,1.94-1.17,3.06-.71,4.14,1.38,.54,1.05,1.28,1.6,2.47,1.45,.58-.55,1.04-1.19,.7-2-1.28-3.07-2.94-4.81-6.5-3.79-1.55,.44-2.82,1.34-4.12,2.19-5.22,3.44-10.47,6.86-14.6,11.67-1,1.16-1.56,2.43-1.2,3.98,.48,.38,1.01,.59,1.64,.5Z" fill="#322625"/><path d="M122.18,52.88h0c.02-.61-.94-1.2-.04-1.83,0,0,0,0,0,0-.62,.09-1.16-.12-1.64-.5-.15,.15-.31,.31-.46,.46,.71,.63,1.43,1.25,2.14,1.88Z" fill="#d4bca9"/></svg>